<svg width="67" height="100" viewBox="0 0 67 100" fill="none" xmlns="http://www.w3.org/2000/svg">
<path fill-rule="evenodd" clip-rule="evenodd" d="M24.8799 2.04585C24.8799 0.91596 25.8417 0 26.9533 0C28.0983 0 29.0266 0.926744 29.0266 2.11487V22.8882C29.0325 23.2951 28.92 23.708 28.6784 24.0723L20.7333 36.0475V93.7465C20.7333 97.2002 17.9725 100 14.5134 100C11.0782 100 8.29346 97.1976 8.29346 93.7465V36.0475L0.348432 24.0723C0.10677 23.708 -0.00567838 23.2951 0.000220338 22.8882V2.11487C0.000220338 0.946859 0.961961 0 2.07353 0C3.21859 0 4.14684 0.949502 4.14684 2.04585V16.6667C4.14684 18.9679 6.00335 20.8333 8.29346 20.8333C10.5836 20.8333 12.4401 18.9679 12.4401 16.6667V2.07374C12.4401 0.928447 13.4018 0 14.5134 0C15.6585 0 16.5867 0.895182 16.5867 2.07374V16.6667C16.5867 18.9679 18.4432 20.8333 20.7333 20.8333C23.0234 20.8333 24.8799 18.9679 24.8799 16.6667V2.04585ZM43.3562 45.57C44.0104 45.5307 52.7147 38.3555 49.1128 14.2639C58.2508 37.0814 45.613 50 45.613 50V95.823C45.613 98.1299 47.4536 100 49.7597 100C52.0498 100 53.9063 98.1355 53.9063 95.8396V45.8333C61.4197 45.0664 66.3462 41.723 66.3462 31.25C66.3462 22.8389 63.6533 7.68534 41.8916 0C43.9649 18.8588 33.1732 18.5935 33.1732 31.25C33.1732 41.5251 38.9821 45.8333 43.3562 45.57Z" fill="black"/>
</svg>
