<?xml version="1.0" encoding="utf-8"?><!DOCTYPE svg PUBLIC "-//W3C//DTD SVG 1.1//EN" "http://www.w3.org/Graphics/SVG/1.1/DTD/svg11.dtd"><svg version="1.1" xmlns:rdf="http://www.w3.org/1999/02/22-rdf-syntax-ns#" xmlns:dc="http://purl.org/dc/elements/1.1/" xmlns:cc="http://creativecommons.org/ns#" xmlns:svg="http://www.w3.org/2000/svg" xmlns="http://www.w3.org/2000/svg" xmlns:xlink="http://www.w3.org/1999/xlink" x="0px" y="0px" viewBox="15.841 0 68.318 125" enable-background="new 15.841 0 68.318 100" xml:space="preserve"><path d="M84.159,31.193l-5.305-4.745l2.233-6.769l-6.629-2.582L74.25,9.979L67.132,9.77L64.48,3.14l-6.77,2.233L52.965,0
	l-5.582,4.466l-6.28-3.419l-3.699,6.072l-7.118-1.047l-1.396,6.978l-6.979,1.466l1.046,7.048l-6.141,3.768l3.419,6.28l-4.396,5.583
	l5.373,4.676l-2.303,6.769l6.63,2.652l0.209,7.117l7.118,0.21l2.582,6.63l6.769-2.233l4.745,5.373l5.653-4.536l6.28,3.42
	l3.699-6.071l7.047,1.047l1.396-6.979l7.048-1.396l-1.046-7.048l6.07-3.768l-3.419-6.281L84.159,31.193z M62.247,50.594H37.543
	v-2.303c0.599-0.041,1.483-0.118,2.792-0.279c1.308-0.161,2.242-0.329,2.722-0.489c0.599-0.199,1.056-0.498,1.396-0.977
	c0.339-0.479,0.559-1.185,0.559-2.023V25.541h-7.607V22.68h1.605c1.738,0,3.268-0.178,4.536-0.558
	c1.269-0.38,2.301-0.856,3.14-1.396c0.859-0.559,1.614-1.076,2.163-1.675c0.55-0.599,0.937-1.145,1.256-1.605h5.234
	c-0.06,1.298-0.08,2.799-0.141,4.536c-0.059,1.738-0.068,3.297-0.068,4.675v17.516c0,0.719,0.108,1.354,0.418,1.884
	s0.816,0.977,1.396,1.256c0.52,0.239,1.364,0.428,2.582,0.628c1.219,0.199,2.142,0.309,2.722,0.349V50.594z"/><polygon points="63.782,64.062 59.665,70.83 52.688,67.062 46.476,71.947 41.242,66.016 33.706,68.598 30.774,61.131 27.495,61.062 
	27.495,61.061 16.26,90.3 32.868,87.509 41.521,100 48.57,81.856 54.222,98.047 63.293,85.834 79.832,89.045 71.389,65.178 "/></svg>