<svg width="419" height="381" viewBox="0 0 419 381" fill="none" xmlns="http://www.w3.org/2000/svg">
<path d="M306.115 380.575C262.297 374.572 226.72 332.832 187.242 306.785C178.446 300.98 169.225 295.869 159.477 294.355C127.184 289.338 97.4067 324.104 64.9629 321.265C38.6676 318.964 16.3677 291.087 6.90692 258.297C-2.5539 225.506 -1.10273 188.83 4.15067 154.409C12.3771 100.654 30.6014 47.7711 62.3244 12.8069C67.5589 7.03534 73.4059 1.63629 80.1294 0.325426C91.3335 -1.88607 101.722 7.61534 111.419 15.4711C155.18 50.9399 210.503 59.9462 259.362 39.557C275.909 32.6538 291.735 22.5818 308.669 17.6118C341.277 8.05857 378.178 20.1298 400.318 53.4484C422.458 86.767 426.057 141.531 404.964 176.047C396.158 190.453 384.021 200.624 374.777 214.524C351.549 249.418 360.124 284.698 362.998 325.618C365.829 365.939 331.713 384.078 306.115 380.575Z" fill="#9B9B9B"/>
</svg>
