<svg width="473" height="388" viewBox="0 0 473 388" fill="none" xmlns="http://www.w3.org/2000/svg">
<path d="M369.226 87.3055C374.347 90.9604 379.372 95.361 381.4 101.31C382.89 105.687 382.605 110.424 382.301 115.029L378.694 170.006C377.888 182.257 377.121 194.856 380.872 206.552C387.335 226.702 405.694 240.276 418.539 257.102C439.586 284.675 444.335 326.808 421.862 353.218C411.964 364.752 398.139 372.217 383.052 374.174C374.206 375.283 365.249 374.433 356.375 373.58C282.059 366.326 207.964 357.15 134.09 346.052C125.319 344.732 116.317 343.305 108.684 338.827C98.1391 332.646 91.5258 321.386 87.5056 309.855C83.4854 298.324 81.5865 286.153 77.8869 274.52C70.3065 250.763 55.4169 230.167 42.9584 208.576C36.0876 196.679 29.8438 184.217 26.9393 170.798C22.321 149.47 27.0036 125.815 41.2756 109.294C47.4417 102.153 55.2862 96.3234 59.9557 88.1282C66.4781 76.6677 65.7203 62.691 66.4147 49.5262C67.1092 36.3614 70.4644 21.6936 81.6732 14.7293C87.8594 10.8874 95.4448 10.0997 102.733 10.0663C137.626 9.91146 170.564 24.6503 203.522 36.1097C232.6 46.2425 262.45 53.9105 292.414 60.8957C319.012 67.1036 346.452 71.0513 369.226 87.3055Z" fill="#91CF66"/>
</svg>
