<svg width="412" height="365" viewBox="0 0 412 365" fill="none" xmlns="http://www.w3.org/2000/svg">
<path d="M344.226 77.3055C349.347 80.9605 354.372 85.361 356.4 91.3097C357.89 95.687 357.605 100.424 357.301 105.029L353.694 160.006C352.888 172.257 352.121 184.856 355.872 196.552C362.335 216.702 380.694 230.276 393.539 247.102C414.586 274.676 419.335 316.808 396.862 343.218C386.964 354.752 373.139 362.217 358.052 364.174C349.206 365.284 340.249 364.433 331.375 363.58C257.059 356.326 182.964 347.15 109.09 336.052C100.319 334.732 91.3171 333.305 83.684 328.827C73.1391 322.646 66.5258 311.386 62.5056 299.855C58.4854 288.324 56.5865 276.153 52.8869 264.52C45.3064 240.763 30.4169 220.167 17.9584 198.576C11.0876 186.679 4.84375 174.217 1.93925 160.798C-2.67903 139.47 2.00354 115.815 16.2755 99.2937C22.4417 92.1528 30.2862 86.3234 34.9556 78.1283C41.4781 66.6677 40.7202 52.691 41.4147 39.5262C42.1091 26.3615 45.4643 11.6937 56.6732 4.72936C62.8594 0.887431 70.4448 0.0997928 77.7334 0.0663961C112.626 -0.0884892 145.564 14.6504 178.522 26.1098C207.6 36.2426 237.45 43.9105 267.414 50.8958C294.011 57.1036 321.452 61.0514 344.226 77.3055Z" fill="#91CF66"/>
</svg>
