<svg xmlns="http://www.w3.org/2000/svg" xmlns:xlink="http://www.w3.org/1999/xlink" version="1.1" x="0px" y="0px" viewBox="0 0 144.083 180" enable-background="new 0 0 144.083 144" xml:space="preserve"><path d="M102.292,35.875H43.708c-4.319,0-7.833,3.514-7.833,7.833v58.584c0,4.319,3.514,7.833,7.833,7.833h58.583  c4.32,0,7.834-3.514,7.834-7.833V43.708C110.125,39.389,106.612,35.875,102.292,35.875z M71.5,107.125H43.708  c-2.665,0-4.833-2.168-4.833-4.833V74.5H71.5V107.125z M71.5,71.5H38.875V43.708c0-2.665,2.168-4.833,4.833-4.833H71.5V71.5z   M107.125,102.292c0,2.665-2.168,4.833-4.834,4.833H74.5V74.5h32.625V102.292z M107.125,71.5H74.5V38.875h27.791  c2.666,0,4.834,2.168,4.834,4.833V71.5z"/><polygon points="53.521,64.251 56.521,64.251 56.521,56.751 64.021,56.751 64.021,53.751 56.521,53.751 56.521,46.251   53.521,46.251 53.521,53.751 46.021,53.751 46.021,56.751 53.521,56.751 "/><polygon points="49.718,98.093 55.021,92.789 60.325,98.093 62.446,95.972 57.143,90.668 62.446,85.364 60.325,83.243   55.021,88.547 49.718,83.243 47.597,85.364 52.9,90.668 47.597,95.972 "/><rect x="82.188" y="53.751" width="18" height="3"/><rect x="82.188" y="84.653" width="18" height="3"/><rect x="82.188" y="93.684" width="18" height="3"/></svg>