<svg xmlns="http://www.w3.org/2000/svg" xmlns:xlink="http://www.w3.org/1999/xlink" version="1.1" x="0px" y="0px" viewBox="0 0 100 125" enable-background="new 0 0 100 100" xml:space="preserve"><polygon fill="#000000" points="36.516,14.304 42.083,29.052 48.05,28.148 42.483,13.4 "/><polygon fill="#000000" points="48.45,12.497 54.017,27.245 59.798,26.369 54.23,11.621 "/><polygon fill="#000000" points="60.197,10.717 65.765,25.465 72.105,24.505 66.537,9.757 "/><polygon fill="#000000" points="24.768,16.084 30.336,30.831 36.116,29.956 30.549,15.208 "/><path fill="#000000" d="M18.845,16.994l-1.817,0.262c-2.281,0.346-3.856,2.44-3.517,4.678l1.695,11.19l9.163-1.388l-5.41-14.33  L18.845,16.994z"/><path fill="#000000" d="M83.359,22.8l-1.695-11.19c-0.339-2.238-2.463-3.772-4.744-3.426l-4.416,0.669l5.567,14.748L83.359,22.8z"/><polygon fill="#000000" points="54.405,34.296 51.367,48.497 57.214,48.497 60.251,34.296 "/><polygon fill="#000000" points="42.334,34.296 39.297,48.497 45.332,48.497 48.37,34.296 "/><polygon fill="#000000" points="15.224,34.296 15.224,48.497 21.38,48.497 24.417,34.296 "/><polygon fill="#000000" points="30.453,34.296 27.415,48.497 33.262,48.497 36.299,34.296 "/><polygon fill="#000000" points="66.286,34.296 63.249,48.497 69.661,48.497 72.699,34.296 "/><polygon fill="#000000" points="84.155,34.296 78.734,34.296 75.697,48.497 84.155,48.497 "/><g><path fill="#000000" d="M15.224,49.684v38.082c0,2.263,1.87,4.098,4.178,4.098h60.575c2.307,0,4.178-1.835,4.178-4.098V49.684   H15.224z M47.587,79.857V61.476l10.748,9.19L47.587,79.857z"/></g></svg>