<svg xmlns="http://www.w3.org/2000/svg" xmlns:xlink="http://www.w3.org/1999/xlink" version="1.1" x="0px" y="0px" viewBox="0 0 50 62.5" enable-background="new 0 0 50 50" xml:space="preserve"><g><path d="M46.5,11.2H17.3v2.2h29.1c0.3,0,0.5,0.3,0.5,0.6v18.9H17.3v4.4h9.8v3.2h-1.3c-1.5,0-2.7,1.2-2.7,2.7v0.2h13.9v-0.2   c0-1.5-1.2-2.7-2.7-2.7h-1.3v-3.2h13.7c1.4,0,2.5-1.1,2.5-2.5v-21C49,12.3,47.9,11.2,46.5,11.2z M30,34c0.6,0,1.1,0.5,1.1,1.1   c0,0.6-0.5,1.1-1.1,1.1c-0.6,0-1.1-0.5-1.1-1.1C28.9,34.4,29.4,34,30,34z"/><path d="M13.1,6.6h-10C2,6.6,1,7.6,1,8.8v31.5c0,1.2,1,2.2,2.2,2.2h10c1.2,0,2.2-1,2.2-2.2c0-8.5,0-9,0-26.9v-2.2V8.8   C15.3,7.6,14.3,6.6,13.1,6.6z M3.1,17.2c-0.4,0-0.7-0.3-0.7-0.7v-0.8c0-0.4,0.3-0.7,0.7-0.7h7.8h2.2h0.1c0.4,0,0.7,0.3,0.7,0.7v0.8   c0,0.4-0.3,0.7-0.7,0.7h-0.1h-2.2H3.1z M5.4,35c-1.2,0-2.1-0.9-2.1-2.1c0-1.2,0.9-2.1,2.1-2.1c1.1,0,2.1,0.9,2.1,2.1   C7.5,34,6.6,35,5.4,35z M13.8,11.3v0.8c0,0.4-0.3,0.7-0.7,0.7H11H3.1c-0.4,0-0.7-0.3-0.7-0.7v-0.8c0-0.4,0.3-0.7,0.7-0.7h10   c0.4,0,0.7,0.3,0.7,0.6C13.8,11.3,13.8,11.3,13.8,11.3z"/></g></svg>