<svg width="69" height="100" viewBox="0 0 69 100" fill="none" xmlns="http://www.w3.org/2000/svg">
<path d="M33.2062 0C27.4264 0 23.0591 3.84075 20.303 9.50947C18.2799 13.6707 17.0107 18.8689 16.4861 24.5385L5.27183 25.27C4.20789 25.3349 3.27651 26.2826 3.24515 27.3315L2.16426 80.465L0.0700316 87.7135C-0.249528 88.8373 0.562993 90.1432 1.72515 90.3736L47.1226 99.9496C47.572 100.049 48.0532 100.001 48.4738 99.8166L66.8489 91.3045C67.678 90.9188 68.1957 89.9703 68.0649 89.0769L67.0178 81.7618L62.6943 26.4338C62.6099 25.3761 61.6102 24.4688 60.5325 24.472H54.6213L50.7707 22.5768C50.6756 16.4277 50.106 11.1518 48.4738 7.18202C46.6751 2.80734 43.3387 0 38.3404 0C37.4379 0 36.5803 0.178694 35.807 0.4988C35.0354 0.165077 34.1717 0 33.2062 0ZM33.4426 2.12798C33.1577 2.41554 32.8792 2.7285 32.6319 3.05903C31.2627 4.88903 30.3402 7.29975 29.6933 9.97496C28.6372 14.3423 28.313 19.3858 28.2746 23.7405L18.6817 24.3722C19.2156 19.0219 20.4327 14.1701 22.2621 10.4072C25.1854 4.7705 28.6631 2.23628 33.4426 2.12798ZM46.4809 7.97995C47.9102 11.4565 48.5002 16.458 48.6089 22.4105L39.3875 23.009C39.7351 19.1454 40.1432 15.1395 40.1644 11.571C40.1826 8.50947 39.954 5.76774 38.9484 3.62412C38.697 3.08838 38.3746 2.60148 38.0026 2.16116C42.7064 2.22712 45.3048 4.32953 46.4809 7.97995ZM35.807 2.89274C36.2902 3.28359 36.6603 3.82082 36.9893 4.52199C37.7465 6.13582 38.02 8.61421 38.0026 11.5377C37.9816 15.0557 37.5457 19.1553 37.1919 23.1752L30.4364 23.6075C30.4921 19.3827 30.8436 14.5168 31.8213 10.4738C32.4286 7.96191 33.261 5.78416 34.3546 4.32246C34.8056 3.71969 35.2874 3.24732 35.807 2.89274ZM47.5618 26.6998V59.185C46.5837 58.6119 45.4764 58.2873 44.3191 58.2873C40.2678 58.2873 36.9555 62.2464 36.9555 67.032C36.9555 71.8177 40.2678 75.7436 44.3191 75.7436C45.4764 75.7436 46.5837 75.415 47.5618 74.8458V86.849C46.5817 86.2754 45.4785 85.9512 44.3191 85.9512C40.6086 85.9512 37.5184 89.2638 37.0231 93.4991L28.4097 91.6702C30.6865 90.1818 32.2266 87.3274 32.2266 84.056C32.2266 79.2704 28.9143 75.3113 24.863 75.3113C20.8117 75.3113 17.4994 79.2704 17.4994 84.056C17.4994 86.2308 18.1943 88.2099 19.3234 89.7419L4.90027 86.716L6.42028 81.4292C6.46543 81.2557 6.48819 81.0764 6.48783 80.8973L6.58916 75.2116C7.933 76.8534 9.82162 77.8716 11.8923 77.8716C15.9436 77.8716 19.2559 73.9458 19.2559 69.16C19.2559 64.3744 15.9436 60.4152 11.8923 60.4152C9.95103 60.4152 8.18086 61.3359 6.85938 62.8092L7.06205 52.3356C8.35737 53.6621 10.0568 54.4635 11.8923 54.4635C15.9436 54.4635 19.2559 50.5377 19.2559 45.752C19.2559 40.9664 15.9436 37.0072 11.8923 37.0072C10.1829 37.0072 8.58755 37.6949 7.33227 38.8693L7.53494 29.3598L16.2834 28.7944C16.2712 29.2229 16.2542 29.6594 16.2496 30.0912C15.5905 30.4557 15.135 31.1227 15.135 31.9199C15.135 33.0953 16.1028 34.0479 17.2968 34.0479C18.4907 34.0479 19.4585 33.0953 19.4585 31.9199C19.4585 31.1434 19.0427 30.4629 18.4114 30.0912C18.4169 29.602 18.4294 29.1126 18.4452 28.6281L36.8879 27.4311C36.858 27.9606 36.8385 28.4787 36.8204 28.994C36.1394 29.3522 35.6719 30.0429 35.6719 30.8561C35.6719 32.0313 36.6398 32.984 37.8337 32.984C39.0276 32.984 39.9955 32.0313 39.9955 30.8561C39.9955 30.0952 39.592 29.4367 38.9822 29.0605C39.0036 28.4734 39.0119 27.8766 39.0497 27.265L47.5618 26.6998ZM51.8853 27.93L53 28.462L54.0471 83.4243L51.8853 86.583V27.93ZM57.3236 28.7279H58.5396L62.6943 82.0942C62.8899 83.1953 63.0372 84.3359 63.2009 85.4526L58.3369 82.7926L57.3236 28.7279ZM37.8337 34.8792C33.7824 34.8792 30.4701 38.8384 30.4701 43.624C30.4701 48.4097 33.7824 52.3356 37.8337 52.3356C41.885 52.3356 45.1973 48.4097 45.1973 43.624C45.1973 38.8384 41.885 34.8792 37.8337 34.8792ZM37.8337 39.5675C39.752 39.5675 41.2791 41.358 41.2791 43.624C41.2791 45.89 39.752 47.6472 37.8337 47.6472C35.9154 47.6472 34.3884 45.89 34.3884 43.624C34.3884 41.358 35.9154 39.5675 37.8337 39.5675ZM11.8923 41.6955C13.8106 41.6955 15.3376 43.486 15.3376 45.752C15.3376 48.018 13.8106 49.7752 11.8923 49.7752C9.97402 49.7752 8.44695 48.018 8.44695 45.752C8.44695 43.486 9.97402 41.6955 11.8923 41.6955ZM27.0248 49.7752C22.9735 49.7752 19.6612 53.7343 19.6612 58.52C19.6612 63.3057 22.9735 67.2316 27.0248 67.2316C31.0761 67.2316 34.3884 63.3057 34.3884 58.52C34.3884 53.7343 31.0761 49.7752 27.0248 49.7752ZM27.0248 54.4635C28.9431 54.4635 30.4701 56.254 30.4701 58.52C30.4701 60.786 28.9431 62.5432 27.0248 62.5432C25.1065 62.5432 23.5794 60.786 23.5794 58.52C23.5794 56.254 25.1065 54.4635 27.0248 54.4635ZM44.3191 62.9755C45.841 62.9755 47.1025 64.1048 47.5618 65.702V68.362C47.1025 69.9507 45.841 71.0552 44.3191 71.0552C42.4008 71.0552 40.8737 69.2981 40.8737 67.032C40.8737 64.7661 42.4008 62.9755 44.3191 62.9755ZM11.8923 65.1035C13.8106 65.1035 15.3376 66.8941 15.3376 69.16C15.3376 71.4261 13.8106 73.1832 11.8923 73.1832C9.97402 73.1832 8.44695 71.4261 8.44695 69.16C8.44695 66.8941 9.97402 65.1035 11.8923 65.1035ZM24.863 79.9995C26.7813 79.9995 28.3084 81.79 28.3084 84.056C28.3084 86.322 26.7813 88.0793 24.863 88.0793C22.9447 88.0793 21.4177 86.322 21.4177 84.056C21.4177 81.79 22.9447 79.9995 24.863 79.9995ZM56.8845 86.849L61.208 89.2099L52.5947 93.1999L56.8845 86.849ZM44.3191 90.6395C45.2121 90.6395 46.0071 91.0268 46.616 91.6702L45.8391 95.361L40.9075 94.2969C41.0748 92.225 42.5159 90.6395 44.3191 90.6395Z" fill="black"/>
</svg>
