<svg width="90" height="100" viewBox="0 0 90 100" fill="none" xmlns="http://www.w3.org/2000/svg">
<path d="M86.4286 10.7143H64.898L63.7755 4.28573C63.3673 1.83675 61.2245 0 58.7755 0H30.9184C28.4694 0 26.3266 1.83675 25.9184 4.28573L24.796 10.7143H2.95921C1.32656 10.7143 0 12.0408 0 13.6735C0 15.3061 1.32656 16.6326 2.95921 16.6326H9.28575L14.2857 92.7551C14.5918 96.8368 18.1633 100 22.449 100H66.6327C70.9184 100 74.5919 96.8368 74.796 92.7551L79.7959 16.6326H86.1225C87.7551 16.6326 89.0817 15.3061 89.0817 13.6735C89.0817 12.0408 88.0612 10.7143 86.4286 10.7143ZM31.8367 5.91835H58.2653L59.0817 10.8163H31.0204L31.8367 5.91835ZM69.1837 92.3469C69.0817 93.3673 68.0612 94.0816 66.8367 94.0816H22.6531C21.4286 94.0816 20.4082 93.2653 20.3061 92.3469L15.3061 16.7347H74.0817L69.1837 92.3469Z" fill="black"/>
<path d="M55.8164 62.1429H63.1633L57.9593 53.1632L52.449 56.3265L55.8164 62.1429Z" fill="black"/>
<path d="M49.4898 62.9592C49.4898 62.7551 49.1837 62.551 48.9796 62.7551L43.7756 67.0408C43.6735 67.1429 43.6735 67.347 43.7756 67.551L48.9796 71.8368C49.1837 72.0409 49.4898 71.8368 49.4898 71.6327V70.5102H62.0409C62.245 70.5102 62.449 70.4082 62.5511 70.2041L64.898 66.0204C65.0001 65.8164 65.0001 65.6122 64.898 65.4082L64.1837 64.0816H49.4898V62.9592Z" fill="black"/>
<path d="M43.7756 45L40.1021 38.6735L34.898 47.6531L40.4082 50.8163L43.7756 45Z" fill="black"/>
<path d="M47.5511 50.102C47.347 50.204 47.347 50.5102 47.5511 50.6122L53.8776 52.9592C54.0817 53.0612 54.2857 52.9592 54.2857 52.7551L55.4082 46.1224C55.4082 45.9184 55.2041 45.7143 55 45.8163L53.9796 46.4285L47.7552 35.6122C47.6531 35.4082 47.449 35.3061 47.245 35.3061H42.449C42.245 35.3061 42.0409 35.4082 41.9388 35.6122L41.2245 36.9388L48.5715 49.6939L47.5511 50.102Z" fill="black"/>
<path d="M27.0409 70.1021C27.1429 70.3061 27.347 70.4082 27.5511 70.4082H29.0817L36.4286 57.6531L37.449 58.2653C37.6531 58.3673 37.9593 58.1633 37.8572 57.9592L36.7347 51.3265C36.7347 51.1225 36.5307 51.0204 36.3266 51.1224L30.0001 53.4694C29.796 53.5715 29.6939 53.8776 30.0001 53.9796L31.0205 54.5919L24.796 65.4082C24.694 65.6122 24.694 65.8164 24.796 66.0204L27.0409 70.1021Z" fill="black"/>
<path d="M31.2246 70.4081H41.6327V64.0816H34.898L31.2246 70.4081Z" fill="black"/>
</svg>
