<svg xmlns="http://www.w3.org/2000/svg" xmlns:xlink="http://www.w3.org/1999/xlink" version="1.1" x="0px" y="0px" viewBox="0 0 323.599 356.81375" style="enable-background:new 0 0 323.599 285.451;" xml:space="preserve"><g><path d="M191.253,87.63c0.443-1.333,0.549-2.797,0.219-4.268c-0.971-4.312-5.25-7.021-9.559-6.049   c-0.298,0.066-0.586,0.111-0.882,0.173C183.962,81.322,187.375,84.708,191.253,87.63z"/><path d="M163.091,82.1c0.18-1.315,0.609-2.558,1.257-3.673c-11.931-1.208-21.879-6.324-29.22-11.623   c-4.186-3.02-7.464-6.066-9.649-8.312c-1.092-1.122-1.914-2.044-2.441-2.66c-0.263-0.307-0.452-0.538-0.567-0.681   c-0.058-0.069-0.096-0.119-0.115-0.142c-0.5-0.651-1.081-1.203-1.717-1.654c-8.832-8.857-17.663-17.72-26.496-26.578   c-0.353-0.36-0.818-0.698-1.363-1.01c-1.304-1.111-3.577-2.898-6.675-4.724c-4.756-2.777-11.557-5.759-19.847-5.784   c-8.063-0.076-17.279,3.21-25.174,11.145c-7.953,7.917-14.936,20.059-20.854,38.368c-1.355,4.206,0.956,8.714,5.16,10.068   c0.816,0.264,1.645,0.389,2.458,0.389c3.379,0,6.519-2.159,7.611-5.549c5.391-16.774,11.512-26.616,16.889-31.912   c5.436-5.279,9.772-6.433,13.91-6.509c1.884-0.012,3.775,0.33,5.583,0.869C55.815,51.346,46.795,74.992,38.521,98.942   c-0.276,0.796-0.446,1.596-0.538,2.384c-1.009,3.309-0.658,7.014,1.29,10.187h0c0,0,0.018,0.032,0.065,0.107h0.002   c0.604,1.04,5.068,9.486,5.021,21.224c-0.011,6.231-1.163,13.439-4.802,21.558c-3.653,8.112-9.845,17.207-20.359,26.91   c-5.077,4.679-5.398,12.586-0.719,17.664c2.464,2.673,5.824,4.027,9.195,4.027c3.029,0,6.066-1.094,8.469-3.309   c12.668-11.672,21.071-23.581,26.217-35.044c5.157-11.454,7.008-22.391,6.997-31.807c-0.008-2.639-0.154-5.15-0.398-7.532   c2.443,1.29,7.522,4.301,12.251,9.052c3.256,3.246,6.354,7.247,8.618,12.042c2.26,4.813,3.765,10.406,3.777,17.391   c-0.004,6.105-1.182,13.331-4.393,21.953c-2.415,6.467,0.874,13.666,7.341,16.081c1.439,0.536,2.915,0.791,4.366,0.791   c5.071,0,9.84-3.105,11.716-8.135c4.124-11.045,5.973-21.313,5.968-30.69c0.015-11.065-2.602-20.811-6.537-28.83   c-5.921-12.071-14.525-20.252-21.542-25.493c-1.871-1.392-3.634-2.575-5.234-3.578c5.916-20.812,15.441-28.241,29.622-35.331   c2.656,2.646,6.286,5.914,10.847,9.213c10.102,7.298,25.002,14.822,43.623,14.915c-1.518-1.657-2.973-3.382-4.346-5.189   C163.421,87.376,162.73,84.747,163.091,82.1z"/><ellipse transform="matrix(0.4948 -0.869 0.869 0.4948 44.3785 121.3326)" cx="126.543" cy="22.498" rx="22.495" ry="22.496"/><ellipse transform="matrix(0.0398 -0.9992 0.9992 0.0398 168.9865 322.5569)" cx="252.325" cy="73.352" rx="22.494" ry="22.495"/><path d="M296.556,97.029c-7.28-2.654-13.554-2.933-16.289-2.951c-1.032-0.14-1.965-0.135-2.71,0.046   c-12.058,2.815-24.114,5.636-36.17,8.451c-1.457,0.104-3.477,0.201-5.925,0.2c-6.907,0.009-17.168-0.799-27.488-4.263   c-0.002,0-0.003-0.001-0.004-0.001c-6.038-2.03-12.054-4.918-17.599-9.036c-3.964-2.943-7.689-6.512-11.001-10.865   c-0.184-0.242-0.382-0.468-0.587-0.684c-2.774-2.91-7.348-3.334-10.624-0.845c-0.587,0.446-1.088,0.962-1.515,1.521   c-2.13,2.79-2.241,6.758-0.013,9.688c1.737,2.287,3.57,4.395,5.469,6.359c9.318,9.644,20.345,15.551,30.789,19.034   c0,0,0.001,0,0.002,0.001c12.604,4.205,24.469,5.083,32.57,5.091c0.124,0,0.243-0.002,0.366-0.002   c7.867,12.555,12.446,22.921,9.118,40.044c-2.55-1.585-5.311-3.099-8.294-4.431c-5.682-2.522-12.229-4.428-19.48-4.441   c-8.772-0.09-18.453,3.186-26.342,10.254c-7.954,7.04-14.341,17.244-19.547,31.232c-2.403,6.472,0.896,13.665,7.368,16.069   c1.434,0.531,2.904,0.784,4.348,0.784c5.077,0,9.85-3.114,11.721-8.152c4.23-11.439,8.886-17.903,12.636-21.175   c3.816-3.241,6.502-3.922,9.816-4.011c2.713-0.013,5.938,0.77,9.31,2.276c5.057,2.228,10.215,6.042,13.876,9.296   c1.839,1.621,3.323,3.091,4.307,4.115c0.493,0.511,0.862,0.911,1.09,1.165c0.114,0.125,0.194,0.214,0.235,0.263   c0.008,0.01,0.015,0.017,0.021,0.022c0.003,0.005,0.006,0.008,0.008,0.01c3.135,3.648,7.918,5.039,12.305,4.026   c-0.283,2.789-0.466,5.871-0.466,9.27c-0.024,16.793,4.4,40.725,20.935,69.116c2.32,3.992,6.511,6.221,10.818,6.221   c2.132,0,4.293-0.546,6.27-1.694c5.969-3.471,7.995-11.12,4.524-17.089c-14.43-24.877-17.523-44.046-17.547-56.554   c0-5.906,0.714-10.339,1.359-13.149c0.322-1.405,0.628-2.404,0.819-2.976c0.096-0.284,0.163-0.462,0.189-0.527l0.007-0.018h-0.001   c0.224-0.53,0.393-1.069,0.539-1.61c0.343-0.723,0.625-1.496,0.813-2.324c5.429-23.742,10.146-47.612,7.454-71.44   c0.588,0.299,1.172,0.616,1.741,0.971c3.077,1.896,5.858,4.473,8.039,8.444c2.162,3.978,3.774,9.512,3.785,17.581   c0,5.764-0.849,12.794-2.948,21.253c-1.065,4.289,1.548,8.627,5.837,9.692c0.646,0.16,1.294,0.237,1.932,0.237   c3.591,0,6.856-2.434,7.76-6.076c2.352-9.483,3.418-17.778,3.418-25.106c0.011-10.222-2.117-18.614-5.736-25.242   C312.434,105.1,303.872,99.675,296.556,97.029z"/><rect y="205.451" width="171.172" height="80"/></g></svg>