<svg xmlns:dc="http://purl.org/dc/elements/1.1/" xmlns:cc="http://creativecommons.org/ns#" xmlns:rdf="http://www.w3.org/1999/02/22-rdf-syntax-ns#" xmlns:svg="http://www.w3.org/2000/svg" xmlns="http://www.w3.org/2000/svg" xmlns:sodipodi="http://sodipodi.sourceforge.net/DTD/sodipodi-0.dtd" xmlns:inkscape="http://www.inkscape.org/namespaces/inkscape" version="1.1" x="0px" y="0px" viewBox="0 0 100 125"><g transform="translate(0,-952.36218)"><path style="text-indent:0;text-transform:none;direction:ltr;block-progression:tb;baseline-shift:baseline;color:#000000;enable-background:accumulate;" d="m 49.213793,955.36217 c -5.433008,0 -9.538264,3.6103 -12.128976,8.9389 -1.901734,3.9116 -3.094798,8.7979 -3.58789,14.1273 l -10.541409,0.6876 c -1.000098,0.061 -1.875601,0.9519 -1.905074,1.9378 l -1.016039,49.94553 -1.968577,6.8136 c -0.300386,1.0564 0.463384,2.2839 1.555811,2.5004 l 42.673664,9.0015 c 0.42237,0.093 0.87472,0.048 1.27005,-0.125 l 17.27267,-8.0013 c 0.77929,-0.3626 1.266,-1.2542 1.14304,-2.094 l -0.98429,-6.8762 -4.06415,-52.00833 c -0.0793,-0.9942 -1.019,-1.8471 -2.03208,-1.8441 l -5.55647,0 -3.61964,-1.7815 c -0.0894,-5.7801 -0.62482,-10.7395 -2.15908,-14.4711 -1.69071,-4.1122 -4.82699,-6.7511 -9.52537,-6.7511 -0.84831,0 -1.65452,0.168 -2.38135,0.4689 -0.72535,-0.3137 -1.53721,-0.4689 -2.44484,-0.4689 z m 0.22226,2.0003 c -0.26777,0.2703 -0.52964,0.5645 -0.76203,0.8752 -1.2871,1.7202 -2.15426,3.9863 -2.76236,6.501 -0.992714,4.1053 -1.297444,8.8462 -1.333554,12.9396 l -9.017351,0.5938 c 0.501901,-5.0293 1.645955,-9.59 3.36563,-13.1271 2.747861,-5.2985 6.016931,-7.6807 10.509665,-7.7825 z m 12.25597,5.5009 c 1.34361,3.268 1.89822,7.9694 2.00033,13.5647 l -8.66809,0.5626 c 0.32671,-3.6318 0.71034,-7.3974 0.73028,-10.7518 0.0171,-2.8778 -0.19773,-5.455 -1.14304,-7.47 -0.23633,-0.5036 -0.53939,-0.9613 -0.88904,-1.3752 4.42156,0.062 6.86405,2.0383 7.96956,5.4697 z m -10.03339,-4.782 c 0.45415,0.3674 0.80205,0.8724 1.1113,1.5315 0.71178,1.517 0.96887,3.8467 0.95253,6.5948 -0.0197,3.3069 -0.42953,7.1605 -0.76203,10.9392 l -6.35024,0.4064 c 0.0524,-3.9714 0.3828,-8.5453 1.3018,-12.3457 0.57092,-2.3612 1.35337,-4.4083 2.38134,-5.7823 0.42399,-0.5666 0.87688,-1.0106 1.3653,-1.3439 z m 11.04943,22.3786 0,30.53613 c -0.91933,-0.5387 -1.96026,-0.8439 -3.04812,-0.8439 -3.80824,0 -6.92176,3.7216 -6.92176,8.2201 0,4.4985 3.11352,8.1888 6.92176,8.1888 1.08786,0 2.12879,-0.3088 3.04812,-0.8438 l 0,11.283 c -0.92128,-0.5392 -1.9583,-0.8439 -3.04812,-0.8439 -3.48788,0 -6.39267,3.1137 -6.85826,7.0949 l -8.096574,-1.7191 c 2.140244,-1.3991 3.587894,-4.0822 3.587894,-7.1573 0,-4.4985 -3.11352,-8.2201 -6.92177,-8.2201 -3.808243,0 -6.921769,3.7216 -6.921769,8.2201 0,2.0443 0.653187,3.9046 1.714567,5.3447 l -13.557776,-2.8443 1.428805,-4.9696 c 0.04244,-0.1631 0.06384,-0.3317 0.0635,-0.5001 l 0.09525,-5.3445 c 1.263211,1.5432 3.038518,2.5004 4.984944,2.5004 3.808243,0 6.921769,-3.6903 6.921769,-8.1889 0,-4.4985 -3.113526,-8.2201 -6.921769,-8.2201 -1.824784,0 -3.488744,0.8655 -4.730934,2.2504 l 0.190507,-9.8453 c 1.217603,1.247 2.815049,2.0003 4.540427,2.0003 3.808243,0 6.921769,-3.6903 6.921769,-8.18883 0,-4.4985 -3.113526,-8.2201 -6.921769,-8.2201 -1.606834,0 -3.10646,0.6464 -4.286417,1.7503 l 0.190508,-8.9389 8.223569,-0.5314 c -0.01145,0.4028 -0.0275,0.813 -0.03175,1.2189 -0.619628,0.3427 -1.047791,0.9697 -1.047791,1.7191 0,1.1048 0.909793,2.0003 2.032079,2.0003 1.122286,0 2.032079,-0.8955 2.032079,-2.0003 0,-0.73 -0.390913,-1.3697 -0.984288,-1.7191 0.0051,-0.4598 0.01686,-0.9198 0.03175,-1.3752 l 17.33617,-1.1252 c -0.0281,0.4977 -0.0465,0.9847 -0.0635,1.4691 -0.64008,0.3367 -1.07954,0.9859 -1.07954,1.7503 0,1.1047 0.90979,2.0003 2.03208,2.0003 1.12228,0 2.03208,-0.8956 2.03208,-2.0003 0,-0.7152 -0.37927,-1.3342 -0.95254,-1.6878 0.0202,-0.5519 0.028,-1.1129 0.0635,-1.6878 z m 4.06416,1.1564 1.04779,0.5001 0.98429,51.66453 -2.03208,2.9693 z m 5.11195,0.7501 1.14304,0 3.90541,50.16433 c 0.18391,1.035 0.32236,2.1071 0.47626,3.1568 l -4.57217,-2.5004 z m -18.32046,5.7822 c -3.80825,0 -6.92177,3.7216 -6.92177,8.2201 0,4.49853 3.11352,8.18883 6.92177,8.18883 3.80824,0 6.92177,-3.6903 6.92177,-8.18883 0,-4.4985 -3.11353,-8.2201 -6.92177,-8.2201 z m 0,4.407 c 1.80317,0 3.23862,1.683 3.23862,3.8131 0,2.13 -1.43545,3.78183 -3.23862,3.78183 -1.80319,0 -3.23863,-1.65183 -3.23863,-3.78183 0,-2.1301 1.43544,-3.8131 3.23863,-3.8131 z m -24.384953,2.0003 c 1.803182,0 3.238626,1.6831 3.238626,3.8131 0,2.13003 -1.435444,3.78183 -3.238626,3.78183 -1.803182,0 -3.238626,-1.6518 -3.238626,-3.78183 0,-2.13 1.435444,-3.8131 3.238626,-3.8131 z m 14.224552,7.59493 c -3.808243,0 -6.921769,3.7216 -6.921769,8.2201 0,4.4986 3.113526,8.1889 6.921769,8.1889 3.808251,0 6.921771,-3.6903 6.921771,-8.1889 0,-4.4985 -3.11352,-8.2201 -6.921771,-8.2201 z m 0,4.407 c 1.803191,0 3.238631,1.6831 3.238631,3.8131 0,2.1301 -1.43544,3.7818 -3.238631,3.7818 -1.803181,0 -3.238626,-1.6517 -3.238626,-3.7818 0,-2.13 1.435445,-3.8131 3.238626,-3.8131 z m 16.256631,8.0013 c 1.43058,0 2.6164,1.0615 3.04812,2.5629 l 0,2.5004 c -0.43172,1.4934 -1.61754,2.5316 -3.04812,2.5316 -1.80318,0 -3.23862,-1.6517 -3.23862,-3.7818 0,-2.13 1.43544,-3.8131 3.23862,-3.8131 z m -30.481183,2.0003 c 1.803182,0 3.238626,1.6831 3.238626,3.8131 0,2.1301 -1.435444,3.7818 -3.238626,3.7818 -1.803182,0 -3.238626,-1.6517 -3.238626,-3.7818 0,-2.13 1.435444,-3.8131 3.238626,-3.8131 z m 12.192473,14.0023 c 1.803183,0 3.238626,1.683 3.238626,3.8131 0,2.13 -1.435443,3.7818 -3.238626,3.7818 -1.803181,0 -3.238625,-1.6518 -3.238625,-3.7818 0,-2.1301 1.435444,-3.8131 3.238625,-3.8131 z m 30.10017,6.4385 4.06416,2.2192 -8.09656,3.7506 z m -11.81146,3.5631 c 0.83949,0 1.58675,0.364 2.15909,0.9688 l -0.73028,3.4694 -4.63568,-1.0002 c 0.15722,-1.9476 1.51191,-3.438 3.20687,-3.438 z" fill="#000000" fill-opacity="1" stroke="none" marker="none" visibility="visible" display="inline" overflow="visible"/></g></svg>