<svg xmlns:dc="http://purl.org/dc/elements/1.1/" xmlns:cc="http://creativecommons.org/ns#" xmlns:rdf="http://www.w3.org/1999/02/22-rdf-syntax-ns#" xmlns:svg="http://www.w3.org/2000/svg" xmlns="http://www.w3.org/2000/svg" version="1.1" x="0px" y="0px" viewBox="0 0 100 125"><g transform="translate(0,-952.36218)"><path style="color:#000000;enable-background:accumulate;" d="m 33,958.36217 c -3.32401,0 -6,2.67599 -6,6 l 0,76.00003 c 0,3.324 2.67599,6 6,6 l 34,0 c 3.32401,0 6,-2.676 6,-6 l 0,-76.00003 c 0,-3.32401 -2.67599,-6 -6,-6 l -34,0 z m -2,10 38,0 0,64.00003 -38,0 0,-64.00003 z m 19,67.00003 c 2.20913,0 4,1.7909 4,4 0,2.2092 -1.79087,4 -4,4 -2.20915,0 -4,-1.7908 -4,-4 0,-2.2091 1.79085,-4 4,-4 z" fill="#000000" stroke="none" marker="none" visibility="visible" display="inline" overflow="visible"/></g></svg>