<svg width="911" height="368" viewBox="0 0 911 368" fill="none" xmlns="http://www.w3.org/2000/svg">
<g filter="url(#filter0_d)">
<path d="M63.1185 301.082C61.3861 301.082 59.9687 300.374 58.8663 298.958C57.9214 297.384 57.4489 295.497 57.4489 293.294L57.9214 253.648C58.3939 234.454 58.6301 219.587 58.6301 209.046C58.6301 172.389 56.5827 144.307 52.488 124.798C54.8504 121.18 57.8426 119.371 61.4649 119.371C67.2919 119.371 72.5678 120.708 77.2924 123.383C82.1746 125.9 86.1905 129.361 89.3403 133.766C95.4824 142.891 98.5534 153.117 98.5534 164.444C98.5534 176.244 96.0336 186.785 90.9939 196.067C85.9543 205.349 78.6311 212.586 69.0243 217.778L69.4968 241.613L69.9692 254.12C70.1267 256.794 70.2055 260.649 70.2055 265.683C70.6779 276.224 70.9142 284.798 70.9142 291.406C70.9142 294.395 70.2842 296.755 69.0243 298.486C67.7644 300.216 65.7958 301.082 63.1185 301.082ZM68.5518 206.45C74.6939 200.629 79.1823 194.572 82.0171 188.279C85.0094 181.829 86.5055 174.592 86.5055 166.568V166.332C86.5055 162.714 86.1118 158.151 85.3244 152.645C84.8519 150.757 83.9857 148.869 82.7258 146.981C81.4659 145.093 80.7572 143.992 80.5997 143.678C79.4973 142.104 76.5838 139.666 71.8591 136.362L65.7171 131.878C65.7171 139.902 66.1895 152.33 67.1345 169.164L68.5518 206.45ZM151.017 304.385C146.922 304.385 143.143 303.048 139.678 300.374C136.214 297.856 133.379 294.395 131.174 289.99C126.606 280.393 123.772 269.931 122.669 258.604C121.252 247.906 120.543 237.601 120.543 227.689C120.543 225.801 120.622 224.228 120.779 222.97V218.722C120.779 217.935 120.701 217.542 120.543 217.542V213.294L120.779 196.775C120.937 191.74 121.567 183.717 122.669 172.704C123.457 165.152 125.268 157.837 128.103 150.757C129.205 147.611 130.623 145.251 132.355 143.678C134.087 141.947 136.056 141.082 138.261 141.082C144.56 141.082 150.23 142.262 155.27 144.621C160.309 146.824 164.561 149.971 168.026 154.061C171.176 157.994 173.853 162.871 176.058 168.692C178.263 174.356 179.838 180.413 180.782 186.863C181.727 193.471 182.2 200.472 182.2 207.866V209.754C182.2 214.631 182.279 219.036 182.436 222.97L182.672 236.421C182.672 281.731 172.121 304.385 151.017 304.385ZM150.072 294.474C152.907 294.474 155.506 293.373 157.868 291.17C160.23 288.81 162.041 285.664 163.301 281.731C166.294 273.707 168.105 265.054 168.735 255.772C169.522 247.748 169.916 240.826 169.916 235.005C169.916 227.925 169.365 218.643 168.262 207.158C167.317 195.044 166.845 185.998 166.845 180.02V175.772C166.53 169.794 164.483 164.602 160.703 160.197C157.08 155.792 152.592 153.589 147.237 153.589C141.883 153.589 138.339 156.657 136.607 162.793C135.032 167.67 134.245 173.963 134.245 181.672C134.245 184.661 134.324 187.178 134.481 189.223V195.595L134.009 206.45C133.694 209.754 133.536 213.373 133.536 217.306C133.536 225.801 133.772 234.218 134.245 242.557C134.875 254.356 136.45 265.841 138.97 277.011C141.489 288.653 145.19 294.474 150.072 294.474ZM244.885 303.677C239.215 301.79 232.207 300.846 223.86 300.846C221.34 302.419 218.663 303.206 215.828 303.206C213.938 303.206 212.285 302.34 210.867 300.61C209.607 299.036 208.977 297.306 208.977 295.418C208.977 282.203 209.529 264.582 210.631 242.557C211.576 219.115 212.048 201.573 212.048 189.931V188.279C211.103 178.368 210.631 170.973 210.631 166.096C210.631 151.15 213.387 143.678 218.899 143.678C220.474 143.678 221.813 144.307 222.915 145.565C224.175 146.667 224.805 148.004 224.805 149.577C224.805 151.465 224.569 154.454 224.096 158.545C223.624 162.478 223.387 165.467 223.387 167.512C223.387 178.053 223.466 187.571 223.624 196.067C223.781 204.405 223.86 213.845 223.86 224.385C223.073 226.745 222.679 230.049 222.679 234.297V237.129L222.206 255.772C221.891 261.278 221.734 267.571 221.734 274.651C221.734 285.506 224.332 290.934 229.53 290.934C229.845 290.934 230.317 290.934 230.947 290.934C231.734 290.777 232.758 290.698 234.018 290.698C235.435 290.541 237.246 290.462 239.451 290.462C247.956 290.462 252.208 292.822 252.208 297.542C252.208 299.115 251.499 300.452 250.082 301.554C248.664 302.655 246.932 303.363 244.885 303.677ZM291.088 303.206C288.41 303.206 286.204 301.475 284.472 298.014C286.204 294.71 287.072 281.337 287.072 257.896C287.072 252.389 286.677 246.411 285.889 239.961L285.181 233.117C284.708 228.869 284.472 225.644 284.472 223.442V217.306C282.897 213.373 279.984 206.057 275.731 195.359C271.637 184.661 268.329 175.693 265.81 168.456C262.817 160.118 261.321 154.454 261.321 151.465V150.285L266.755 146.273C269.432 146.588 272.267 150.049 275.259 156.657C277.779 162.478 280.535 170.816 283.527 181.672C286.677 192.527 288.251 198.269 288.251 198.899C288.88 197.168 290.14 191.268 292.03 181.2C293.92 171.131 296.046 162.242 298.411 154.533C301.088 146.824 303.842 142.97 306.677 142.97C308.252 142.97 309.59 143.442 310.693 144.385C311.953 145.329 312.582 146.509 312.582 147.925C312.582 155.949 310.38 167.276 305.97 181.908C301.246 197.797 298.883 209.282 298.883 216.362V287.394C298.883 297.935 296.285 303.206 291.088 303.206ZM464.746 302.026C461.124 302.026 458.446 301.475 456.714 300.374C454.982 299.272 454.115 297.227 454.115 294.238C454.115 289.518 453.328 281.495 451.753 270.167L450.808 265.211L427.421 261.672C426.476 265.29 425.137 272.606 423.405 283.618C422.46 291.327 420.964 296.441 418.917 298.958C417.814 300.374 416.239 301.082 414.192 301.082C412.302 301.082 410.57 300.531 408.995 299.43C407.42 298.171 406.633 296.677 406.633 294.946L407.105 293.766L407.341 292.822C417.736 252.389 425.61 212.507 430.965 173.176C430.965 172.547 431.043 171.524 431.201 170.108C431.358 168.535 431.516 166.332 431.673 163.501C432.146 157.679 432.618 153.038 433.091 149.577C433.721 146.116 434.665 143.52 435.925 141.79H443.957C446.162 141.79 448.052 142.34 449.627 143.442C451.202 144.385 451.989 145.801 451.989 147.689C451.989 159.646 453.643 177.424 456.95 201.023C460.1 225.251 461.675 242.242 461.675 251.996C461.675 252.94 462.068 255.379 462.856 259.312C463.643 262.93 464.037 265.29 464.037 266.391C464.037 267.493 464.825 272.212 466.399 280.551C467.817 288.102 468.525 292.979 468.525 295.182V295.418C468.525 298.879 467.266 301.082 464.746 302.026ZM449.154 256.716C448.682 254.356 448.446 251.445 448.446 247.984C448.446 233.825 447.186 215.733 444.666 193.707L442.304 169.164C435.532 206.136 430.886 234.061 428.366 252.94C430.728 254.513 437.658 255.772 449.154 256.716ZM530.14 303.913C526.676 303.913 523.526 300.138 520.691 292.586C517.384 284.405 514.943 275.988 513.368 267.335L511.714 259.312C507.147 236.814 504.234 223.992 502.974 220.846H500.139C500.139 225.408 500.06 229.577 499.903 233.353V246.332C499.903 267.414 501.399 283.854 504.391 295.654L501.792 302.026H495.178L492.107 298.486L492.343 282.675C492.343 268.515 491.634 247.04 490.217 218.25C488.957 187.571 488.327 166.096 488.327 153.825C488.327 146.273 490.926 142.498 496.123 142.498C504.627 142.498 511.557 144.7 516.911 149.105C522.423 153.51 525.179 159.646 525.179 167.512V184.031C525.179 186.391 524.786 189.145 523.998 192.291C523.211 195.28 522.345 197.719 521.4 199.607L516.911 208.102L513.132 215.182L514.313 220.846L517.62 237.601C519.825 249.715 521.951 259.548 523.998 267.099C526.046 274.651 528.565 281.495 531.558 287.63L532.975 290.462C534.55 293.609 535.337 296.126 535.337 298.014C535.337 299.587 534.865 300.924 533.92 302.026C532.975 303.284 531.715 303.913 530.14 303.913ZM501.084 209.282C504.548 207.552 507.462 202.832 509.824 195.123C512.344 187.257 513.604 180.02 513.604 173.412C513.604 168.378 512.974 163.658 511.714 159.253C510.927 156.736 509.588 154.848 507.698 153.589C505.966 152.173 503.761 151.465 501.084 151.465L500.611 152.645L500.139 154.769L500.611 182.616C500.926 190.796 501.084 199.685 501.084 209.282ZM565.322 302.262C561.857 302.262 559.731 300.767 558.943 297.778C558.314 295.89 557.999 293.215 557.999 289.754C557.999 282.989 558.314 274.651 558.943 264.739C559.731 255.3 560.125 246.883 560.125 239.489C560.125 231.15 560.361 218.643 560.833 201.967L561.306 164.68C561.306 163.265 561.07 161.141 560.597 158.309L559.888 152.409V151.229C559.888 147.611 560.44 144.936 561.542 143.206C562.644 141.475 564.692 140.61 567.684 140.61C571.779 140.61 576.267 141.79 581.149 144.149C586.031 146.509 589.575 149.499 591.78 153.117C596.347 160.669 598.631 170.108 598.631 181.436C598.631 189.931 597.922 197.089 596.504 202.911C595.087 208.574 592.646 213.845 589.181 218.722C593.433 222.812 596.268 228.083 597.686 234.533C599.26 240.826 600.048 248.771 600.048 258.368C600.048 267.965 598.394 276.303 595.087 283.383C591.307 291.406 585.795 296.912 578.551 299.902C574.141 301.475 569.731 302.262 565.322 302.262ZM572.881 211.878C581.071 211.721 585.165 202.203 585.165 183.324C585.165 163.029 581.937 152.409 575.48 151.465C573.747 155.084 572.881 163.579 572.881 176.952V211.878ZM571.464 290.226C576.503 289.125 580.441 286.136 583.275 281.259C586.11 276.382 587.528 270.796 587.528 264.503C587.528 257.896 587.134 252.075 586.346 247.04C585.716 243.107 584.85 239.882 583.748 237.365C582.803 234.69 581.464 232.252 579.732 230.049C577.842 227.689 575.637 226.273 573.117 225.801C572.487 234.769 572.173 246.647 572.173 261.436C572.173 262.38 572.015 265.369 571.7 270.403L571.228 278.427C571.228 278.741 571.306 278.977 571.464 279.135V279.607V290.226ZM774.299 300.61C772.409 300.61 770.992 300.138 770.047 299.194C769.102 298.092 768.393 296.283 767.921 293.766L766.503 289.282V288.81V288.102C766.503 282.911 761.07 265.211 750.203 235.005C739.494 204.798 731.068 182.458 724.926 167.984V286.686L725.871 288.338C726.029 288.653 726.344 289.204 726.816 289.99C727.289 290.777 727.525 291.563 727.525 292.35C727.525 294.395 726.816 296.126 725.399 297.542C723.981 298.958 722.249 299.666 720.202 299.666C715.162 299.666 712.642 294.867 712.642 285.27L712.406 244.916C712.249 232.802 712.17 219.272 712.17 204.326C712.17 199.292 712.406 191.976 712.878 182.38C713.351 172.468 713.587 165.152 713.587 160.433C713.587 153.038 716.422 147.217 722.091 142.97V144.385C723.036 144.071 723.666 143.913 723.981 143.913C727.604 143.913 732.171 150.207 737.683 162.793C742.093 172.861 746.03 183.481 749.495 194.651C753.117 205.821 757.841 221.711 763.668 242.321L766.031 250.816C769.653 263.559 772.409 272.684 774.299 278.191C777.449 244.366 779.024 204.405 779.024 158.309V155.241C778.866 154.297 778.787 153.274 778.787 152.173C778.787 147.453 780.677 145.093 784.457 145.093C786.662 145.093 788.315 145.959 789.418 147.689C790.678 149.42 791.308 151.622 791.308 154.297V171.996C790.993 196.224 790.048 222.498 788.473 250.816C786.898 279.135 785.008 295.103 782.803 298.722C778.236 299.98 775.401 300.61 774.299 300.61ZM833.714 302.97C831.667 302.97 829.777 302.262 828.044 300.846C826.469 299.43 825.603 297.699 825.446 295.654V289.518V284.798C825.288 283.383 825.209 281.731 825.209 279.843C825.209 276.539 824.973 271.504 824.501 264.739L824.028 249.636C824.028 241.927 824.265 230.442 824.737 215.182C825.367 201.495 825.682 190.01 825.682 180.728C825.682 178.525 825.446 175.221 824.973 170.816C824.501 166.254 824.265 162.95 824.265 160.905C824.265 149.735 827.572 144.149 834.186 144.149C839.383 144.149 845.368 145.172 852.14 147.217C859.069 149.263 862.534 151.701 862.534 154.533C862.534 156.106 861.826 157.601 860.408 159.017C859.148 160.275 857.573 161.298 855.683 162.085C849.069 159.725 843.084 158.151 837.73 157.365C837.887 159.725 837.966 163.107 837.966 167.512C837.966 173.805 837.887 179.469 837.73 184.503C837.257 192.055 837.021 197.719 837.021 201.495L837.73 205.27L841.51 205.034C842.769 204.877 844.344 204.798 846.234 204.798C853.794 204.798 857.573 207.001 857.573 211.406C857.573 213.137 856.865 214.631 855.447 215.89C854.03 216.991 852.219 217.542 850.014 217.542C847.179 217.542 844.974 217.384 843.399 217.07H837.494C837.809 221.16 837.966 227.139 837.966 235.005C837.966 242.871 837.887 249.951 837.73 256.244C837.257 265.841 837.021 272.999 837.021 277.719C837.021 286.529 837.179 290.934 837.494 290.934L845.289 290.698C847.967 290.541 851.195 290.462 854.975 290.462C860.959 290.462 863.952 292.35 863.952 296.126C863.952 298.328 862.928 299.98 860.881 301.082C858.991 302.34 856.628 302.97 853.794 302.97H833.714Z" fill="black"/>
<path d="M370.981 303.678C366.571 303.678 362.477 302.655 358.697 300.61C355.075 298.564 351.925 295.811 349.248 292.35C346.885 289.046 344.759 284.877 342.869 279.843C340.98 274.651 339.562 269.302 338.617 263.795C336.727 254.513 335.468 242.321 334.838 227.217C334.68 223.599 334.601 217.384 334.601 208.574V193.707C334.759 189.459 334.838 185.054 334.838 180.492C334.838 171.209 335.389 163.894 336.491 158.545C336.019 156.185 335.782 153.746 335.782 151.229C335.782 141.79 339.326 134.159 346.413 128.338C353.5 122.517 362.477 119.607 373.343 119.607C377.438 119.607 381.218 120.708 384.683 122.911C388.147 125.113 389.88 127.866 389.88 131.17C389.88 132.743 389.25 134.002 387.99 134.946C386.73 135.89 385.155 136.362 383.265 136.362C381.69 136.362 379.958 136.126 378.068 135.654C376.336 135.182 375.233 134.474 374.761 133.53H371.69V133.058C365.863 133.058 360.981 134.317 357.043 136.834C354.209 138.879 352.004 142.262 350.429 146.981C349.799 148.712 349.326 150.914 349.012 153.589C348.697 156.264 348.539 158.702 348.539 160.905C348.382 162.163 348.303 164.68 348.303 168.456L348.775 176.716L349.012 184.739C349.012 187.099 348.697 189.853 348.067 192.999C347.279 196.932 346.885 199.685 346.885 201.259V206.922C346.885 213.058 347.122 221.475 347.594 232.173C347.752 241.141 348.775 250.108 350.665 259.076C352.083 267.414 354.76 274.494 358.697 280.315C362.477 286.293 367.595 289.282 374.052 289.282C376.729 289.282 380.037 287.866 383.974 285.034C388.226 282.203 391.218 280.787 392.951 280.787C395.156 280.787 397.439 281.967 399.802 284.326C399.802 290.148 397.597 294.631 393.187 297.778C389.092 300.61 384.21 302.419 378.541 303.206C375.391 303.52 372.871 303.678 370.981 303.678ZM656.544 306.509C652.292 306.509 648.434 305.093 644.969 302.262C641.504 299.43 638.512 295.575 635.992 290.698C631.425 282.203 628.039 270.56 625.834 255.772C624.259 245.546 623.078 233.746 622.291 220.374L622.055 207.866V195.123C621.897 191.032 621.818 186.077 621.818 180.256C621.818 170.816 622.212 162.478 622.999 155.241C623.629 147.689 625.204 140.216 627.724 132.822C630.244 126.372 633.866 121.809 638.591 119.135C641.426 117.876 644.26 117.247 647.095 117.247C655.442 117.247 662.057 120.551 666.939 127.158C672.293 134.553 675.837 142.812 677.569 151.937C680.089 162.95 681.506 173.491 681.821 183.56C682.451 194.73 682.766 205.27 682.766 215.182V228.633C682.766 231.308 682.373 236.342 681.585 243.736C680.955 249.558 680.64 254.513 680.64 258.604V259.548C679.695 263.953 679.223 269.145 679.223 275.123C679.223 279.528 678.278 284.09 676.388 288.81C674.498 293.53 671.821 297.542 668.356 300.846C664.891 304.621 660.954 306.509 656.544 306.509ZM657.017 293.53C660.167 293.53 662.844 290.619 665.049 284.798C666.939 279.607 668.277 273.314 669.065 265.919C670.01 258.368 670.797 249.872 671.427 240.433C671.742 236.342 671.9 231.072 671.9 224.621L671.663 202.911C671.348 194.415 670.403 183.795 668.829 171.052C667.569 160.197 665.206 150.6 661.742 142.262C660.167 138.328 658.198 135.261 655.836 133.058C653.473 130.855 650.954 129.754 648.276 129.754C644.339 129.754 641.426 132.822 639.536 138.958C637.173 145.408 635.599 152.488 634.811 160.197C633.866 168.535 633.315 176.48 633.157 184.031L632.921 191.819C632.764 194.022 632.685 197.011 632.685 200.787V201.731C632.685 212.271 633.787 225.251 635.992 240.669C638.512 261.593 642.213 276.46 647.095 285.27C650.245 290.777 653.552 293.53 657.017 293.53Z" fill="white"/>
<path d="M878.652 360C877.077 360 875.712 359.58 874.557 358.741C873.507 357.797 872.982 356.644 872.982 355.28V354.651C875.082 352.134 877.182 347.938 879.282 342.065C880.227 339.233 881.014 337.188 881.644 335.929C887.839 322.189 892.353 309.813 895.188 298.8C898.023 287.788 899.44 276.145 899.44 263.874C899.44 250.764 896.921 244.051 891.881 243.736C890.201 244.575 889.046 247.04 888.416 251.131C888.206 252.809 887.681 254.225 886.841 255.379C886.001 256.427 884.952 256.952 883.692 256.952C881.172 256.952 879.912 255.326 879.912 252.075C879.912 247.145 881.382 243.002 884.322 239.646C885.896 237.968 887.786 237.129 889.991 237.129V236.971C893.561 236.971 896.553 237.758 898.968 239.331C900.753 240.38 902.433 242.373 904.008 245.31C904.847 246.988 905.635 249.767 906.37 253.648C906.58 255.536 906.685 257.319 906.685 258.997C906.79 260.57 906.895 261.724 907 262.458V266.706C907 273.838 906.107 281.6 904.323 289.99C902.643 298.276 900.595 305.67 898.181 312.173C895.451 319.62 892.721 326.699 889.991 333.412C886.736 341.593 884.374 347.886 882.904 352.291C888.889 351.242 895.083 350.718 901.488 350.718C903.693 352.291 904.795 353.759 904.795 355.123C904.795 356.381 904.113 357.535 902.748 358.584C900.753 358.584 897.918 358.741 894.243 359.056L890.779 359.213C886.369 359.738 882.327 360 878.652 360Z" fill="white"/>
<path d="M47.3747 10.4453C50.7847 9.00295 54.8669 8.90637 59.6215 10.1556C64.8298 11.5755 69.3239 14.3061 73.1041 18.3474C77.5187 23.1484 80.2496 29.1408 81.2962 36.3245C81.384 36.9271 81.5494 39.8611 81.7926 45.1266C82.1034 50.8557 82.2204 54.6014 82.1437 56.3636C82.0053 60.6434 81.5897 64.8213 80.8975 68.8977C80.3368 71.9135 79.7078 74.1348 79.0107 75.5614C79.104 75.5479 79.2006 75.5574 79.3006 75.5903C84.0479 76.4619 87.3988 77.3946 89.3536 78.3882C89.8384 77.4659 90.3835 76.6293 90.9886 75.8788C92.7107 73.6406 95.9337 72.0596 100.658 71.1363C101.355 69.7097 100.845 66.376 99.1289 61.1354C97.406 55.8484 96.3338 50.9402 95.912 46.4103C95.5368 41.874 95.7475 36.945 96.5439 31.623C96.9587 28.9121 97.4441 26.5225 98.0001 24.4538C98.4953 21.968 99.0184 20.1644 99.5695 19.0431C99.2491 18.8057 98.942 18.4954 98.648 18.1122C97.9464 17.2203 97.5146 16.2181 97.3526 15.1058C96.8596 11.7224 98.2927 9.95221 101.652 9.79514C105.011 9.63807 106.906 11.0427 107.338 14.0089C107.446 14.7505 107.221 15.6587 106.664 16.7338C105.966 18.1603 104.792 19.0884 103.14 19.5179C103.082 20.7569 102.349 24.2239 100.94 29.9189C99.3853 36.2504 99.1941 42.6203 100.366 49.0286C101.531 55.3907 103.195 61.0886 105.357 66.1222C107.519 71.1561 108.637 73.5967 108.71 73.444C108.766 71.5427 108.218 68.5936 107.064 64.5963C106.544 61.0277 106.328 57.746 106.415 54.7514C106.491 52.6579 106.828 49.083 107.425 44.0267C109.124 36.7275 110.405 31.9504 111.267 29.6952C111.751 28.4416 112.209 27.4994 112.641 26.8687C112.16 26.1812 111.722 25.2985 111.327 24.2201C110.895 21.2538 112.038 19.786 114.758 19.8166C117.517 19.794 119.103 21.1963 119.515 24.0235C119.616 24.7187 119.491 25.4943 119.139 26.35C118.615 27.6566 117.677 28.4083 116.324 28.605C115.951 28.6593 115.571 28.6673 115.184 28.6289C115.098 29.0199 114.953 29.4907 114.747 30.0413C113.44 33.4969 112.189 37.8201 110.992 43.011C109.842 48.1951 109.545 53.3498 110.102 58.4752C110.704 63.5937 112.239 69.7128 114.705 76.8321C114.919 76.9904 115.109 77.152 115.276 77.317C119.509 81.1978 122.037 85.9656 122.861 91.6199L123.388 95.2349C123.613 98.0892 123.435 100.789 122.853 103.335C120.922 111.331 115.222 116.017 105.754 117.393C100.856 118.105 96.7054 115.443 93.3014 109.406C93.0546 109.348 92.7977 109.219 92.5307 109.022C92.1571 108.745 91.8069 108.63 91.4803 108.677C91.4336 108.684 86.1368 111.395 75.5891 116.809C65.0884 122.217 55.8265 125.504 47.8038 126.671C41.2739 127.62 36.0143 127.32 32.0256 125.77C31.8459 125.843 31.6661 125.917 31.4863 125.99C30.8535 126.224 29.8076 126.566 28.3489 127.014C26.1971 127.611 23.9257 128.367 21.5347 129.283C20.9749 129.365 20.5678 129.021 20.313 128.254C20.2724 127.976 20.6063 126.507 21.3143 123.849C22.1221 120.891 22.615 119.045 22.7937 118.309C23.138 117.076 23.4256 115.945 23.6571 114.918C23.6436 114.825 23.6335 114.755 23.6268 114.709C23.0798 110.955 24.2908 106.354 27.2598 100.905C30.0431 95.8148 33.7696 90.9899 38.4402 86.4296C41.4873 83.4781 44.3289 81.2429 46.9655 79.7236C45.3637 78.5368 42.687 76.5121 38.9358 73.6498C35.2312 70.7808 32.0552 67.1249 29.4074 62.6822C26.7528 58.1934 24.9064 54.6755 23.8687 52.1284C22.8307 49.5816 21.9302 45.6898 21.1671 40.4524C19.6005 29.6998 20.9358 22.0277 25.1728 17.436C29.0043 13.3293 34.2714 12.3741 40.974 14.5707C41.6276 14.8069 42.2812 15.0432 42.9348 15.2795C43.3908 13.178 44.8709 11.5666 47.3747 10.4453ZM49.501 24.5479C42.7115 18.8143 37.3113 16.2391 33.2999 16.8223C28.2624 17.5547 25.2537 21.4235 24.2738 28.4287C23.8271 31.9014 24.7262 38.5625 26.9709 48.4118C29.2623 58.2543 37.3056 68.0179 51.1008 77.7026C51.9602 77.3884 52.8658 77.0672 53.8184 76.7394C53.3703 75.9527 52.9386 74.9506 52.523 73.7332C51.7123 71.4372 51.1988 69.5477 50.9827 68.0646C50.8679 67.2767 50.57 66.539 50.0886 65.8518L50.317 64.9665C51.1457 66.0767 52.4557 68.0397 54.2473 70.8555C55.7246 73.1492 56.7242 74.7788 57.2458 75.7443C57.9787 75.5431 58.738 75.3616 59.5244 75.1998C58.5729 72.5932 57.5352 68.4135 56.4114 62.6608C56.3641 62.3363 56.3571 62.1244 56.3901 62.0247C56.4833 62.0112 56.5699 61.9514 56.6496 61.8451C57.5183 62.902 58.8592 65.4048 60.6731 69.3534C61.7103 71.569 62.46 73.2823 62.9221 74.4929C64.0348 74.2837 65.0479 74.2074 65.9611 74.264C67.2045 72.6635 67.5722 69.7938 67.0647 65.6553C66.5967 61.4638 65.6505 56.2767 64.2259 50.0945C62.8012 43.9122 61.336 39.2505 59.8303 36.1089C58.3715 32.9606 54.9282 29.107 49.501 24.5479ZM47.4183 17.6093C51.6488 20.1653 55.5849 23.8053 59.2264 28.5294C65.2731 36.3589 69.0528 45.4643 70.5654 55.8463C70.5721 55.8925 70.805 59.29 71.2643 66.0386C71.3585 69.9533 71.2438 72.7623 70.9203 74.466C72.5603 74.6062 73.8068 74.6617 74.6599 74.6323C76.1886 72.3748 77.1667 69.7713 77.5945 66.8221C78.6879 59.9423 79.0084 54.9499 78.556 51.8447C78.3607 43.6378 77.3041 36.5499 75.3867 30.5814C76.5517 33.3465 76.1462 32.1985 74.1705 27.1376C73.6946 25.8342 73.1392 24.637 72.5039 23.5462C72.4971 23.4999 72.4706 23.4801 72.4238 23.4869L72.4137 23.4173C69.2375 17.963 64.386 14.7401 57.8587 13.7486C49.9182 12.5366 46.4381 13.8236 47.4183 17.6093ZM103.792 15.6604C104.205 15.2218 104.38 14.7939 104.32 14.3768C104.151 13.2181 103.313 12.5353 101.806 12.3284C100.3 12.1215 99.678 12.9219 99.9413 14.7294C100.237 16.1063 100.805 16.7337 101.644 16.6116C102.577 16.476 103.293 16.1589 103.792 15.6604ZM113.716 23.9437C113.81 24.2614 113.953 24.5954 114.147 24.9458C114.589 25.6863 115.113 26.0123 115.719 25.9242C115.952 25.8903 116.152 25.6248 116.317 25.1272C116.45 24.7294 116.506 24.4609 116.486 24.3219C116.256 22.7461 115.688 21.9531 114.782 21.9429C113.875 21.9327 113.52 22.5996 113.716 23.9437ZM77.9078 79.2716C77.1414 79.2409 75.3378 78.9589 72.4976 78.4252C69.5909 78.0906 66.7148 78.1302 63.8697 78.5439C59.3452 79.2017 55.1286 80.5009 51.2199 82.4419C50.282 83.5247 49.0282 84.8902 47.4583 86.5384C43.7154 91.5788 42.1882 96.4628 42.877 101.19C42.8837 101.237 43.8167 104.698 45.676 111.574C48.1598 117.508 51.3415 120.548 55.2211 120.693C56.36 120.339 58.2053 119.763 60.7564 118.966C64.2069 117.802 68.3926 115.962 73.3133 113.449C71.7587 112.586 70.3658 110.872 69.1346 108.306C67.7898 105.614 66.9554 103.156 66.6313 100.931C65.9291 96.1112 66.3207 91.7709 67.8063 87.9104C69.8359 82.5512 73.2031 79.6715 77.9078 79.2716ZM108.786 76.4149C108.732 76.3753 108.679 76.3358 108.625 76.2961C108.519 76.217 108.389 76.1413 108.235 76.069C108.289 76.1086 108.319 76.1515 108.325 76.1979C107.298 75.6846 106.221 75.3205 105.094 75.1058L105.024 75.1159C104.971 75.0765 104.921 75.0599 104.874 75.0667C104.281 74.9165 103.697 74.8356 103.124 74.8243C99.3243 74.5722 96.418 76.2015 94.4051 79.7126C92.1264 83.6883 91.5611 89.6156 92.709 97.4948C93.0332 99.7194 94.2049 102.531 96.2241 105.929C99.0124 110.682 101.993 112.829 105.164 112.367C112.347 111.323 116.883 107.8 118.771 101.799C119.759 98.7681 119.999 95.5147 119.493 92.0386C118.804 87.3111 116.787 83.2738 113.441 79.9265C112.219 78.7317 110.667 77.5613 108.786 76.4149ZM27.7016 123.062C26.4932 121.96 25.5375 120.632 24.8346 119.077C24.3186 121.093 23.6633 123.46 22.8685 126.178L23.0886 126.217L29.6339 124.556C28.9465 124.088 28.3025 123.59 27.7016 123.062ZM95.6223 89.0488C95.0213 84.9238 95.5654 81.792 97.2544 79.6533C98.7838 77.7271 100.925 76.8951 103.678 77.1575C106.338 77.4333 108.75 78.6208 110.913 80.7201C113.311 83.1167 114.763 86.053 115.269 89.5289C115.593 91.7538 115.45 93.8805 114.841 95.9097C113.609 99.8751 110.707 102.19 106.136 102.855C102.311 103.411 99.4282 101.44 97.487 96.9419C96.7503 95.1559 96.1288 92.5249 95.6223 89.0488ZM107.798 82.8769C107.167 80.5076 105.426 79.8376 102.575 80.8674C99.7178 81.851 98.895 83.7217 100.107 86.48C100.348 87.1549 100.722 87.763 101.23 88.3045C102.245 89.3875 103.476 89.8239 104.921 89.6137C106.554 89.3763 107.646 88.6969 108.197 87.5755C108.602 86.7594 108.469 85.1931 107.798 82.8769Z" fill="black"/>
</g>
<defs>
<filter id="filter0_d" x="-0.00012207" y="0" width="911" height="368" filterUnits="userSpaceOnUse" color-interpolation-filters="sRGB">
<feFlood flood-opacity="0" result="BackgroundImageFix"/>
<feColorMatrix in="SourceAlpha" type="matrix" values="0 0 0 0 0 0 0 0 0 0 0 0 0 0 0 0 0 0 127 0"/>
<feOffset dy="4"/>
<feGaussianBlur stdDeviation="2"/>
<feColorMatrix type="matrix" values="0 0 0 0 0 0 0 0 0 0 0 0 0 0 0 0 0 0 0.25 0"/>
<feBlend mode="normal" in2="BackgroundImageFix" result="effect1_dropShadow"/>
<feBlend mode="normal" in="SourceGraphic" in2="effect1_dropShadow" result="shape"/>
</filter>
</defs>
</svg>
