<svg xmlns="http://www.w3.org/2000/svg" data-name="Layer 1" viewBox="0 0 100 125" x="0px" y="0px"><title>10</title><g data-name="Group"><path data-name="Compound Path" d="M40.6,13.9A9.4,9.4,0,1,0,50,4.5,9.4,9.4,0,0,0,40.6,13.9Zm14.8,0A5.4,5.4,0,1,1,50,8.5,5.4,5.4,0,0,1,55.4,13.9Z"/><path data-name="Compound Path" d="M34.2,32.3H26.7V47.1h4.8V60h37V47.1h4.8V32.3H65.8A18.3,18.3,0,0,0,64.5,29a10.2,10.2,0,0,0-1.4-2.2,9.9,9.9,0,0,0-11-3,7.5,7.5,0,0,1-4.2,0,9.9,9.9,0,0,0-11,3A10.2,10.2,0,0,0,35.5,29,18.3,18.3,0,0,0,34.2,32.3ZM39,30.9a5.6,5.6,0,0,1,1-1.5,6.1,6.1,0,0,1,6.7-1.8,10.6,10.6,0,0,0,6.6,0A6.1,6.1,0,0,1,60,29.4a7.1,7.1,0,0,1,1,1.4,12.4,12.4,0,0,1,.5,1.5h-23A6.2,6.2,0,0,1,39,30.9Zm30.3,5.4v6.8H64.5V56h-29V43.1H30.7V36.3Z"/><path data-name="Compound Path" d="M37.6,91v4.5H62.4V91a12.3,12.3,0,0,0-6.5-10.8,8.8,8.8,0,0,0,2.5-6,8.4,8.4,0,0,0-16.8,0,8.8,8.8,0,0,0,2.5,6A12.3,12.3,0,0,0,37.6,91ZM50,69.8a4.4,4.4,0,1,1-4.4,4.4A4.4,4.4,0,0,1,50,69.8ZM41.6,91a8.4,8.4,0,0,1,16.8,0v.5H41.6Z"/><path data-name="Compound Path" d="M94.4,91a12.3,12.3,0,0,0-6.5-10.8,8.8,8.8,0,0,0,2.5-6,8.4,8.4,0,1,0-16.8,0,8.8,8.8,0,0,0,2.5,6A12.3,12.3,0,0,0,69.6,91v4.5H94.4ZM82,69.8a4.4,4.4,0,1,1-4.4,4.4A4.4,4.4,0,0,1,82,69.8Zm8.4,21.7H73.6V91a8.4,8.4,0,0,1,16.8,0Z"/><path data-name="Compound Path" d="M30.4,91a12.3,12.3,0,0,0-6.5-10.8,8.8,8.8,0,0,0,2.5-6,8.4,8.4,0,1,0-16.8,0,8.8,8.8,0,0,0,2.5,6A12.3,12.3,0,0,0,5.6,91v4.5H30.4ZM18,69.8a4.4,4.4,0,1,1-4.4,4.4A4.4,4.4,0,0,1,18,69.8Zm8.4,21.7H9.6V91a8.4,8.4,0,0,1,16.8,0Z"/></g></svg>