<svg width="171" height="205" viewBox="0 0 171 205" version="1.1" xmlns="http://www.w3.org/2000/svg" xmlns:xlink="http://www.w3.org/1999/xlink">
<title>Tons Bee</title>
<desc>Created using Figma</desc>
<g id="Canvas" transform="translate(2779 -1160)">
<g id="Tons Bee">
<g id="bee">
<g id="Canvas">
<g id="Vector">
<g id="Vector">
<use xlink:href="#path0_fill" transform="matrix(-0.989574 0.144027 0.144027 0.989574 -2732.48 1160)"/>
</g>
</g>
</g>
<g id="bee">
<g id="Canvas">
<g id="Vector">
<g id="Vector">
<use xlink:href="#path0_fill" transform="matrix(-0.989574 0.144027 0.144027 0.989574 -2732.48 1160)"/>
</g>
</g>
</g>
</g>
</g>
<g id="Group">
<g id="Line">
<use xlink:href="#path1_stroke" transform="matrix(0.522562 0.852601 -0.852601 0.522562 -2739 1273)"/>
</g>
<g id="Line">
<use xlink:href="#path2_stroke" transform="matrix(-0.65493 0.755689 -0.755689 -0.65493 -2671 1275)"/>
</g>
<g id="Line">
<use xlink:href="#path3_stroke" transform="matrix(-0.526355 0.850265 -0.850265 -0.526355 -2646 1207)"/>
</g>
<g id="Line">
<use xlink:href="#path4_stroke" transform="matrix(0.438634 0.898666 -0.898666 0.438634 -2752 1207)"/>
</g>
<g id="Line">
<use xlink:href="#path5_stroke" transform="matrix(-0.130944 0.99139 -0.99139 -0.130944 -2701 1236)"/>
</g>
</g>
<g id="noun_192822_cc">
<g id="Vector">
<use xlink:href="#path6_fill" transform="translate(-2739.41 1305.11)"/>
</g>
<g id="Vector">
<use xlink:href="#path7_fill" transform="translate(-2719.85 1285)"/>
</g>
<g id="Vector">
<use xlink:href="#path8_fill" transform="translate(-2681.89 1317.22)"/>
</g>
<g id="Vector">
<use xlink:href="#path9_fill" transform="translate(-2739.45 1327.57)"/>
</g>
<g id="Vector">
<use xlink:href="#path10_fill" transform="translate(-2752 1317.22)"/>
</g>
</g>
<g id="bee">
<g id="Canvas">
<g id="Vector">
<g id="Vector">
<use xlink:href="#path0_fill" transform="matrix(-0.989574 0.144027 0.144027 0.989574 -2648.48 1227)"/>
</g>
</g>
</g>
<g id="bee">
<g id="Canvas">
<g id="Vector">
<g id="Vector">
<use xlink:href="#path0_fill" transform="matrix(-0.989574 0.144027 0.144027 0.989574 -2648.48 1227)"/>
</g>
</g>
</g>
</g>
</g>
<g id="bee">
<g id="Canvas">
<g id="Vector">
<g id="Vector">
<use xlink:href="#path0_fill" transform="matrix(-0.989574 0.144027 0.144027 0.989574 -2678.75 1187)"/>
</g>
</g>
</g>
<g id="bee">
<g id="Canvas">
<g id="Vector">
<g id="Vector">
<use xlink:href="#path0_fill" transform="matrix(-0.989574 0.144027 0.144027 0.989574 -2678.75 1187)"/>
</g>
</g>
</g>
</g>
<g id="bee">
<g id="Canvas">
<g id="Vector">
<g id="Vector">
<use xlink:href="#path0_fill" transform="matrix(-0.97972 0.200372 0.200372 0.97972 -2726.3 1225.94)"/>
</g>
</g>
</g>
</g>
<g id="bee">
<g id="Canvas">
<g id="Vector">
<g id="Vector">
<use xlink:href="#path0_fill" transform="matrix(-0.989574 0.144027 0.144027 0.989574 -2622.75 1160)"/>
</g>
</g>
</g>
</g>
</g>
</g>
</g>
<defs>
<path id="path0_fill" d="M 28.2149 0.187404C 26.7591 -0.193651 25.1118 0.00640249 23.273 0.787565C 21.2617 1.66399 19.6144 3.02626 18.331 4.87438C 16.837 7.06545 16.0899 9.63757 16.0899 12.5907C 16.0899 12.8384 16.1953 14.0292 16.406 16.1631C 16.6167 18.4876 16.7891 20.0023 16.9232 20.7072C 17.2296 22.422 17.6415 24.0795 18.1586 25.68C 18.5609 26.8612 18.944 27.7186 19.3079 28.2521C 19.2696 28.2521 19.2313 28.2616 19.193 28.2807C 17.335 28.9094 16.0421 29.481 15.3142 29.9954C 15.0652 29.6525 14.797 29.3476 14.5097 29.0809C 13.686 28.2807 12.2973 27.8329 10.3435 27.7377C 9.9796 27.2042 9.98917 25.8324 10.3723 23.6223C 10.7554 21.3931 10.899 19.3545 10.8032 17.5063C 10.6883 15.6582 10.3148 13.6863 9.6827 11.5905C 9.35707 10.5235 9.02186 9.58993 8.67708 8.78972C 8.33229 7.81803 8.01624 7.1226 7.72892 6.70344C 7.84385 6.58913 7.9492 6.44623 8.04497 6.27476C 8.27483 5.87465 8.38976 5.44596 8.38976 4.9887C 8.38976 3.59785 7.70976 2.9691 6.34978 3.10247C 4.9898 3.23584 4.30981 3.91222 4.30981 5.13159C 4.30981 5.43644 4.45347 5.78891 4.74079 6.18902C 5.10473 6.7225 5.63148 7.02734 6.32105 7.10355C 6.41682 7.59892 6.91484 8.95167 7.81512 11.1618C 8.81116 13.6196 9.2613 16.1727 9.16552 18.821C 9.06975 21.4503 8.73454 23.8414 8.1599 25.9943C 7.58526 28.1473 7.27878 29.1952 7.24047 29.1381C 7.10639 28.3759 7.15428 27.1566 7.38413 25.4799C 7.38413 24.0129 7.27878 22.6792 7.06808 21.4788C 6.91484 20.6405 6.57006 19.2211 6.03373 17.2206C 4.92276 14.3817 4.12784 12.5336 3.64897 11.6762C 3.3808 11.1999 3.14137 10.8474 2.93067 10.6188C 3.0839 10.3139 3.20841 9.93288 3.30418 9.47562C 3.30418 8.25624 2.75828 7.73229 1.66646 7.90377C 0.555487 8.05619 0 8.71351 0 9.87573C 0 10.1615 0.0957735 10.4664 0.28732 10.7903C 0.574641 11.2856 0.996045 11.5333 1.55153 11.5333C 1.70477 11.5333 1.85801 11.5143 2.01124 11.4762C 2.06871 11.6286 2.1549 11.8096 2.26983 12.0192C 2.99771 13.3338 3.75432 15.0009 4.53966 17.0205C 5.30585 19.0401 5.72725 21.0978 5.80387 23.1936C 5.86134 25.2894 5.60275 27.8425 5.02811 30.8528C 4.95149 30.929 4.88445 31.0052 4.82698 31.0814C 3.35207 32.8914 2.61462 34.9587 2.61462 37.2831L 2.61462 38.7692C 2.69123 39.9314 2.92109 41.0079 3.30418 41.9987C 4.54924 45.1043 7.11597 46.6571 11.0044 46.6571C 13.0156 46.6571 14.5288 45.3424 15.544 42.7131C 15.6398 42.675 15.7356 42.6083 15.8314 42.5131C 15.9654 42.3797 16.0995 42.313 16.2336 42.313C 16.2528 42.313 18.5417 43.0942 23.1006 44.6565C 27.6402 46.2188 31.5574 47 34.852 47C 37.5336 47 39.6311 46.5713 41.1443 45.7139C 41.2209 45.733 41.2975 45.752 41.3741 45.7711C 41.6423 45.8283 42.0829 45.9045 42.6958 45.9997C 43.5961 46.114 44.5538 46.2855 45.569 46.5142C 45.7989 46.5142 45.9425 46.3522 46 46.0283C 46 45.914 45.7797 45.3424 45.3392 44.3136C 44.8411 43.1704 44.5347 42.4559 44.4197 42.1701C 44.209 41.6938 44.0271 41.2556 43.8738 40.8555C 43.8738 40.8174 43.8738 40.7888 43.8738 40.7697C 43.8738 39.2265 43.1172 37.445 41.604 35.4255C 40.1866 33.5392 38.4052 31.815 36.2598 30.2526C 34.8615 29.2428 33.5878 28.5093 32.4385 28.052C 33.0131 27.4805 33.9709 26.5088 35.3117 25.137C 36.6334 23.7652 37.6964 22.1076 38.5009 20.1642C 39.3054 18.2018 39.8418 16.6776 40.1099 15.5915C 40.3781 14.5055 40.5122 12.8861 40.5122 10.7331C 40.5122 6.31286 39.5257 3.30253 37.5528 1.7021C 35.7714 0.273142 33.5973 0.196931 31.0306 1.47346C 30.7816 1.60683 30.5326 1.7402 30.2836 1.87357C 29.9771 1.0543 29.2875 0.492248 28.2149 0.187404ZM 28.1861 5.98897C 30.5805 3.28348 32.6013 1.93073 34.2486 1.93073C 36.3173 1.93073 37.7539 3.31205 38.5584 6.0747C 38.9415 7.4465 38.9702 10.1806 38.6446 14.2769C 38.2998 18.3732 35.6373 22.7744 30.6571 27.4805C 30.2931 27.4043 29.9101 27.328 29.5078 27.2518C 29.6419 26.9089 29.7568 26.4802 29.8526 25.9658C 30.0441 24.9941 30.1399 24.2034 30.1399 23.5937C 30.1399 23.2698 30.2165 22.9554 30.3698 22.6506L 30.2261 22.3076C 29.9579 22.803 29.5461 23.6699 28.9906 24.9083C 28.5309 25.9181 28.2244 26.6326 28.0712 27.0518C 27.7647 27.0137 27.4487 26.9851 27.123 26.966C 27.3529 25.861 27.5253 24.1177 27.6402 21.7361C 27.6402 21.6027 27.6306 21.517 27.6115 21.4788C 27.5732 21.4788 27.5349 21.4598 27.4966 21.4217C 27.2092 21.898 26.8166 22.984 26.3185 24.6797C 26.0312 25.6323 25.8301 26.3659 25.7152 26.8803C 25.2555 26.8612 24.8436 26.8898 24.4797 26.966C 23.8859 26.3945 23.5699 25.2608 23.5315 23.5651C 23.4741 21.8504 23.5507 19.7069 23.7614 17.1348C 23.9721 14.5627 24.2882 12.6003 24.7096 11.2475C 25.1118 9.89478 26.2707 8.14192 28.1861 5.98897ZM 28.6171 3.07389C 27.0656 4.35043 25.696 6.04612 24.5084 8.16098C 22.5355 11.6667 21.549 15.5534 21.549 19.8213C 21.549 19.8403 21.6544 21.2216 21.8651 23.9652C 22.0566 25.5466 22.2673 26.6707 22.4972 27.3376C 21.8459 27.49 21.3479 27.5853 21.0031 27.6234C 20.2561 26.8041 19.7102 25.8133 19.3654 24.6511C 18.5226 21.9456 18.1012 19.9546 18.1012 18.6781C 17.6989 15.3629 17.7085 12.4478 18.1299 9.93288C 17.8234 11.1142 17.9192 10.6283 18.4172 8.47535C 18.5322 7.92282 18.6854 7.40839 18.8769 6.93208C 18.8769 6.91302 18.8865 6.9035 18.9057 6.9035L 18.9057 6.87492C 19.8634 4.49332 21.6256 2.91195 24.1924 2.13078C 27.3146 1.17815 28.7895 1.49252 28.6171 3.07389ZM 5.8326 5.58886C 5.64106 5.43644 5.54528 5.27449 5.54528 5.10301C 5.54528 4.62669 5.84218 4.3028 6.43598 4.13132C 7.02977 3.95985 7.32667 4.24564 7.32667 4.9887C 7.28836 5.56028 7.09681 5.84607 6.75203 5.84607C 6.36894 5.84607 6.06246 5.76033 5.8326 5.58886ZM 2.32729 9.5042C 2.30814 9.63757 2.26983 9.78046 2.21237 9.93288C 2.07828 10.2568 1.88674 10.4187 1.63773 10.4187C 1.54195 10.4187 1.44618 10.3235 1.35041 10.1329C 1.27379 9.98052 1.23548 9.87573 1.23548 9.81857C 1.23548 9.17077 1.41745 8.8183 1.78139 8.76114C 2.14532 8.70398 2.32729 8.95167 2.32729 9.5042ZM 19.9688 29.6811C 20.2752 29.6239 20.984 29.4048 22.0949 29.0237C 23.2442 28.7189 24.4031 28.5665 25.5715 28.5665C 27.4295 28.5665 29.2013 28.8427 30.8869 29.3953C 31.3275 29.7763 31.9117 30.2526 32.6396 30.8242C 34.4401 32.6342 35.3404 34.5109 35.3404 36.4543C 35.3404 36.4734 35.168 37.9214 34.8232 40.7983C 34.172 43.3323 33.0706 44.7422 31.519 45.028C 31.0402 44.9518 30.2644 44.828 29.1918 44.6565C 27.736 44.3898 25.945 43.8944 23.8189 43.1704C 24.3935 42.7322 24.8532 41.9605 25.198 40.8555C 25.5811 39.6933 25.7726 38.6549 25.7726 37.7404C 25.7726 35.7589 25.3608 34.0346 24.5372 32.5675C 23.407 30.5289 21.8842 29.5667 19.9688 29.6811ZM 7.38413 30.3384C 7.40329 30.3193 7.42244 30.3003 7.4416 30.2812C 7.47991 30.2431 7.52779 30.205 7.58526 30.1669C 7.5661 30.186 7.55653 30.205 7.55653 30.2241C 7.93962 29.9573 8.35145 29.7477 8.792 29.5953L 8.82074 29.5953C 8.83989 29.5763 8.85905 29.5667 8.8782 29.5667C 9.10806 29.4715 9.33791 29.4048 9.56777 29.3667C 11.081 29.0428 12.3452 29.5286 13.3604 30.8242C 14.5097 32.2913 15.0843 34.6443 15.0843 37.8833C 15.0843 38.7978 14.7778 39.9981 14.1649 41.4842C 13.3221 43.561 12.2494 44.5994 10.9469 44.5994C 7.99708 44.5994 5.96669 43.4467 4.85572 41.1413C 4.28107 39.9791 3.99375 38.6835 3.99375 37.2545C 3.99375 35.3111 4.5684 33.5678 5.71768 32.0245C 6.13908 31.472 6.69457 30.91 7.38413 30.3384ZM 42.7245 44.3707C 43.1459 43.8563 43.4524 43.2657 43.644 42.5988C 43.9696 43.38 44.3718 44.2945 44.8507 45.3424L 44.7645 45.371L 42.035 45.0852C 42.284 44.8566 42.5138 44.6184 42.7245 44.3707ZM 13.4179 34.6538C 13.4179 32.9581 13.0156 31.7292 12.2111 30.9671C 11.4832 30.2812 10.5734 30.0716 9.48157 30.3384C 8.42807 30.6051 7.52779 31.2243 6.78076 32.196C 5.95711 33.3011 5.54528 34.5681 5.54528 35.997C 5.54528 36.9116 5.72725 37.7594 6.09119 38.5406C 6.81907 40.0648 8.12159 40.8269 9.99875 40.8269C 11.5694 40.8269 12.6134 39.8647 13.1305 37.9404C 13.3221 37.1783 13.4179 36.0828 13.4179 34.6538ZM 8.1599 32.8819C 8.27483 31.8912 8.93567 31.5196 10.1424 31.7673C 11.3492 31.996 11.7897 32.7009 11.4641 33.8822C 11.4066 34.168 11.2917 34.4347 11.1193 34.6824C 10.7745 35.1778 10.3052 35.4255 9.71143 35.4255C 9.04102 35.4255 8.56215 35.2159 8.27483 34.7967C 8.06413 34.4919 8.02582 33.8536 8.1599 32.8819Z"/>
<path id="path1_stroke" d="M 0 0L 36.3593 0L 36.3593 -2L 0 -2L 0 0Z"/>
<path id="path2_stroke" d="M 0 0L 39.6989 0L 39.6989 -2L 0 -2L 0 0Z"/>
<path id="path3_stroke" d="M 0 0L 98.7927 0L 98.7927 -2L 0 -2L 0 0Z"/>
<path id="path4_stroke" d="M 0 0L 93.4719 0L 93.4719 -2L 0 -2L 0 0Z"/>
<path id="path5_stroke" d="M 0 0L 53.4588 0L 53.4588 -2L 0 -2L 0 0Z"/>
<path id="path6_fill" d="M 8.799 7.62939e-08L 4.42505e-07 10.266L 8.799 20.532L 56.028 20.532L 64.827 10.266L 56.028 7.62939e-08L 47.191 7.62939e-08L 47.191 8.172C 47.191 10.649 45.177 12.662 42.701 12.662C 40.225 12.662 38.211 10.648 38.211 8.172L 38.211 7.62939e-08L 26.617 7.62939e-08L 26.617 8.172C 26.617 10.649 24.602 12.662 22.126 12.662C 19.65 12.662 17.635 10.648 17.635 8.172L 17.635 7.62939e-08L 8.799 7.62939e-08Z"/>
<path id="path7_fill" d="M 25.708 12.854C 25.708 5.766 19.941 -2.44141e-07 12.854 -2.44141e-07C 5.766 -2.44141e-07 -9.15527e-08 5.766 -9.15527e-08 12.854L -9.15527e-08 28.286C -9.15527e-08 29.704 1.148 30.852 2.566 30.852C 3.983 30.852 5.131 29.704 5.131 28.286L 5.131 12.854C 5.131 8.596 8.596 5.133 12.854 5.133C 17.112 5.133 20.576 8.596 20.576 12.854L 20.576 28.286C 20.576 29.704 21.724 30.852 23.141 30.852C 24.559 30.852 25.707 29.704 25.707 28.286L 25.707 12.854L 25.708 12.854Z"/>
<path id="path8_fill" d="M 19.888 29.395L 8.26 -1.19019e-06L -4.88281e-07 9.637L 8.978 45.555L 19.888 29.395Z"/>
<path id="path9_fill" d="M 55.754 0L 9.141 0L 4.57764e-08 36.568L 64.895 36.568L 55.754 0Z"/>
<path id="path10_fill" d="M 10.908 45.555L 19.887 9.637L 11.627 -1.19019e-06L 0 29.395L 10.908 45.555Z"/>
</defs>
</svg>
