<svg width="124" height="100" viewBox="0 0 124 100" fill="none" xmlns="http://www.w3.org/2000/svg">
<path d="M94.0301 1.17727e-07C92.7958 -0.000111523 91.612 0.483722 90.7391 1.34508C89.8662 2.20643 89.3756 3.37476 89.3754 4.59307C89.3756 5.81137 89.8662 6.97969 90.7391 7.84104C91.612 8.70239 92.7958 9.18622 94.0301 9.18611C95.2644 9.18622 96.4482 8.70239 97.3211 7.84104C98.194 6.97969 98.6845 5.81137 98.6847 4.59307C98.6845 3.37476 98.194 2.20643 97.3211 1.34508C96.4482 0.483722 95.2644 -0.000111523 94.0301 1.17727e-07V1.17727e-07ZM81.9378 8.38524C81.707 8.38524 81.4785 8.42906 81.2741 8.51571C78.3836 9.69667 74.6375 15.0663 74.6375 15.0663V16.3764L77.1443 18.8506L74.5585 21.4032C74.3423 21.6169 74.1788 21.8769 74.0807 22.163C73.9826 22.4491 73.9525 22.7536 73.9927 23.0531C74.0329 23.3525 74.1424 23.6387 74.3126 23.8897C74.4829 24.1407 74.7093 24.3496 74.9745 24.5004L84.6144 29.9942V43.9553C84.613 44.2148 84.6636 44.4721 84.7633 44.7122C84.8629 44.9524 85.0097 45.1707 85.1951 45.3547C85.3806 45.5387 85.601 45.6848 85.8438 45.7844C86.0866 45.884 86.3469 45.9353 86.6099 45.9353C86.8728 45.9353 87.1332 45.884 87.3759 45.7844C87.6187 45.6848 87.8392 45.5387 88.0246 45.3547C88.21 45.1707 88.3568 44.9524 88.4565 44.7122C88.5561 44.4721 88.6067 44.2148 88.6054 43.9553V28.8608C88.6056 28.5153 88.5137 28.1758 88.339 27.8764C88.1642 27.577 87.9128 27.3283 87.6098 27.1552L81.5515 23.701L89.1135 16.237L93.3365 20.4089C93.7108 20.7764 94.2175 20.9826 94.7454 20.982H103.232C103.502 20.996 103.773 20.9554 104.027 20.8629C104.28 20.7704 104.513 20.6278 104.709 20.4438C104.905 20.2598 105.062 20.0384 105.169 19.7928C105.275 19.5473 105.331 19.2829 105.331 19.0157C105.331 18.7485 105.275 18.4841 105.169 18.2385C105.062 17.993 104.905 17.7715 104.709 17.5876C104.513 17.4036 104.28 17.261 104.027 17.1685C103.773 17.076 103.502 17.0354 103.232 17.0493H95.5699L88.6844 10.2455C88.4958 10.0592 88.2713 9.91223 88.0242 9.81312C87.7771 9.71402 87.5123 9.66484 87.2456 9.6685C86.7256 9.67537 86.2289 9.8824 85.8613 10.2455L85.2159 10.8827C84.5406 10.0436 83.5097 8.88775 82.6015 8.51573C82.3968 8.42906 82.1673 8.38524 81.9378 8.38524ZM70.2122 30.7479C68.7715 30.7478 67.3448 31.0279 66.0138 31.5721C64.6827 32.1163 63.4732 32.9139 62.4545 33.9195C61.4357 34.9251 60.6276 36.1189 60.0762 37.4327C59.5249 38.7465 59.2412 40.1547 59.2412 41.5768C59.2412 42.9989 59.5249 44.407 60.0762 45.7209C60.6276 47.0347 61.4357 48.2285 62.4545 49.2341C63.4732 50.2396 64.6827 51.0373 66.0138 51.5815C67.3448 52.1257 68.7715 52.4058 70.2122 52.4057C71.653 52.4058 73.0796 52.1257 74.4107 51.5815C75.7418 51.0373 76.9513 50.2396 77.97 49.2341C78.9888 48.2285 79.7969 47.0347 80.3482 45.7209C80.8996 44.407 81.1833 42.9989 81.1833 41.5768C81.1833 40.1547 80.8996 38.7465 80.3482 37.4327C79.7969 36.1189 78.9888 34.9251 77.97 33.9195C76.9513 32.9139 75.7418 32.1163 74.4107 31.5721C73.0796 31.0279 71.653 30.7478 70.2122 30.7479V30.7479ZM102.954 30.7479C100.045 30.7481 97.2546 31.8891 95.1974 33.9199C93.1401 35.9507 91.9845 38.705 91.9845 41.5768C91.9845 44.4486 93.1401 47.2029 95.1974 49.2337C97.2546 51.2645 100.045 52.4055 102.954 52.4057C104.395 52.4058 105.822 52.1257 107.153 51.5815C108.484 51.0373 109.693 50.2397 110.712 49.2341C111.731 48.2285 112.539 47.0347 113.09 45.7209C113.642 44.407 113.925 42.9989 113.925 41.5768C113.925 40.1547 113.642 38.7465 113.09 37.4327C112.539 36.1188 111.731 34.9251 110.712 33.9195C109.693 32.9139 108.484 32.1163 107.153 31.5721C105.822 31.0279 104.395 30.7478 102.954 30.7479Z" fill="black"/>
<path d="M63.9118 71.4616L64.5578 66.2707L38.3543 44.1682L39.2327 27.9447C39.4787 24.6593 37.3751 19.4015 33.0964 18.9875C28.8036 19.2517 26.5171 24.4333 26.649 27.7254L26.9603 43.9692L0 65.1453L0.464187 70.3556L27.3416 58.0743L27.4972 73.1151L19.3228 80.9864L19.3263 85.3844L32.0545 78.5232L44.5359 85.8238L44.6936 81.4291L36.7988 73.2773L37.4804 58.2515L63.9118 71.4616Z" fill="black"/>
<path d="M110.178 90.3581C107.521 90.3581 105.358 92.5196 105.358 95.1779C105.358 97.8362 107.521 100 110.178 100C112.838 100 115.001 97.8362 115.001 95.1779C115.001 92.5196 112.838 90.3581 110.178 90.3581Z" fill="black"/>
<path d="M65.8053 90.3581C63.1471 90.3581 60.9832 92.5196 60.9832 95.1779C60.9832 97.8362 63.1471 100 65.8053 100C68.4636 100 70.6267 97.8362 70.6267 95.1779C70.6267 92.5196 68.4636 90.3581 65.8053 90.3581Z" fill="black"/>
<path d="M123.34 90.3581C123.088 89.5173 122.554 88.3895 121.457 87.6816C116.413 84.8175 109.764 84.0778 108.931 84.0018C108.097 83.9243 106.761 83.7383 106.761 83.7383C106.761 83.7383 99.7802 78.3215 93.1588 76.2761C86.5382 74.23 72.909 75.6845 71.734 75.7946C68.9497 76.0422 61.3759 81.6504 61.3759 81.6504C61.3759 81.6504 53.1102 83.1451 52.4738 83.7109C51.8388 84.276 51.6262 87.0391 51.6474 89.6085C51.6687 92.1786 52.1267 95.7065 52.1267 95.7065C53.2037 95.7718 59.0009 96.1189 59.0009 96.1189C58.9584 95.8106 58.9288 95.4984 58.9288 95.1787C58.9288 91.3811 62.0071 88.3014 65.8053 88.3014C69.6036 88.3014 72.6819 91.4822 72.6819 95.2789C72.6819 95.9906 72.5748 96.6589 72.3743 97.4184H103.613C103.411 96.6589 103.304 95.9883 103.304 95.2789C103.304 91.4822 106.383 88.3522 110.182 88.3522C113.979 88.3522 117.058 91.4062 117.058 95.2037C117.058 95.8045 116.975 96.3696 116.829 96.9255C118.2 96.984 123.225 97.1693 123.613 96.905C124.062 96.5982 123.593 91.1996 123.34 90.3581ZM71.5677 83.3471C71.5677 83.3471 71.4887 79.1562 72.6181 78.1225C73.749 77.0896 81.1032 77.3546 81.4572 77.328C81.8119 77.3022 82.1445 77.6911 82.1719 78.0594C82.1984 78.4286 82.5843 83.9798 82.5843 83.9798L71.5677 83.3471ZM98.2255 84.4902L85.4051 84.1712C85.4051 84.1712 84.1724 78.0063 84.1207 77.7572C84.0691 77.5073 84.3 77.3296 84.6919 77.3288C85.0838 77.328 90.3122 77.8012 92.9902 78.7574C96.6336 80.0577 99.8189 82.4813 99.8189 82.4813L98.2255 84.4902Z" fill="black"/>
</svg>
