<svg width="761" height="595" viewBox="0 0 761 595" fill="none" xmlns="http://www.w3.org/2000/svg">
<g clip-path="url(#clip0)">
<path opacity="0.1" d="M717.184 375.532C691.382 408.36 701.382 456.35 717.802 494.767C723.275 507.632 729.53 521.24 727.184 535.035C724.346 551.902 709.287 564.244 693.47 570.778C664.642 582.698 630.138 579.852 603.663 563.384C580.77 549.151 564.382 526 541.113 512.415C502.152 489.678 452.566 498.26 410.258 513.924C380.328 525.007 347.607 539.412 317.864 527.836C296.933 519.684 282.469 499.855 274.587 478.829C270.779 468.669 268.019 457.726 260.756 449.644C256.432 444.861 250.795 441.469 245.024 438.6C192.287 412.471 125.679 426.462 74.4504 397.472C39.8524 377.892 17.7096 340.954 7.8971 302.444C-1.91545 263.934 -0.766083 223.548 1.72028 183.881C3.48732 155.697 6.66174 125.605 24.684 103.845C43.7461 80.8341 76.452 72.2755 105.999 76.6447C135.546 81.0139 162.357 96.6226 185.962 114.975C215.43 137.923 242.749 166.498 278.927 175.8C303.564 182.131 329.483 178.668 354.886 177.464C397.365 175.456 439.86 179.919 482.105 184.804C522.544 189.493 563.279 194.621 601.81 207.775C629.074 217.084 650.935 233.975 676.675 245.777C693.454 253.468 711.758 255.594 727.645 265.395C747.192 277.464 765.175 298.458 760.148 323.031C755.379 346.386 730.898 358.102 717.184 375.532Z" fill="#91CF66"/>
<path d="M597.783 491.921C594.711 488.312 591.226 485.075 587.4 482.276C588.198 481.698 588.979 481.117 589.746 480.533C599.613 473.202 608.065 465.683 609.879 460.282C614.727 445.955 664.431 419.693 664.431 419.693C664.431 419.693 613.515 429.244 586.845 413.721C570.934 404.459 546.391 402.849 529.182 403.06L529.307 402.763L529.541 402.247C529.674 401.958 529.807 401.677 529.948 401.388C530.089 401.098 530.175 400.919 530.3 400.684L530.401 400.497C530.581 400.153 530.769 399.809 530.964 399.465C531.441 398.621 531.949 397.777 532.489 396.932V396.886C533.876 394.75 535.383 392.694 537 390.726L537.063 390.648C538.353 389.085 539.698 387.522 541.051 386.091L541.129 386.006L542.083 384.997L542.239 384.841C543.529 383.489 544.819 382.207 546.07 381.011L546.359 380.737L547.141 380.026L547.501 379.69L548.197 379.041L548.564 378.705L549.604 377.767L550.167 377.267L550.589 376.9L551.207 376.36L551.52 376.095L552.302 375.407L552.372 375.344C554.898 373.187 556.563 371.929 556.563 371.929H556.524C555.722 372.503 554.883 373.025 554.014 373.492L553.897 373.547L553.115 373.937L552.896 374.039L552.2 374.352L551.809 374.508L551.262 374.735L550.73 374.93L550.3 375.086L549.628 375.313L549.315 375.415L548.455 375.673L548.314 375.712L547.298 375.985C529.612 380.542 504.474 373.805 502.168 373.164L502.019 373.125C502.019 373.125 491.917 371.038 478.829 369.162C484.896 356.75 490.971 345.073 496.601 334.677C501.457 345.307 509.708 354.022 520.057 359.454C520.448 359.017 520.839 358.563 521.167 358.11C522.34 358.782 523.036 359.103 523.036 359.103C526.321 355.348 528.606 350.826 529.682 345.956C533.048 349.147 536.853 351.842 540.98 353.96C541.319 353.579 541.645 353.191 541.957 352.795C542.434 353.045 542.692 353.17 542.692 353.17C549.237 345.8 550.973 336.28 550.238 326.595C562.403 331.225 575.836 331.283 588.041 326.76C588.041 326.713 588.041 326.658 588.041 326.611C589.167 326.228 589.785 325.962 589.785 325.962C588.8 318.717 585.094 312.675 580.058 307.657C603.421 308.142 616.025 293.666 616.025 293.666L615.892 293.486C616.853 292.588 617.338 292.033 617.338 292.033C614.25 287.683 610.353 283.967 605.86 281.09C616.525 274.783 621.146 266.615 621.146 266.615C620.88 266.365 620.599 266.122 620.364 265.88C620.95 265.036 621.24 264.528 621.24 264.528C620.653 263.973 620.043 263.449 619.434 262.965C619.832 262.363 620.028 262.019 620.028 262.019C610.645 253.194 598.198 250.013 585.852 249.646C593.313 241.358 597.905 230.889 598.948 219.789C589.566 216.732 579.98 218.843 571.254 223.235C571.968 215.126 570.796 206.962 567.83 199.381C570.222 201.223 572.798 202.816 575.516 204.133C575.849 203.747 576.17 203.354 576.477 202.953C576.954 203.195 577.259 203.312 577.259 203.312C583.686 195.84 585.266 186.297 584.382 176.659C596.619 181.1 610.051 180.95 622.186 176.237V176.089C623.304 175.69 623.914 175.417 623.914 175.417C622.811 168.187 619.043 162.2 613.898 157.26C637.26 157.385 649.637 142.714 649.637 142.714L649.497 142.534C650.443 141.62 650.92 141.057 650.92 141.057C647.759 136.77 643.804 133.129 639.27 130.333C649.833 123.862 654.321 115.623 654.321 115.623C654.047 115.373 653.766 115.139 653.492 114.897C654.063 114.037 654.344 113.529 654.344 113.529C653.75 112.982 653.132 112.466 652.515 111.966C652.906 111.356 653.101 111.012 653.101 111.012C643.586 102.336 631.084 99.3425 618.699 99.1706C626.023 90.7677 630.446 80.2297 631.31 69.1177C621.85 66.2023 612.334 68.469 603.679 73.0258C604.35 64.2012 602.734 55.3527 598.988 47.3343C598.346 47.4671 597.721 47.6235 597.103 47.7876C596.955 47.475 596.869 47.3186 596.869 47.3186C596.618 46.7715 596.462 46.4745 596.462 46.4745C585.727 48.6395 578.025 56.3697 572.552 65.6552C572.146 66.343 571.77 67.0386 571.372 67.7421C567.301 57.7021 560.229 49.1636 551.121 43.2933C543.122 50.8359 540.816 61.5595 541.254 72.4083C541.254 73.143 541.332 73.8777 541.379 74.6124C532.225 67.4632 520.999 63.4754 509.385 63.2478C507.735 69.6883 508.517 76.0271 510.784 82.0064C502.954 80.8025 494.954 81.3605 487.367 83.64C487.367 83.7416 487.367 83.8432 487.367 83.9448C486.249 84.2418 485.631 84.4607 485.631 84.4607C486.241 93.543 491.104 101.054 497.805 107.127C487.506 108.653 477.877 113.155 470.103 120.079C470.364 120.537 470.624 120.983 470.885 121.415C470.338 121.892 470.056 122.197 470.056 122.197C474.833 130.63 483.192 135.429 492.519 138.032C483.024 143.7 475.562 152.221 471.198 162.379C471.424 162.536 471.651 162.684 471.878 162.84C471.401 163.872 471.182 164.474 471.182 164.474C479.149 170.149 488.813 171.016 498.407 169.476C496.857 174.992 496.208 180.722 496.484 186.445C490.596 194.707 484.622 203.351 478.727 212.097C477.664 212.035 477.07 212.043 477.07 212.043C476.749 213.227 476.506 214.43 476.342 215.646C473.09 220.492 469.868 225.354 466.702 230.176C462.662 230.315 458.656 230.964 454.778 232.107C454.778 232.208 454.778 232.31 454.778 232.412C453.66 232.693 453.035 232.896 453.035 232.896C453.035 233.021 453.035 233.146 453.035 233.271C447.796 226.198 440.462 220.906 432.557 216.959C442.883 212.587 451.547 205.042 457.296 195.418C450.095 188.712 440.532 186.625 430.712 186.953C435.249 179.347 437.748 170.701 437.968 161.848C437.335 161.684 436.701 161.559 436.068 161.441C436.068 161.097 436.068 160.918 436.068 160.918C436.068 160.316 436.068 159.988 436.068 159.988C425.458 157.283 415.098 160.902 406.028 166.874C405.356 167.319 404.691 167.772 404.035 168.241C404.866 157.491 402.319 146.749 396.747 137.516C386.192 140.838 379.343 149.467 374.902 159.401C374.597 160.074 374.315 160.754 374.034 161.441C368.988 151.051 360.671 142.602 350.359 137.391C346.004 142.464 343.885 148.498 343.244 154.86C336.725 150.386 329.288 147.427 321.476 146.2L321.367 146.489C320.233 146.27 319.576 146.2 319.576 146.2C316.073 154.626 317.121 163.489 320.358 171.845C310.419 168.789 299.808 168.669 289.802 171.501C289.802 172.024 289.873 172.54 289.935 173.064C289.232 173.259 288.856 173.384 288.856 173.384C289.388 183.029 294.752 190.955 301.976 197.325C290.914 198.321 280.437 202.736 271.999 209.956C272.132 210.198 272.273 210.425 272.406 210.659C271.522 211.378 271.053 211.824 271.053 211.824C275.682 220.367 283.977 225.33 293.274 228.097C287.882 234.004 283.939 241.085 281.757 248.778C282.461 249.154 283.164 249.49 283.884 249.81C283.727 250.349 283.657 250.654 283.657 250.654C293.626 256.04 305.033 254.766 315.636 250.857C312.422 273.11 325.659 288.812 325.659 288.812C326.199 288.578 326.73 288.328 327.223 288.031C328.005 289.125 328.482 289.711 328.482 289.711C333.089 287.693 337.12 284.558 340.21 280.59C341.881 284.887 344.164 288.92 346.989 292.564C347.463 292.361 347.927 292.145 348.381 291.915C348.701 292.337 348.889 292.564 348.889 292.564C353.492 290.558 357.523 287.436 360.617 283.482C361.657 306.274 362.548 343.869 359.968 382.645C358.404 406.312 355.535 430.424 350.585 451.887C341.617 414.8 330.053 369.873 318.349 332.504C305.589 291.759 281.006 252.851 258.199 216.607C241.928 190.76 221.318 159.05 201.99 132.326C219.926 138.282 234.047 132.029 234.047 132.029C234.047 132.029 234.047 131.881 234 131.811C235.259 131.404 235.939 131.099 235.939 131.099C235.014 125.884 233.084 120.899 230.255 116.421C242.632 115.178 250.341 109.714 250.341 109.714C250.208 109.371 250.06 109.042 249.919 108.706C250.818 108.183 251.295 107.846 251.295 107.846C250.998 107.065 250.677 106.369 250.341 105.65C250.967 105.275 251.295 105.04 251.295 105.04C246.604 93.1288 236.713 85.0313 225.696 79.5366C236.022 75.1643 244.686 67.6196 250.435 57.9954C243.234 51.2892 233.672 49.2023 223.851 49.5306C228.402 41.9391 230.92 33.3036 231.162 24.4566C230.528 24.2924 229.895 24.1674 229.262 24.0501C229.262 23.7062 229.262 23.5264 229.262 23.5264C229.262 22.9246 229.262 22.5963 229.262 22.5963C218.652 19.892 208.292 23.5108 199.222 29.4823C198.55 29.9278 197.885 30.3812 197.228 30.8501C198.06 20.0997 195.512 9.35794 189.941 0.12506C179.386 3.4469 172.537 12.0759 168.096 22.0101C167.791 22.6823 167.509 23.3623 167.228 24.0501C162.181 13.6595 153.864 5.21073 143.552 0C139.197 5.07264 137.079 11.1067 136.437 17.469C129.917 12.9937 122.476 10.0346 114.662 8.80874L114.553 9.09793C113.419 8.87908 112.762 8.80874 112.762 8.80874C109.259 17.2345 110.307 26.0979 113.544 34.4533C103.571 31.3757 92.9187 31.2563 82.8789 34.1094C82.8789 34.6331 82.9493 35.149 83.0118 35.6726C82.3081 35.868 81.9328 35.9931 81.9328 35.9931C82.4645 45.6382 87.8282 53.5637 95.0527 59.9338C83.9934 60.9395 73.5216 65.3622 65.0912 72.5881C65.2241 72.8304 65.3649 73.057 65.4978 73.2915C64.6143 74.0106 64.1451 74.4561 64.1451 74.4561C68.7738 82.9991 77.0696 87.9623 86.3661 90.7292C80.974 96.6365 77.031 103.717 74.849 111.411C75.5527 111.786 76.2564 112.122 76.9757 112.442C76.8194 112.982 76.749 113.286 76.749 113.286C86.7179 118.672 98.1255 117.398 108.728 113.49C105.514 135.742 118.751 151.445 118.751 151.445C119.291 151.21 119.823 150.96 120.315 150.663C121.097 151.757 121.574 152.343 121.574 152.343C126.181 150.325 130.212 147.19 133.302 143.222C134.981 147.538 137.278 151.587 140.12 155.243C140.594 155.04 141.058 154.824 141.512 154.594C141.832 155.017 142.02 155.243 142.02 155.243C151.121 151.335 156.797 143.425 160.308 134.382C173.076 147.771 189.316 149.952 193.46 150.296C217.229 183.858 246.088 227.472 264.423 265.13C264.423 265.13 302.148 337.999 326.191 414.378C313.97 401.481 297.262 382.77 293.516 373.179C287.457 357.657 212.295 373.179 212.295 373.179L212.146 373.218C209.801 373.859 184.703 380.597 167.017 376.04L166.016 375.766L165.875 375.727L165.015 375.469L164.702 375.368L164.03 375.141L163.6 374.985L163.068 374.789L162.521 374.563L162.13 374.406L161.434 374.094L161.215 373.992L160.433 373.601L160.316 373.547C159.447 373.08 158.608 372.558 157.806 371.983V371.983H157.767C164.586 377.321 170.87 383.308 176.532 389.859L176.712 390.078L177.697 391.281L177.955 391.602C178.278 392.008 178.596 392.415 178.909 392.821L179.097 393.063C179.456 393.543 179.811 394.025 180.16 394.509L180.418 394.885C180.663 395.229 180.903 395.575 181.137 395.924L181.544 396.534L182.068 397.315L182.498 398.003L182.936 398.785C183.076 399.027 183.225 399.269 183.358 399.512L183.413 399.613C183.639 400.028 183.866 400.434 184.077 400.848L184.296 401.294C184.478 401.659 184.65 402.021 184.812 402.38L184.992 402.779L185.133 403.115C167.931 402.904 143.38 404.514 127.469 413.776C100.799 429.299 49.8837 419.748 49.8837 419.748C49.8837 419.748 99.5876 446.01 104.435 460.337C106.374 466.058 115.827 474.241 126.508 482.018L128.806 483.675C125.67 486.149 122.789 488.93 120.206 491.976C95.9675 520.63 37.7725 549.284 37.7725 549.284H37.9445L38.4449 549.331L39.3049 549.409L40.8687 549.557H41.1345C53.582 550.73 97.4296 555.24 122.45 562.759C123.349 563.032 124.225 563.306 125.069 563.579C132.34 565.963 173.545 562.383 201.443 554.028C202.224 553.794 203.006 553.583 203.788 553.379L204.484 553.207C205.068 553.067 205.654 552.934 206.243 552.809L206.939 552.66C207.721 552.504 208.503 552.355 209.285 552.23H209.269C210.051 552.097 210.833 551.988 211.615 551.886L212.326 551.8L214.039 551.613L214.781 551.543C215.49 551.48 216.197 551.431 216.9 551.394H217.127C217.909 551.355 218.636 551.324 219.394 551.308H220.176H222.522H224.133L225.227 551.347L226.791 551.425L227.909 551.503L228.879 551.582L230.122 551.691L230.708 551.754L232.045 551.894L232.999 552.012L233.718 552.105L234.774 552.254L235.36 552.34C235.36 552.504 235.298 552.684 235.267 552.856C235.267 552.856 236.275 558.475 242.89 563.97C231.686 567.19 222.389 570.895 215.446 574.913C215.032 575.139 214.664 575.382 214.258 575.616C214.539 575.616 214.813 575.554 215.11 575.53C215.407 575.507 215.634 575.53 215.892 575.53H500.987C501.253 575.53 501.511 575.53 501.769 575.53C502.027 575.53 502.324 575.577 502.606 575.616C502.837 575.641 503.066 575.678 503.294 575.726C503.54 575.759 503.783 575.811 504.021 575.882C503.5 575.548 502.978 575.225 502.457 574.913C493.778 569.848 481.425 565.354 466.295 561.625C470.838 559.28 473.371 556.623 474.427 553.809C475.318 553.606 476.225 553.411 477.171 553.223C480.871 552.47 484.608 551.92 488.368 551.574L489.931 551.449L490.713 551.386C499.4 550.72 508.136 551.599 516.515 553.981C544.397 562.337 585.61 565.916 592.889 563.532C593.733 563.251 594.609 562.978 595.508 562.712C620.473 555.2 664.313 550.683 676.823 549.51H677.089L678.653 549.362L679.513 549.284L680.013 549.237H680.185C680.185 549.237 622.029 520.575 597.783 491.921ZM564.358 196.629L563.959 196.715C563.959 196.59 564.014 196.465 564.038 196.34L564.358 196.629ZM446.381 261.777C444.669 262.699 443.16 263.621 441.893 264.473C440.812 260.728 439.212 257.153 437.139 253.851C443.302 253.255 449.291 251.474 454.778 248.606C451.877 253.109 449.078 257.509 446.381 261.777ZM451.651 283.748C454.052 284.879 456.538 285.82 459.086 286.561C453.092 290.025 447.841 294.639 443.637 300.138C446.099 294.721 448.789 289.25 451.651 283.748ZM374.401 382.692C376.606 346.276 377.951 306.875 376.075 279.136C383.634 284.088 392.325 287.046 401.337 287.734L401.376 287.585C402.557 287.71 403.229 287.734 403.229 287.734C405.458 280.762 404.746 273.759 402.322 267.092C413.082 272.467 425.424 273.769 437.069 270.757C437.63 271.755 438.252 272.718 438.93 273.641C423.8 297.871 413.503 315.262 413.503 315.262C403.018 331.027 385.739 386.154 370.031 441.523C371.485 425 373.096 404.366 374.401 382.692ZM420.79 373.14C417.897 380.55 407.271 393.392 396.951 404.803C410.493 370.717 424.066 341.845 431.643 326.314C433.793 321.914 435.857 317.474 437.898 313.027C445.677 318.498 455.099 319.444 464.481 318.092C462.15 325.714 461.636 333.777 462.98 341.634C463.762 341.68 464.544 341.688 465.326 341.673C465.42 342.228 465.482 342.525 465.482 342.525C469.058 342.745 472.644 342.319 476.069 341.266C471.894 349.723 467.711 358.462 463.606 367.317C444.074 365.379 423.824 365.387 420.798 373.132L420.79 373.14ZM565.023 197.935C564.882 197.622 564.796 197.458 564.796 197.458C564.64 197.106 564.522 196.856 564.46 196.723C564.872 197.088 565.281 197.437 565.687 197.771L565.023 197.935ZM510.98 192.252C517.641 189.97 523.544 185.538 528.642 180.239C532.132 190.54 538.776 199.482 547.634 205.798C544.784 208.703 542.288 211.935 540.198 215.427C539.784 216.107 539.416 216.803 538.986 217.498C535.073 207.405 528.137 198.765 519.127 192.76C511.003 200.178 508.532 210.863 508.798 221.68C508.798 222.415 508.853 223.149 508.892 223.892C504.458 220.275 499.457 217.415 494.091 215.427C499.869 207.252 505.6 199.467 511.003 192.252H510.98Z" fill="url(#paint0_linear)"/>
<path d="M340.132 430.409C340.132 430.409 301.272 391.563 295.385 376.267C289.497 360.971 216.494 376.267 216.494 376.267C216.494 376.267 179.996 386.858 163.506 375.087C163.506 375.087 189.409 395.096 191.763 411.572C194.116 428.048 285.963 470.427 285.963 470.427L340.132 521.036L358.975 510.446L340.132 430.409Z" fill="#91CF66"/>
<path opacity="0.05" d="M358.975 510.453L340.132 521.036L324.987 506.92L285.971 470.435C285.971 470.435 194.132 428.025 191.771 411.611C191.206 408.304 190.049 405.127 188.354 402.232C180.926 388.757 164.413 375.805 163.545 375.125C180.043 386.85 216.494 376.282 216.494 376.282C216.494 376.282 289.497 360.978 295.385 376.282C301.272 391.586 340.132 430.424 340.132 430.424L358.975 510.453Z" fill="black"/>
<path opacity="0.1" d="M334.244 506.921H324.987L285.971 470.435C285.971 470.435 194.132 428.025 191.771 411.611C191.206 408.304 190.049 405.127 188.354 402.232C195.786 402.203 203.214 402.576 210.606 403.349C236.51 429.244 273.008 442.195 273.008 442.195C309.521 418.646 334.244 506.921 334.244 506.921Z" fill="black"/>
<path d="M333.071 510.453H288.324L167.048 505.764C167.048 505.764 148.76 495.134 133.146 483.589C122.77 475.93 113.599 467.856 111.706 462.212C107.015 448.089 58.7188 422.194 58.7188 422.194C58.7188 422.194 108.172 431.573 134.076 416.308C159.98 401.044 209.433 406.929 209.433 406.929C235.337 432.824 271.835 445.775 271.835 445.775C292.078 432.722 308.692 454.052 319.49 475.64C324.982 486.845 329.525 498.49 333.071 510.453V510.453Z" fill="#91CF66"/>
<path d="M374.245 430.409C374.245 430.409 413.104 391.563 418.992 376.267C424.879 360.971 497.883 376.267 497.883 376.267C497.883 376.267 534.381 386.858 550.871 375.087C550.871 375.087 524.967 395.096 522.614 411.572C520.26 428.048 428.413 470.427 428.413 470.427L374.245 521.036L355.402 510.446L374.245 430.409Z" fill="#91CF66"/>
<path opacity="0.05" d="M550.863 375.118C549.995 375.798 533.482 388.757 526.054 402.24C524.356 405.133 523.199 408.311 522.637 411.619C520.292 428.095 428.437 470.474 428.437 470.474L389.39 506.96L374.245 521.036L355.402 510.446L374.245 430.409C374.245 430.409 413.104 391.563 418.992 376.267C424.879 360.971 497.883 376.267 497.883 376.267C497.883 376.267 534.365 386.85 550.863 375.118Z" fill="black"/>
<path opacity="0.1" d="M335.847 496.025C334.205 497.549 331.445 498.815 331.938 501.004C332.155 501.737 332.598 502.382 333.205 502.848C336.269 505.568 341.234 507.686 340.82 511.767C340.585 514.111 338.537 515.776 337.536 517.886C335.448 522.295 338.74 527.915 343.377 529.431C348.013 530.947 353.205 529.165 357.028 526.125C357.849 525.468 358.725 524.726 359.773 524.726C360.573 524.836 361.349 525.076 362.071 525.437C365.199 526.515 368.725 524.124 370.062 521.068C371.399 518.012 371.157 514.526 370.883 511.204C372.658 512.712 375.574 511.892 377.083 510.102C378.592 508.312 379.03 505.897 379.429 503.599L382.22 487.49C384.457 486.841 385.348 483.824 384.324 481.737C383.299 479.65 380.915 478.509 378.6 478.29C376.286 478.071 373.972 478.595 371.688 479.033C365.715 480.182 359.639 480.706 353.557 480.596C348.514 480.494 342.04 474.273 339.256 479.814C336.715 484.77 340.46 491.749 335.847 496.025Z" fill="black"/>
<path opacity="0.1" d="M526.054 402.232C524.356 405.126 523.198 408.304 522.637 411.611C520.291 428.087 428.437 470.466 428.437 470.466L389.39 506.952H378.991C378.991 506.952 403.714 418.645 440.219 442.18C440.219 442.18 476.717 429.228 502.621 403.334C510.405 402.53 518.228 402.162 526.054 402.232Z" fill="black"/>
<path d="M655.72 422.171C655.72 422.171 607.447 448.065 602.732 462.189C600.965 467.488 592.756 474.921 583.186 482.151C567.196 494.227 547.399 505.74 547.399 505.74L426.122 510.43H381.344C384.483 499.796 388.403 489.409 393.072 479.353C403.776 456.616 421.157 431.933 442.573 445.713C442.573 445.713 479.071 432.761 504.974 406.867C504.974 406.867 554.428 400.981 580.332 416.246C606.235 431.511 655.72 422.171 655.72 422.171Z" fill="#91CF66"/>
<path d="M543.834 150.858C543.834 150.858 470.744 235.741 439.586 307.962C436.381 315.395 433.073 322.812 429.571 330.073C410.884 368.951 354.659 492.648 356.622 570.027L335.425 574.537C335.425 574.537 389.585 353.248 411.963 319.115C411.963 319.115 510.87 149.615 543.842 133.139L543.834 150.858Z" fill="#635151"/>
<path d="M373.964 385.685C372.681 407.07 371.117 427.423 369.734 443.657C369.46 447.002 369.178 450.168 368.952 453.146C367.49 469.45 366.426 479.814 366.426 479.814V479.877C366.153 484.973 364.565 492.719 362.001 502.356C361.156 505.545 360.187 508.945 359.139 512.517C358.936 513.165 358.748 513.822 358.553 514.479C357.656 517.49 356.694 520.617 355.668 523.858C355.245 525.179 354.823 526.515 354.385 527.875C352.04 535.207 349.413 543.023 346.567 551.167C344.025 558.522 341.328 566.143 338.537 573.904L338.075 575.163C338.005 575.35 337.935 575.554 337.864 575.749H323.142C323.204 575.546 323.259 575.35 323.306 575.163C325.558 567.19 327.63 559.382 329.561 551.8C331.492 544.219 333.329 536.708 334.964 529.657C335.636 526.776 336.282 523.96 336.903 521.208C337.106 520.317 337.301 519.434 337.489 518.559C337.583 518.168 337.669 517.777 337.747 517.402C338.169 515.534 338.568 513.697 338.951 511.931C339.107 511.274 339.248 510.61 339.389 509.969L339.741 508.32C340.624 504.2 341.437 500.292 342.18 496.642C342.79 493.649 343.345 490.843 343.861 488.201C344.588 484.449 345.237 481.065 345.777 478.134C347.341 469.778 348.123 464.964 348.123 464.964C348.158 464.856 348.187 464.747 348.209 464.635C349.162 461.165 350.046 457.601 350.859 453.959C355.636 432.793 358.428 409.016 359.952 385.677C363.971 324.399 359.319 266.091 359.319 266.091L369.741 251.834C378.569 269.038 377.232 330.785 373.964 385.685Z" fill="#635151"/>
<path d="M518.259 293.252C518.259 293.252 496.734 328.026 475.389 372.359C473.304 376.715 471.219 381.144 469.134 385.646C461.018 403.138 453.784 421.025 447.46 439.241C446.858 440.992 446.272 442.75 445.709 444.493C444.645 447.753 443.637 451.004 442.691 454.217C442.315 455.475 441.948 456.733 441.604 457.984C440.931 460.36 440.296 462.718 439.696 465.057C438.828 468.481 438.039 471.873 437.35 475.218C437.35 475.218 432.925 488.826 426.928 510.391C426.553 511.782 426.146 513.189 425.763 514.643C425.489 515.643 425.208 516.667 424.926 517.707C422.784 525.679 420.478 534.511 418.148 544C417.366 547.251 416.584 550.566 415.755 553.973C414.144 560.789 412.526 567.886 410.962 575.171C410.962 575.374 410.876 575.561 410.845 575.757H396.075C396.075 575.554 396.138 575.358 396.161 575.171C397.178 567.401 398.202 559.812 399.289 552.504C400.032 547.267 400.798 542.155 401.564 537.247C402.909 528.61 404.285 520.536 405.653 513.259C405.841 512.306 406.021 511.368 406.193 510.445C406.193 510.445 406.193 510.375 406.193 510.336C407.711 502.012 409.692 493.78 412.127 485.676C412.733 483.764 413.44 481.885 414.246 480.049C414.246 480.049 416.24 474.937 419.719 466.339L421.486 461.923C423.832 456.217 426.584 449.378 429.751 441.726C430.188 440.656 430.642 439.561 431.103 438.451C437.546 422.952 445.388 404.506 453.778 385.669C456.029 380.62 458.313 375.508 460.627 370.498C480.479 327.182 502.121 285.373 515.53 275.806L518.259 293.252Z" fill="#635151"/>
<path d="M158.807 102.602C158.807 102.602 232.397 197.356 267.128 269.741C267.128 269.741 348.373 429.033 346.019 521.826L367.208 526.343C367.208 526.343 343.658 414.48 319.513 336.248C307.121 296.074 283.242 257.72 261.092 221.985C229.207 170.555 180.16 95.6299 158.791 84.9531L158.807 102.602Z" fill="#635151"/>
<path d="M499.869 576.14C499.639 576.07 499.403 576.018 499.165 575.984C498.943 575.936 498.719 575.899 498.493 575.874C498.219 575.874 497.953 575.804 497.711 575.788C497.469 575.773 497.203 575.788 496.929 575.788H220.059C219.801 575.788 219.543 575.788 219.277 575.788C219.011 575.788 218.722 575.835 218.456 575.874C218.831 575.64 219.238 575.405 219.613 575.179C226.361 571.185 235.391 567.542 246.267 564.361C267.918 558.03 296.886 553.52 329.553 551.816C333.392 551.605 337.286 551.449 341.218 551.324L346.574 551.183C350.069 551.113 353.611 551.066 357.169 551.066C357.771 551.066 358.357 551.066 358.959 551.066C372.9 551.066 386.403 551.574 399.241 552.512C404.871 552.924 410.357 553.419 415.7 553.997C431.691 555.61 447.554 558.316 463.175 562.094C477.867 565.768 489.869 570.208 498.297 575.194C498.839 575.496 499.363 575.812 499.869 576.14Z" fill="#635151"/>
<path opacity="0.1" d="M333.071 510.453H288.324L167.048 505.764C167.048 505.764 148.76 495.134 133.146 483.59C157.931 461.658 198.518 462.095 208.253 467.512C218.855 473.358 238.871 471.013 238.871 471.013C253.578 437.756 293.712 457.875 319.513 475.578C325.001 486.803 329.536 498.47 333.071 510.453Z" fill="black"/>
<path d="M342.485 496.916C342.485 496.916 261.24 423.937 238.871 474.554C238.871 474.554 218.855 476.899 208.261 471.021C197.666 465.143 150.566 465.136 127.016 493.383C103.466 521.63 46.9517 549.885 46.9517 549.885C46.9517 549.885 104.076 554.794 131.73 564.009C138.767 566.354 178.831 562.829 205.907 554.63C232.983 546.431 262.437 559.335 262.437 559.335L346.019 525.163L342.485 496.916Z" fill="#91CF66"/>
<path opacity="0.05" d="M346.019 525.163L262.437 559.335C253.893 555.876 244.923 553.581 235.767 552.512C226.603 551.425 216.095 551.535 205.915 554.63C178.831 562.868 138.799 566.401 131.738 564.009C104.083 554.794 46.9595 549.885 46.9595 549.885C46.9595 549.885 103.481 521.638 127.024 493.383C150.566 465.128 197.658 465.136 208.26 471.013C218.863 476.891 238.871 474.546 238.871 474.546C261.24 423.929 342.485 496.908 342.485 496.908L344.182 510.516L346.019 525.163Z" fill="black"/>
<path opacity="0.1" d="M583.146 482.159C567.157 494.235 547.36 505.748 547.36 505.748L426.083 510.438H381.344C384.483 499.804 388.403 489.417 393.072 479.361C418.272 461.056 463.293 435.325 479.079 471.006C479.079 471.006 499.095 473.35 509.689 467.473C519.212 462.189 558.259 461.634 583.146 482.159Z" fill="black"/>
<path d="M375.457 496.916C375.457 496.916 456.702 423.937 479.071 474.554C479.071 474.554 499.087 476.899 509.682 471.021C520.276 465.143 567.376 465.136 590.926 493.383C614.476 521.63 670.991 549.885 670.991 549.885C670.991 549.885 613.882 554.794 586.219 564.025C579.183 566.37 539.119 562.845 512.043 554.645C484.967 546.446 455.56 559.335 455.56 559.335L371.899 525.163L375.457 496.916Z" fill="#91CF66"/>
<path opacity="0.05" d="M670.998 549.885C670.998 549.885 613.882 554.794 586.219 564.025C579.183 566.37 539.119 562.845 512.043 554.645C498.548 550.534 484.482 551.691 473.731 553.864C467.513 555.101 461.428 556.933 455.56 559.335L371.899 525.163L374.034 508.132L375.434 496.916C375.434 496.916 456.678 423.937 479.048 474.554C479.048 474.554 499.064 476.899 509.658 471.021C520.253 465.143 567.353 465.136 590.903 493.383C614.453 521.63 670.998 549.885 670.998 549.885Z" fill="black"/>
<path opacity="0.1" d="M473.754 553.864C467.528 555.099 461.435 556.932 455.56 559.335L371.899 525.163L374.034 508.132C400.078 504.849 449.618 521.63 449.618 521.63C449.618 521.63 482.441 539.935 473.754 553.864Z" fill="black"/>
<path opacity="0.1" d="M346.019 525.163L262.437 559.335C253.893 555.876 244.923 553.581 235.767 552.512C235.593 552.051 235.454 551.578 235.353 551.097C243.852 502.958 315.972 507.053 344.198 510.563L346.019 525.163Z" fill="black"/>
<path d="M471.088 554.403C470.064 557.147 467.601 559.757 463.191 562.079C460.737 563.349 458.172 564.396 455.529 565.205C445.451 568.371 438.617 571.817 434.043 575.21C433.769 575.413 433.527 575.6 433.261 575.796H280.795C280.678 575.561 280.561 575.374 280.475 575.21C280.248 574.819 280.107 574.623 280.107 574.623C262.257 574.068 252.069 569.277 246.299 564.392C239.872 558.976 238.895 553.45 238.895 553.45C238.895 553.285 238.957 553.106 238.988 552.942C246.346 513.603 296.589 509.57 329.686 511.321C332.97 511.501 336.082 511.719 338.967 511.977L340.757 512.142L344.44 512.532L346.004 512.712C347.841 512.923 349.514 513.15 351.008 513.361C351.844 513.47 352.571 513.588 353.353 513.681C355.988 514.08 357.802 514.4 358.584 514.541L359.022 514.627C359.565 514.196 360.14 513.807 360.742 513.462C361.495 513.027 362.279 512.648 363.088 512.329C363.432 512.188 363.784 512.071 364.135 511.954C367.279 510.954 370.542 510.381 373.838 510.25C374.91 510.18 376.004 510.141 377.138 510.133C378.538 510.133 379.984 510.133 381.47 510.195C382.955 510.258 384.284 510.336 385.731 510.453C385.989 510.453 386.247 510.453 386.513 510.516C392.941 511.114 399.333 512.053 405.661 513.33C412.44 514.658 419.07 516.245 424.934 517.793C437.217 521.028 446.154 524.045 446.154 524.045C446.154 524.045 476.202 540.772 471.088 554.403Z" fill="#91CF66"/>
<path d="M364.69 241.136C382.323 236.66 394.281 223.836 391.399 212.493C388.517 201.151 371.887 195.585 354.255 200.062C336.622 204.538 324.664 217.362 327.545 228.705C330.427 240.047 347.057 245.613 364.69 241.136Z" fill="#91CF66"/>
<path d="M384.472 206.368C384.472 206.368 431.666 179.473 454.497 201.053C454.497 201.053 433.879 240.821 382.994 220.515L384.472 206.368Z" fill="#91CF66"/>
<path opacity="0.05" d="M377.036 206.47C377.036 206.47 405.324 160.105 435.747 167.952C435.747 167.952 436.943 212.723 382.58 219.538L377.036 206.47Z" fill="black"/>
<path d="M375.191 205.548C375.191 205.548 403.487 159.151 433.902 167.03C433.902 167.03 435.098 211.8 380.734 218.616L375.191 205.548Z" fill="#91CF66"/>
<path opacity="0.05" d="M380.742 217.725L379.96 215.88L375.191 204.633C375.191 204.633 387.537 184.366 404.738 172.908C413.542 167.022 423.605 163.45 433.91 166.115C433.902 166.115 435.106 210.886 380.742 217.725Z" fill="black"/>
<path opacity="0.05" d="M404.738 172.908C404.066 185.609 398.28 201.007 380.054 215.943L379.968 215.888L375.199 204.641C375.199 204.641 387.537 184.366 404.738 172.908Z" fill="black"/>
<path d="M378.201 215.935L375.574 214.098L366.528 207.806C366.528 207.806 366.207 184.358 374.495 165.537C378.811 155.743 385.442 147.224 395.715 143.957C395.715 143.957 420.579 181.216 378.201 215.935Z" fill="#91CF66"/>
<path opacity="0.05" d="M375.926 214.122H375.574L366.528 207.83C366.528 207.83 366.207 184.382 374.495 165.561C380.32 176.628 383.205 192.448 375.926 214.122Z" fill="black"/>
<path d="M359.866 213.434C359.866 213.434 330.374 167.827 350.656 143.871C350.656 143.871 391.525 162.239 374.112 214.153L359.866 213.434Z" fill="#91CF66"/>
<path opacity="0.05" d="M352.829 215.896C352.829 215.896 310.702 181.599 322.641 152.531C322.641 152.531 367.208 157.408 366.59 212.176L352.829 215.896Z" fill="black"/>
<path d="M350.984 215.896C350.984 215.896 308.865 181.591 320.765 152.531C320.765 152.531 365.332 157.408 364.714 212.176L350.984 215.896Z" fill="#91CF66"/>
<path opacity="0.05" d="M346.238 221.797C346.238 221.797 293.477 208.838 291.78 177.48C291.78 177.48 334.119 162.817 357.051 212.559L346.238 221.797Z" fill="black"/>
<path d="M345.316 223.634C345.316 223.634 292.555 210.675 290.858 179.317C290.858 179.317 333.197 164.654 356.129 214.395L345.316 223.634Z" fill="#91CF66"/>
<path opacity="0.05" d="M342.579 232.622C342.579 232.622 289.278 243.135 274.493 215.427C274.493 215.427 306.683 184.272 348.474 219.679L342.579 232.622Z" fill="black"/>
<path d="M341.657 234.436C341.657 234.436 288.356 244.949 273.571 217.241C273.571 217.241 305.761 186.086 347.552 221.493L341.657 234.436Z" fill="#91CF66"/>
<path opacity="0.05" d="M350.367 230.801C350.367 230.801 311.523 268.772 283.97 253.671C283.97 253.671 293.845 209.979 348.209 216.74L350.367 230.801Z" fill="black"/>
<path d="M352.212 232.623C352.212 232.623 313.368 270.593 285.815 255.493C285.815 255.493 295.69 211.801 350.054 218.561L352.212 232.623Z" fill="#91CF66"/>
<path opacity="0.05" d="M348.975 226.589C348.975 226.589 355.386 280.52 326.613 293.135C326.613 293.135 297.997 258.666 336.52 219.718L348.975 226.589Z" fill="black"/>
<path d="M351.735 227.503C351.735 227.503 358.146 281.434 329.373 294.049C329.373 294.049 300.756 259.58 339.279 220.633L351.735 227.503Z" fill="#91CF66"/>
<path opacity="0.05" d="M369.71 230.325C369.71 230.325 376.122 284.256 347.349 296.871C347.349 296.871 318.732 262.402 357.255 223.454L369.71 230.325Z" fill="black"/>
<path d="M371.555 230.325C371.555 230.325 377.967 284.256 349.194 296.871C349.194 296.871 320.577 262.402 359.1 223.454L371.555 230.325Z" fill="#91CF66"/>
<path opacity="0.05" d="M364.745 231.411C364.745 231.411 409.57 262.089 400.125 292.025C400.125 292.025 355.331 290.86 351.367 236.234L364.745 231.411Z" fill="black"/>
<path d="M366.583 231.411C366.583 231.411 411.415 262.089 401.97 292.025C401.97 292.025 357.177 290.86 353.212 236.234L366.583 231.411Z" fill="#91CF66"/>
<path opacity="0.05" d="M376.981 224.275C376.981 224.275 432.377 237.64 438.578 274.048C438.578 274.048 397.701 292.455 367.325 235.366L376.981 224.275Z" fill="black"/>
<path d="M378.827 223.353C378.827 223.353 434.223 236.718 440.423 273.125C440.423 273.125 399.546 291.532 369.17 234.444L378.827 223.353Z" fill="#91CF66"/>
<path d="M359.866 213.434C359.866 213.434 330.374 167.827 350.656 143.871C350.656 143.871 391.525 162.239 374.112 214.153L359.866 213.434Z" fill="#91CF66"/>
<path opacity="0.05" d="M359.866 213.434C359.866 213.434 330.374 167.827 350.656 143.871C350.656 143.871 391.525 162.239 374.112 214.153L359.866 213.434Z" fill="black"/>
<path d="M345.316 223.634C345.316 223.634 292.555 210.675 290.858 179.317C290.858 179.317 333.197 164.654 356.129 214.395L345.316 223.634Z" fill="#91CF66"/>
<path opacity="0.05" d="M345.316 223.634C345.316 223.634 292.555 210.675 290.858 179.317C290.858 179.317 333.197 164.654 356.129 214.395L345.316 223.634Z" fill="black"/>
<path d="M352.212 232.623C352.212 232.623 313.368 270.593 285.815 255.493C285.815 255.493 295.69 211.801 350.054 218.561L352.212 232.623Z" fill="#91CF66"/>
<path opacity="0.05" d="M352.212 232.623C352.212 232.623 313.368 270.593 285.815 255.493C285.815 255.493 295.69 211.801 350.054 218.561L352.212 232.623Z" fill="black"/>
<path d="M371.555 230.325C371.555 230.325 377.967 284.256 349.194 296.871C349.194 296.871 320.577 262.402 359.1 223.454L371.555 230.325Z" fill="#91CF66"/>
<path opacity="0.05" d="M371.555 230.325C371.555 230.325 377.967 284.256 349.194 296.871C349.194 296.871 320.577 262.402 359.1 223.454L371.555 230.325Z" fill="black"/>
<path d="M378.827 223.353C378.827 223.353 434.223 236.718 440.423 273.125C440.423 273.125 399.546 291.532 369.17 234.444L378.827 223.353Z" fill="#91CF66"/>
<path opacity="0.05" d="M378.827 223.353C378.827 223.353 434.223 236.718 440.423 273.125C440.423 273.125 399.546 291.532 369.17 234.444L378.827 223.353Z" fill="black"/>
<path opacity="0.05" d="M384.136 215.521C384.136 215.521 441.08 217.6 454.411 252.046C454.411 252.046 418.022 278.222 376.888 228.316L384.136 215.521Z" fill="black"/>
<path opacity="0.05" d="M385.059 210.917C385.059 210.917 442.003 212.996 455.334 247.442C455.334 247.442 418.945 273.618 377.811 223.712L385.059 210.917Z" fill="black"/>
<path d="M385.059 213.684C385.059 213.684 442.003 215.763 455.334 250.209C455.334 250.209 418.945 276.385 377.811 226.479L385.059 213.684Z" fill="#91CF66"/>
<path d="M399.155 228.394C397.547 234.822 394.069 240.629 389.16 245.081C384.252 249.533 378.133 252.43 371.577 253.407C365.021 254.383 358.323 253.395 352.329 250.566C346.336 247.738 341.315 243.197 337.903 237.517C334.49 231.837 332.839 225.273 333.157 218.654C333.476 212.036 335.75 205.661 339.692 200.335C343.635 195.009 349.068 190.97 355.306 188.73C361.544 186.49 368.306 186.149 374.737 187.75C379.011 188.815 383.033 190.711 386.573 193.331C390.113 195.95 393.102 199.24 395.37 203.015C397.638 206.789 399.139 210.973 399.788 215.328C400.438 219.683 400.223 224.123 399.155 228.394V228.394Z" fill="#F7931A"/>
<path d="M163.747 105.665C181.38 101.188 193.338 88.3645 190.456 77.022C187.575 65.6795 170.944 60.1136 153.312 64.5902C135.679 69.0668 123.721 81.8907 126.602 93.2332C129.484 104.576 146.114 110.142 163.747 105.665Z" fill="#91CF66"/>
<path d="M183.522 70.9155C183.522 70.9155 230.716 44.0203 253.547 65.6006C253.547 65.6006 232.928 105.369 182.044 85.0626L183.522 70.9155Z" fill="#91CF66"/>
<path opacity="0.05" d="M176.086 71.0091C176.086 71.0091 204.375 24.6441 234.797 32.4914C234.797 32.4914 235.994 77.262 181.63 84.0777L176.086 71.0091Z" fill="black"/>
<path d="M174.241 70.0868C174.241 70.0868 202.529 23.7217 232.952 31.5691C232.952 31.5691 234.149 76.3397 179.785 83.1553L174.241 70.0868Z" fill="#91CF66"/>
<path opacity="0.05" d="M179.793 82.2644L179.011 80.4198L174.241 69.1725C174.241 69.1725 186.595 48.9444 203.796 37.4469C212.6 31.5614 222.663 27.9895 232.968 30.6548C232.952 30.6548 234.156 75.4331 179.793 82.2644Z" fill="black"/>
<path opacity="0.05" d="M203.796 37.447C203.124 50.1482 197.338 65.5459 179.112 80.4824L179.026 80.4277L174.257 69.1804C174.257 69.1804 186.595 48.9445 203.796 37.447Z" fill="black"/>
<path d="M177.212 80.4823L174.624 78.6455L165.578 72.3536C165.578 72.3536 165.257 48.9053 173.545 30.0841C177.861 20.2906 184.491 11.771 194.765 8.50391C194.765 8.50391 219.629 45.7554 177.212 80.4823Z" fill="#91CF66"/>
<path opacity="0.05" d="M174.976 78.6456H174.624L165.578 72.3537C165.578 72.3537 165.257 48.9054 173.545 30.0842C179.37 41.1674 182.255 56.995 174.976 78.6456Z" fill="black"/>
<path d="M158.916 77.9734C158.916 77.9734 129.424 32.3665 149.706 8.41016C149.706 8.41016 190.574 26.778 173.162 78.6925L158.916 77.9734Z" fill="#91CF66"/>
<path opacity="0.05" d="M151.879 80.4432C151.879 80.4432 109.76 46.1384 121.66 17.0781C121.66 17.0781 166.227 21.9554 165.609 76.7227L151.879 80.4432Z" fill="black"/>
<path d="M150.034 80.4432C150.034 80.4432 107.914 46.1384 119.815 17.0781C119.815 17.0781 164.382 21.9554 163.764 76.7227L150.034 80.4432Z" fill="#91CF66"/>
<path opacity="0.05" d="M145.288 86.3365C145.288 86.3365 92.5272 73.3775 90.8306 42.0193C90.8306 42.0193 133.169 27.3563 156.102 77.0979L145.288 86.3365Z" fill="black"/>
<path d="M144.373 88.181C144.373 88.181 91.6122 75.222 89.9155 43.8638C89.9155 43.8638 132.254 29.2008 155.187 78.9424L144.373 88.181Z" fill="#91CF66"/>
<path opacity="0.05" d="M141.629 97.1306C141.629 97.1306 88.3287 107.643 73.5435 79.9352C73.5435 79.9352 105.733 48.7802 147.525 84.1871L141.629 97.1306Z" fill="black"/>
<path d="M140.706 98.9672C140.706 98.9672 87.4059 109.48 72.6206 81.7718C72.6206 81.7718 104.81 50.6169 146.602 86.0238L140.706 98.9672Z" fill="#91CF66"/>
<path opacity="0.05" d="M149.416 95.3406C149.416 95.3406 110.573 133.311 83.0195 118.21C83.0195 118.21 92.8946 74.5185 147.258 81.2795L149.416 95.3406Z" fill="black"/>
<path d="M151.262 97.1853C151.262 97.1853 112.418 135.156 84.8647 120.071C84.8647 120.071 94.7398 76.3789 149.104 83.1398L151.262 97.1853Z" fill="#91CF66"/>
<path opacity="0.05" d="M148.025 91.1513C148.025 91.1513 154.436 145.082 125.663 157.698C125.663 157.698 97.0463 123.229 135.569 84.281L148.025 91.1513Z" fill="black"/>
<path d="M150.785 92.05C150.785 92.05 157.196 145.981 128.423 158.596C128.423 158.596 99.8066 124.127 138.33 85.1797L150.785 92.05Z" fill="#91CF66"/>
<path opacity="0.05" d="M168.76 94.864C168.76 94.864 175.171 148.795 146.398 161.41C146.398 161.41 117.782 126.941 156.305 87.9937L168.76 94.864Z" fill="black"/>
<path d="M170.605 94.864C170.605 94.864 177.017 148.795 148.244 161.41C148.244 161.41 119.627 126.941 158.15 87.9937L170.605 94.864Z" fill="#91CF66"/>
<path opacity="0.05" d="M163.795 95.9504C163.795 95.9504 208.62 126.636 199.175 156.588C199.175 156.588 154.382 155.423 150.417 100.796L163.795 95.9504Z" fill="black"/>
<path d="M165.633 95.9504C165.633 95.9504 210.458 126.636 201.013 156.588C201.013 156.588 156.219 155.423 152.255 100.796L165.633 95.9504Z" fill="#91CF66"/>
<path opacity="0.05" d="M176.032 88.8064C176.032 88.8064 231.428 102.172 237.628 138.579C237.628 138.579 196.751 156.986 166.375 99.8974L176.032 88.8064Z" fill="black"/>
<path d="M177.877 87.8999C177.877 87.8999 233.273 101.265 239.473 137.673C239.473 137.673 198.597 156.08 168.221 98.9909L177.877 87.8999Z" fill="#91CF66"/>
<path d="M158.916 77.9734C158.916 77.9734 129.424 32.3665 149.706 8.41016C149.706 8.41016 190.574 26.778 173.162 78.6925L158.916 77.9734Z" fill="#91CF66"/>
<path opacity="0.05" d="M158.916 77.9734C158.916 77.9734 129.424 32.3665 149.706 8.41016C149.706 8.41016 190.574 26.778 173.162 78.6925L158.916 77.9734Z" fill="black"/>
<path d="M144.373 88.181C144.373 88.181 91.6122 75.222 89.9155 43.8638C89.9155 43.8638 132.254 29.2008 155.187 78.9424L144.373 88.181Z" fill="#91CF66"/>
<path opacity="0.05" d="M144.373 88.181C144.373 88.181 91.6122 75.222 89.9155 43.8638C89.9155 43.8638 132.254 29.2008 155.187 78.9424L144.373 88.181Z" fill="black"/>
<path d="M151.262 97.1853C151.262 97.1853 112.418 135.156 84.8647 120.071C84.8647 120.071 94.7398 76.3789 149.104 83.1398L151.262 97.1853Z" fill="#91CF66"/>
<path opacity="0.05" d="M151.262 97.1853C151.262 97.1853 112.418 135.156 84.8647 120.071C84.8647 120.071 94.7398 76.3789 149.104 83.1398L151.262 97.1853Z" fill="black"/>
<path d="M170.605 94.864C170.605 94.864 177.017 148.795 148.244 161.41C148.244 161.41 119.627 126.941 158.15 87.9937L170.605 94.864Z" fill="#91CF66"/>
<path opacity="0.05" d="M170.605 94.864C170.605 94.864 177.017 148.795 148.244 161.41C148.244 161.41 119.627 126.941 158.15 87.9937L170.605 94.864Z" fill="black"/>
<path d="M177.877 87.8999C177.877 87.8999 233.273 101.265 239.473 137.673C239.473 137.673 198.597 156.08 168.221 98.9909L177.877 87.8999Z" fill="#91CF66"/>
<path opacity="0.05" d="M177.877 87.8999C177.877 87.8999 233.273 101.265 239.473 137.673C239.473 137.673 198.597 156.08 168.221 98.9909L177.877 87.8999Z" fill="black"/>
<path opacity="0.05" d="M183.186 80.0681C183.186 80.0681 240.13 82.1472 253.461 116.593C253.461 116.593 217.072 142.769 175.938 92.8631L183.186 80.0681Z" fill="black"/>
<path opacity="0.05" d="M184.108 75.4565C184.108 75.4565 241.052 77.5356 254.383 111.981C254.383 111.981 217.995 138.157 176.86 88.2515L184.108 75.4565Z" fill="black"/>
<path d="M184.108 78.2234C184.108 78.2234 241.052 80.3025 254.383 114.748C254.383 114.748 217.995 140.924 176.86 91.0183L184.108 78.2234Z" fill="#91CF66"/>
<path d="M198.206 92.9333C196.598 99.3611 193.119 105.168 188.211 109.62C183.302 114.072 177.183 116.97 170.627 117.946C164.072 118.922 157.374 117.934 151.38 115.106C145.386 112.277 140.365 107.736 136.953 102.056C133.54 96.3758 131.889 89.8119 132.208 83.1938C132.526 76.5756 134.8 70.2005 138.743 64.8742C142.685 59.5479 148.118 55.5095 154.356 53.2695C160.594 51.0296 167.356 50.6886 173.788 52.2896C178.061 53.3545 182.083 55.2507 185.623 57.8699C189.163 60.489 192.153 63.7798 194.42 67.5542C196.688 71.3286 198.189 75.5126 198.839 79.8673C199.488 84.2219 199.273 88.6618 198.206 92.9333Z" fill="#F7931A"/>
<path d="M560.314 151.927C574.187 140.162 579.294 123.39 571.72 114.466C564.147 105.543 546.762 107.846 532.889 119.611C519.016 131.376 513.909 148.148 521.483 157.072C529.056 165.996 546.441 163.692 560.314 151.927Z" fill="#91CF66"/>
<path d="M562.833 112.083C562.833 112.083 593.42 67.1949 623.405 76.5664C623.405 76.5664 622.35 121.345 567.72 125.44L562.833 112.083Z" fill="#91CF66"/>
<path opacity="0.05" d="M556.203 115.436C556.203 115.436 561.246 61.3564 592.029 55.0566C592.029 55.0566 612.772 94.7546 566.946 124.761L556.203 115.436Z" fill="black"/>
<path d="M554.139 115.381C554.139 115.381 559.182 61.3015 589.965 55.0017C589.965 55.0017 610.708 94.6996 564.882 124.706L554.139 115.381Z" fill="#91CF66"/>
<path opacity="0.05" d="M564.483 123.924L562.966 122.611L553.74 114.6C553.74 114.6 555.953 90.9637 566.336 73.1273C571.661 63.9747 579.136 56.3462 589.566 54.2202C589.566 54.2124 610.309 93.9103 564.483 123.924Z" fill="black"/>
<path opacity="0.05" d="M566.336 73.1274C571.309 84.8516 572.873 101.203 563.068 122.627H562.966L553.74 114.6C553.74 114.6 555.953 90.9559 566.336 73.1274Z" fill="black"/>
<path d="M561.411 123.432L558.283 122.939L547.392 121.259C547.392 121.259 536.789 100.304 535.976 79.7866C535.546 69.0942 537.79 58.519 545.562 51.0859C545.523 51.0781 584.226 73.6354 561.411 123.432Z" fill="#91CF66"/>
<path opacity="0.05" d="M558.565 122.799L558.244 122.939L547.352 121.259C547.352 121.259 536.75 100.304 535.937 79.7866C546.039 87.1885 555.586 100.132 558.565 122.799Z" fill="black"/>
<path d="M543.842 129.231C543.842 129.231 497.304 101.203 504.99 70.7513C504.99 70.7513 549.776 69.3053 556.907 123.611L543.842 129.231Z" fill="#91CF66"/>
<path opacity="0.05" d="M538.595 134.538C538.595 134.538 485.686 122.22 483.606 90.8777C483.606 90.8777 525.765 75.7067 549.284 125.167L538.595 134.538Z" fill="black"/>
<path d="M536.938 135.343C536.938 135.343 484.028 123.025 481.948 91.6827C481.948 91.6827 524.107 76.5117 547.626 125.972L536.938 135.343Z" fill="#91CF66"/>
<path opacity="0.05" d="M535.265 142.737C535.265 142.737 482.175 154.258 466.866 126.832C466.866 126.832 498.462 95.0749 540.918 129.685L535.265 142.737Z" fill="black"/>
<path d="M535.249 144.785C535.249 144.785 482.16 156.306 466.851 128.88C466.851 128.88 498.446 97.1228 540.902 131.732L535.249 144.785Z" fill="#91CF66"/>
<path opacity="0.05" d="M536.719 154.032C536.719 154.032 493.458 186.859 468 168.476C468 168.476 483.231 126.355 536.336 139.814L536.719 154.032Z" fill="black"/>
<path d="M536.703 156.095C536.703 156.095 493.442 188.923 467.984 170.539C467.984 170.539 483.215 128.418 536.32 141.878L536.703 156.095Z" fill="#91CF66"/>
<path opacity="0.05" d="M542.935 148.99C542.935 148.99 524.717 200.154 493.333 198.685C493.333 198.685 483.012 155.102 534.827 137.305L542.935 148.99Z" fill="black"/>
<path d="M545.398 149.85C545.398 149.85 527.18 201.014 495.796 199.545C495.796 199.545 485.475 155.962 537.29 138.165L545.398 149.85Z" fill="#91CF66"/>
<path opacity="0.05" d="M539.831 145.864C539.831 145.864 569.284 191.502 548.979 215.427C548.979 215.427 508.126 197.028 525.624 145.121L539.831 145.864Z" fill="black"/>
<path d="M542.716 145.442C542.716 145.442 572.169 191.08 551.864 215.005C551.864 215.005 511.01 196.606 528.509 144.699L542.716 145.442Z" fill="#91CF66"/>
<path opacity="0.05" d="M560.105 140.08C560.105 140.08 589.558 185.718 569.253 209.643C569.253 209.643 528.4 191.244 545.898 139.337L560.105 140.08Z" fill="black"/>
<path d="M561.755 139.275C561.755 139.275 591.208 184.913 570.903 208.838C570.903 208.838 530.05 190.439 547.548 138.532L561.755 139.275Z" fill="#91CF66"/>
<path opacity="0.05" d="M556.117 143.238C556.117 143.238 609.871 151.124 614.547 182.178C614.547 182.178 573.796 200.795 546.234 153.461L556.117 143.238Z" fill="black"/>
<path d="M557.767 142.433C557.767 142.433 611.521 150.319 616.197 181.372C616.197 181.372 575.445 199.99 547.884 152.656L557.767 142.433Z" fill="#91CF66"/>
<path opacity="0.05" d="M563.975 131.459C563.975 131.459 619.614 119.149 641.178 149.131C641.178 149.131 612.545 183.616 560.175 145.661L563.975 131.459Z" fill="black"/>
<path d="M565.226 129.825C565.226 129.825 620.864 117.515 642.429 147.498C642.429 147.498 613.796 181.982 561.426 144.027L565.226 129.825Z" fill="#91CF66"/>
<path d="M543.842 129.231C543.842 129.231 497.304 101.203 504.99 70.7513C504.99 70.7513 549.776 69.3053 556.907 123.611L543.842 129.231Z" fill="#91CF66"/>
<path opacity="0.05" d="M543.842 129.231C543.842 129.231 497.304 101.203 504.99 70.7513C504.99 70.7513 549.776 69.3053 556.907 123.611L543.842 129.231Z" fill="black"/>
<path d="M535.249 144.785C535.249 144.785 482.16 156.306 466.851 128.88C466.851 128.88 498.446 97.1228 540.902 131.732L535.249 144.785Z" fill="#91CF66"/>
<path opacity="0.05" d="M535.249 144.785C535.249 144.785 482.16 156.306 466.851 128.88C466.851 128.88 498.446 97.1228 540.902 131.732L535.249 144.785Z" fill="black"/>
<path d="M545.398 149.85C545.398 149.85 527.18 201.014 495.796 199.545C495.796 199.545 485.475 155.962 537.29 138.165L545.398 149.85Z" fill="#91CF66"/>
<path opacity="0.05" d="M545.398 149.85C545.398 149.85 527.18 201.014 495.796 199.545C495.796 199.545 485.475 155.962 537.29 138.165L545.398 149.85Z" fill="black"/>
<path d="M561.755 139.275C561.755 139.275 591.208 184.913 570.903 208.838C570.903 208.838 530.05 190.439 547.548 138.532L561.755 139.275Z" fill="#91CF66"/>
<path opacity="0.05" d="M561.755 139.275C561.755 139.275 591.208 184.913 570.903 208.838C570.903 208.838 530.05 190.439 547.548 138.532L561.755 139.275Z" fill="black"/>
<path d="M565.226 129.825C565.226 129.825 620.864 117.515 642.429 147.498C642.429 147.498 613.796 181.982 561.426 144.027L565.226 129.825Z" fill="#91CF66"/>
<path opacity="0.05" d="M565.226 129.825C565.226 129.825 620.864 117.515 642.429 147.498C642.429 147.498 613.796 181.982 561.426 144.027L565.226 129.825Z" fill="black"/>
<path opacity="0.05" d="M566.587 120.454C566.587 120.454 618.66 97.3181 645.767 122.416C645.767 122.416 624.571 161.902 565.695 135.132L566.587 120.454Z" fill="black"/>
<path opacity="0.05" d="M565.359 115.913C565.359 115.913 617.432 92.7771 644.54 117.875C644.54 117.875 623.343 157.361 564.468 130.591L565.359 115.913Z" fill="black"/>
<path d="M566.587 118.398C566.587 118.398 618.66 95.2624 645.767 120.36C645.767 120.36 624.571 159.847 565.695 133.077L566.587 118.398Z" fill="#91CF66"/>
<path d="M585.703 125.425C587.083 131.906 586.51 138.65 584.056 144.805C581.602 150.96 577.377 156.25 571.916 160.005C566.456 163.761 560.004 165.813 553.376 165.904C546.748 165.994 540.243 164.118 534.681 160.513C529.12 156.908 524.753 151.736 522.132 145.65C519.511 139.564 518.753 132.838 519.955 126.322C521.157 119.806 524.265 113.793 528.886 109.042C533.506 104.291 539.432 101.016 545.914 99.6317C550.22 98.7127 554.666 98.6509 558.997 99.4499C563.328 100.249 567.459 101.893 571.154 104.288C574.849 106.683 578.035 109.783 580.532 113.41C583.028 117.036 584.786 121.119 585.703 125.425V125.425Z" fill="#F7931A"/>
<path d="M527.762 299.563C541.82 288.019 547.193 271.331 539.762 262.288C532.331 253.245 514.912 255.272 500.854 266.815C486.796 278.359 481.423 295.047 488.854 304.09C496.284 313.133 513.704 311.106 527.762 299.563Z" fill="#91CF66"/>
<path d="M530.886 259.674C530.886 259.674 562.161 215.271 592.013 225.111C592.013 225.111 590.254 269.866 535.562 273.102L530.886 259.674Z" fill="#91CF66"/>
<path opacity="0.05" d="M524.201 262.925C524.201 262.925 530.097 208.932 560.949 203.117C560.949 203.117 581.067 243.135 534.772 272.422L524.201 262.925Z" fill="black"/>
<path d="M522.137 262.871C522.137 262.871 528.032 208.877 558.885 203.062C558.885 203.062 579.003 243.08 532.708 272.367L522.137 262.871Z" fill="#91CF66"/>
<path opacity="0.05" d="M532.34 271.539L530.847 270.202L521.746 262.042C521.746 262.042 524.326 238.446 534.991 220.773C540.464 211.707 548.048 204.195 558.51 202.234C558.518 202.234 578.635 242.252 532.34 271.539Z" fill="black"/>
<path opacity="0.05" d="M534.999 220.773C539.792 232.552 541.097 248.95 530.949 270.218H530.847L521.746 262.058C521.746 262.058 524.365 238.446 534.999 220.773Z" fill="black"/>
<path d="M529.276 270.999L526.148 270.452L515.257 268.576C515.257 268.576 504.983 247.473 504.498 226.932C504.24 216.232 506.64 205.696 514.529 198.38C514.529 198.404 552.873 221.57 529.276 270.999Z" fill="#91CF66"/>
<path opacity="0.05" d="M526.445 270.327L526.116 270.46L515.256 268.577C515.256 268.577 504.982 247.473 504.498 226.932C514.482 234.514 523.826 247.614 526.445 270.327Z" fill="black"/>
<path d="M511.62 276.525C511.62 276.525 465.529 247.77 473.692 217.444C473.692 217.444 518.493 216.709 524.772 271.109L511.62 276.525Z" fill="#91CF66"/>
<path opacity="0.05" d="M506.296 281.747C506.296 281.747 453.582 268.592 452.002 237.195C452.002 237.195 494.396 222.688 517.141 272.516L506.296 281.747Z" fill="black"/>
<path d="M504.623 282.528C504.623 282.528 451.909 269.374 450.33 237.976C450.33 237.976 492.723 223.47 515.468 273.297L504.623 282.528Z" fill="#91CF66"/>
<path opacity="0.05" d="M502.832 289.883C502.832 289.883 449.563 300.568 434.692 272.899C434.692 272.899 466.749 241.634 508.689 276.924L502.832 289.883Z" fill="black"/>
<path d="M502.778 291.939C502.778 291.939 449.508 302.623 434.637 274.954C434.637 274.954 466.694 243.69 508.634 278.98L502.778 291.939Z" fill="#91CF66"/>
<path opacity="0.05" d="M504.115 301.209C504.115 301.209 460.33 333.372 435.177 314.566C435.177 314.566 451.064 272.688 503.982 286.983L504.115 301.209Z" fill="black"/>
<path d="M504.037 303.272C504.037 303.272 460.252 335.435 435.099 316.63C435.099 316.63 450.986 274.751 503.904 289.047L504.037 303.272Z" fill="#91CF66"/>
<path opacity="0.05" d="M510.401 296.277C510.401 296.277 491.378 347.152 460.024 345.174C460.024 345.174 450.392 301.404 502.48 284.451L510.401 296.277Z" fill="black"/>
<path d="M512.848 297.16C512.848 297.16 493.825 348.035 462.472 346.065C462.472 346.065 452.839 302.295 504.928 285.342L512.848 297.16Z" fill="#91CF66"/>
<path opacity="0.05" d="M507.344 293.057C507.344 293.057 536.078 339.171 515.397 362.792C515.397 362.792 474.841 343.752 493.153 292.126L507.344 293.057Z" fill="black"/>
<path d="M510.245 292.713C510.245 292.713 538.978 338.828 518.298 362.448C518.298 362.448 477.742 343.408 496.053 291.782L510.245 292.713Z" fill="#91CF66"/>
<path opacity="0.05" d="M527.712 287.624C527.712 287.624 556.446 333.739 535.765 357.36C535.765 357.36 495.209 338.32 513.521 286.694L527.712 287.624Z" fill="black"/>
<path d="M529.377 286.843C529.377 286.843 558.111 332.958 537.431 356.578C537.431 356.578 496.875 337.538 515.186 285.913L529.377 286.843Z" fill="#91CF66"/>
<path opacity="0.05" d="M523.669 290.719C523.669 290.719 577.29 299.45 581.473 330.582C581.473 330.582 540.433 348.559 513.622 300.794L523.669 290.719Z" fill="black"/>
<path d="M525.343 289.938C525.343 289.938 578.964 298.669 583.147 329.8C583.147 329.8 542.106 347.777 515.295 300.013L525.343 289.938Z" fill="#91CF66"/>
<path opacity="0.05" d="M531.715 279.066C531.715 279.066 587.541 267.631 608.636 297.949C608.636 297.949 579.464 331.981 527.696 293.205L531.715 279.066Z" fill="black"/>
<path d="M532.966 277.448C532.966 277.448 588.792 266.013 609.887 296.332C609.887 296.332 580.715 330.363 528.947 291.587L532.966 277.448Z" fill="#91CF66"/>
<path d="M511.62 276.525C511.62 276.525 465.529 247.77 473.692 217.444C473.692 217.444 518.493 216.709 524.772 271.109L511.62 276.525Z" fill="#91CF66"/>
<path opacity="0.05" d="M511.62 276.525C511.62 276.525 465.529 247.77 473.692 217.444C473.692 217.444 518.493 216.709 524.772 271.109L511.62 276.525Z" fill="black"/>
<path d="M502.778 291.939C502.778 291.939 449.508 302.623 434.637 274.954C434.637 274.954 466.694 243.69 508.634 278.98L502.778 291.939Z" fill="#91CF66"/>
<path opacity="0.05" d="M502.778 291.939C502.778 291.939 449.508 302.623 434.637 274.954C434.637 274.954 466.694 243.69 508.634 278.98L502.778 291.939Z" fill="black"/>
<path d="M512.848 297.16C512.848 297.16 493.825 348.035 462.472 346.065C462.472 346.065 452.839 302.295 504.928 285.342L512.848 297.16Z" fill="#91CF66"/>
<path opacity="0.05" d="M512.848 297.16C512.848 297.16 493.825 348.035 462.472 346.065C462.472 346.065 452.839 302.295 504.928 285.342L512.848 297.16Z" fill="black"/>
<path d="M529.377 286.843C529.377 286.843 558.111 332.958 537.431 356.578C537.431 356.578 496.875 337.538 515.186 285.913L529.377 286.843Z" fill="#91CF66"/>
<path opacity="0.05" d="M529.377 286.843C529.377 286.843 558.111 332.958 537.431 356.578C537.431 356.578 496.875 337.538 515.186 285.913L529.377 286.843Z" fill="black"/>
<path d="M532.966 277.448C532.966 277.448 588.792 266.013 609.887 296.332C609.887 296.332 580.715 330.363 528.947 291.587L532.966 277.448Z" fill="#91CF66"/>
<path opacity="0.05" d="M532.966 277.448C532.966 277.448 588.792 266.013 609.887 296.332C609.887 296.332 580.715 330.363 528.947 291.587L532.966 277.448Z" fill="black"/>
<path opacity="0.05" d="M534.475 268.108C534.475 268.108 586.915 245.793 613.609 271.312C613.609 271.312 591.794 310.463 533.349 282.763L534.475 268.108Z" fill="black"/>
<path opacity="0.05" d="M533.349 263.543C533.349 263.543 585.782 241.22 612.483 266.748C612.483 266.748 590.668 305.899 532.223 278.198L533.349 263.543Z" fill="black"/>
<path d="M534.53 266.044C534.53 266.044 586.962 243.737 613.671 269.257C613.671 269.257 591.857 308.407 533.412 280.707L534.53 266.044Z" fill="#91CF66"/>
<path d="M553.537 273.376C554.817 279.878 554.14 286.613 551.591 292.73C549.043 298.847 544.737 304.072 539.218 307.743C533.7 311.414 527.216 313.367 520.587 313.354C513.958 313.342 507.482 311.366 501.977 307.674C496.472 303.983 492.185 298.743 489.659 292.616C487.133 286.489 486.481 279.752 487.785 273.255C489.089 266.758 492.291 260.793 496.986 256.115C501.681 251.437 507.658 248.255 514.162 246.973C522.886 245.255 531.935 247.071 539.319 252.022C546.703 256.974 551.818 264.655 553.537 273.376V273.376Z" fill="#F7931A"/>
<path d="M710.225 97.6463C731.704 97.6463 749.116 80.2404 749.116 58.7691C749.116 37.2978 731.704 19.8918 710.225 19.8918C688.746 19.8918 671.334 37.2978 671.334 58.7691C671.334 80.2404 688.746 97.6463 710.225 97.6463Z" fill="#FFDF9C"/>
<path d="M75.7559 372.656L79.4073 383.051L76.6003 400.504C76.6003 400.504 72.3626 414.425 72.7848 421.178C73.207 427.931 72.7848 437.209 72.7848 437.209C72.7848 437.209 62.6204 455.772 71.0881 463.369C73.0584 465.136 74.7082 464.776 76.0765 463.197C77.4561 463.961 78.8759 464.65 80.3299 465.261L73.2226 492.898L66.436 506.397C66.436 506.397 52.0182 518.629 46.5059 544.367C46.5059 544.367 41.0328 561.516 37.5065 566.628C37.3462 566.867 37.1712 567.097 36.9827 567.315C36.4344 566.441 35.9333 565.539 35.4815 564.611L29.117 581.486C29.117 581.486 41.8381 588.661 50.7437 591.647C59.6493 594.633 69.8293 591.225 72.7926 587.426C75.7559 583.628 66.8582 579.407 60.4937 576.882C57.4053 575.655 55.7243 572.74 54.8016 570.059C54.7156 569.23 54.6531 568.308 54.6218 567.3C54.4889 562.508 55.2238 556.045 59.2192 551.144C66.4281 542.28 77.4526 520.348 77.4526 520.348C77.4526 520.348 88.4849 508.531 91.026 503.841L106.296 478.36C114.764 487.982 123.263 510.617 123.263 510.617L126.656 531.291C126.656 531.291 137.681 560.82 141.074 563.775C141.168 563.861 141.262 563.947 141.355 564.048L141.441 564.142L141.645 564.377L141.731 564.478L141.996 564.83L142.059 564.924L142.262 565.228L142.356 565.385L142.536 565.69L142.622 565.83L142.864 566.276L142.95 566.44L143.115 566.776L143.208 566.971L143.38 567.339L143.451 567.495L143.67 568.011L143.756 568.214L143.904 568.589L143.99 568.8L144.178 569.285L144.225 569.41L144.42 569.949L144.491 570.153L144.639 570.575L144.702 570.754L144.897 571.348V571.427L145.061 571.95L145.116 572.13L145.265 572.607V572.732L145.437 573.326V573.443L145.57 573.912L145.617 574.084L145.742 574.53V574.655L145.875 575.163L145.937 575.405L146 575.647L146.078 575.944V576.022C146.179 576.413 146.265 576.804 146.344 577.117L146.445 577.539L146.492 577.734V577.789C145.872 577.378 145.281 576.923 144.725 576.429C144.972 579.237 144.972 582.062 144.725 584.87C144.303 589.091 148.541 595.031 148.541 595.031C148.541 595.031 186.704 585.746 188.823 579.399C190.942 573.052 182.036 573.928 179.495 574.756C176.954 575.585 164.233 573.068 162.536 570.113C162.216 569.568 161.833 569.062 161.395 568.605C161.029 568.207 160.541 567.944 160.009 567.856C159.476 567.768 158.929 567.861 158.455 568.12L158.361 568.011L158.252 567.878L158.173 567.784L158.041 567.605C157.947 567.479 157.853 567.339 157.759 567.198L157.657 567.042C157.485 566.776 157.313 566.487 157.141 566.174V566.112C154.436 561.172 151.528 551.097 150.886 548.705V548.651L150.832 548.455V548.385V548.33V548.228V548.182L141.082 516.542C144.053 505.154 141.082 499.667 141.082 499.667L135.569 473.929L132.442 462.275C132.536 462.173 132.583 462.119 132.583 462.119C130.049 455.029 128.056 439.991 126.82 428.369C126.742 427.613 126.664 426.876 126.586 426.157L135.968 430.479C135.968 430.479 148.689 449.886 156.75 440.64C164.812 431.394 140.636 423.343 140.636 423.343L125.405 413.174V412.729L123.708 400.074C123.708 400.074 119.017 384.888 121.167 374.758C122.973 366.16 117.086 363.034 115.303 362.252C115.024 362.144 114.736 362.058 114.443 361.994C112.098 361.447 109.525 359.079 107.32 356.523C105.418 354.345 103.189 352.476 100.713 350.982C102.146 350.032 103.144 348.554 103.489 346.87C103.841 344.924 103.176 342.962 102.574 341.079C103.438 338.964 104.441 336.909 105.577 334.927H105.647L106.163 334.075C110.636 333.557 114.764 331.415 117.763 328.057C120.762 324.699 122.424 320.358 122.434 315.856C122.424 312.778 121.633 309.752 120.135 307.063C122.035 306.406 123.857 305.57 123.169 303.624C122.708 302.303 121.464 301.443 120.503 300.435C117.946 297.746 117.172 293.713 114.498 291.149C113.726 290.416 112.831 289.824 111.855 289.399C109.142 287.835 105.663 287.663 102.527 288.242C98.618 288.953 95.0213 290.665 91.2292 291.759C87.8906 292.728 84.4035 293.221 81.2134 294.581C75.7403 296.925 71.5651 301.615 69.0474 306.954C66.8269 311.643 65.787 316.903 63.3554 321.515C60.9237 326.126 56.4592 330.292 51.2206 330.113C49.868 330.066 48.4606 329.737 47.194 330.214C46.1975 330.647 45.3726 331.397 44.8484 332.348C41.9711 337.038 43.8241 343.33 41.5332 348.324C39.8365 352.037 36.1695 354.382 33.1671 357.164C30.1647 359.947 27.5767 364.097 28.9997 367.919C29.4017 368.883 29.9928 369.756 30.7381 370.488C31.4834 371.22 32.3679 371.795 33.3391 372.179C34.3208 372.713 35.378 373.095 36.4745 373.312C39.3205 373.891 42.2682 373.539 45.1611 373.312C52.9799 372.757 61.5805 373.054 67.8355 368.279C70.4001 366.309 72.3782 363.589 74.4267 361.033C74.4487 364.944 74.8944 368.841 75.7559 372.656V372.656ZM87.0462 399.183C87.6795 400.239 88.3285 401.278 89.0009 402.31C95.2559 411.877 86.7804 424.976 86.7804 424.976C84.8542 426.556 83.1984 428.438 81.878 430.549C81.9875 426.524 82.4566 421.952 83.8171 418.645C85.9281 413.542 86.7491 404.17 87.054 399.183H87.0462Z" fill="url(#paint1_linear)"/>
<path d="M80.674 380.855L77.3589 401.45C77.3589 401.45 73.2149 415.05 73.6293 421.639C74.0437 428.228 73.6293 437.271 73.6293 437.271C73.6293 437.271 63.6917 455.405 71.9718 462.822C80.2518 470.24 82.7382 439.335 82.7382 439.335C82.7382 439.335 81.495 426.149 84.3958 419.146C87.2965 412.143 87.7109 396.893 87.7109 396.893L80.674 380.855Z" fill="#FFCDD3"/>
<path opacity="0.05" d="M80.674 380.855L77.3589 401.45C77.3589 401.45 73.2149 415.05 73.6293 421.639C74.0437 428.228 73.6293 437.271 73.6293 437.271C73.6293 437.271 63.6917 455.405 71.9718 462.822C80.2518 470.24 82.7382 439.335 82.7382 439.335C82.7382 439.335 81.495 426.149 84.3958 419.146C87.2965 412.143 87.7109 396.893 87.7109 396.893L80.674 380.855Z" fill="black"/>
<path d="M129.205 451.7L134.936 473.155L140.323 498.291C140.323 498.291 143.224 503.645 140.323 514.776L149.847 545.68C149.847 545.68 155.234 565.463 158.541 565.869C161.848 566.276 155.226 581.502 155.226 581.502L146.117 576.148C146.117 576.148 143.592 563.814 140.316 560.898C137.039 557.983 126.242 529.165 126.242 529.165L122.927 508.976C122.927 508.976 112.575 481.37 103.458 474.773C94.3412 468.176 91.4482 457.468 91.4482 457.468L129.205 451.7Z" fill="#FFCDD3"/>
<path opacity="0.05" d="M91.4404 457.499C91.4404 457.499 94.3412 468.215 103.45 474.804C112.559 481.393 122.919 509.007 122.919 509.007L126.234 529.196C126.234 529.196 137 558.038 140.308 560.93C142.739 563.048 144.725 570.309 145.609 573.967C145.929 575.303 146.109 576.179 146.109 576.179L155.218 581.533C155.218 581.533 161.848 566.284 158.533 565.901C158.017 565.838 157.454 565.307 156.868 564.455C153.678 559.828 149.831 545.696 149.831 545.696L140.316 514.783C143.216 503.661 140.316 498.299 140.316 498.299L134.928 473.163L129.197 451.708L91.4404 457.499Z" fill="black"/>
<path d="M38.4292 564.635L41.7444 572.451L56.6547 570.801C56.1887 568.674 55.9269 566.507 55.8729 564.33C55.7399 559.64 56.4593 553.34 60.3608 548.549C67.3977 539.897 78.172 518.465 78.172 518.465C78.172 518.465 88.9384 506.928 91.4639 502.395L112.199 467.793L111.55 464.667L117.141 459.516H82.3472L74.0671 491.656L67.4368 504.841C67.4368 504.841 53.363 516.792 47.9681 541.929C47.9681 541.929 42.5966 558.679 39.172 563.673C38.9575 564.018 38.7086 564.34 38.4292 564.635V564.635Z" fill="#FFCDD3"/>
<path opacity="0.1" d="M145.617 573.959C145.937 575.296 146.117 576.171 146.117 576.171L155.226 581.525C155.226 581.525 161.856 566.276 158.541 565.893C158.025 565.83 157.462 565.299 156.876 564.447C156.449 564.705 156.115 565.093 155.924 565.555C155.733 566.016 155.694 566.526 155.812 567.01C155.943 567.626 156.165 568.219 156.469 568.769C157.712 570.833 152.325 574.123 152.325 574.123C150.511 576.437 147.571 575.21 145.617 573.959Z" fill="black"/>
<path d="M156.227 567.824C156.11 567.309 156.165 566.77 156.385 566.29C156.604 565.81 156.975 565.416 157.44 565.167C157.906 564.918 158.44 564.829 158.961 564.914C159.482 564.999 159.961 565.252 160.324 565.635C160.75 566.083 161.123 566.578 161.434 567.112C163.092 569.996 175.508 572.466 178.002 571.646C180.496 570.825 189.183 569.996 187.111 576.179C185.039 582.361 147.767 591.428 147.767 591.428C147.767 591.428 143.623 585.66 144.037 581.541C144.278 578.8 144.278 576.043 144.037 573.303C144.037 573.303 149.847 578.649 152.74 574.967C152.74 574.967 158.127 571.669 156.884 569.613C156.576 569.053 156.355 568.45 156.227 567.824V567.824Z" fill="#DCE6F2"/>
<path opacity="0.1" d="M38.4292 564.634L41.7444 572.451L56.6547 570.801C56.1887 568.674 55.9269 566.507 55.8729 564.33C55.7256 564.034 55.5089 563.779 55.2413 563.586C54.9736 563.393 54.6632 563.267 54.3364 563.22C54.0097 563.174 53.6764 563.207 53.3652 563.317C53.0541 563.427 52.7743 563.611 52.5499 563.853C51.768 564.674 50.9861 565.549 50.4232 566.26C48.7656 568.324 43.3863 567.081 43.3863 567.081C41.9867 567.542 40.337 565.518 39.1485 563.689C38.9406 564.027 38.6996 564.344 38.4292 564.634Z" fill="black"/>
<path d="M52.1122 564.697C52.3598 564.431 52.6742 564.235 53.0228 564.131C53.3713 564.027 53.7414 564.018 54.0946 564.105C54.4479 564.192 54.7715 564.371 55.0319 564.625C55.2924 564.879 55.4802 565.198 55.5759 565.549C56.3578 568.48 57.9841 572.263 61.5807 573.701C67.7966 576.171 76.4911 580.298 73.5903 584.003C70.6896 587.708 60.7519 591.037 52.0496 588.122C43.3473 585.207 30.939 578.235 30.939 578.235L37.1549 561.75C37.1549 561.75 40.47 568.785 42.9564 567.933C42.9564 567.933 48.3435 569.168 49.9933 567.112C50.6031 566.37 51.3772 565.526 52.1122 564.697Z" fill="#DCE6F2"/>
<path d="M108.407 333.052C108.407 333.052 98.4695 346.652 100.948 356.125C103.427 365.598 81.0649 349.942 81.0649 349.942C84.6173 346.431 87.3216 342.156 88.9719 337.443C90.6222 332.729 91.175 327.701 90.5882 322.742L108.407 333.052Z" fill="#FFCDD3"/>
<path d="M75.7012 462.033C92.2692 471.92 112.152 467.801 112.152 467.801L111.738 464.917L112.598 465.003C128.431 466.394 132.028 461.626 132.028 461.626C129.549 454.701 127.61 440.015 126.398 428.658C126.226 427.024 126.07 425.461 125.921 423.968C125.593 420.662 125.35 417.872 125.194 415.988C125.061 414.331 124.991 413.378 124.991 413.378L123.333 401.012C123.333 401.012 118.775 386.162 120.847 376.29C122.614 367.864 116.867 364.824 115.123 364.105C114.849 363.999 114.567 363.916 114.279 363.855C112.004 363.315 109.478 361.01 107.328 358.532C104.19 354.957 100.191 352.242 95.7094 350.646C93.6296 349.864 91.8548 349.082 91.8548 349.082C88.954 345.784 81.0883 347.847 81.0883 347.847C71.5651 354.03 76.53 374.219 76.53 374.219L80.4863 385.474C82.7628 391.714 85.7761 397.659 89.4622 403.185C95.553 412.565 87.2886 425.313 87.2886 425.313C74.458 435.653 75.7012 462.033 75.7012 462.033Z" fill="#FF8AA1"/>
<path opacity="0.05" d="M111.12 442.875L112.606 465.003C128.439 466.394 132.035 461.626 132.035 461.626C129.557 454.701 127.618 440.015 126.406 428.658C126.234 427.024 126.077 425.461 125.929 423.968L111.12 442.875Z" fill="black"/>
<path opacity="0.1" d="M84.8181 384.974C84.8181 384.974 92.2772 398.988 94.7557 405.163C97.2342 411.338 97.2421 409.282 98.4853 411.345C99.7284 413.409 112.981 422.468 112.981 422.468L126.39 428.65C125.82 423.327 125.413 418.732 125.186 416.019L112.551 407.641C112.551 407.641 103.857 402.287 103.442 395.275C103.028 388.264 97.6408 375.493 97.6408 375.493C97.6408 375.493 86.8744 363.956 82.3161 369.31C77.7577 374.664 84.8181 384.974 84.8181 384.974Z" fill="black"/>
<path d="M97.6565 373.437C97.6565 373.437 103.044 386.209 103.458 393.22C103.872 400.231 112.567 405.585 112.567 405.585L139.933 423.718C139.933 423.718 163.537 431.534 155.672 440.617C147.806 449.699 135.343 430.729 135.343 430.729L112.973 420.428C112.973 420.428 99.6816 411.361 98.4775 409.305C97.2734 407.25 97.2343 409.305 94.7479 403.123C92.2616 396.94 84.8103 382.934 84.8103 382.934C84.8103 382.934 77.7734 372.632 82.3239 367.302C86.8744 361.971 97.6565 373.437 97.6565 373.437Z" fill="#FFCDD3"/>
<path opacity="0.1" d="M100.972 378.784C100.972 378.784 92.6915 372.601 91.0339 370.545C90.2989 369.639 89.1652 369.764 88.1253 370.201C86.1852 371.028 84.0743 371.373 81.9719 371.21C80.158 371.053 78.3988 371.155 78.6099 372.187C79.0243 374.25 77.3667 361.471 77.3667 361.471L84.4036 359.001L93.5515 363.933L100.972 378.784Z" fill="black"/>
<path d="M100.972 378.002C100.972 378.002 92.6915 371.819 91.0339 369.764C90.2989 368.857 89.1652 368.982 88.1253 369.42C86.1852 370.246 84.0743 370.592 81.9719 370.428C80.158 370.272 78.3988 370.373 78.6099 371.405C79.0243 373.468 77.3667 360.689 77.3667 360.689L84.4036 358.219L93.5515 363.151L100.972 378.002Z" fill="#FF8AA1"/>
<path opacity="0.1" d="M120.471 378.783C118.973 379.44 117.338 379.727 115.705 379.62C114.072 379.512 112.489 379.014 111.089 378.166" fill="black"/>
<path opacity="0.1" d="M93.3091 323.782C93.6219 321.319 90.5569 326.431 90.1816 323.578L107.993 333.88C107.993 333.88 106.976 335.271 105.647 337.475C104.972 337.552 104.294 337.591 103.614 337.593C98.3053 337.585 96.6087 327.471 93.3091 323.782Z" fill="black"/>
<path d="M104.075 336.756C114.025 336.756 122.09 328.732 122.09 318.834C122.09 308.936 114.025 300.912 104.075 300.912C94.1264 300.912 86.061 308.936 86.061 318.834C86.061 328.732 94.1264 336.756 104.075 336.756Z" fill="#FFCDD3"/>
<path opacity="0.1" d="M112.16 319.147C112.151 320.282 111.931 321.406 111.511 322.461C110.729 323.86 109.166 324.493 107.774 325.329C102.301 328.706 100.635 336.272 102.394 342.486C103.012 344.674 103.958 346.902 103.591 349.137C102.895 352.983 98.4851 354.984 94.5679 355.32C90.6507 355.656 86.5537 355.03 82.8867 356.453C76.7333 358.837 74.028 366.02 68.8129 370.03C62.7299 374.719 54.356 374.407 46.6936 374.946C43.8632 375.149 40.9859 375.485 38.2025 374.946C35.419 374.407 32.6746 372.71 31.6894 370.061C30.3055 366.325 32.831 362.245 35.763 359.556C38.695 356.867 42.276 354.554 43.9336 350.958C46.1698 346.081 44.3636 339.922 47.1706 335.326C47.6804 334.398 48.4831 333.664 49.4536 333.239C50.689 332.778 52.0651 333.098 53.363 333.145C58.4765 333.317 62.8394 329.237 65.2163 324.751C67.5932 320.264 68.6018 315.137 70.7754 310.526C73.2305 305.304 77.3275 300.701 82.6599 298.442C85.7874 297.113 89.1886 296.629 92.4412 295.683C96.1473 294.612 99.6814 292.939 103.473 292.244C107.266 291.548 111.566 292.009 114.334 294.675C116.945 297.184 117.704 301.123 120.198 303.749C121.144 304.742 122.348 305.578 122.809 306.875C123.888 309.924 118.665 310.182 116.93 311.409C115.645 312.302 114.559 313.45 113.739 314.781C112.918 316.112 112.381 317.599 112.16 319.147V319.147Z" fill="black"/>
<path d="M111.332 318.732C111.323 319.868 111.103 320.992 110.683 322.046C109.901 323.446 108.337 324.079 106.945 324.915C101.472 328.291 99.8066 335.857 101.566 342.071C102.184 344.26 103.13 346.487 102.762 348.723C102.066 352.568 97.6565 354.569 93.7393 354.905C89.8221 355.241 85.7251 354.616 82.0581 356.039C75.9047 358.423 73.1994 365.606 67.9843 369.615C61.9013 374.305 53.5274 373.992 45.865 374.532C43.0346 374.735 40.1573 375.071 37.3738 374.532C34.5903 373.992 31.846 372.296 30.8608 369.646C29.4769 365.91 32.0023 361.83 34.9344 359.142C37.8664 356.453 41.4474 354.139 43.105 350.544C45.3411 345.667 43.535 339.508 46.3419 334.912C46.8518 333.983 47.6545 333.25 48.625 332.825C49.8604 332.364 51.2365 332.684 52.5344 332.731C57.6479 332.903 62.0107 328.823 64.3876 324.337C66.7646 319.85 67.7732 314.723 69.9468 310.111C72.4019 304.89 76.4989 300.286 81.8313 298.028C84.9588 296.699 88.36 296.214 91.6126 295.269C95.3187 294.198 98.8528 292.525 102.645 291.829C106.437 291.134 110.737 291.595 113.505 294.26C116.117 296.769 116.875 300.709 119.369 303.335C120.315 304.327 121.519 305.164 121.981 306.461C123.06 309.509 117.837 309.767 116.101 310.994C114.817 311.887 113.731 313.035 112.91 314.367C112.089 315.698 111.552 317.184 111.332 318.732Z" fill="#91CF66"/>
<path d="M165.046 256.071C167.736 265.817 177.063 271.742 177.063 271.742C177.063 271.742 182.044 261.87 179.354 252.124C176.665 242.377 167.337 236.452 167.337 236.452C167.337 236.452 162.356 246.355 165.046 256.071Z" fill="#91CF66"/>
<path d="M215.329 310.369C212.436 320.053 217.205 330.027 217.205 330.027C217.205 330.027 226.658 324.297 229.551 314.613C232.444 304.929 227.675 294.956 227.675 294.956C227.675 294.956 218.222 300.685 215.329 310.369Z" fill="#91CF66"/>
<path d="M578.01 372.671C570.911 379.87 570.449 390.914 570.449 390.914C570.449 390.914 581.489 390.289 588.589 383.098C595.688 375.907 596.149 364.855 596.149 364.855C596.149 364.855 585.109 365.496 578.01 372.671Z" fill="#91CF66"/>
<g clip-path="url(#clip1)">
<path d="M533.94 150.077L529 124.55L546.672 121.13L547.378 124.777L550.323 124.207L552.44 135.147L549.495 135.717L550.201 139.363L538.419 141.643L539.831 148.937L533.94 150.077ZM537.714 137.997L546.55 136.287L544.432 125.347L535.596 127.057L537.714 137.997ZM563.394 144.377L562.688 140.73L559.743 141.3L559.037 137.653L556.091 138.223L553.974 127.283L556.92 126.713L556.214 123.067L559.159 122.497L558.454 118.85L570.235 116.57L570.941 120.217L573.886 119.647L574.592 123.293L568.701 124.433L567.995 120.787L562.105 121.927L562.81 125.573L559.865 126.143L561.982 137.083L564.927 136.513L565.633 140.16L571.524 139.02L570.818 135.373L576.709 134.233L577.415 137.88L574.469 138.45L575.175 142.096L563.394 144.377Z" fill="white"/>
</g>
<g clip-path="url(#clip2)">
<path d="M142.307 99.2286L141 73.2615L158.977 72.3569L159.164 76.0665L162.16 75.9157L162.72 87.0445L159.724 87.1953L159.911 90.9049L147.926 91.5079L148.299 98.9271L142.307 99.2286ZM147.739 87.7983L156.728 87.346L156.168 76.2173L147.179 76.6695L147.739 87.7983ZM172.269 97.721L172.082 94.0114L169.086 94.1622L168.899 90.4526L165.903 90.6033L165.343 79.4746L168.339 79.3238L168.153 75.6142L171.149 75.4634L170.962 71.7539L182.947 71.1508L183.134 74.8604L186.13 74.7096L186.316 78.4192L180.324 78.7208L180.137 75.0112L174.145 75.3127L174.332 79.0223L171.335 79.173L171.895 90.3018L174.892 90.1511L175.078 93.8606L181.071 93.5591L180.884 89.8495L186.876 89.548L187.063 93.2576L184.067 93.4084L184.254 97.118L172.269 97.721Z" fill="white"/>
</g>
<g clip-path="url(#clip3)">
<path d="M342 227.067L348.902 202L366.256 206.779L365.27 210.36L368.163 211.156L365.205 221.899L362.312 221.103L361.326 224.684L349.757 221.498L347.785 228.66L342 227.067ZM350.743 217.917L359.42 220.306L362.378 209.563L353.701 207.174L350.743 217.917ZM370.924 235.031L371.91 231.45L369.017 230.654L370.003 227.073L367.111 226.276L370.069 215.533L372.961 216.33L373.947 212.749L376.84 213.545L377.826 209.964L389.395 213.15L388.409 216.731L391.302 217.527L390.316 221.108L384.531 219.516L385.517 215.934L379.732 214.342L378.746 217.923L375.854 217.126L372.896 227.869L375.788 228.666L374.802 232.247L380.587 233.84L381.573 230.259L387.357 231.851L386.371 235.432L383.479 234.636L382.493 238.217L370.924 235.031Z" fill="white"/>
</g>
<g clip-path="url(#clip4)">
<path d="M499.47 295.158L497 269.276L514.919 267.565L515.271 271.263L518.258 270.978L519.317 282.07L516.33 282.355L516.683 286.053L504.737 287.193L505.443 294.588L499.47 295.158ZM504.384 283.495L513.344 282.64L512.285 271.548L503.326 272.403L504.384 283.495ZM529.335 292.308L528.982 288.61L525.995 288.895L525.642 285.198L522.656 285.483L521.597 274.39L524.584 274.105L524.231 270.408L527.217 270.123L526.864 266.425L538.81 265.285L539.163 268.983L542.149 268.698L542.502 272.395L536.529 272.965L536.176 269.268L530.204 269.838L530.557 273.535L527.57 273.82L528.629 284.913L531.615 284.628L531.968 288.325L537.941 287.755L537.588 284.058L543.561 283.488L543.914 287.185L540.927 287.47L541.28 291.168L529.335 292.308Z" fill="white"/>
</g>
</g>
<defs>
<linearGradient id="paint0_linear" x1="358.975" y1="575.866" x2="358.975" y2="0" gradientUnits="userSpaceOnUse">
<stop stop-color="#808080" stop-opacity="0.25"/>
<stop offset="0.54" stop-color="#808080" stop-opacity="0.12"/>
<stop offset="1" stop-color="#808080" stop-opacity="0.1"/>
</linearGradient>
<linearGradient id="paint1_linear" x1="-217499" y1="255366" x2="-217499" y2="134721" gradientUnits="userSpaceOnUse">
<stop stop-color="#808080" stop-opacity="0.25"/>
<stop offset="0.54" stop-color="#808080" stop-opacity="0.12"/>
<stop offset="1" stop-color="#808080" stop-opacity="0.1"/>
</linearGradient>
<clipPath id="clip0">
<rect width="761" height="595" fill="white"/>
</clipPath>
<clipPath id="clip1">
<rect width="45" height="26" fill="white" transform="translate(529 124.55) rotate(-10.953)"/>
</clipPath>
<clipPath id="clip2">
<rect width="45" height="26" fill="white" transform="translate(141 73.2615) rotate(-2.88056)"/>
</clipPath>
<clipPath id="clip3">
<rect width="45" height="26" fill="white" transform="translate(348.902 202) rotate(15.3951)"/>
</clipPath>
<clipPath id="clip4">
<rect width="45" height="26" fill="white" transform="translate(497 269.276) rotate(-5.45201)"/>
</clipPath>
</defs>
</svg>
