<svg width="542" height="428" viewBox="0 0 542 428" fill="none" xmlns="http://www.w3.org/2000/svg">
<path d="M137.752 49.4068C130.953 52.9452 124.143 57.4004 120.683 64.237C118.139 69.268 117.675 75.0369 117.255 80.6492L112.223 147.651C111.105 162.582 109.881 177.926 103.362 191.409C92.1292 214.636 67.674 227.889 49.313 246.012C19.2276 275.712 6.3123 325.776 28.9057 361.507C38.873 377.125 54.2706 388.502 72.13 393.442C82.6076 396.293 93.5549 396.796 104.402 397.283C195.256 401.222 286.172 402.802 377.149 402.023C387.951 401.928 399.049 401.744 409.018 397.641C422.789 391.978 432.685 379.512 439.501 366.275C446.316 353.038 450.683 338.666 457.129 325.25C470.324 297.859 491.794 275.533 510.501 251.591C520.817 238.399 530.472 224.418 536.265 208.71C545.473 183.745 543.863 154.381 529.472 131.993C523.254 122.317 514.789 113.938 510.557 103.244C504.647 88.2907 507.946 71.5431 509.355 55.5278C510.764 39.5125 509.221 21.2276 496.893 10.9029C490.088 5.20674 481.076 2.95957 472.292 1.67388C430.242 -4.47511 388.007 7.69429 346.309 15.9004C309.514 23.1674 272.211 27.3263 234.885 30.6412C201.753 33.5927 167.988 33.671 137.752 49.4068Z" fill="#91CF66"/>
<path d="M123.512 361.786C123.512 361.786 107.236 306.541 126.565 265.879C134.677 248.813 137.372 229.656 133.62 211.136C131.829 202.346 129.235 193.739 125.871 185.422" stroke="#535461" stroke-width="2" stroke-miterlimit="10"/>
<path d="M137.892 159.753C137.892 166.523 125.631 186.155 125.631 186.155C125.631 186.155 113.37 166.523 113.37 159.753C113.37 156.502 114.661 153.384 116.961 151.085C119.26 148.786 122.379 147.494 125.631 147.494C128.883 147.494 132.001 148.786 134.301 151.085C136.6 153.384 137.892 156.502 137.892 159.753Z" fill="#91CF66"/>
<path d="M158.159 197.234C154.481 202.919 133.514 212.735 133.514 212.735C133.514 212.735 133.894 189.593 137.573 183.908C138.448 182.556 139.581 181.39 140.907 180.476C142.233 179.563 143.726 178.919 145.301 178.582C146.875 178.245 148.501 178.222 150.085 178.513C151.668 178.804 153.179 179.405 154.531 180.28C155.883 181.155 157.049 182.287 157.963 183.613C158.876 184.939 159.52 186.431 159.857 188.005C160.194 189.58 160.218 191.205 159.926 192.789C159.635 194.372 159.035 195.883 158.159 197.234Z" fill="#91CF66"/>
<path d="M157.276 261.34C151.232 264.386 128.203 262.285 128.203 262.285C128.203 262.285 140.179 242.513 146.234 239.449C149.133 238.017 152.482 237.788 155.549 238.813C158.617 239.838 161.156 242.033 162.612 244.92C164.068 247.807 164.325 251.153 163.325 254.228C162.326 257.304 160.152 259.86 157.276 261.34Z" fill="#91CF66"/>
<path d="M145.686 309.677C140.24 313.701 117.171 315.524 117.171 315.524C117.171 315.524 125.67 293.991 131.11 289.966C132.403 288.987 133.877 288.273 135.448 287.867C137.018 287.461 138.654 287.371 140.26 287.602C141.866 287.832 143.41 288.379 144.803 289.211C146.195 290.042 147.409 291.142 148.374 292.446C149.339 293.75 150.035 295.233 150.423 296.808C150.81 298.383 150.881 300.019 150.632 301.622C150.382 303.224 149.817 304.761 148.969 306.144C148.121 307.527 147.007 308.728 145.691 309.677H145.686Z" fill="#91CF66"/>
<path d="M107.75 214.066C112.609 218.783 135.236 223.669 135.236 223.669C135.236 223.669 129.695 201.197 124.837 196.479C122.5 194.234 119.37 193.005 116.13 193.061C112.89 193.117 109.803 194.452 107.545 196.776C105.287 199.1 104.042 202.223 104.08 205.463C104.118 208.703 105.438 211.796 107.75 214.066Z" fill="#91CF66"/>
<path d="M94.9303 270.77C100.974 273.817 124.004 271.715 124.004 271.715C124.004 271.715 111.989 251.926 105.945 248.88C104.505 248.139 102.934 247.691 101.32 247.56C99.7069 247.43 98.0836 247.62 96.5441 248.12C95.0047 248.621 93.5795 249.42 92.3508 250.474C91.1221 251.528 90.1142 252.814 89.3853 254.259C88.6564 255.704 88.2209 257.279 88.1039 258.893C87.9868 260.507 88.1907 262.129 88.7036 263.664C89.2165 265.199 90.0283 266.617 91.0922 267.837C92.1561 269.056 93.451 270.053 94.9023 270.77H94.9303Z" fill="#91CF66"/>
<path d="M90.016 327.598C95.4617 331.623 118.53 333.445 118.53 333.445C118.53 333.445 110.032 311.913 104.592 307.888C101.975 306 98.7195 305.219 95.531 305.716C92.3425 306.212 89.4782 307.945 87.5593 310.539C85.6404 313.133 84.8215 316.378 85.2804 319.572C85.7392 322.765 87.4388 325.649 90.0104 327.598H90.016Z" fill="#91CF66"/>
<path opacity="0.25" d="M137.892 159.753C137.892 166.523 125.631 186.155 125.631 186.155C125.631 186.155 113.37 166.523 113.37 159.753C113.37 156.502 114.661 153.384 116.961 151.085C119.26 148.786 122.379 147.494 125.631 147.494C128.883 147.494 132.001 148.786 134.301 151.085C136.6 153.384 137.892 156.502 137.892 159.753Z" fill="black"/>
<path opacity="0.25" d="M158.159 197.234C154.481 202.919 133.514 212.735 133.514 212.735C133.514 212.735 133.894 189.593 137.573 183.908C138.448 182.556 139.581 181.39 140.907 180.476C142.233 179.563 143.726 178.919 145.301 178.582C146.875 178.245 148.501 178.222 150.085 178.513C151.668 178.804 153.179 179.405 154.531 180.28C155.883 181.155 157.049 182.287 157.963 183.613C158.876 184.939 159.52 186.431 159.857 188.005C160.194 189.58 160.218 191.205 159.926 192.789C159.635 194.372 159.035 195.883 158.159 197.234Z" fill="black"/>
<path opacity="0.25" d="M157.276 261.34C151.232 264.386 128.203 262.285 128.203 262.285C128.203 262.285 140.179 242.513 146.234 239.449C149.133 238.017 152.482 237.788 155.549 238.813C158.617 239.838 161.156 242.033 162.612 244.92C164.068 247.807 164.325 251.153 163.325 254.228C162.326 257.304 160.152 259.86 157.276 261.34Z" fill="black"/>
<path opacity="0.25" d="M145.686 309.677C140.24 313.701 117.171 315.524 117.171 315.524C117.171 315.524 125.67 293.991 131.11 289.966C132.403 288.987 133.877 288.273 135.448 287.867C137.018 287.461 138.654 287.371 140.26 287.602C141.866 287.832 143.41 288.379 144.803 289.211C146.195 290.042 147.409 291.142 148.374 292.446C149.339 293.75 150.035 295.233 150.423 296.808C150.81 298.383 150.881 300.019 150.632 301.622C150.382 303.224 149.817 304.761 148.969 306.144C148.121 307.527 147.007 308.728 145.691 309.677H145.686Z" fill="black"/>
<path opacity="0.25" d="M107.75 214.066C112.609 218.783 135.236 223.669 135.236 223.669C135.236 223.669 129.695 201.197 124.837 196.479C122.5 194.234 119.37 193.005 116.13 193.061C112.89 193.117 109.803 194.452 107.545 196.776C105.287 199.1 104.042 202.223 104.08 205.463C104.118 208.703 105.438 211.796 107.75 214.066Z" fill="black"/>
<path opacity="0.25" d="M94.9303 270.77C100.974 273.817 124.004 271.715 124.004 271.715C124.004 271.715 111.989 251.926 105.945 248.88C104.505 248.139 102.934 247.691 101.32 247.56C99.7069 247.43 98.0836 247.62 96.5441 248.12C95.0047 248.621 93.5795 249.42 92.3508 250.474C91.1221 251.528 90.1142 252.814 89.3853 254.259C88.6564 255.704 88.2209 257.279 88.1039 258.893C87.9868 260.507 88.1907 262.129 88.7036 263.664C89.2165 265.199 90.0283 266.617 91.0922 267.837C92.1561 269.056 93.451 270.053 94.9023 270.77H94.9303Z" fill="black"/>
<path opacity="0.25" d="M90.016 327.598C95.4617 331.623 118.53 333.445 118.53 333.445C118.53 333.445 110.032 311.913 104.592 307.888C101.975 306 98.7195 305.219 95.531 305.716C92.3425 306.212 89.4782 307.945 87.5593 310.539C85.6404 313.133 84.8215 316.378 85.2804 319.572C85.7392 322.765 87.4388 325.649 90.0104 327.598H90.016Z" fill="black"/>
<path d="M435.704 332.081C435.704 332.081 419.429 276.841 438.74 236.179C446.853 219.113 449.548 199.956 445.796 181.437C444.005 172.646 441.411 164.039 438.047 155.723" stroke="#535461" stroke-width="2" stroke-miterlimit="10"/>
<path d="M450.084 130.048C450.084 136.817 437.823 156.449 437.823 156.449C437.823 156.449 425.562 136.817 425.562 130.048C425.562 126.797 426.854 123.679 429.153 121.38C431.453 119.081 434.571 117.789 437.823 117.789C441.075 117.789 444.194 119.081 446.493 121.38C448.793 123.679 450.084 126.797 450.084 130.048Z" fill="#91CF66"/>
<path d="M470.352 167.551C466.673 173.236 445.707 183.052 445.707 183.052C445.707 183.052 446.087 159.91 449.766 154.225C450.641 152.873 451.774 151.707 453.1 150.794C454.425 149.88 455.918 149.236 457.493 148.899C459.068 148.562 460.693 148.539 462.277 148.83C463.861 149.121 465.372 149.722 466.723 150.597C468.075 151.472 469.241 152.604 470.155 153.93C471.069 155.256 471.713 156.748 472.05 158.323C472.387 159.897 472.41 161.522 472.119 163.106C471.827 164.689 471.227 166.2 470.352 167.551Z" fill="#91CF66"/>
<path d="M469.491 231.635C463.447 234.681 440.417 232.579 440.417 232.579C440.417 232.579 452.433 212.791 458.477 209.744C459.92 208.957 461.507 208.469 463.144 208.308C464.78 208.146 466.432 208.316 468.002 208.806C469.571 209.296 471.026 210.097 472.28 211.161C473.533 212.225 474.56 213.53 475.299 214.998C476.038 216.467 476.474 218.069 476.581 219.71C476.688 221.35 476.464 222.995 475.922 224.547C475.38 226.1 474.532 227.527 473.427 228.744C472.322 229.962 470.983 230.945 469.491 231.635Z" fill="#91CF66"/>
<path d="M457.878 279.966C452.432 283.991 429.364 285.813 429.364 285.813C429.364 285.813 437.862 264.28 443.302 260.255C444.594 259.26 446.071 258.531 447.648 258.114C449.224 257.696 450.868 257.597 452.484 257.822C454.099 258.047 455.653 258.593 457.055 259.426C458.457 260.259 459.679 261.364 460.649 262.675C461.618 263.986 462.317 265.478 462.702 267.062C463.088 268.647 463.154 270.292 462.896 271.902C462.638 273.513 462.062 275.055 461.2 276.44C460.338 277.824 459.209 279.023 457.878 279.966Z" fill="#91CF66"/>
<path d="M419.96 184.377C424.818 189.095 447.445 193.98 447.445 193.98C447.445 193.98 441.904 171.52 437.063 166.774C435.907 165.651 434.541 164.767 433.043 164.172C431.545 163.577 429.945 163.283 428.333 163.306C426.722 163.33 425.131 163.67 423.651 164.308C422.171 164.946 420.831 165.87 419.708 167.026C418.585 168.181 417.701 169.547 417.106 171.045C416.51 172.542 416.216 174.142 416.24 175.753C416.263 177.365 416.603 178.955 417.242 180.435C417.88 181.915 418.804 183.254 419.96 184.377Z" fill="#91CF66"/>
<path d="M407.123 241.065C413.167 244.112 436.196 242.01 436.196 242.01C436.196 242.01 424.204 222.221 418.165 219.175C416.726 218.434 415.154 217.986 413.541 217.855C411.928 217.725 410.304 217.915 408.765 218.415C407.225 218.915 405.8 219.715 404.571 220.769C403.343 221.823 402.335 223.109 401.606 224.554C400.877 225.999 400.442 227.574 400.325 229.188C400.208 230.802 400.411 232.424 400.924 233.959C401.437 235.494 402.249 236.912 403.313 238.132C404.377 239.351 405.672 240.348 407.123 241.065Z" fill="#91CF66"/>
<path d="M402.208 297.893C407.654 301.918 430.723 303.74 430.723 303.74C430.723 303.74 422.224 282.207 416.784 278.183C414.167 276.295 410.912 275.514 407.723 276.01C404.535 276.507 401.671 278.24 399.752 280.834C397.833 283.427 397.014 286.673 397.473 289.867C397.932 293.06 399.631 295.944 402.203 297.893H402.208Z" fill="#91CF66"/>
<path opacity="0.25" d="M450.084 130.048C450.084 136.817 437.823 156.449 437.823 156.449C437.823 156.449 425.562 136.817 425.562 130.048C425.562 126.797 426.854 123.679 429.153 121.38C431.453 119.081 434.571 117.789 437.823 117.789C441.075 117.789 444.194 119.081 446.493 121.38C448.793 123.679 450.084 126.797 450.084 130.048Z" fill="black"/>
<path opacity="0.25" d="M470.352 167.551C466.673 173.236 445.707 183.052 445.707 183.052C445.707 183.052 446.087 159.91 449.766 154.225C450.641 152.873 451.774 151.707 453.1 150.794C454.425 149.88 455.918 149.236 457.493 148.899C459.068 148.562 460.693 148.539 462.277 148.83C463.861 149.121 465.372 149.722 466.723 150.597C468.075 151.472 469.241 152.604 470.155 153.93C471.069 155.256 471.713 156.748 472.05 158.323C472.387 159.897 472.41 161.522 472.119 163.106C471.827 164.689 471.227 166.2 470.352 167.551Z" fill="black"/>
<path opacity="0.25" d="M469.491 231.635C463.447 234.681 440.417 232.579 440.417 232.579C440.417 232.579 452.433 212.791 458.477 209.744C459.92 208.957 461.507 208.469 463.144 208.308C464.78 208.146 466.432 208.316 468.002 208.806C469.571 209.296 471.026 210.097 472.28 211.161C473.533 212.225 474.56 213.53 475.299 214.998C476.038 216.467 476.474 218.069 476.581 219.71C476.688 221.35 476.464 222.995 475.922 224.547C475.38 226.1 474.532 227.527 473.427 228.744C472.322 229.962 470.983 230.945 469.491 231.635Z" fill="black"/>
<path opacity="0.25" d="M457.878 279.966C452.432 283.991 429.364 285.813 429.364 285.813C429.364 285.813 437.862 264.28 443.302 260.255C444.594 259.26 446.071 258.531 447.648 258.114C449.224 257.696 450.868 257.597 452.484 257.822C454.099 258.047 455.653 258.593 457.055 259.426C458.457 260.259 459.679 261.364 460.649 262.675C461.618 263.986 462.317 265.478 462.702 267.062C463.088 268.647 463.154 270.292 462.896 271.902C462.638 273.513 462.062 275.055 461.2 276.44C460.338 277.824 459.209 279.023 457.878 279.966Z" fill="black"/>
<path opacity="0.25" d="M419.96 184.377C424.818 189.095 447.445 193.98 447.445 193.98C447.445 193.98 441.904 171.52 437.063 166.774C435.907 165.651 434.541 164.767 433.043 164.172C431.545 163.577 429.945 163.283 428.333 163.306C426.722 163.33 425.131 163.67 423.651 164.308C422.171 164.946 420.831 165.87 419.708 167.026C418.585 168.181 417.701 169.547 417.106 171.045C416.51 172.542 416.216 174.142 416.24 175.753C416.263 177.365 416.603 178.955 417.242 180.435C417.88 181.915 418.804 183.254 419.96 184.377Z" fill="black"/>
<path opacity="0.25" d="M407.123 241.065C413.167 244.112 436.196 242.01 436.196 242.01C436.196 242.01 424.204 222.221 418.165 219.175C416.726 218.434 415.154 217.986 413.541 217.855C411.928 217.725 410.304 217.915 408.765 218.415C407.225 218.915 405.8 219.715 404.571 220.769C403.343 221.823 402.335 223.109 401.606 224.554C400.877 225.999 400.442 227.574 400.325 229.188C400.208 230.802 400.411 232.424 400.924 233.959C401.437 235.494 402.249 236.912 403.313 238.132C404.377 239.351 405.672 240.348 407.123 241.065Z" fill="black"/>
<path opacity="0.25" d="M402.208 297.893C407.654 301.918 430.723 303.74 430.723 303.74C430.723 303.74 422.224 282.207 416.784 278.183C414.167 276.295 410.912 275.514 407.723 276.01C404.535 276.507 401.671 278.24 399.752 280.834C397.833 283.427 397.014 286.673 397.473 289.867C397.932 293.06 399.631 295.944 402.203 297.893H402.208Z" fill="black"/>
<g opacity="0.1">
<path opacity="0.1" d="M0.480578 428C6.68663 425.764 1.24096 427.586 0.167481 427.944C0.267092 427.983 0.373533 428.002 0.480578 428Z" fill="#00FFFF"/>
</g>
<g opacity="0.1">
<path opacity="0.1" d="M0.167732 427.938L-6.825e-07 427.888V428L0.167732 427.938Z" fill="#00FFFF"/>
</g>
<path d="M426.037 358.047C426.037 357.98 426.037 357.907 426.076 357.834C426.115 357.762 426.076 357.795 426.076 357.778C426.088 357.639 426.088 357.499 426.076 357.359C426.076 357.359 425.327 355.922 424.455 353.949C423.264 351.238 421.849 347.51 421.849 345.067C421.849 345.067 408.783 299.352 399.949 294.36C399.949 294.36 392.681 281.419 392.759 274.135C392.769 271.808 392.582 269.483 392.2 267.187C390.909 259.154 388.756 243.776 390.724 240.964C393.223 237.392 397.389 221.852 387.442 210.119L389.186 209.85C389.186 209.85 389.091 209.733 388.935 209.504L389.186 209.465C389.186 209.465 385.34 204.847 385.34 194.646C385.396 188.771 386.721 181.096 390.724 171.431C391.253 170.149 391.738 168.88 392.178 167.624C394.041 166.698 395.74 165.474 397.21 164.001L397.389 163.817L397.595 163.621C401.269 159.932 403.494 155.035 405.043 150.066C406.464 145.498 407.374 140.786 407.754 136.018C408.168 130.836 407.95 125.632 407.754 120.439C407.503 114.379 407.195 108.141 404.769 102.612C403.813 100.449 402.532 98.4029 401.945 96.111C401.619 94.5375 401.393 92.9449 401.269 91.3428C400.469 85.0652 397.495 78.9777 392.619 74.9473C387.744 70.917 380.929 69.1226 374.829 70.8108C371.34 71.7778 368.226 73.779 365.324 75.9703C364.081 76.9069 362.907 77.9326 361.813 79.0392C358.307 82.4771 355.663 86.9826 358.201 91.7173C358.387 92.0602 358.587 92.3956 358.799 92.7235C357.459 94.8617 356.603 97.2675 356.292 99.7717C355.981 102.276 356.222 104.818 356.998 107.219C357.775 109.62 359.067 111.822 360.786 113.671C362.504 115.519 364.607 116.968 366.945 117.918L367.398 118.711H367.449C368.774 121.16 370.216 124.217 370.596 126.537C368.937 127.72 367.434 129.108 366.123 130.668C361.6 136.063 359.123 139.724 357.77 142.111C356.491 144.323 355.007 146.41 353.337 148.344C351.285 150.77 348.864 155.505 348.864 164.314C348.864 164.959 348.864 165.628 348.864 166.321C338.034 178.111 295.799 169.468 295.799 169.468C290.712 167.49 284.791 169.876 282.017 171.28C281.791 171.391 281.592 171.552 281.437 171.751C281.281 171.95 281.172 172.181 281.119 172.428C281.065 172.674 281.067 172.93 281.126 173.175C281.185 173.421 281.299 173.65 281.458 173.845C285.931 179.234 296.934 176.003 296.934 176.003C296.934 176.003 336.508 182.918 339.583 185.221C341.674 186.792 345.37 185.512 347.516 184.533L347.075 185.031L347.634 184.757L344.592 212.109H344.637L344.592 212.495C344.592 212.495 345.297 212.433 346.421 212.355L347.36 214.786H347.282L348.254 217.09L349.054 218.985C346.667 227.615 337.044 263.145 338.056 271.256C338.056 271.256 331.906 285.852 334.215 293.924C334.215 293.924 325.762 354.62 320.383 357.694L321.138 358.035C315.396 361.317 302.889 367.488 294.256 364.609C294.256 364.609 288.878 366.147 297.331 371.524C297.331 371.524 331.912 380.742 336.524 377.673L335.759 364.386L336.15 364.525C336.206 363.776 336.709 358.281 338.834 355.777C338.834 355.777 352.666 318.129 351.9 298.921L364.81 267.729C366.207 271.307 367.689 274.342 369.187 276.26L374.566 290.089L383.405 301.616C383.405 301.616 411.07 345.408 409.124 358.471L409.773 358.634C407.184 363.24 400.743 372.681 391.445 372.681C391.445 372.681 383.377 381.133 398.361 379.982C398.361 379.982 417.186 378.83 431.019 371.144L426.037 358.047Z" fill="url(#paint0_linear)"/>
<path d="M327.993 354.497C327.993 354.497 310.208 366.353 299.093 362.647C299.093 362.647 293.904 364.129 302.056 369.316C302.056 369.316 335.407 378.21 339.851 375.242L338.733 355.978L327.993 354.497Z" fill="#333333"/>
<path d="M411.735 354.497C411.735 354.497 404.696 370.428 392.838 370.428C392.838 370.428 385.055 378.579 399.508 377.466C399.508 377.466 417.662 376.348 431.002 368.947L424.623 352.323L411.735 354.497Z" fill="#333333"/>
<path d="M348.372 213.16L351.168 220.388L369.311 219.091L367.454 206.865L348.372 213.16Z" fill="#FDB797"/>
<path d="M352.448 220.388C352.448 220.388 340.221 263.755 341.333 272.626C341.333 272.626 335.407 286.702 337.626 294.483C337.626 294.483 329.475 353.016 324.286 355.973C324.286 355.973 339.382 362.804 339.846 362.642C345.034 360.791 339.477 362.642 339.477 362.642C339.477 362.642 339.846 356.716 342.071 354.123C342.071 354.123 355.411 317.816 354.668 299.296L372.453 256.32L352.448 220.388Z" fill="#252A62"/>
<path opacity="0.1" d="M352.448 220.388C352.448 220.388 340.221 263.755 341.333 272.626C341.333 272.626 335.407 286.702 337.626 294.483C337.626 294.483 329.475 353.016 324.286 355.973C324.286 355.973 339.382 362.804 339.846 362.642C345.034 360.791 339.477 362.642 339.477 362.642C339.477 362.642 339.846 356.716 342.071 354.123C342.071 354.123 355.411 317.816 354.668 299.296L372.453 256.32L352.448 220.388Z" fill="black"/>
<path d="M350.229 218.163L358.38 237.426C358.38 237.426 364.681 268.914 371.351 277.433L376.54 290.771L385.066 301.89C385.066 301.89 411.747 344.122 409.891 356.716C409.891 356.716 426.563 361.188 426.194 355.598C426.194 355.598 422.118 347.817 422.118 343.742C422.118 343.742 409.521 299.659 400.995 294.841C400.995 294.841 393.995 282.358 394.062 275.337C394.066 273.089 393.879 270.845 393.503 268.629C392.256 260.881 390.182 246.057 392.083 243.346C394.677 239.639 399.122 222.601 386.526 211.114L350.229 218.163Z" fill="#252A62"/>
<path opacity="0.1" d="M426.183 355.609C426.183 355.609 422.107 347.828 422.107 343.753C422.107 343.753 409.51 299.67 400.984 294.852C400.984 294.852 393.984 282.369 394.051 275.348C394.055 273.101 393.868 270.857 393.492 268.64C392.245 260.893 390.171 246.068 392.072 243.357C394.666 239.651 399.111 222.612 386.514 211.125L384.367 211.544C396.41 223.02 392.044 239.695 389.483 243.357C386.922 247.018 391.719 273.364 391.719 273.364C389.869 279.664 398.39 294.852 398.39 294.852C406.91 299.67 419.512 343.753 419.512 343.753C419.512 347.828 423.588 355.609 423.588 355.609C423.711 357.443 421.973 358.186 419.591 358.36C423.18 358.566 426.35 358.063 426.183 355.609Z" fill="black"/>
<path d="M367.27 121.473C367.27 121.473 374.309 132.217 372.459 135.548L390.613 131.076C390.613 131.076 385.793 125.889 386.906 113.295L367.27 121.473Z" fill="#FDB797"/>
<path opacity="0.1" d="M393.206 129.254C393.206 129.254 378.016 125.9 368.382 137.404C364.021 142.603 361.634 146.136 360.326 148.439C359.093 150.571 357.663 152.583 356.054 154.448C353.644 157.293 350.692 163.426 352.079 175.93L347.606 215.938C347.606 215.938 360.577 214.82 363.909 215.938C367.242 217.056 390.59 213.344 390.59 213.344C390.59 213.344 381.326 202.231 392.072 176.299C402.818 150.367 393.206 129.254 393.206 129.254Z" fill="black"/>
<path d="M393.206 128.885C393.206 128.885 378.016 125.531 368.382 137.035C364.021 142.234 361.634 145.767 360.326 148.07C359.093 150.202 357.663 152.214 356.054 154.079C353.644 156.925 350.692 163.057 352.079 175.562L347.606 215.569C347.606 215.569 360.577 214.451 363.909 215.569C367.242 216.687 390.59 212.975 390.59 212.975C390.59 212.975 381.326 201.862 392.072 175.931C402.818 149.999 393.206 128.885 393.206 128.885Z" fill="#F55F44"/>
<path opacity="0.1" d="M374.868 163.135C374.868 163.135 360.415 183.896 353.756 187.602L350.049 189.453C350.049 189.453 373.386 163.135 374.868 163.135Z" fill="black"/>
<path d="M361.343 152.592C361.343 152.592 370.848 148.853 374.924 161.251C375.09 161.755 375.118 162.293 375.006 162.811C374.894 163.329 374.646 163.808 374.286 164.197L352.079 188.156C352.079 188.156 345.778 191.862 342.815 189.637C339.851 187.412 301.687 180.744 301.687 180.744C301.687 180.744 291.092 183.857 286.764 178.664C286.608 178.478 286.496 178.258 286.437 178.023C286.378 177.787 286.373 177.54 286.423 177.302C286.473 177.064 286.577 176.841 286.726 176.649C286.875 176.457 287.066 176.301 287.284 176.193C289.353 175.148 292.803 175.752 296.873 175.249C299.998 174.876 303.159 174.941 306.266 175.444C318.974 177.434 348.914 180.721 353.561 168.518C359.487 152.967 361.343 152.592 361.343 152.592Z" fill="#FDB797"/>
<path opacity="0.1" d="M361.159 152.777C361.159 152.777 372.643 150.926 375.237 162.408V161.665C375.237 161.665 371.905 149.076 361.159 152.777Z" fill="black"/>
<path opacity="0.1" d="M387.302 114.066L367.639 122.216C367.639 122.216 368.528 123.569 369.584 125.464C371.502 126.236 374.152 125.738 376.344 125.738C380.817 125.738 384.088 124.559 387.09 121.663C386.816 119.438 387.006 117.135 387.302 114.066Z" fill="black"/>
<path d="M375.421 125.917C384.629 125.917 392.094 118.454 392.094 109.248C392.094 100.041 384.629 92.5784 375.421 92.5784C366.214 92.5784 358.749 100.041 358.749 109.248C358.749 118.454 366.214 125.917 375.421 125.917Z" fill="#FDB797"/>
<path opacity="0.1" d="M375.45 106.995C375.813 108.281 374.745 109.471 373.974 110.561C371.273 114.379 371.771 119.578 373.006 124.083C373.61 126.292 374.516 128.639 376.49 129.796C378.066 130.719 380.006 130.68 381.773 131.144C384.955 131.977 387.526 134.498 389.042 137.399C390.557 140.3 391.099 143.648 391.278 146.935C391.818 156.443 389.532 165.897 384.709 174.108C389.657 174.952 394.772 172.7 398.323 169.139C401.873 165.578 404.009 160.86 405.502 156.069C406.873 151.665 407.751 147.123 408.118 142.525C408.515 137.527 408.308 132.508 408.118 127.499C407.878 121.657 407.598 115.659 405.239 110.31C404.316 108.219 403.086 106.251 402.516 104.038C402.201 102.521 401.983 100.987 401.862 99.4428C401.09 93.3888 398.222 87.5193 393.52 83.6287C388.818 79.7381 382.248 78.0387 376.367 79.6431C373.012 80.5766 370.004 82.5051 367.22 84.6181C362.713 88.0448 357.542 93.5621 360.723 99.4316C363.491 104.569 369.607 107.912 375.45 106.995Z" fill="black"/>
<path d="M375.819 106.626C376.182 107.911 375.114 109.102 374.343 110.192C371.642 114.01 372.14 119.209 373.376 123.714C373.979 125.922 374.885 128.27 376.859 129.427C378.435 130.35 380.376 130.311 382.142 130.775C385.324 131.607 387.896 134.129 389.411 137.03C390.926 139.931 391.468 143.279 391.647 146.566C392.187 156.08 389.898 165.541 385.066 173.756C390.015 174.6 395.13 172.347 398.681 168.786C402.231 165.226 404.367 160.508 405.86 155.717C407.231 151.313 408.109 146.77 408.476 142.173C408.873 137.175 408.666 132.155 408.476 127.147C408.236 121.305 407.956 115.307 405.597 109.957C404.674 107.867 403.444 105.899 402.874 103.685C402.559 102.169 402.341 100.634 402.22 99.0905C401.448 93.0365 398.58 87.167 393.878 83.2764C389.176 79.3858 382.606 77.6864 376.725 79.2908C373.37 80.2243 370.362 82.1528 367.578 84.2658C363.071 87.6925 357.9 93.2098 361.081 99.0793C363.865 104.2 369.971 107.543 375.819 106.626Z" fill="#72351C"/>
<path opacity="0.1" d="M377.462 189.453C377.462 189.453 384.502 189.453 387.096 186.099L377.462 189.453Z" fill="black"/>
<path opacity="0.1" d="M377.462 192.046C377.462 192.046 384.502 192.046 387.096 188.692L377.462 192.046Z" fill="black"/>
<path opacity="0.1" d="M384.132 149.445C384.132 149.445 383.014 158.339 378.944 162.414L384.132 149.445Z" fill="black"/>
<g opacity="0.1">
<path opacity="0.1" d="M223.485 371.429V371.34L223.351 371.384L223.485 371.429Z" fill="url(#paint1_linear)"/>
</g>
<g opacity="0.1">
<path opacity="0.1" d="M223.094 371.429C223.18 371.431 223.265 371.416 223.345 371.384C222.484 371.082 218.129 369.651 223.094 371.429Z" fill="url(#paint2_linear)"/>
</g>
<path d="M278.697 175.187C275.868 173.806 269.829 171.447 264.641 173.398C264.641 173.398 214.881 183.259 208.607 167.328C208.313 166.582 208.028 165.865 207.752 165.175C207.877 164.131 207.932 163.08 207.914 162.028C207.936 160.735 207.844 159.443 207.64 158.166C207.312 156.297 206.594 154.518 205.532 152.945C204.298 150.876 203.288 148.682 202.519 146.399C201.312 143.109 199.42 140.112 196.969 137.607C194.518 135.101 191.564 133.144 188.301 131.865C188.396 129.483 190.079 125.967 191.605 123.234H191.655L192.119 122.451C195.332 121.228 198.1 119.064 200.063 116.243C202.026 113.421 203.092 110.074 203.123 106.637C203.122 103.326 202.131 100.09 200.277 97.3465C205.538 96.5025 203.738 92.0305 200.484 88.1957C199.853 87.4527 199.179 86.7471 198.465 86.0827C195.288 82.9543 191.289 80.7911 186.931 79.8443C186.411 79.7325 185.885 79.6487 185.36 79.576C182.23 78.498 178.896 78.1466 175.61 78.5486C172.324 78.9505 169.173 80.0952 166.395 81.8958C165.717 79.9727 164.455 78.3098 162.785 77.14C161.114 75.9702 159.12 75.3521 157.08 75.3723C151.668 75.3723 147.285 79.6151 147.285 84.8753C147.285 90.1355 151.668 94.3783 157.08 94.3783H157.64C157.277 95.8739 157.09 97.4065 157.08 98.9453C157.08 108.515 163.862 116.554 173.032 118.801L173.194 118.952C173.194 119.108 173.166 119.27 173.143 119.427L173.183 119.461C172.833 122.276 171.945 124.997 170.566 127.477L170.219 127.393C162.99 132.424 160.374 140.054 160.435 148.003C160.396 154.756 162.263 161.821 164.908 167.568C165.879 169.866 166.359 172.341 166.317 174.835C166.177 183.444 162.213 193.774 159.518 199.822C158.45 202.22 142.969 239.651 142.969 239.651L143.321 239.561L142.969 240.411C146.357 239.461 149.991 239.897 153.077 240.73C155.202 241.287 157.417 241.417 159.592 241.109C161.767 240.802 163.859 240.065 165.747 238.941C166.161 240.739 166.873 242.454 167.854 244.017C169.862 246.812 167.67 261.972 166.35 269.904C165.964 272.171 165.777 274.468 165.791 276.768C165.864 283.963 158.461 296.741 158.461 296.741C149.449 301.672 136.125 346.805 136.125 346.805C136.125 349.22 134.683 352.898 133.469 355.576C132.586 357.527 131.792 358.93 131.792 358.93C131.781 359.068 131.781 359.206 131.792 359.344C131.792 359.344 131.792 359.383 131.792 359.4C131.802 359.471 131.815 359.542 131.831 359.612L126.687 372.586C140.794 380.172 159.993 381.312 159.993 381.312C175.274 382.43 167.049 374.107 167.049 374.107C157.544 374.107 151.003 364.783 148.358 360.238L149.024 360.076C147.067 347.18 175.302 303.941 175.302 303.941L184.314 292.56L189.799 278.848C191.326 276.958 192.841 273.962 194.272 270.429L207.433 301.208C206.651 320.175 220.757 357.342 220.757 357.342C222.943 359.813 223.435 365.241 223.491 365.979L223.888 365.845L223.105 378.964C227.807 382 263.075 372.894 263.075 372.894C271.697 367.583 266.212 366.068 266.212 366.068C257.412 368.908 244.653 362.815 238.816 359.578L239.582 359.243C234.097 356.208 225.476 296.283 225.476 296.283C227.829 288.317 221.562 273.923 221.562 273.923C222.278 268.389 217.771 249.802 214.137 236.09C218.802 236.05 223.454 235.575 228.031 234.67C227.74 234.486 227.472 234.29 227.175 234.111C227.734 234.005 228.031 233.938 228.031 233.938C215.921 226.196 209.021 200.046 206.041 185.232C206.787 185.865 207.59 186.426 208.44 186.909L212.353 188.804L211.906 188.318C214.092 189.285 217.861 190.554 219.996 188.994C223.133 186.719 263.489 179.894 263.489 179.894C263.489 179.894 274.671 183.086 279.273 177.764C279.444 177.571 279.567 177.341 279.632 177.091C279.697 176.841 279.701 176.58 279.645 176.328C279.589 176.076 279.473 175.842 279.308 175.643C279.144 175.445 278.934 175.289 278.697 175.187Z" fill="url(#paint3_linear)"/>
<path d="M179.595 122.77C190.647 122.77 199.606 113.812 199.606 102.763C199.606 91.7138 190.647 82.7566 179.595 82.7566C168.544 82.7566 159.585 91.7138 159.585 102.763C159.585 113.812 168.544 122.77 179.595 122.77Z" fill="#FFC533"/>
<path d="M194.602 122.585C194.602 122.585 187.563 133.329 189.413 136.661L171.259 132.189C171.259 132.189 176.079 127.001 174.966 114.407L194.602 122.585Z" fill="#FDB797"/>
<path opacity="0.1" d="M174.591 115.178L194.227 123.329C194.227 123.329 193.338 124.681 192.281 126.576C190.364 127.348 187.713 126.85 185.522 126.85C181.049 126.85 177.778 125.671 174.776 122.775C175.055 120.55 174.843 118.247 174.591 115.178Z" fill="black"/>
<path d="M186.45 127.029C195.658 127.029 203.122 119.566 203.122 110.36C203.122 101.154 195.658 93.6907 186.45 93.6907C177.242 93.6907 169.777 101.154 169.777 110.36C169.777 119.566 177.242 127.029 186.45 127.029Z" fill="#FDB797"/>
<path d="M159.585 98.3192C164.702 98.3192 168.85 94.1721 168.85 89.0566C168.85 83.941 164.702 79.7939 159.585 79.7939C154.469 79.7939 150.321 83.941 150.321 89.0566C150.321 94.1721 154.469 98.3192 159.585 98.3192Z" fill="#FFC533"/>
<path opacity="0.1" d="M198.292 101.422C194.121 101.349 189.38 100.51 186.254 103.266C184.018 105.245 183.414 108.443 182.654 111.338C181.536 115.687 178.975 120.467 174.524 121.115C171.807 121.512 169.073 120.159 167.144 118.203C165.215 116.246 163.969 113.731 162.789 111.266C161.609 108.8 160.457 106.235 160.552 103.501C160.67 100.253 162.565 97.352 164.5 94.7527C165.666 93.1204 166.966 91.5873 168.385 90.1689C170.577 88.058 173.185 86.4289 176.044 85.3865C178.902 84.344 181.948 83.9113 184.983 84.1161C188.019 84.3209 190.979 85.1587 193.671 86.5757C196.364 87.9926 198.73 89.9573 200.618 92.3434C204.09 96.5527 205.817 101.55 198.292 101.422Z" fill="black"/>
<path d="M197.923 101.053C193.752 100.98 189.011 100.141 185.885 102.897C183.649 104.876 183.045 108.074 182.285 110.969C181.166 115.318 178.606 120.098 174.155 120.746C171.438 121.143 168.704 119.79 166.775 117.834C164.846 115.877 163.599 113.362 162.42 110.897C161.24 108.431 160.088 105.866 160.183 103.132C160.301 99.8844 162.196 96.9831 164.131 94.3838C165.297 92.7515 166.597 91.2184 168.016 89.8C170.207 87.6891 172.816 86.06 175.675 85.0176C178.533 83.9751 181.578 83.5424 184.614 83.7472C187.65 83.952 190.61 84.7898 193.302 86.2068C195.995 87.6237 198.361 89.5884 200.249 91.9745C203.715 96.1838 205.448 101.181 197.923 101.053Z" fill="#FFC533"/>
<path d="M233.879 355.609C233.879 355.609 251.664 367.466 262.779 363.76C262.779 363.76 267.968 365.241 259.816 370.428C259.816 370.428 226.465 379.322 222.021 376.354L223.139 357.091L233.879 355.609Z" fill="#333333"/>
<path d="M150.136 355.61C150.136 355.61 157.175 371.541 169.034 371.541C169.034 371.541 176.817 379.691 162.364 378.579C162.364 378.579 144.21 377.461 130.87 370.06L137.249 353.435L150.136 355.61Z" fill="#333333"/>
<path d="M209.424 221.5C209.424 221.5 221.651 264.845 220.539 273.733C220.539 273.733 226.465 287.808 224.246 295.59C224.246 295.59 232.397 354.122 237.586 357.08C237.586 357.08 222.49 363.911 222.026 363.748C216.837 361.898 222.395 363.748 222.395 363.748C222.395 363.748 222.026 357.823 219.801 355.229C219.801 355.229 206.46 318.922 207.204 300.403L189.419 257.427L209.424 221.5Z" fill="#3AD29F"/>
<path opacity="0.1" d="M209.424 221.5C209.424 221.5 221.651 264.845 220.539 273.733C220.539 273.733 226.465 287.808 224.246 295.59C224.246 295.59 232.397 354.122 237.586 357.08C237.586 357.08 222.49 363.911 222.026 363.748C216.837 361.898 222.395 363.748 222.395 363.748C222.395 363.748 222.026 357.823 219.801 355.229C219.801 355.229 206.46 318.922 207.204 300.403L189.419 257.427L209.424 221.5Z" fill="black"/>
<path d="M211.649 219.275L203.497 238.538C203.497 238.538 197.196 270.027 190.526 278.546L185.338 291.884L176.817 302.997C176.817 302.997 150.136 345.229 151.993 357.823C151.993 357.823 135.32 362.295 135.689 356.705C135.689 356.705 139.765 348.924 139.765 344.849C139.765 344.849 152.362 300.766 160.888 295.948C160.888 295.948 167.888 283.465 167.821 276.444C167.817 274.196 168.004 271.952 168.38 269.736C169.627 261.988 171.701 247.164 169.8 244.453C167.206 240.746 162.761 223.708 175.358 212.221L211.649 219.275Z" fill="#3AD29F"/>
<path opacity="0.1" d="M135.706 356.716C135.706 356.716 139.782 348.935 139.782 344.86C139.782 344.86 152.378 300.777 160.905 295.959C160.905 295.959 167.905 283.476 167.838 276.455C167.834 274.207 168.021 271.963 168.397 269.747C169.644 262 171.718 247.175 169.817 244.464C167.223 240.758 162.778 223.719 175.374 212.232L177.521 212.651C165.439 224.133 169.811 240.836 172.372 244.469C174.933 248.103 170.136 274.476 170.136 274.476C171.986 280.776 163.465 295.964 163.465 295.964C154.945 300.783 142.342 344.866 142.342 344.866C142.342 348.941 138.267 356.722 138.267 356.722C138.144 358.555 139.882 359.299 142.264 359.472C138.692 359.679 135.521 359.176 135.706 356.716Z" fill="black"/>
<path opacity="0.1" d="M172.014 131.272L185.785 134.66C189.629 135.61 193.175 137.503 196.104 140.167C199.032 142.832 201.25 146.184 202.558 149.92C203.281 152.145 204.235 154.288 205.404 156.315C206.411 157.862 207.088 159.599 207.394 161.419C207.953 165.047 207.909 170.922 204.107 177.585C204.107 177.585 210.374 224.636 226.65 235.38C226.65 235.38 210.766 239.036 196.844 234.514C187.512 231.484 177.275 232.758 169.28 238.483L168.933 238.734C167.082 240.117 164.942 241.062 162.673 241.499C160.404 241.935 158.066 241.852 155.834 241.255C152.915 240.445 149.477 240.02 146.273 240.948C146.273 240.948 160.916 204.395 161.928 202.047C165.338 194.115 170.929 178.642 167.016 169.843C161.576 157.595 159.585 139.445 172.014 131.272Z" fill="black"/>
<path d="M172.014 130.551L185.785 133.939C189.629 134.889 193.175 136.782 196.104 139.446C199.032 142.11 201.25 145.462 202.558 149.199C203.281 151.424 204.235 153.567 205.404 155.594C206.411 157.141 207.088 158.878 207.394 160.698C207.953 164.326 207.909 170.201 204.107 176.864C204.107 176.864 210.374 223.915 226.65 234.659C226.65 234.659 210.766 238.315 196.844 233.792C187.512 230.763 177.275 232.037 169.28 237.761L168.933 238.013C167.081 239.393 164.94 240.335 162.671 240.769C160.402 241.203 158.064 241.117 155.834 240.517C152.915 239.707 149.477 239.282 146.273 240.21C146.273 240.21 160.916 203.657 161.928 201.309C165.338 193.371 170.929 177.898 167.016 169.077C161.576 156.852 159.585 139.445 172.014 130.551Z" fill="#535461"/>
<path opacity="0.1" d="M187.009 164.253C187.009 164.253 201.462 184.998 208.132 188.704L211.839 190.554C211.839 190.554 188.491 164.253 187.009 164.253Z" fill="black"/>
<path d="M200.528 153.705C200.528 153.705 191.023 149.965 186.947 162.364C186.781 162.867 186.753 163.405 186.865 163.923C186.977 164.441 187.226 164.92 187.585 165.31L209.792 189.274C209.792 189.274 216.093 192.98 219.057 190.755C222.02 188.53 260.184 181.862 260.184 181.862C260.184 181.862 270.707 184.953 275.062 179.832C275.224 179.645 275.341 179.424 275.405 179.186C275.469 178.947 275.479 178.697 275.433 178.455C275.388 178.212 275.288 177.982 275.141 177.783C274.995 177.585 274.805 177.421 274.587 177.306C272.289 176.149 268.085 176.188 263.561 175.802C261.997 175.667 260.422 175.738 258.876 176.014C249.204 177.731 213.421 183.063 208.311 169.636C202.384 154.074 200.528 153.705 200.528 153.705Z" fill="#FDB797"/>
<path opacity="0.1" d="M200.718 153.889C200.718 153.889 189.234 152.039 186.64 163.521V162.777C186.64 162.777 189.972 150.183 200.718 153.889Z" fill="black"/>
<path d="M274.889 353.195C274.889 353.195 266.078 323.288 276.566 301.275C281.011 292.072 282.351 281.677 280.385 271.648C279.413 266.893 278.008 262.238 276.186 257.74" stroke="#535461" stroke-width="2" stroke-miterlimit="10"/>
<path d="M282.677 243.815C282.677 247.482 276.041 258.109 276.041 258.109C276.041 258.109 269.404 247.488 269.404 243.815C269.404 242.944 269.576 242.08 269.91 241.275C270.243 240.47 270.732 239.738 271.349 239.122C271.965 238.505 272.697 238.016 273.503 237.683C274.308 237.349 275.172 237.177 276.044 237.177C276.916 237.177 277.779 237.349 278.584 237.683C279.39 238.016 280.122 238.505 280.738 239.122C281.355 239.738 281.844 240.47 282.178 241.275C282.511 242.08 282.683 242.944 282.683 243.815H282.677Z" fill="#91CF66"/>
<path d="M293.647 264.118C291.656 267.193 280.307 272.503 280.307 272.503C280.307 272.503 280.514 259.976 282.504 256.896C282.978 256.164 283.591 255.533 284.309 255.039C285.027 254.544 285.835 254.196 286.688 254.014C287.54 253.832 288.42 253.819 289.278 253.977C290.135 254.135 290.953 254.46 291.684 254.934C292.416 255.408 293.047 256.021 293.542 256.739C294.036 257.456 294.385 258.264 294.567 259.117C294.749 259.969 294.762 260.849 294.604 261.706C294.446 262.563 294.121 263.381 293.647 264.113V264.118Z" fill="#91CF66"/>
<path d="M293.166 298.815C289.895 300.492 277.411 299.324 277.411 299.324C277.411 299.324 283.913 288.613 287.189 286.959C287.968 286.566 288.816 286.331 289.685 286.266C290.554 286.202 291.428 286.309 292.255 286.582C293.083 286.854 293.849 287.287 294.51 287.856C295.17 288.425 295.712 289.118 296.104 289.896C296.497 290.674 296.732 291.522 296.797 292.391C296.862 293.26 296.754 294.134 296.482 294.961C296.209 295.789 295.776 296.555 295.207 297.215C294.638 297.875 293.944 298.417 293.166 298.81V298.815Z" fill="#91CF66"/>
<path d="M286.893 324.987C283.947 327.167 271.451 328.151 271.451 328.151C271.451 328.151 276.052 316.496 278.999 314.316C279.699 313.798 280.495 313.423 281.341 313.212C282.187 313.001 283.066 312.959 283.928 313.088C284.79 313.217 285.619 313.515 286.366 313.964C287.113 314.413 287.764 315.004 288.283 315.705C288.801 316.406 289.176 317.202 289.387 318.047C289.598 318.893 289.64 319.772 289.511 320.634C289.382 321.496 289.084 322.324 288.635 323.071C288.186 323.818 287.594 324.469 286.893 324.987Z" fill="#91CF66"/>
<path d="M266.369 273.224C268.996 275.779 281.252 278.423 281.252 278.423C281.252 278.423 278.25 266.253 275.622 263.704C275.005 263.061 274.266 262.548 273.447 262.197C272.628 261.846 271.747 261.663 270.856 261.659C269.965 261.656 269.083 261.831 268.261 262.176C267.439 262.521 266.696 263.028 266.074 263.666C265.453 264.304 264.966 265.061 264.643 265.892C264.321 266.722 264.169 267.609 264.196 268.499C264.223 269.39 264.43 270.265 264.803 271.074C265.177 271.883 265.709 272.609 266.369 273.207V273.224Z" fill="#91CF66"/>
<path d="M259.419 303.919C262.689 305.596 275.174 304.428 275.174 304.428C275.174 304.428 268.666 293.717 265.418 292.068C264.639 291.676 263.791 291.44 262.922 291.376C262.053 291.311 261.18 291.418 260.352 291.691C259.524 291.964 258.758 292.397 258.098 292.966C257.437 293.534 256.895 294.228 256.503 295.006C256.11 295.784 255.875 296.632 255.81 297.501C255.746 298.37 255.853 299.243 256.126 300.071C256.398 300.898 256.832 301.664 257.4 302.324C257.969 302.985 258.663 303.526 259.441 303.919H259.419Z" fill="#91CF66"/>
<path d="M256.757 334.686C259.704 336.866 272.2 337.85 272.2 337.85C272.2 337.85 267.599 326.195 264.652 324.015C263.237 322.968 261.463 322.526 259.722 322.787C257.981 323.048 256.415 323.989 255.368 325.404C254.321 326.819 253.879 328.592 254.14 330.333C254.401 332.073 255.342 333.639 256.757 334.686Z" fill="#91CF66"/>
<path opacity="0.5" d="M282.677 243.815C282.677 247.482 276.041 258.109 276.041 258.109C276.041 258.109 269.404 247.488 269.404 243.815C269.404 242.944 269.576 242.08 269.91 241.275C270.243 240.47 270.732 239.738 271.349 239.122C271.965 238.505 272.697 238.016 273.503 237.683C274.308 237.349 275.172 237.177 276.044 237.177C276.916 237.177 277.779 237.349 278.584 237.683C279.39 238.016 280.122 238.505 280.738 239.122C281.355 239.738 281.844 240.47 282.178 241.275C282.511 242.08 282.683 242.944 282.683 243.815H282.677Z" fill="white"/>
<path opacity="0.5" d="M293.647 264.118C291.656 267.193 280.307 272.503 280.307 272.503C280.307 272.503 280.514 259.976 282.504 256.896C282.978 256.164 283.591 255.533 284.309 255.039C285.027 254.544 285.835 254.196 286.688 254.014C287.54 253.832 288.42 253.819 289.278 253.977C290.135 254.135 290.953 254.46 291.684 254.934C292.416 255.408 293.047 256.021 293.542 256.739C294.036 257.456 294.385 258.264 294.567 259.117C294.749 259.969 294.762 260.849 294.604 261.706C294.446 262.563 294.121 263.381 293.647 264.113V264.118Z" fill="white"/>
<path opacity="0.5" d="M293.166 298.815C289.895 300.492 277.411 299.324 277.411 299.324C277.411 299.324 283.913 288.613 287.189 286.959C287.968 286.566 288.816 286.331 289.685 286.266C290.554 286.202 291.428 286.309 292.255 286.582C293.083 286.854 293.849 287.287 294.51 287.856C295.17 288.425 295.712 289.118 296.104 289.896C296.497 290.674 296.732 291.522 296.797 292.391C296.862 293.26 296.754 294.134 296.482 294.961C296.209 295.789 295.776 296.555 295.207 297.215C294.638 297.875 293.944 298.417 293.166 298.81V298.815Z" fill="white"/>
<path opacity="0.5" d="M286.893 324.987C283.947 327.167 271.451 328.151 271.451 328.151C271.451 328.151 276.052 316.496 278.999 314.316C279.699 313.798 280.495 313.423 281.341 313.212C282.187 313.001 283.066 312.959 283.928 313.088C284.79 313.217 285.619 313.515 286.366 313.964C287.113 314.413 287.764 315.004 288.283 315.705C288.801 316.406 289.176 317.202 289.387 318.047C289.598 318.893 289.64 319.772 289.511 320.634C289.382 321.496 289.084 322.324 288.635 323.071C288.186 323.818 287.594 324.469 286.893 324.987Z" fill="white"/>
<path opacity="0.5" d="M266.369 273.224C268.996 275.779 281.252 278.423 281.252 278.423C281.252 278.423 278.25 266.253 275.622 263.704C275.005 263.061 274.266 262.548 273.447 262.197C272.628 261.846 271.747 261.663 270.856 261.659C269.965 261.656 269.083 261.831 268.261 262.176C267.439 262.521 266.696 263.028 266.074 263.666C265.453 264.304 264.966 265.061 264.643 265.892C264.321 266.722 264.169 267.609 264.196 268.499C264.223 269.39 264.43 270.265 264.803 271.074C265.177 271.883 265.709 272.609 266.369 273.207V273.224Z" fill="white"/>
<path opacity="0.5" d="M259.419 303.919C262.689 305.596 275.174 304.428 275.174 304.428C275.174 304.428 268.666 293.717 265.418 292.068C264.639 291.676 263.791 291.44 262.922 291.376C262.053 291.311 261.18 291.418 260.352 291.691C259.524 291.964 258.758 292.397 258.098 292.966C257.437 293.534 256.895 294.228 256.503 295.006C256.11 295.784 255.875 296.632 255.81 297.501C255.746 298.37 255.853 299.243 256.126 300.071C256.398 300.898 256.832 301.664 257.4 302.324C257.969 302.985 258.663 303.526 259.441 303.919H259.419Z" fill="white"/>
<path opacity="0.5" d="M256.757 334.686C259.704 336.866 272.2 337.85 272.2 337.85C272.2 337.85 267.599 326.195 264.652 324.015C263.237 322.968 261.463 322.526 259.722 322.787C257.981 323.048 256.415 323.989 255.368 325.404C254.321 326.819 253.879 328.592 254.14 330.333C254.401 332.073 255.342 333.639 256.757 334.686Z" fill="white"/>
<path opacity="0.5" d="M321.255 136.12C321.255 144.253 318.843 152.203 314.324 158.965C309.805 165.727 303.382 170.998 295.867 174.11C288.351 177.222 280.082 178.036 272.104 176.45C264.126 174.863 256.798 170.947 251.046 165.196C245.294 159.445 241.377 152.119 239.79 144.142C238.203 136.166 239.018 127.898 242.131 120.384C245.244 112.87 250.515 106.448 257.278 101.93C264.042 97.4116 271.993 95 280.128 95C291.035 95 301.496 99.3323 309.209 107.044C316.922 114.755 321.255 125.214 321.255 136.12Z" fill="white"/>
<g clip-path="url(#clip0)">
<path d="M256 141.864L263.602 117L280.815 122.263L279.729 125.815L282.598 126.692L279.34 137.348L276.471 136.471L275.385 140.023L263.91 136.514L261.738 143.618L256 141.864ZM264.996 132.962L273.602 135.594L276.86 124.938L268.253 122.306L264.996 132.962ZM284.689 150.635L285.775 147.083L282.906 146.206L283.992 142.654L281.123 141.777L284.381 131.121L287.25 131.998L288.336 128.446L291.205 129.323L292.291 125.771L303.766 129.28L302.68 132.832L305.549 133.709L304.463 137.261L298.726 135.506L299.811 131.954L294.074 130.2L292.988 133.752L290.119 132.875L286.861 143.531L289.73 144.408L288.644 147.96L294.382 149.714L295.468 146.162L301.206 147.917L300.12 151.469L297.251 150.592L296.165 154.144L284.689 150.635Z" fill="#91CF66"/>
</g>
<defs>
<linearGradient id="paint0_linear" x1="356.104" y1="380.133" x2="356.104" y2="70.1679" gradientUnits="userSpaceOnUse">
<stop stop-color="#808080" stop-opacity="0.25"/>
<stop offset="0.54" stop-color="#808080" stop-opacity="0.12"/>
<stop offset="1" stop-color="#808080" stop-opacity="0.1"/>
</linearGradient>
<linearGradient id="paint1_linear" x1="292.44" y1="436.776" x2="292.44" y2="436.761" gradientUnits="userSpaceOnUse">
<stop stop-color="#808080" stop-opacity="0.25"/>
<stop offset="0.54" stop-color="#808080" stop-opacity="0.12"/>
<stop offset="1" stop-color="#808080" stop-opacity="0.1"/>
</linearGradient>
<linearGradient id="paint2_linear" x1="1547.43" y1="1010.92" x2="1547.43" y2="1009.56" gradientUnits="userSpaceOnUse">
<stop stop-color="#808080" stop-opacity="0.25"/>
<stop offset="0.54" stop-color="#808080" stop-opacity="0.12"/>
<stop offset="1" stop-color="#808080" stop-opacity="0.1"/>
</linearGradient>
<linearGradient id="paint3_linear" x1="73361.6" y1="229418" x2="73361.6" y2="61884" gradientUnits="userSpaceOnUse">
<stop stop-color="#808080" stop-opacity="0.25"/>
<stop offset="0.54" stop-color="#808080" stop-opacity="0.12"/>
<stop offset="1" stop-color="#808080" stop-opacity="0.1"/>
</linearGradient>
<clipPath id="clip0">
<rect width="45" height="26" fill="white" transform="translate(263.602 117) rotate(17)"/>
</clipPath>
</defs>
</svg>
