<svg width="131" height="100" viewBox="0 0 131 100" fill="none" xmlns="http://www.w3.org/2000/svg">
<path d="M123.641 12.5H44.2933V18.4782H123.369C124.185 18.4782 124.728 19.2935 124.728 20.1087V71.4674H44.2933V83.4239H70.9237V92.1196H67.3911C63.315 92.1196 60.0542 95.3804 60.0542 99.4565V100H97.8259V99.4565C97.8259 95.3804 94.565 92.1196 90.489 92.1196H86.9563V83.4239H124.185C127.989 83.4239 130.978 80.4348 130.978 76.6304V19.5652C130.435 15.4891 127.445 12.5 123.641 12.5ZM78.8042 74.4565C80.4346 74.4565 81.7933 75.8152 81.7933 77.4456C81.7933 79.0761 80.4346 80.4348 78.8042 80.4348C77.1737 80.4348 75.815 79.0761 75.815 77.4456C75.815 75.5435 77.1737 74.4565 78.8042 74.4565Z" fill="black"/>
<path d="M32.8804 0H5.70652C2.71739 0 0 2.71739 0 5.97826V91.5761C0 94.837 2.71739 97.5544 5.97826 97.5544H33.1522C36.4131 97.5544 39.1304 94.837 39.1304 91.5761C39.1304 68.4783 39.1304 67.1196 39.1304 18.4783V5.97826C38.8587 2.71739 36.1413 0 32.8804 0ZM5.70652 28.8044C4.61957 28.8044 3.80435 27.9891 3.80435 26.9022V24.7283C3.80435 23.6413 4.61957 22.8261 5.70652 22.8261H33.1522C34.2391 22.8261 35.0544 23.6413 35.0544 24.7283V26.9022C35.0544 27.9891 34.2391 28.8044 33.1522 28.8044H5.70652ZM11.9565 77.1739C8.69565 77.1739 6.25 74.7283 6.25 71.4674C6.25 68.2065 8.69565 65.7609 11.9565 65.7609C14.9457 65.7609 17.663 68.2065 17.663 71.4674C17.663 74.4565 15.2174 77.1739 11.9565 77.1739ZM34.7826 12.7717V14.9457C34.7826 16.0326 33.9674 16.8478 32.8804 16.8478H5.70652C4.61957 16.8478 3.80435 16.0326 3.80435 14.9457V12.7717C3.80435 11.6848 4.61957 10.8696 5.70652 10.8696H32.8804C33.9674 10.8696 34.7826 11.6848 34.7826 12.5C34.7826 12.7717 34.7826 12.7717 34.7826 12.7717Z" fill="black"/>
</svg>
