<svg width="67" height="100" fill="none" xmlns="http://www.w3.org/2000/svg"><path fill-rule="evenodd" clip-rule="evenodd" d="M24.88 2.046C24.88.916 25.842 0 26.953 0c1.145 0 2.074.927 2.074 2.115v20.773c.005.407-.107.82-.349 1.184l-7.945 11.976v57.698c0 3.454-2.76 6.254-6.22 6.254-3.435 0-6.22-2.802-6.22-6.254V36.048L.348 24.072A2.081 2.081 0 0 1 0 22.888V2.115C0 .947.962 0 2.074 0c1.145 0 2.073.95 2.073 2.046v14.62c0 2.302 1.856 4.167 4.146 4.167s4.147-1.865 4.147-4.166V2.074C12.44.928 13.402 0 14.513 0c1.146 0 2.074.895 2.074 2.074v14.593c0 2.3 1.856 4.166 4.146 4.166s4.147-1.865 4.147-4.166V2.046zM43.356 45.57c.654-.04 9.359-7.215 5.757-31.306C58.25 37.08 45.613 50 45.613 50v45.823c0 2.307 1.84 4.177 4.147 4.177a4.155 4.155 0 0 0 4.146-4.16V45.833c7.514-.767 12.44-4.11 12.44-14.583 0-8.411-2.693-23.565-24.454-31.25 2.073 18.859-8.719 18.593-8.719 31.25 0 10.275 5.81 14.583 10.183 14.32z" fill="#000"/></svg>