<svg xmlns="http://www.w3.org/2000/svg" viewBox="15.841 0 68.318 125"><path d="M84.159 31.193l-5.305-4.745 2.233-6.769-6.629-2.582-.208-7.118-7.118-.209-2.652-6.63-6.77 2.233L52.965 0l-5.582 4.466-6.28-3.419-3.699 6.072-7.118-1.047-1.396 6.978-6.979 1.466 1.046 7.048-6.141 3.768 3.419 6.28-4.396 5.583 5.373 4.676-2.303 6.769 6.63 2.652.209 7.117 7.118.21 2.582 6.63 6.769-2.233 4.745 5.373 5.653-4.536 6.28 3.42 3.699-6.071 7.047 1.047 1.396-6.979 7.048-1.396-1.046-7.048 6.07-3.768-3.419-6.281 4.469-5.584zM62.247 50.594H37.543v-2.303a51.797 51.797 0 0 0 2.792-.279c1.308-.161 2.242-.329 2.722-.489.599-.199 1.056-.498 1.396-.977.339-.479.559-1.185.559-2.023V25.541h-7.607V22.68h1.605c1.738 0 3.268-.178 4.536-.558 1.269-.38 2.301-.856 3.14-1.396.859-.559 1.614-1.076 2.163-1.675.55-.599.937-1.145 1.256-1.605h5.234c-.06 1.298-.08 2.799-.141 4.536a135.103 135.103 0 0 0-.068 4.675v17.516c0 .719.108 1.354.418 1.884s.816.977 1.396 1.256c.52.239 1.364.428 2.582.628 1.219.199 2.142.309 2.722.349v2.304z"/><path d="M63.782 64.062l-4.117 6.768-6.977-3.768-6.212 4.885-5.234-5.931-7.536 2.582-2.932-7.467-3.279-.069v-.001L16.26 90.3l16.608-2.791L41.521 100l7.049-18.144 5.652 16.191 9.071-12.213 16.539 3.211-8.443-23.867z"/></svg>