<svg width="419" height="381" fill="none" xmlns="http://www.w3.org/2000/svg"><path d="M306.115 380.575c-43.818-6.003-79.395-47.743-118.873-73.79-8.796-5.805-18.017-10.916-27.765-12.43-32.293-5.017-62.07 29.749-94.514 26.91-26.295-2.301-48.595-30.178-58.056-62.968-9.46-32.791-8.01-69.467-2.756-103.888C12.377 100.654 30.6 47.771 62.324 12.807 67.56 7.035 73.406 1.637 80.13.325c11.204-2.211 21.593 7.29 31.29 15.146 43.761 35.469 99.084 44.475 147.943 24.086 16.547-6.903 32.373-16.975 49.307-21.945 32.608-9.553 69.509 2.518 91.649 35.836 22.14 33.319 25.739 88.083 4.646 122.599-8.806 14.406-20.943 24.577-30.187 38.477-23.228 34.894-14.653 70.174-11.779 111.094 2.831 40.321-31.285 58.46-56.883 54.957z" fill="#9B9B9B"/></svg>