<svg width="412" height="365" fill="none" xmlns="http://www.w3.org/2000/svg"><path d="M344.226 77.305c5.121 3.655 10.146 8.056 12.174 14.005 1.49 4.377 1.205 9.114.901 13.719l-3.607 54.977c-.806 12.251-1.573 24.85 2.178 36.546 6.463 20.15 24.822 33.724 37.667 50.55 21.047 27.574 25.796 69.706 3.323 96.116a61.575 61.575 0 0 1-38.81 20.956c-8.846 1.11-17.803.259-26.677-.594a4322.779 4322.779 0 0 1-222.285-27.528c-8.771-1.32-17.773-2.747-25.406-7.225-10.545-6.181-17.158-17.441-21.178-28.972-4.02-11.531-5.92-23.702-9.62-35.335-7.58-23.757-22.47-44.353-34.928-65.944-6.87-11.897-13.114-24.359-16.019-37.778-4.618-21.328.065-44.983 14.337-61.504 6.166-7.141 14.01-12.97 18.68-21.166 6.522-11.46 5.764-25.437 6.459-38.602.694-13.165 4.05-27.832 15.258-34.797C62.86.887 70.445.1 77.733.066c34.893-.154 67.831 14.584 100.789 26.044 29.078 10.133 58.928 17.8 88.892 24.786 26.597 6.208 54.038 10.155 76.812 26.41z" fill="#91CF66"/></svg>