<svg xmlns="http://www.w3.org/2000/svg" viewBox="0 0 144.083 180"><path d="M102.292 35.875H43.708c-4.319 0-7.833 3.514-7.833 7.833v58.584c0 4.319 3.514 7.833 7.833 7.833h58.583c4.32 0 7.834-3.514 7.834-7.833V43.708c0-4.319-3.513-7.833-7.833-7.833zM71.5 107.125H43.708a4.838 4.838 0 0 1-4.833-4.833V74.5H71.5v32.625zm0-35.625H38.875V43.708a4.838 4.838 0 0 1 4.833-4.833H71.5V71.5zm35.625 30.792a4.839 4.839 0 0 1-4.834 4.833H74.5V74.5h32.625v27.792zm0-30.792H74.5V38.875h27.791a4.839 4.839 0 0 1 4.834 4.833V71.5z"/><path d="M53.521 64.251h3v-7.5h7.5v-3h-7.5v-7.5h-3v7.5h-7.5v3h7.5zm-3.803 33.842l5.303-5.304 5.304 5.304 2.121-2.121-5.303-5.304 5.303-5.304-2.121-2.121-5.304 5.304-5.303-5.304-2.121 2.121 5.303 5.304-5.303 5.304zm32.47-44.342h18v3h-18zm0 30.902h18v3h-18zm0 9.031h18v3h-18z"/></svg>