<svg xmlns="http://www.w3.org/2000/svg" viewBox="0 0 100 125"><path d="M36.516 14.304l5.567 14.748 5.967-.904L42.483 13.4zm11.934-1.807l5.567 14.748 5.781-.876-5.568-14.748zm11.747-1.78l5.568 14.748 6.34-.96-5.568-14.748zm-35.429 5.367l5.568 14.747 5.78-.875-5.567-14.748zm-5.923.91l-1.817.262c-2.281.346-3.856 2.44-3.517 4.678l1.695 11.19 9.163-1.388-5.41-14.33-.114-.412zM83.359 22.8l-1.695-11.19c-.339-2.238-2.463-3.772-4.744-3.426l-4.416.669 5.567 14.748 5.288-.801zM54.405 34.296l-3.038 14.201h5.847l3.037-14.201zm-12.071 0l-3.037 14.201h6.035l3.038-14.201zm-27.11 0v14.201h6.156l3.037-14.201zm15.229 0l-3.038 14.201h5.847l3.037-14.201zm35.833 0l-3.037 14.201h6.412l3.038-14.201zm17.869 0h-5.421l-3.037 14.201h8.458zM15.224 49.684v38.082c0 2.263 1.87 4.098 4.178 4.098h60.575c2.307 0 4.178-1.835 4.178-4.098V49.684H15.224zm32.363 30.173V61.476l10.748 9.19-10.748 9.191z"/></svg>