<svg xmlns="http://www.w3.org/2000/svg" viewBox="0 0 50 62.5"><path d="M46.5 11.2H17.3v2.2h29.1c.3 0 .5.3.5.6v18.9H17.3v4.4h9.8v3.2h-1.3c-1.5 0-2.7 1.2-2.7 2.7v.2H37v-.2c0-1.5-1.2-2.7-2.7-2.7H33v-3.2h13.7c1.4 0 2.5-1.1 2.5-2.5v-21c-.2-1.5-1.3-2.6-2.7-2.6zM30 34c.6 0 1.1.5 1.1 1.1 0 .6-.5 1.1-1.1 1.1-.6 0-1.1-.5-1.1-1.1 0-.7.5-1.1 1.1-1.1zM13.1 6.6h-10C2 6.6 1 7.6 1 8.8v31.5c0 1.2 1 2.2 2.2 2.2h10c1.2 0 2.2-1 2.2-2.2V8.8c-.1-1.2-1.1-2.2-2.3-2.2zm-10 10.6c-.4 0-.7-.3-.7-.7v-.8c0-.4.3-.7.7-.7h10.1c.4 0 .7.3.7.7v.8c0 .4-.3.7-.7.7H3.1zM5.4 35c-1.2 0-2.1-.9-2.1-2.1 0-1.2.9-2.1 2.1-2.1 1.1 0 2.1.9 2.1 2.1 0 1.1-.9 2.1-2.1 2.1zm8.4-23.7v.8c0 .4-.3.7-.7.7h-10c-.4 0-.7-.3-.7-.7v-.8c0-.4.3-.7.7-.7h10c.4 0 .7.3.7.6v.1z"/></svg>