<svg width="69" height="100" fill="none" xmlns="http://www.w3.org/2000/svg"><path d="M33.206 0c-5.78 0-10.147 3.84-12.903 9.51-2.023 4.16-3.292 9.359-3.817 15.028l-11.214.732c-1.064.065-1.995 1.013-2.027 2.061l-1.08 53.134L.07 87.713c-.32 1.124.493 2.43 1.655 2.66l45.398 9.577c.449.099.93.051 1.35-.133l18.376-8.512c.829-.386 1.347-1.335 1.216-2.228l-1.047-7.315-4.324-55.328c-.084-1.058-1.084-1.965-2.162-1.962h-5.91l-3.851-1.895c-.095-6.15-.665-11.425-2.297-15.395C46.675 2.807 43.339 0 38.34 0c-.902 0-1.76.179-2.533.499C35.035.165 34.172 0 33.207 0zm.237 2.128a8.99 8.99 0 0 0-.811.931c-1.37 1.83-2.292 4.24-2.939 6.916-1.056 4.367-1.38 9.41-1.418 13.766l-9.593.631c.534-5.35 1.75-10.202 3.58-13.965 2.923-5.636 6.401-8.17 11.18-8.279zM46.48 7.98c1.43 3.476 2.02 8.478 2.128 14.43l-9.221.599c.347-3.864.755-7.87.776-11.438.019-3.062-.21-5.803-1.216-7.947a6.637 6.637 0 0 0-.945-1.463c4.703.066 7.302 2.169 8.478 5.819zM35.807 2.893c.483.39.853.928 1.182 1.629.758 1.614 1.031 4.092 1.014 7.016-.021 3.518-.457 7.617-.811 11.637l-6.756.433c.056-4.225.408-9.091 1.385-13.134.608-2.512 1.44-4.69 2.534-6.152.45-.602.932-1.075 1.452-1.43zM47.562 26.7v32.485a6.4 6.4 0 0 0-3.243-.898c-4.051 0-7.364 3.96-7.364 8.745 0 4.786 3.313 8.712 7.364 8.712a6.44 6.44 0 0 0 3.243-.898v12.003a6.395 6.395 0 0 0-3.243-.898c-3.71 0-6.8 3.313-7.296 7.548L28.41 91.67c2.276-1.488 3.817-4.343 3.817-7.614 0-4.786-3.313-8.745-7.364-8.745s-7.364 3.96-7.364 8.745c0 2.175.695 4.154 1.824 5.686L4.9 86.716l1.52-5.287a2.12 2.12 0 0 0 .068-.532l.101-5.685c1.344 1.641 3.233 2.66 5.303 2.66 4.052 0 7.364-3.926 7.364-8.712s-3.312-8.745-7.364-8.745c-1.941 0-3.711.92-5.033 2.394l.203-10.473c1.295 1.326 2.995 2.128 4.83 2.128 4.052 0 7.364-3.926 7.364-8.712s-3.312-8.745-7.364-8.745c-1.71 0-3.304.688-4.56 1.862l.203-9.51 8.748-.565c-.012.429-.029.865-.033 1.297-.66.365-1.115 1.032-1.115 1.829 0 1.175.968 2.128 2.162 2.128s2.162-.953 2.162-2.128c0-.777-.416-1.457-1.048-1.829.006-.489.018-.978.034-1.463l18.443-1.197c-.03.53-.05 1.048-.068 1.563-.68.358-1.148 1.049-1.148 1.862 0 1.175.968 2.128 2.162 2.128s2.161-.953 2.161-2.128c0-.76-.403-1.42-1.013-1.796.022-.587.03-1.183.068-1.795l8.512-.565zm4.323 1.23l1.115.532 1.047 54.962-2.162 3.159V27.93zm5.439.798h1.216l4.154 53.366c.196 1.101.343 2.242.507 3.359l-4.864-2.66-1.013-54.065zm-19.49 6.151c-4.052 0-7.364 3.96-7.364 8.745 0 4.786 3.312 8.712 7.364 8.712 4.051 0 7.363-3.926 7.363-8.712s-3.312-8.745-7.363-8.745zm0 4.689c1.918 0 3.445 1.79 3.445 4.056s-1.527 4.023-3.445 4.023c-1.919 0-3.446-1.757-3.446-4.023s1.527-4.056 3.446-4.056zm-25.942 2.128c1.919 0 3.446 1.79 3.446 4.056s-1.527 4.023-3.446 4.023c-1.918 0-3.445-1.757-3.445-4.023s1.527-4.056 3.445-4.056zm15.133 8.08c-4.051 0-7.364 3.958-7.364 8.744s3.313 8.712 7.364 8.712 7.363-3.926 7.363-8.712-3.312-8.745-7.363-8.745zm0 4.688c1.918 0 3.445 1.79 3.445 4.056s-1.527 4.023-3.445 4.023-3.446-1.757-3.446-4.023 1.527-4.056 3.446-4.056zm17.294 8.511c1.522 0 2.783 1.13 3.243 2.727v2.66c-.46 1.589-1.721 2.693-3.243 2.693-1.918 0-3.445-1.757-3.445-4.023s1.527-4.056 3.445-4.056zm-32.427 2.128c1.919 0 3.446 1.791 3.446 4.057 0 2.266-1.527 4.023-3.446 4.023-1.918 0-3.445-1.757-3.445-4.023s1.527-4.056 3.445-4.056zM24.863 80c1.918 0 3.445 1.79 3.445 4.056s-1.527 4.023-3.445 4.023-3.445-1.757-3.445-4.023S22.945 80 24.863 80zm32.022 6.849l4.323 2.36-8.613 3.99 4.29-6.35zm-12.566 3.79c.893 0 1.688.388 2.297 1.031l-.777 3.691-4.931-1.064c.167-2.072 1.608-3.657 3.411-3.657z" fill="#000"/></svg>