<svg width="90" height="100" fill="none" xmlns="http://www.w3.org/2000/svg"><path d="M86.429 10.714H64.898l-1.122-6.428c-.409-2.45-2.552-4.286-5-4.286H30.918c-2.449 0-4.591 1.837-5 4.286l-1.122 6.428H2.959A2.961 2.961 0 0 0 0 13.674a2.961 2.961 0 0 0 2.96 2.959h6.326l5 76.122c.306 4.082 3.877 7.245 8.163 7.245h44.184c4.285 0 7.959-3.163 8.163-7.245l5-76.122h6.326a2.961 2.961 0 0 0 2.96-2.96c0-1.632-1.02-2.959-2.653-2.959zM31.837 5.918h26.428l.817 4.898H31.02l.817-4.898zm37.347 86.429c-.102 1.02-1.123 1.735-2.347 1.735H22.653c-1.224 0-2.245-.817-2.347-1.735l-5-75.612h58.776l-4.898 75.612z" fill="#000"/><path d="M55.816 62.143h7.347l-5.204-8.98-5.51 3.164 3.367 5.816zm-6.326.817c0-.205-.306-.409-.51-.205l-5.204 4.286c-.103.102-.103.306 0 .51l5.204 4.286c.204.204.51 0 .51-.204V70.51h12.55a.561.561 0 0 0 .511-.306l2.347-4.184a.65.65 0 0 0 0-.612l-.714-1.326H49.49v-1.123zM43.776 45l-3.674-6.327-5.204 8.98 5.51 3.163L43.776 45zm3.775 5.102c-.204.102-.204.408 0 .51l6.327 2.347c.204.102.408 0 .408-.204l1.122-6.633c0-.204-.204-.408-.408-.306l-1.02.612-6.225-10.816a.561.561 0 0 0-.51-.306h-4.796a.561.561 0 0 0-.51.306l-.715 1.327 7.348 12.755-1.02.408zm-20.511 20a.561.561 0 0 0 .511.306h1.53l7.348-12.755 1.02.612c.204.102.51-.102.408-.306l-1.122-6.633c0-.203-.204-.306-.408-.204L30 53.47c-.204.102-.306.409 0 .51l1.02.613-6.224 10.816a.65.65 0 0 0 0 .612l2.245 4.082zm4.185.306h10.408v-6.326h-6.735l-3.673 6.326z" fill="#000"/></svg>