<svg xmlns="http://www.w3.org/2000/svg" viewBox="0 0 323.599 356.814"><path d="M191.253 87.63a7.958 7.958 0 0 0 .219-4.268c-.971-4.312-5.25-7.021-9.559-6.049-.298.066-.586.111-.882.173a52.784 52.784 0 0 0 10.222 10.144zm-28.162-5.53a9.993 9.993 0 0 1 1.257-3.673c-11.931-1.208-21.879-6.324-29.22-11.623a74.209 74.209 0 0 1-9.649-8.312 57.156 57.156 0 0 1-2.441-2.66 28.7 28.7 0 0 1-.567-.681c-.058-.069-.096-.119-.115-.142a7.99 7.99 0 0 0-1.717-1.654c-8.832-8.857-17.663-17.72-26.496-26.578-.353-.36-.818-.698-1.363-1.01a47.866 47.866 0 0 0-6.675-4.724c-4.756-2.777-11.557-5.759-19.847-5.784-8.063-.076-17.279 3.21-25.174 11.145-7.953 7.917-14.936 20.059-20.854 38.368a8 8 0 0 0 5.16 10.068 7.979 7.979 0 0 0 2.458.389 8.002 8.002 0 0 0 7.611-5.549c5.391-16.774 11.512-26.616 16.889-31.912 5.436-5.279 9.772-6.433 13.91-6.509 1.884-.012 3.775.33 5.583.869-16.026 19.218-25.046 42.864-33.32 66.814a11.233 11.233 0 0 0-.538 2.384c-1.009 3.309-.658 7.014 1.29 10.187 0 0 .018.032.065.107h.002c.604 1.04 5.068 9.486 5.021 21.224-.011 6.231-1.163 13.439-4.802 21.558-3.653 8.112-9.845 17.207-20.359 26.91-5.077 4.679-5.398 12.586-.719 17.664a12.467 12.467 0 0 0 9.195 4.027c3.029 0 6.066-1.094 8.469-3.309 12.668-11.672 21.071-23.581 26.217-35.044 5.157-11.454 7.008-22.391 6.997-31.807a76.088 76.088 0 0 0-.398-7.532c2.443 1.29 7.522 4.301 12.251 9.052 3.256 3.246 6.354 7.247 8.618 12.042 2.26 4.813 3.765 10.406 3.777 17.391-.004 6.105-1.182 13.331-4.393 21.953-2.415 6.467.874 13.666 7.341 16.081a12.49 12.49 0 0 0 4.366.791c5.071 0 9.84-3.105 11.716-8.135 4.124-11.045 5.973-21.313 5.968-30.69.015-11.065-2.602-20.811-6.537-28.83-5.921-12.071-14.525-20.252-21.542-25.493a79.475 79.475 0 0 0-5.234-3.578c5.916-20.812 15.441-28.241 29.622-35.331a91.032 91.032 0 0 0 10.847 9.213c10.102 7.298 25.002 14.822 43.623 14.915a73.643 73.643 0 0 1-4.346-5.189 9.933 9.933 0 0 1-1.947-7.403z"/><ellipse transform="rotate(-60.343 126.544 22.499)" cx="126.543" cy="22.498" rx="22.495" ry="22.496"/><ellipse transform="rotate(-87.719 252.324 73.354)" cx="252.325" cy="73.352" rx="22.494" ry="22.495"/><path d="M296.556 97.029c-7.28-2.654-13.554-2.933-16.289-2.951-1.032-.14-1.965-.135-2.71.046-12.058 2.815-24.114 5.636-36.17 8.451a83.371 83.371 0 0 1-5.925.2c-6.907.009-17.168-.799-27.488-4.263l-.004-.001c-6.038-2.03-12.054-4.918-17.599-9.036A54.77 54.77 0 0 1 179.37 78.61a8.245 8.245 0 0 0-.587-.684 8 8 0 0 0-10.624-.845 7.99 7.99 0 0 0-1.515 1.521c-2.13 2.79-2.241 6.758-.013 9.688a70.376 70.376 0 0 0 5.469 6.359c9.318 9.644 20.345 15.551 30.789 19.034l.002.001c12.604 4.205 24.469 5.083 32.57 5.091l.366-.002c7.867 12.555 12.446 22.921 9.118 40.044a69.047 69.047 0 0 0-8.294-4.431c-5.682-2.522-12.229-4.428-19.48-4.441-8.772-.09-18.453 3.186-26.342 10.254-7.954 7.04-14.341 17.244-19.547 31.232-2.403 6.472.896 13.665 7.368 16.069 1.434.531 2.904.784 4.348.784 5.077 0 9.85-3.114 11.721-8.152 4.23-11.439 8.886-17.903 12.636-21.175 3.816-3.241 6.502-3.922 9.816-4.011 2.713-.013 5.938.77 9.31 2.276 5.057 2.228 10.215 6.042 13.876 9.296a73.174 73.174 0 0 1 4.307 4.115 45.919 45.919 0 0 1 1.346 1.45l.008.01c3.135 3.648 7.918 5.039 12.305 4.026a91.515 91.515 0 0 0-.466 9.27c-.024 16.793 4.4 40.725 20.935 69.116a12.494 12.494 0 0 0 17.088 4.527c5.969-3.471 7.995-11.12 4.524-17.089-14.43-24.877-17.523-44.046-17.547-56.554 0-5.906.714-10.339 1.359-13.149.322-1.405.628-2.404.819-2.976.096-.284.163-.462.189-.527l.007-.018h-.001c.224-.53.393-1.069.539-1.61.343-.723.625-1.496.813-2.324 5.429-23.742 10.146-47.612 7.454-71.44.588.299 1.172.616 1.741.971 3.077 1.896 5.858 4.473 8.039 8.444 2.162 3.978 3.774 9.512 3.785 17.581 0 5.764-.849 12.794-2.948 21.253a7.999 7.999 0 0 0 7.769 9.929 8.005 8.005 0 0 0 7.76-6.076c2.352-9.483 3.418-17.778 3.418-25.106.011-10.222-2.117-18.614-5.736-25.242-5.43-9.999-13.992-15.424-21.308-18.07zM0 205.451h171.172v80H0z"/></svg>