<svg xmlns="http://www.w3.org/2000/svg" viewBox="0 0 512 640"><path d="M227.974 151.291c-.174-20.651 16.659-37.658 37.31-37.831 20.999 0 37.485 16.486 37.485 37.658.173 20.651-16.313 37.658-36.79 38.005-20.651.173-37.659-16.834-38.005-37.832zm91.108 214.841c-.521 3.124-2.43 6.421-4.686 8.851-13.709 14.057-30.196 22.386-49.979 22.734-8.851.174-18.048.52-26.552-1.389-22.56-4.686-35.402-23.949-31.757-46.508 4.338-27.246 9.197-54.144 13.883-81.216 1.389-8.157 3.124-16.313 4.165-24.47.521-2.95.174-6.247-.347-9.023-1.041-5.553-3.817-7.983-9.197-8.851-2.95-.347-5.901-.174-8.677-.867-3.471-1.041-7.462-2.256-10.239-4.338-4.859-3.645-3.817-10.759 1.736-13.189 2.776-1.389 6.247-2.082 9.371-2.082 12.322-.174 24.816 0 36.964 0h36.964c8.851 0 13.363 4.512 14.578 13.362 1.214 8.851-1.91 17.181-3.471 25.685-4.512 25.51-9.372 50.847-13.883 76.183-1.562 8.677-3.125 17.354-4.512 26.205-.347 2.604-.174 5.553 0 8.157 1.561 11.279 7.982 15.445 18.742 12.668 3.297-.867 6.248-2.776 9.372-4.338 2.95-1.389 5.9-3.297 9.023-4.512 5.377-2.086 9.716 1.385 8.502 6.938z"/><path d="M81.211 506.594h-2.008c-19.379-.119-31.276-5.186-36.36-15.507-1.822-3.711-5.143-13.507 3.305-24.624l26.946-35.979c3.195-4.118 5.025-6.669 5.754-8.601C34.489 375.676 10.11 315.311 10.11 251.386c0-135.637 110.343-245.98 245.98-245.98 135.544 0 245.802 110.343 245.802 245.98 0 135.535-110.259 245.802-245.802 245.802-26.624 0-52.757-4.254-77.703-12.643-1.135.254-1.864.559-2.237.78-9.846 4.61-18.591 8.084-27.853 11.168-3.237 1.017-6.237 1.796-9.236 2.576l-4.161 1.102c-15.651 4.271-33.7 6.423-53.689 6.423zm174.878-466.48c-116.495 0-211.272 94.777-211.272 211.272 0 56.214 21.964 109.233 61.84 149.296l2.101 2.11 1.28 2.678c3.991 8.414 4.652 17.71 1.898 26.895-2.712 7.855-6.787 13.422-11.092 18.964L85.6 471.852c15.117-.271 28.59-2 40.114-5.152l4.669-1.237c2.398-.61 4.805-1.22 7.203-1.983a218.194 218.194 0 0 0 22.819-9.075c4.288-2.423 10.406-4.177 17.625-4.796l5.406-.059 2.813 1c22.336 7.914 45.842 11.931 69.839 11.931 116.393 0 211.094-94.693 211.094-211.094.001-116.496-94.7-211.273-211.093-211.273z"/></svg>