<svg xmlns="http://www.w3.org/2000/svg" viewBox="0 0 100 125"><path style="text-indent:0;text-transform:none;block-progression:tb" d="M49.214 3c-5.433 0-9.538 3.61-12.13 8.939-1.9 3.911-3.094 8.798-3.587 14.127l-10.541.688c-1 .06-1.876.952-1.906 1.938l-1.016 49.945-1.968 6.814c-.3 1.056.463 2.284 1.556 2.5l42.673 9.002a2.08 2.08 0 0 0 1.27-.125l17.273-8.002c.78-.362 1.266-1.254 1.143-2.094l-.984-6.876-4.064-52.008c-.08-.994-1.02-1.847-2.032-1.844h-5.557l-3.62-1.782c-.089-5.78-.624-10.74-2.159-14.47C61.875 5.638 58.738 3 54.04 3c-.848 0-1.655.168-2.381.469C50.933 3.155 50.12 3 49.214 3zm.222 2a8.41 8.41 0 0 0-.762.875c-1.287 1.72-2.154 3.987-2.762 6.501-.993 4.106-1.298 8.847-1.334 12.94l-9.017.594c.502-5.03 1.646-9.59 3.365-13.127 2.748-5.299 6.017-7.68 10.51-7.783zm12.256 5.501c1.344 3.268 1.898 7.97 2 13.565l-8.668.562c.327-3.631.71-7.397.73-10.751.018-2.878-.197-5.455-1.142-7.47a6.24 6.24 0 0 0-.89-1.376c4.422.062 6.865 2.039 7.97 5.47zM51.659 5.72c.454.368.802.873 1.11 1.532.713 1.517.97 3.846.953 6.594-.02 3.307-.43 7.161-.762 10.94l-6.35.406c.053-3.971.383-8.545 1.302-12.346.57-2.36 1.353-4.408 2.381-5.782.424-.567.877-1.01 1.366-1.344zm11.05 22.379v30.536a6.016 6.016 0 0 0-3.05-.844c-3.807 0-6.92 3.722-6.92 8.22 0 4.499 3.113 8.189 6.92 8.189a6.053 6.053 0 0 0 3.05-.844v11.283a6.011 6.011 0 0 0-3.05-.844c-3.487 0-6.392 3.114-6.857 7.095l-8.097-1.719c2.14-1.4 3.588-4.082 3.588-7.157 0-4.499-3.114-8.22-6.922-8.22s-6.922 3.721-6.922 8.22c0 2.044.654 3.904 1.715 5.344l-13.558-2.844 1.43-4.97c.041-.163.063-.331.063-.5l.095-5.344c1.263 1.543 3.038 2.5 4.985 2.5 3.808 0 6.922-3.69 6.922-8.189 0-4.498-3.114-8.22-6.922-8.22-1.825 0-3.489.866-4.731 2.25l.19-9.845c1.218 1.247 2.815 2 4.54 2 3.809 0 6.923-3.69 6.923-8.188 0-4.499-3.114-8.22-6.922-8.22-1.607 0-3.107.646-4.287 1.75l.19-8.939 8.224-.531c-.011.403-.027.813-.031 1.219-.62.342-1.048.97-1.048 1.719 0 1.105.91 2 2.032 2 1.122 0 2.032-.895 2.032-2 0-.73-.39-1.37-.984-1.72.005-.46.017-.92.031-1.375l17.337-1.125c-.028.498-.047.985-.064 1.47-.64.336-1.08.985-1.08 1.75 0 1.104.91 2 2.033 2 1.122 0 2.032-.896 2.032-2 0-.716-.38-1.335-.953-1.688.02-.552.028-1.113.064-1.688zm4.063 1.156l1.048.5.984 51.665-2.032 2.97zm5.112.75h1.143l3.906 50.165c.184 1.035.322 2.107.476 3.156l-4.572-2.5zm-18.32 5.782c-3.809 0-6.922 3.722-6.922 8.22 0 4.5 3.113 8.19 6.922 8.19 3.808 0 6.921-3.69 6.921-8.19 0-4.498-3.113-8.22-6.921-8.22zm0 4.407c1.803 0 3.238 1.683 3.238 3.814 0 2.13-1.435 3.781-3.238 3.781s-3.239-1.651-3.239-3.781 1.436-3.814 3.239-3.814zm-24.385 2c1.803 0 3.238 1.684 3.238 3.814s-1.435 3.782-3.238 3.782-3.239-1.652-3.239-3.782 1.436-3.813 3.239-3.813zm14.224 7.596c-3.808 0-6.921 3.721-6.921 8.22 0 4.498 3.113 8.189 6.921 8.189 3.809 0 6.922-3.69 6.922-8.19 0-4.498-3.113-8.22-6.922-8.22zm0 4.407c1.804 0 3.239 1.683 3.239 3.813s-1.435 3.782-3.239 3.782c-1.803 0-3.238-1.652-3.238-3.782s1.435-3.813 3.238-3.813zm16.257 8.001c1.43 0 2.616 1.062 3.048 2.563v2.5c-.432 1.494-1.617 2.532-3.048 2.532-1.803 0-3.239-1.652-3.239-3.782s1.436-3.813 3.239-3.813zm-30.481 2c1.803 0 3.238 1.683 3.238 3.813s-1.435 3.782-3.238 3.782-3.239-1.651-3.239-3.782c0-2.13 1.436-3.813 3.239-3.813zM41.37 78.2c1.803 0 3.239 1.683 3.239 3.813s-1.436 3.782-3.239 3.782-3.238-1.652-3.238-3.782S39.568 78.2 41.37 78.2zm30.1 6.438l4.065 2.22-8.097 3.75zm-11.81 3.563c.84 0 1.587.364 2.159.969l-.73 3.47-4.636-1c.157-1.948 1.512-3.439 3.207-3.439z" overflow="visible" color="#000"/></svg>