<svg width="911" height="368" fill="none" xmlns="http://www.w3.org/2000/svg"><g filter="url(#filter0_d)"><path d="M63.118 301.082c-1.732 0-3.15-.708-4.252-2.124-.945-1.574-1.417-3.461-1.417-5.664l.472-39.646c.473-19.194.71-34.061.71-44.602 0-36.657-2.048-64.739-6.143-84.248 2.362-3.618 5.355-5.427 8.977-5.427 5.827 0 11.103 1.337 15.827 4.012 4.883 2.517 8.898 5.978 12.048 10.383 6.142 9.125 9.213 19.351 9.213 30.678 0 11.8-2.52 22.341-7.56 31.623-5.039 9.282-12.362 16.519-21.969 21.711l.473 23.835.472 12.507c.158 2.674.237 6.529.237 11.563.472 10.541.708 19.115.708 25.723 0 2.989-.63 5.349-1.89 7.08-1.26 1.73-3.228 2.596-5.906 2.596zm5.434-94.632c6.142-5.821 10.63-11.878 13.465-18.171 2.992-6.45 4.489-13.687 4.489-21.711v-.236c0-3.618-.394-8.181-1.182-13.687-.472-1.888-1.338-3.776-2.598-5.664-1.26-1.888-1.969-2.989-2.126-3.303-1.103-1.574-4.016-4.012-8.74-7.316l-6.143-4.484c0 8.024.472 20.452 1.418 37.286l1.417 37.286zm82.465 97.935c-4.095 0-7.874-1.337-11.339-4.011-3.464-2.518-6.299-5.979-8.504-10.384-4.568-9.597-7.402-20.059-8.505-31.386-1.417-10.698-2.126-21.003-2.126-30.915 0-1.888.079-3.461.236-4.719v-4.248c0-.787-.078-1.18-.236-1.18v-4.248l.236-16.519c.158-5.035.788-13.058 1.89-24.071a81.52 81.52 0 0 1 5.434-21.947c1.102-3.146 2.52-5.506 4.252-7.079 1.732-1.731 3.701-2.596 5.906-2.596 6.299 0 11.969 1.18 17.009 3.539 5.039 2.203 9.291 5.35 12.756 9.44 3.15 3.933 5.827 8.81 8.032 14.631 2.205 5.664 3.78 11.721 4.724 18.171.945 6.608 1.418 13.609 1.418 21.003v1.888c0 4.877.079 9.282.236 13.216l.236 13.451c0 45.31-10.551 67.964-31.655 67.964zm-.945-9.911c2.835 0 5.434-1.101 7.796-3.304 2.362-2.36 4.173-5.506 5.433-9.439 2.993-8.024 4.804-16.677 5.434-25.959.787-8.024 1.181-14.946 1.181-20.767 0-7.08-.551-16.362-1.654-27.847-.945-12.114-1.417-21.16-1.417-27.138v-4.248c-.315-5.978-2.362-11.17-6.142-15.575-3.623-4.405-8.111-6.608-13.466-6.608-5.354 0-8.898 3.068-10.63 9.204-1.575 4.877-2.362 11.17-2.362 18.879 0 2.989.079 5.506.236 7.551v6.372l-.472 10.855c-.315 3.304-.473 6.923-.473 10.856 0 8.495.236 16.912.709 25.251.63 11.799 2.205 23.284 4.725 34.454 2.519 11.642 6.22 17.463 11.102 17.463zm94.813 9.203c-5.67-1.887-12.678-2.831-21.025-2.831-2.52 1.573-5.197 2.36-8.032 2.36-1.89 0-3.543-.866-4.961-2.596-1.26-1.574-1.89-3.304-1.89-5.192 0-13.215.552-30.836 1.654-52.861.945-23.442 1.417-40.984 1.417-52.626v-1.652c-.945-9.911-1.417-17.306-1.417-22.183 0-14.946 2.756-22.418 8.268-22.418 1.575 0 2.914.629 4.016 1.887 1.26 1.102 1.89 2.439 1.89 4.012 0 1.888-.236 4.877-.709 8.968-.472 3.933-.709 6.922-.709 8.967 0 10.541.079 20.059.237 28.555.157 8.338.236 17.778.236 28.318-.787 2.36-1.181 5.664-1.181 9.912v2.832l-.473 18.643c-.315 5.506-.472 11.799-.472 18.879 0 10.855 2.598 16.283 7.796 16.283h1.417c.787-.157 1.811-.236 3.071-.236 1.417-.157 3.228-.236 5.433-.236 8.505 0 12.757 2.36 12.757 7.08 0 1.573-.709 2.91-2.126 4.012-1.418 1.101-3.15 1.809-5.197 2.123zm46.203-.471c-2.678 0-4.884-1.731-6.616-5.192 1.732-3.304 2.6-16.677 2.6-40.118 0-5.507-.395-11.485-1.183-17.935l-.708-6.844c-.473-4.248-.709-7.473-.709-9.675v-6.136c-1.575-3.933-4.488-11.249-8.741-21.947-4.094-10.698-7.402-19.666-9.921-26.903-2.993-8.338-4.489-14.002-4.489-16.991v-1.18l5.434-4.012c2.677.315 5.512 3.776 8.504 10.384 2.52 5.821 5.276 14.159 8.268 25.015 3.15 10.855 4.724 16.597 4.724 17.227.629-1.731 1.889-7.631 3.779-17.699 1.89-10.069 4.016-18.958 6.381-26.667 2.677-7.709 5.431-11.563 8.266-11.563 1.575 0 2.913.472 4.016 1.415 1.26.944 1.889 2.124 1.889 3.54 0 8.024-2.202 19.351-6.612 33.983-4.724 15.889-7.087 27.374-7.087 34.454v71.032c0 10.541-2.598 15.812-7.795 15.812zm173.658-1.18c-3.622 0-6.3-.551-8.032-1.652-1.732-1.102-2.599-3.147-2.599-6.136 0-4.72-.787-12.743-2.362-24.071l-.945-4.956-23.387-3.539c-.945 3.618-2.284 10.934-4.016 21.946-.945 7.709-2.441 12.823-4.488 15.34-1.103 1.416-2.678 2.124-4.725 2.124-1.89 0-3.622-.551-5.197-1.652-1.575-1.259-2.362-2.753-2.362-4.484l.472-1.18.236-.944c10.395-40.433 18.269-80.315 23.624-119.646 0-.629.078-1.652.236-3.068.157-1.573.315-3.776.472-6.607.473-5.822.945-10.463 1.418-13.924.63-3.461 1.574-6.057 2.834-7.787h8.032c2.205 0 4.095.55 5.67 1.652 1.575.943 2.362 2.359 2.362 4.247 0 11.957 1.654 29.735 4.961 53.334 3.15 24.228 4.725 41.219 4.725 50.973 0 .944.393 3.383 1.181 7.316.787 3.618 1.181 5.978 1.181 7.079 0 1.102.788 5.821 2.362 14.16 1.418 7.551 2.126 12.428 2.126 14.631v.236c0 3.461-1.259 5.664-3.779 6.608zm-15.592-45.31c-.472-2.36-.708-5.271-.708-8.732 0-14.159-1.26-32.251-3.78-54.277l-2.362-24.543c-6.772 36.972-11.418 64.897-13.938 83.776 2.362 1.573 9.292 2.832 20.788 3.776zm80.986 47.197c-3.464 0-6.614-3.775-9.449-11.327a128.706 128.706 0 0 1-7.323-25.251l-1.654-8.023c-4.567-22.498-7.48-35.32-8.74-38.466h-2.835c0 4.562-.079 8.731-.236 12.507v12.979c0 21.082 1.496 37.522 4.488 49.322l-2.599 6.372h-6.614l-3.071-3.54.236-15.811c0-14.16-.709-35.635-2.126-64.425-1.26-30.679-1.89-52.154-1.89-64.425 0-7.552 2.599-11.327 7.796-11.327 8.504 0 15.434 2.202 20.788 6.607 5.512 4.405 8.268 10.541 8.268 18.407v16.519c0 2.36-.393 5.114-1.181 8.26-.787 2.989-1.653 5.428-2.598 7.316l-4.489 8.495-3.779 7.08 1.181 5.664 3.307 16.755c2.205 12.114 4.331 21.947 6.378 29.498 2.048 7.552 4.567 14.396 7.56 20.531l1.417 2.832c1.575 3.147 2.362 5.664 2.362 7.552 0 1.573-.472 2.91-1.417 4.012-.945 1.258-2.205 1.887-3.78 1.887zm-29.056-94.631c3.464-1.73 6.378-6.45 8.74-14.159 2.52-7.866 3.78-15.103 3.78-21.711 0-5.034-.63-9.754-1.89-14.159-.787-2.517-2.126-4.405-4.016-5.664-1.732-1.416-3.937-2.124-6.614-2.124l-.473 1.18-.472 2.124.472 27.847c.315 8.18.473 17.069.473 26.666zm64.238 92.98c-3.465 0-5.591-1.495-6.379-4.484-.629-1.888-.944-4.563-.944-8.024 0-6.765.315-15.103.944-25.015.788-9.439 1.182-17.856 1.182-25.25 0-8.339.236-20.846.708-37.522l.473-37.287c0-1.415-.236-3.539-.709-6.371l-.709-5.9v-1.18c0-3.618.552-6.293 1.654-8.023 1.102-1.731 3.15-2.596 6.142-2.596 4.095 0 8.583 1.18 13.465 3.539 4.882 2.36 8.426 5.35 10.631 8.968 4.567 7.552 6.851 16.991 6.851 28.319 0 8.495-.709 15.653-2.127 21.475-1.417 5.663-3.858 10.934-7.323 15.811 4.252 4.09 7.087 9.361 8.505 15.811 1.574 6.293 2.362 14.238 2.362 23.835 0 9.597-1.654 17.935-4.961 25.015-3.78 8.023-9.292 13.529-16.536 16.519-4.41 1.573-8.82 2.36-13.229 2.36zm7.559-90.384c8.19-.157 12.284-9.675 12.284-28.554 0-20.295-3.228-30.915-9.685-31.859-1.733 3.619-2.599 12.114-2.599 25.487v34.926zm-1.417 78.348c5.039-1.101 8.977-4.09 11.811-8.967 2.835-4.877 4.253-10.463 4.253-16.756 0-6.607-.394-12.428-1.182-17.463-.63-3.933-1.496-7.158-2.598-9.675a25.49 25.49 0 0 0-4.016-7.316c-1.89-2.36-4.095-3.776-6.615-4.248-.63 8.968-.944 20.846-.944 35.635 0 .944-.158 3.933-.473 8.967l-.472 8.024c0 .314.078.55.236.708v11.091zm202.835 10.384c-1.89 0-3.307-.472-4.252-1.416-.945-1.102-1.654-2.911-2.126-5.428l-1.418-4.484v-1.18c0-5.191-5.433-22.891-16.3-53.097-10.709-30.207-19.135-52.547-25.277-67.021v118.702l.945 1.652c.158.315.473.866.945 1.652.473.787.709 1.573.709 2.36 0 2.045-.709 3.776-2.126 5.192-1.418 1.416-3.15 2.124-5.197 2.124-5.04 0-7.56-4.799-7.56-14.396l-.236-40.354c-.157-12.114-.236-25.644-.236-40.59 0-5.034.236-12.35.708-21.946.473-9.912.709-17.228.709-21.947 0-7.395 2.835-13.216 8.504-17.463v1.415c.945-.314 1.575-.472 1.89-.472 3.623 0 8.19 6.294 13.702 18.88 4.41 10.068 8.347 20.688 11.812 31.858 3.622 11.17 8.346 27.06 14.173 47.67l2.363 8.495c3.622 12.743 6.378 21.868 8.268 27.375 3.15-33.825 4.725-73.786 4.725-119.882v-3.068a18.616 18.616 0 0 1-.237-3.068c0-4.72 1.89-7.08 5.67-7.08 2.205 0 3.858.866 4.961 2.596 1.26 1.731 1.89 3.933 1.89 6.608v17.699c-.315 24.228-1.26 50.502-2.835 78.82-1.575 28.319-3.465 44.287-5.67 47.906-4.567 1.258-7.402 1.888-8.504 1.888zm59.415 2.36c-2.047 0-3.937-.708-5.67-2.124-1.575-1.416-2.441-3.147-2.598-5.192v-10.856c-.158-1.415-.237-3.067-.237-4.955 0-3.304-.236-8.339-.708-15.104l-.473-15.103c0-7.709.237-19.194.709-34.454.63-13.687.945-25.172.945-34.454 0-2.203-.236-5.507-.709-9.912-.472-4.562-.708-7.866-.708-9.911 0-11.17 3.307-16.756 9.921-16.756 5.197 0 11.182 1.023 17.954 3.068 6.929 2.046 10.394 4.484 10.394 7.316 0 1.573-.708 3.068-2.126 4.484-1.26 1.258-2.835 2.281-4.725 3.068-6.614-2.36-12.599-3.934-17.953-4.72.157 2.36.236 5.742.236 10.147 0 6.293-.079 11.957-.236 16.991-.473 7.552-.709 13.216-.709 16.992l.709 3.775 3.78-.236c1.259-.157 2.834-.236 4.724-.236 7.56 0 11.339 2.203 11.339 6.608 0 1.731-.708 3.225-2.126 4.484-1.417 1.101-3.228 1.652-5.433 1.652-2.835 0-5.04-.158-6.615-.472h-5.905c.315 4.09.472 10.069.472 17.935 0 7.866-.079 14.946-.236 21.239-.473 9.597-.709 16.755-.709 21.475 0 8.81.158 13.215.473 13.215l7.795-.236c2.678-.157 5.906-.236 9.686-.236 5.984 0 8.977 1.888 8.977 5.664 0 2.202-1.024 3.854-3.071 4.956-1.89 1.258-4.253 1.888-7.087 1.888h-20.08z" fill="#000"/><path d="M370.981 303.678c-4.41 0-8.504-1.023-12.284-3.068-3.622-2.046-6.772-4.799-9.449-8.26-2.363-3.304-4.489-7.473-6.379-12.507a92.688 92.688 0 0 1-4.252-16.048c-1.89-9.282-3.149-21.474-3.779-36.578-.158-3.618-.237-9.833-.237-18.643v-14.867c.158-4.248.237-8.653.237-13.215 0-9.283.551-16.598 1.653-21.947a37.222 37.222 0 0 1-.709-7.316c0-9.439 3.544-17.07 10.631-22.891 7.087-5.821 16.064-8.731 26.93-8.731 4.095 0 7.875 1.101 11.34 3.304 3.464 2.202 5.197 4.955 5.197 8.259 0 1.573-.63 2.832-1.89 3.776-1.26.944-2.835 1.416-4.725 1.416-1.575 0-3.307-.236-5.197-.708-1.732-.472-2.835-1.18-3.307-2.124h-3.071v-.472c-5.827 0-10.709 1.259-14.647 3.776-2.834 2.045-5.039 5.428-6.614 10.147-.63 1.731-1.103 3.933-1.417 6.608-.315 2.675-.473 5.113-.473 7.316-.157 1.258-.236 3.775-.236 7.551l.472 8.26.237 8.023c0 2.36-.315 5.114-.945 8.26-.788 3.933-1.182 6.686-1.182 8.26v5.663c0 6.136.237 14.553.709 25.251.158 8.968 1.181 17.935 3.071 26.903 1.418 8.338 4.095 15.418 8.032 21.239 3.78 5.978 8.898 8.967 15.355 8.967 2.677 0 5.985-1.416 9.922-4.248 4.252-2.831 7.244-4.247 8.977-4.247 2.205 0 4.488 1.18 6.851 3.539 0 5.822-2.205 10.305-6.615 13.452-4.095 2.832-8.977 4.641-14.646 5.428-3.15.314-5.67.472-7.56.472zm285.563 2.831c-4.252 0-8.11-1.416-11.575-4.247-3.465-2.832-6.457-6.687-8.977-11.564-4.567-8.495-7.953-20.138-10.158-34.926-1.575-10.226-2.756-22.026-3.543-35.398l-.236-12.508v-12.743c-.158-4.091-.237-9.046-.237-14.867 0-9.44.394-17.778 1.181-25.015.63-7.552 2.205-15.025 4.725-22.419 2.52-6.45 6.142-11.013 10.867-13.687 2.835-1.259 5.669-1.888 8.504-1.888 8.347 0 14.962 3.304 19.844 9.911 5.354 7.395 8.898 15.654 10.63 24.779 2.52 11.013 3.937 21.554 4.252 31.623.63 11.17.945 21.71.945 31.622v13.451c0 2.675-.393 7.709-1.181 15.103-.63 5.822-.945 10.777-.945 14.868v.944c-.945 4.405-1.417 9.597-1.417 15.575 0 4.405-.945 8.967-2.835 13.687-1.89 4.72-4.567 8.732-8.032 12.036-3.465 3.775-7.402 5.663-11.812 5.663zm.473-12.979c3.15 0 5.827-2.911 8.032-8.732 1.89-5.191 3.228-11.484 4.016-18.879.945-7.551 1.732-16.047 2.362-25.486.315-4.091.473-9.361.473-15.812l-.237-21.71c-.315-8.496-1.26-19.116-2.834-31.859-1.26-10.855-3.623-20.452-7.087-28.79-1.575-3.934-3.544-7.001-5.906-9.204-2.363-2.203-4.882-3.304-7.56-3.304-3.937 0-6.85 3.068-8.74 9.204-2.363 6.45-3.937 13.53-4.725 21.239-.945 8.338-1.496 16.283-1.654 23.834l-.236 7.788c-.157 2.203-.236 5.192-.236 8.968v.944c0 10.54 1.102 23.52 3.307 38.938 2.52 20.924 6.221 35.791 11.103 44.601 3.15 5.507 6.457 8.26 9.922 8.26zM878.652 360c-1.575 0-2.94-.42-4.095-1.259-1.05-.944-1.575-2.097-1.575-3.461v-.629c2.1-2.517 4.2-6.713 6.3-12.586.945-2.832 1.732-4.877 2.362-6.136 6.195-13.74 10.709-26.116 13.544-37.129 2.835-11.012 4.252-22.655 4.252-34.926 0-13.11-2.519-19.823-7.559-20.138-1.68.839-2.835 3.304-3.465 7.395-.21 1.678-.735 3.094-1.575 4.248-.84 1.048-1.889 1.573-3.149 1.573-2.52 0-3.78-1.626-3.78-4.877 0-4.93 1.47-9.073 4.41-12.429 1.574-1.678 3.464-2.517 5.669-2.517v-.158c3.57 0 6.562.787 8.977 2.36 1.785 1.049 3.465 3.042 5.04 5.979.839 1.678 1.627 4.457 2.362 8.338.21 1.888.315 3.671.315 5.349.105 1.573.21 2.727.315 3.461v4.248c0 7.132-.893 14.894-2.677 23.284-1.68 8.286-3.728 15.68-6.142 22.183a653.763 653.763 0 0 1-8.19 21.239c-3.255 8.181-5.617 14.474-7.087 18.879 5.985-1.049 12.179-1.573 18.584-1.573 2.205 1.573 3.307 3.041 3.307 4.405 0 1.258-.682 2.412-2.047 3.461-1.995 0-4.83.157-8.505.472l-3.464.157c-4.41.525-8.452.787-12.127.787z" fill="#fff"/><path d="M47.375 10.445c3.41-1.442 7.492-1.539 12.246-.29 5.209 1.42 9.703 4.151 13.483 8.192 4.415 4.801 7.146 10.794 8.192 17.977.088.603.253 3.537.497 8.803.31 5.729.427 9.474.35 11.237a92.686 92.686 0 0 1-1.246 12.534c-.56 3.016-1.19 5.237-1.886 6.663a.63.63 0 0 1 .29.03c4.747.87 8.098 1.804 10.053 2.797a15.398 15.398 0 0 1 1.635-2.51c1.722-2.237 4.945-3.818 9.669-4.742.697-1.426.187-4.76-1.53-10-1.722-5.288-2.794-10.196-3.216-14.726-.375-4.536-.165-9.465.632-14.787.415-2.71.9-5.1 1.456-7.17.495-2.485 1.018-4.289 1.57-5.41a4.725 4.725 0 0 1-.922-.93 6.239 6.239 0 0 1-1.295-3.007c-.493-3.384.94-5.154 4.299-5.31 3.359-.158 5.254 1.247 5.686 4.213.108.742-.117 1.65-.674 2.725-.698 1.426-1.872 2.354-3.524 2.784-.058 1.239-.791 4.706-2.2 10.4a45.178 45.178 0 0 0-.574 19.11c1.165 6.363 2.829 12.06 4.991 17.094 2.162 5.034 3.28 7.475 3.353 7.322.056-1.901-.492-4.85-1.646-8.848-.52-3.568-.736-6.85-.649-9.845.076-2.093.413-5.668 1.01-10.724 1.699-7.3 2.98-12.077 3.842-14.332.484-1.253.942-2.196 1.374-2.826-.481-.688-.919-1.57-1.314-2.649-.432-2.966.711-4.434 3.431-4.403 2.759-.023 4.345 1.38 4.757 4.206.101.696-.024 1.471-.376 2.327-.524 1.307-1.462 2.058-2.815 2.255a4.679 4.679 0 0 1-1.14.024c-.086.39-.231.862-.437 1.412-1.307 3.456-2.558 7.78-3.755 12.97-1.15 5.184-1.447 10.339-.89 15.464.602 5.119 2.137 11.238 4.603 18.357.214.158.404.32.571.485 4.233 3.88 6.761 8.649 7.585 14.303l.527 3.615c.225 2.854.047 5.554-.535 8.1-1.931 7.996-7.631 12.682-17.099 14.058-4.898.712-9.049-1.95-12.453-7.987a2.153 2.153 0 0 1-.77-.384c-.374-.277-.724-.392-1.05-.345-.047.007-5.344 2.718-15.892 8.132-10.5 5.408-19.762 8.695-27.785 9.862-6.53.949-11.79.649-15.778-.901l-.54.22c-.633.234-1.678.576-3.137 1.024a75.667 75.667 0 0 0-6.814 2.269c-.56.082-.967-.262-1.222-1.029-.04-.278.293-1.747 1.001-4.405.808-2.958 1.301-4.804 1.48-5.54a69.37 69.37 0 0 0 .863-3.391l-.03-.209c-.547-3.754.664-8.355 3.633-13.804 2.783-5.09 6.51-9.915 11.18-14.475 3.047-2.952 5.889-5.187 8.526-6.706a818.028 818.028 0 0 1-8.03-6.074c-3.705-2.87-6.88-6.525-9.529-10.968-2.654-4.489-4.5-8.007-5.538-10.554-1.038-2.546-1.939-6.438-2.702-11.676-1.567-10.752-.231-18.424 4.006-23.016 3.831-4.107 9.098-5.062 15.801-2.865l1.96.709c.457-2.102 1.937-3.713 4.44-4.835zM49.5 24.548c-6.79-5.734-12.19-8.309-16.201-7.726-5.038.733-8.046 4.602-9.026 11.607-.447 3.472.452 10.134 2.697 19.983 2.291 9.842 10.335 19.606 24.13 29.29.86-.314 1.765-.635 2.717-.963-.448-.786-.88-1.788-1.295-3.006-.81-2.296-1.324-4.185-1.54-5.668a5.098 5.098 0 0 0-.894-2.213l.228-.886c.829 1.11 2.139 3.074 3.93 5.89 1.478 2.293 2.477 3.923 2.999 4.888a36.048 36.048 0 0 1 2.278-.544c-.951-2.607-1.989-6.787-3.113-12.54-.047-.324-.054-.536-.02-.635.092-.014.179-.074.259-.18.868 1.057 2.21 3.56 4.023 7.508 1.037 2.216 1.787 3.93 2.25 5.14 1.112-.21 2.125-.286 3.038-.229 1.243-1.6 1.611-4.47 1.104-8.609-.468-4.191-1.415-9.378-2.84-15.56-1.424-6.183-2.889-10.844-4.395-13.986-1.459-3.148-4.902-7.002-10.329-11.561zm-2.083-6.939c4.23 2.556 8.167 6.196 11.808 10.92 6.047 7.83 9.827 16.935 11.34 27.317.006.047.239 3.444.698 10.193.095 3.914-.02 6.723-.344 8.427 1.64.14 2.887.196 3.74.166 1.529-2.257 2.507-4.86 2.934-7.81 1.094-6.88 1.414-11.872.962-14.977-.195-8.207-1.252-15.295-3.17-21.264 1.166 2.765.76 1.618-1.215-3.443a22.354 22.354 0 0 0-1.667-3.592c-.007-.046-.033-.066-.08-.06l-.01-.069c-3.177-5.454-8.028-8.677-14.555-9.668-7.94-1.212-11.42.075-10.44 3.86zm56.374-1.949c.413-.438.588-.866.528-1.283-.169-1.159-1.007-1.842-2.514-2.049-1.506-.207-2.128.594-1.865 2.401.296 1.377.864 2.005 1.703 1.883.933-.136 1.649-.453 2.148-.952zm9.924 8.284c.094.317.237.651.431 1.002.442.74.966 1.066 1.572.978.233-.034.433-.3.598-.797.133-.398.189-.666.169-.805-.23-1.576-.798-2.369-1.704-2.38-.907-.01-1.262.658-1.066 2.002zM77.908 79.272c-.767-.031-2.57-.313-5.41-.847a33.272 33.272 0 0 0-8.628.119c-4.525.658-8.741 1.957-12.65 3.898-.938 1.083-2.192 2.448-3.762 4.096-3.743 5.04-5.27 9.925-4.581 14.652.007.047.94 3.508 2.799 10.384 2.484 5.934 5.666 8.974 9.545 9.119 1.139-.354 2.984-.93 5.535-1.727 3.45-1.164 7.637-3.004 12.557-5.517-1.554-.863-2.947-2.577-4.178-5.143-1.345-2.692-2.18-5.15-2.504-7.375-.702-4.82-.31-9.16 1.175-13.02 2.03-5.36 5.397-8.24 10.102-8.64zm30.878-2.857l-.161-.119a2.257 2.257 0 0 0-.39-.227c.054.04.084.082.09.129a12.372 12.372 0 0 0-3.231-1.092l-.07.01c-.053-.04-.103-.056-.15-.05a7.739 7.739 0 0 0-1.75-.242c-3.8-.252-6.706 1.377-8.719 4.889-2.279 3.975-2.844 9.903-1.696 17.782.324 2.224 1.496 5.036 3.515 8.434 2.788 4.753 5.769 6.9 8.94 6.438 7.183-1.044 11.719-4.567 13.607-10.568.988-3.03 1.228-6.284.722-9.76-.689-4.728-2.706-8.765-6.052-12.112-1.222-1.195-2.774-2.366-4.655-3.512zm-81.084 46.647c-1.209-1.102-2.165-2.43-2.867-3.985a221.111 221.111 0 0 1-1.966 7.101l.22.039 6.545-1.661a19.828 19.828 0 0 1-1.932-1.494zm67.92-34.013c-.6-4.125-.057-7.257 1.632-9.396 1.53-1.926 3.671-2.758 6.424-2.496 2.66.276 5.072 1.464 7.235 3.563 2.398 2.397 3.85 5.333 4.356 8.809.324 2.225.181 4.352-.428 6.38-1.232 3.966-4.134 6.281-8.705 6.946-3.825.556-6.708-1.415-8.649-5.913-.737-1.786-1.358-4.417-1.865-7.893zm12.176-6.172c-.631-2.37-2.372-3.04-5.223-2.01-2.857.984-3.68 2.855-2.468 5.613a5.201 5.201 0 0 0 1.123 1.825c1.015 1.082 2.246 1.519 3.691 1.309 1.633-.238 2.725-.917 3.276-2.038.405-.817.272-2.383-.399-4.7z" fill="#000"/></g><defs><filter id="filter0_d" x="0" y="0" width="911" height="368" filterUnits="userSpaceOnUse" color-interpolation-filters="sRGB"><feFlood flood-opacity="0" result="BackgroundImageFix"/><feColorMatrix in="SourceAlpha" values="0 0 0 0 0 0 0 0 0 0 0 0 0 0 0 0 0 0 127 0"/><feOffset dy="4"/><feGaussianBlur stdDeviation="2"/><feColorMatrix values="0 0 0 0 0 0 0 0 0 0 0 0 0 0 0 0 0 0 0.25 0"/><feBlend in2="BackgroundImageFix" result="effect1_dropShadow"/><feBlend in="SourceGraphic" in2="effect1_dropShadow" result="shape"/></filter></defs></svg>