<svg xmlns="http://www.w3.org/2000/svg" data-name="Layer 1" viewBox="0 0 100 125"><g data-name="Group"><path data-name="Compound Path" d="M40.6 13.9A9.4 9.4 0 1 0 50 4.5a9.4 9.4 0 0 0-9.4 9.4zm14.8 0A5.4 5.4 0 1 1 50 8.5a5.4 5.4 0 0 1 5.4 5.4z"/><path data-name="Compound Path" d="M34.2 32.3h-7.5v14.8h4.8V60h37V47.1h4.8V32.3h-7.5a18.3 18.3 0 0 0-1.3-3.3 10.2 10.2 0 0 0-1.4-2.2 9.9 9.9 0 0 0-11-3 7.5 7.5 0 0 1-4.2 0 9.9 9.9 0 0 0-11 3 10.2 10.2 0 0 0-1.4 2.2 18.3 18.3 0 0 0-1.3 3.3zm4.8-1.4a5.6 5.6 0 0 1 1-1.5 6.1 6.1 0 0 1 6.7-1.8 10.6 10.6 0 0 0 6.6 0 6.1 6.1 0 0 1 6.7 1.8 7.1 7.1 0 0 1 1 1.4 12.4 12.4 0 0 1 .5 1.5h-23a6.2 6.2 0 0 1 .5-1.4zm30.3 5.4v6.8h-4.8V56h-29V43.1h-4.8v-6.8zM37.6 91v4.5h24.8V91a12.3 12.3 0 0 0-6.5-10.8 8.8 8.8 0 0 0 2.5-6 8.4 8.4 0 0 0-16.8 0 8.8 8.8 0 0 0 2.5 6A12.3 12.3 0 0 0 37.6 91zM50 69.8a4.4 4.4 0 1 1-4.4 4.4 4.4 4.4 0 0 1 4.4-4.4zM41.6 91a8.4 8.4 0 0 1 16.8 0v.5H41.6zm52.8 0a12.3 12.3 0 0 0-6.5-10.8 8.8 8.8 0 0 0 2.5-6 8.4 8.4 0 1 0-16.8 0 8.8 8.8 0 0 0 2.5 6A12.3 12.3 0 0 0 69.6 91v4.5h24.8zM82 69.8a4.4 4.4 0 1 1-4.4 4.4 4.4 4.4 0 0 1 4.4-4.4zm8.4 21.7H73.6V91a8.4 8.4 0 0 1 16.8 0zm-60-.5a12.3 12.3 0 0 0-6.5-10.8 8.8 8.8 0 0 0 2.5-6 8.4 8.4 0 1 0-16.8 0 8.8 8.8 0 0 0 2.5 6A12.3 12.3 0 0 0 5.6 91v4.5h24.8zM18 69.8a4.4 4.4 0 1 1-4.4 4.4 4.4 4.4 0 0 1 4.4-4.4zm8.4 21.7H9.6V91a8.4 8.4 0 0 1 16.8 0z"/></g></svg>