<svg width="171" height="205" xmlns="http://www.w3.org/2000/svg" xmlns:xlink="http://www.w3.org/1999/xlink"><use xlink:href="#path0_fill" transform="scale(-1 1) rotate(8.281 -23.26 -321.311)"/><use xlink:href="#path0_fill" transform="scale(-1 1) rotate(8.281 -23.26 -321.311)"/><use xlink:href="#path1_stroke" transform="rotate(58.496 -80.897 92.216)"/><use xlink:href="#path2_stroke" transform="rotate(130.914 27.744 82.158)"/><use xlink:href="#path3_stroke" transform="rotate(121.76 53.41 60.544)"/><use xlink:href="#path4_stroke" transform="rotate(63.983 -24.12 45.112)"/><use xlink:href="#path5_stroke" transform="rotate(97.524 5.689 72.188)"/><use xlink:href="#path6_fill" transform="translate(39.59 145.11)"/><use xlink:href="#path7_fill" transform="translate(59.15 125)"/><use xlink:href="#path8_fill" transform="translate(97.11 157.22)"/><use xlink:href="#path9_fill" transform="translate(39.55 167.57)"/><use xlink:href="#path10_fill" transform="translate(27 157.22)"/><g transform="scale(-1 1) rotate(8.281 -528.025 -867.995)"><use xlink:href="#path0_fill"/><use xlink:href="#path0_fill"/></g><use xlink:href="#path0_fill" transform="scale(-1 1) rotate(8.281 -236.613 -678.921)"/><use xlink:href="#path0_fill" transform="scale(-1 1) rotate(8.281 -236.613 -678.921)"/><use xlink:href="#path0_fill" transform="scale(-1 1) rotate(11.559 -352.1 -227.374)"/><use xlink:href="#path0_fill" transform="scale(-1 1) rotate(8.281 -78.125 -1079.21)"/><defs><path id="path0_fill" d="M28.215.187c-1.456-.38-3.103-.18-4.942.6-2.011.877-3.659 2.24-4.942 4.087-1.494 2.191-2.241 4.764-2.241 7.717 0 .247.105 1.438.316 3.572.21 2.325.383 3.84.517 4.544a37.756 37.756 0 0 0 1.236 4.973c.402 1.181.785 2.039 1.149 2.572a.255.255 0 0 0-.115.029c-1.858.628-3.15 1.2-3.879 1.714a6.265 6.265 0 0 0-.804-.914c-.824-.8-2.213-1.248-4.166-1.343-.364-.534-.355-1.906.028-4.116.383-2.229.527-4.267.431-6.116-.115-1.848-.488-3.82-1.12-5.915A27.221 27.221 0 0 0 8.677 8.79c-.345-.972-.66-1.667-.948-2.087.115-.114.22-.257.316-.428.23-.4.345-.829.345-1.286 0-1.391-.68-2.02-2.04-1.887-1.36.134-2.04.81-2.04 2.03 0 .304.143.657.43 1.057.365.534.891.838 1.581.915.096.495.594 1.848 1.494 4.058a18.4 18.4 0 0 1 1.35 7.659c-.095 2.63-.43 5.02-1.005 7.173-.575 2.153-.881 3.201-.92 3.144-.134-.762-.086-1.981.144-3.658 0-1.467-.105-2.8-.316-4.001-.153-.838-.498-2.258-1.034-4.258-1.111-2.84-1.906-4.687-2.385-5.545-.268-.476-.508-.829-.718-1.057a4.72 4.72 0 0 0 .373-1.143c0-1.22-.546-1.744-1.638-1.572C.556 8.056 0 8.714 0 9.876c0 .286.096.59.287.914.288.496.709.743 1.265.743.153 0 .306-.019.46-.057.057.153.143.334.258.543.728 1.315 1.484 2.982 2.27 5.001a19.287 19.287 0 0 1 1.264 6.174c.057 2.095-.201 4.649-.776 7.659a2.15 2.15 0 0 0-.201.228c-1.475 1.81-2.212 3.878-2.212 6.202v1.486a10.85 10.85 0 0 0 .69 3.23c1.244 3.105 3.811 4.658 7.7 4.658 2.01 0 3.524-1.315 4.539-3.944a.877.877 0 0 0 .287-.2c.134-.133.268-.2.403-.2.019 0 2.308.781 6.867 2.343C27.64 46.22 31.557 47 34.852 47c2.682 0 4.78-.429 6.292-1.286l.23.057c.268.057.709.133 1.322.229.9.114 1.858.285 2.873.514.23 0 .373-.162.431-.486 0-.114-.22-.686-.66-1.714a117.21 117.21 0 0 1-.92-2.144 28.33 28.33 0 0 1-.546-1.315v-.085c0-1.544-.757-3.325-2.27-5.345-1.417-1.886-3.199-3.61-5.344-5.172-1.398-1.01-2.672-1.744-3.822-2.201.575-.572 1.533-1.543 2.874-2.915 1.321-1.372 2.384-3.03 3.189-4.973.804-1.962 1.34-3.486 1.609-4.573.268-1.085.402-2.705.402-4.858 0-4.42-.986-7.43-2.96-9.03-1.78-1.43-3.955-1.506-6.521-.23l-.747.4c-.307-.819-.996-1.38-2.07-1.686zm-.029 5.802c2.395-2.706 4.415-4.058 6.063-4.058 2.068 0 3.505 1.381 4.31 4.144.383 1.372.411 4.106.086 8.202-.345 4.096-3.008 8.497-7.988 13.204a61.203 61.203 0 0 0-1.15-.23c.135-.342.25-.77.346-1.285.191-.972.287-1.763.287-2.372 0-.324.076-.639.23-.943l-.144-.343c-.268.495-.68 1.362-1.235 2.6-.46 1.01-.767 1.725-.92 2.144a14.63 14.63 0 0 0-.948-.086c.23-1.105.402-2.848.517-5.23 0-.133-.01-.219-.029-.257-.038 0-.076-.02-.114-.057-.288.476-.68 1.562-1.178 3.258a33.625 33.625 0 0 0-.604 2.2 5.04 5.04 0 0 0-1.235.086c-.594-.572-.91-1.705-.948-3.4-.058-1.716.019-3.86.23-6.431.21-2.572.526-4.535.948-5.888.402-1.352 1.56-3.105 3.476-5.258zm.431-2.915c-1.551 1.276-2.921 2.972-4.109 5.087-1.973 3.506-2.959 7.392-2.959 11.66 0 .02.105 1.4.316 4.144.192 1.582.402 2.706.632 3.373-.651.152-1.15.247-1.494.285-.747-.819-1.293-1.81-1.638-2.972-.842-2.705-1.264-4.696-1.264-5.973-.402-3.315-.392-6.23.029-8.745-.307 1.181-.21.695.287-1.458a9.104 9.104 0 0 1 .46-1.543c0-.019.01-.029.029-.029v-.028c.957-2.382 2.72-3.963 5.286-4.744 3.123-.953 4.598-.638 4.425.943zM5.833 5.589c-.192-.153-.288-.315-.288-.486 0-.476.297-.8.891-.972.594-.171.89.115.89.858-.038.571-.23.857-.574.857-.383 0-.69-.086-.92-.257zM2.327 9.504a2.01 2.01 0 0 1-.115.429c-.134.324-.325.486-.574.486-.096 0-.192-.096-.288-.286-.076-.152-.115-.257-.115-.314 0-.648.182-1 .546-1.058.364-.057.546.19.546.743zM19.97 29.681c.306-.057 1.015-.276 2.126-.657a13.509 13.509 0 0 1 3.477-.457c1.858 0 3.63.276 5.315.828.44.381 1.025.858 1.753 1.43 1.8 1.81 2.7 3.686 2.7 5.63 0 .018-.172 1.466-.517 4.343-.651 2.534-1.752 3.944-3.304 4.23l-2.327-.371c-1.456-.267-3.247-.763-5.373-1.487.575-.438 1.034-1.21 1.379-2.315.383-1.162.575-2.2.575-3.115 0-1.981-.412-3.705-1.236-5.172-1.13-2.04-2.653-3.001-4.568-2.887zm-12.585.657l.058-.057a.94.94 0 0 1 .143-.114c-.019.019-.028.038-.028.057a5.028 5.028 0 0 1 1.235-.629h.029c.019-.019.038-.028.057-.028.23-.096.46-.162.69-.2 1.513-.324 2.777.162 3.792 1.457 1.15 1.467 1.724 3.82 1.724 7.06 0 .914-.306 2.114-.92 3.6-.842 2.077-1.915 3.115-3.217 3.115-2.95 0-4.98-1.152-6.091-3.458-.575-1.162-.862-2.457-.862-3.886 0-1.944.574-3.687 1.724-5.23.421-.553.977-1.115 1.666-1.687zm35.34 14.033a4.895 4.895 0 0 0 .92-1.772c.326.781.728 1.696 1.207 2.743l-.087.029-2.729-.286c.249-.228.479-.467.69-.714zm-29.306-9.717c0-1.696-.402-2.925-1.207-3.687-.728-.686-1.638-.895-2.73-.629-1.053.267-1.953.886-2.7 1.858-.824 1.105-1.236 2.372-1.236 3.801 0 .915.182 1.762.546 2.544.728 1.524 2.03 2.286 3.908 2.286 1.57 0 2.614-.962 3.131-2.887.192-.762.288-1.857.288-3.286zM8.16 32.882c.115-.99.776-1.362 1.982-1.115 1.207.229 1.648.934 1.322 2.115a2.12 2.12 0 0 1-.345.8c-.345.496-.814.743-1.408.743-.67 0-1.149-.21-1.436-.628-.21-.305-.25-.943-.115-1.915z"/><path id="path1_stroke" d="M0 0h36.36v-2H0v2z"/><path id="path2_stroke" d="M0 0h39.699v-2H0v2z"/><path id="path3_stroke" d="M0 0h98.793v-2H0v2z"/><path id="path4_stroke" d="M0 0h93.472v-2H0v2z"/><path id="path5_stroke" d="M0 0h53.459v-2H0v2z"/><path id="path6_fill" d="M8.799 0L0 10.266l8.799 10.266h47.229l8.799-10.266L56.028 0h-8.837v8.172a4.494 4.494 0 0 1-4.49 4.49 4.495 4.495 0 0 1-4.49-4.49V0H26.617v8.172a4.495 4.495 0 0 1-4.491 4.49 4.496 4.496 0 0 1-4.491-4.49V0H8.799z"/><path id="path7_fill" d="M25.708 12.854C25.708 5.766 19.941 0 12.854 0 5.766 0 0 5.766 0 12.854v15.432a2.565 2.565 0 1 0 5.131 0V12.854c0-4.258 3.465-7.721 7.723-7.721s7.722 3.463 7.722 7.721v15.432a2.565 2.565 0 1 0 5.131 0V12.854h.001z"/><path id="path8_fill" d="M19.888 29.395L8.26 0 0 9.637l8.978 35.918 10.91-16.16z"/><path id="path9_fill" d="M55.754 0H9.141L0 36.568h64.895L55.754 0z"/><path id="path10_fill" d="M10.908 45.555l8.979-35.918L11.627 0 0 29.395l10.908 16.16z"/></defs></svg>