<svg width="124" height="100" fill="none" xmlns="http://www.w3.org/2000/svg"><path d="M94.03 0a4.685 4.685 0 0 0-3.29 1.345 4.564 4.564 0 0 0-1.365 3.248c0 1.218.491 2.387 1.364 3.248a4.685 4.685 0 0 0 3.291 1.345 4.685 4.685 0 0 0 3.291-1.345 4.564 4.564 0 0 0 1.364-3.248 4.563 4.563 0 0 0-1.364-3.248A4.685 4.685 0 0 0 94.031 0zM81.938 8.385c-.231 0-.46.044-.664.13-2.89 1.182-6.636 6.551-6.636 6.551v1.31l2.506 2.475-2.586 2.552a1.965 1.965 0 0 0-.565 1.65 1.975 1.975 0 0 0 .982 1.447l9.64 5.494v13.961a1.946 1.946 0 0 0 .58 1.4 1.998 1.998 0 0 0 1.415.58 2.018 2.018 0 0 0 1.415-.58 1.969 1.969 0 0 0 .58-1.4V28.861a1.95 1.95 0 0 0-.266-.985 1.982 1.982 0 0 0-.73-.72L81.553 23.7l7.561-7.464 4.224 4.172c.374.367.88.574 1.408.573h8.487a2.02 2.02 0 0 0 1.477-.538 1.962 1.962 0 0 0 .622-1.428 1.962 1.962 0 0 0-1.304-1.847 2.022 2.022 0 0 0-.795-.12H95.57l-6.886-6.803a1.997 1.997 0 0 0-1.438-.578 2.008 2.008 0 0 0-1.385.578l-.645.637c-.675-.84-1.706-1.995-2.614-2.367a1.715 1.715 0 0 0-.664-.13zM70.212 30.748a11.1 11.1 0 0 0-4.198.824 10.98 10.98 0 0 0-3.56 2.348 10.822 10.822 0 0 0-2.378 3.513 10.708 10.708 0 0 0 0 8.288 10.822 10.822 0 0 0 2.379 3.513 10.982 10.982 0 0 0 3.559 2.347 11.094 11.094 0 0 0 8.397 0 10.982 10.982 0 0 0 3.559-2.347 10.82 10.82 0 0 0 2.378-3.513 10.707 10.707 0 0 0 0-8.288 10.82 10.82 0 0 0-2.378-3.514 10.98 10.98 0 0 0-3.56-2.347 11.094 11.094 0 0 0-4.198-.824zm32.742 0c-2.909 0-5.7 1.141-7.757 3.172a10.758 10.758 0 0 0-3.213 7.657 10.76 10.76 0 0 0 3.213 7.657 11.044 11.044 0 0 0 7.757 3.172c1.441 0 2.868-.28 4.199-.825a10.983 10.983 0 0 0 3.559-2.347 10.812 10.812 0 0 0 2.378-3.513 10.696 10.696 0 0 0 0-8.288 10.81 10.81 0 0 0-2.378-3.514 10.983 10.983 0 0 0-3.559-2.347 11.096 11.096 0 0 0-4.199-.824zM63.912 71.462l.646-5.191-26.204-22.103.879-16.223c.246-3.286-1.858-8.544-6.137-8.957-4.292.264-6.579 5.445-6.447 8.737l.311 16.244L0 65.145l.464 5.21 26.878-12.28.155 15.04-8.174 7.871.003 4.398 12.728-6.86 12.482 7.3.158-4.395-7.895-8.152.681-15.026 26.432 13.21zm46.266 18.896a4.825 4.825 0 0 0-4.82 4.82 4.827 4.827 0 0 0 4.82 4.822 4.828 4.828 0 0 0 4.823-4.822 4.826 4.826 0 0 0-4.823-4.82zm-44.373 0a4.826 4.826 0 0 0-4.822 4.82A4.828 4.828 0 0 0 65.805 100a4.828 4.828 0 0 0 4.822-4.822 4.826 4.826 0 0 0-4.822-4.82z" fill="#000"/><path d="M123.34 90.358c-.252-.84-.786-1.969-1.883-2.676-5.044-2.865-11.693-3.604-12.526-3.68a61.931 61.931 0 0 1-2.17-.264s-6.98-5.416-13.602-7.462c-6.62-2.046-20.25-.591-21.425-.481-2.784.247-10.358 5.855-10.358 5.855s-8.266 1.495-8.902 2.06c-.635.566-.848 3.33-.827 5.899.022 2.57.48 6.098.48 6.098l6.874.412a6.861 6.861 0 0 1-.072-.94 6.877 6.877 0 0 1 6.876-6.878c3.799 0 6.877 3.181 6.877 6.978 0 .712-.107 1.38-.308 2.14h31.239c-.202-.76-.309-1.43-.309-2.14 0-3.797 3.079-6.927 6.878-6.927 3.797 0 6.876 3.054 6.876 6.852 0 .6-.083 1.166-.229 1.722 1.371.058 6.396.243 6.784-.021.449-.307-.02-5.705-.273-6.547zm-51.772-7.01s-.08-4.192 1.05-5.225c1.131-1.033 8.485-.768 8.84-.795.354-.026.686.363.714.731l.412 5.92-11.016-.632zm26.657 1.142l-12.82-.319s-1.233-6.165-1.284-6.414c-.052-.25.179-.427.57-.428.393-.001 5.621.472 8.3 1.428 3.643 1.3 6.828 3.724 6.828 3.724l-1.594 2.01z" fill="#000"/></svg>