<svg width="761" height="595" fill="none" xmlns="http://www.w3.org/2000/svg"><g clip-path="url(#clip0)"><path opacity=".1" d="M717.184 375.532c-25.802 32.828-15.802 80.818.618 119.235 5.473 12.865 11.728 26.473 9.382 40.268-2.838 16.867-17.897 29.209-33.714 35.743-28.828 11.92-63.332 9.074-89.807-7.394-22.893-14.233-39.281-37.384-62.55-50.969-38.961-22.737-88.547-14.155-130.855 1.509-29.93 11.083-62.651 25.488-92.394 13.912-20.931-8.152-35.395-27.981-43.277-49.007-3.808-10.16-6.568-21.103-13.831-29.185-4.324-4.783-9.961-8.175-15.732-11.044-52.737-26.129-119.345-12.138-170.574-41.128-34.598-19.58-56.74-56.518-66.553-95.028-9.812-38.51-8.663-78.896-6.177-118.563 1.767-28.184 4.942-58.276 22.964-80.036 19.062-23.01 51.768-31.57 81.315-27.2 29.547 4.369 56.358 19.978 79.963 38.33 29.468 22.948 56.787 51.523 92.965 60.825 24.637 6.331 50.556 2.868 75.959 1.664 42.479-2.008 84.974 2.455 127.219 7.34 40.439 4.689 81.174 9.817 119.705 22.971 27.264 9.309 49.125 26.2 74.865 38.002 16.779 7.691 35.083 9.817 50.97 19.618 19.547 12.069 37.53 33.063 32.503 57.636-4.769 23.355-29.25 35.071-42.964 52.501z" fill="#91CF66"/><path d="M597.783 491.921a60.702 60.702 0 0 0-10.383-9.645 122.18 122.18 0 0 0 2.346-1.743c9.867-7.331 18.319-14.85 20.133-20.251 4.848-14.327 54.552-40.589 54.552-40.589s-50.916 9.551-77.586-5.972c-15.911-9.262-40.454-10.872-57.663-10.661l.125-.297.234-.516c.133-.289.266-.57.407-.859.141-.29.227-.469.352-.704l.101-.187c.18-.344.368-.688.563-1.032.477-.844.985-1.688 1.525-2.533v-.046a68.277 68.277 0 0 1 4.511-6.16l.063-.078c1.29-1.563 2.635-3.126 3.988-4.557l.078-.085.954-1.009.156-.156c1.29-1.352 2.58-2.634 3.831-3.83l.289-.274.782-.711.36-.336.696-.649.367-.336 1.04-.938.563-.5.422-.367.618-.54.313-.265.782-.688.07-.063c2.526-2.157 4.191-3.415 4.191-3.415h-.039a23.109 23.109 0 0 1-2.51 1.563l-.117.055-.782.39-.219.102-.696.313-.391.156-.547.227-.532.195-.43.156-.672.227-.313.102-.86.258-.141.039-1.016.273c-17.686 4.557-42.824-2.18-45.13-2.821l-.149-.039s-10.102-2.087-23.19-3.963a936.304 936.304 0 0 1 17.772-34.485 52.727 52.727 0 0 0 23.456 24.777c.391-.437.782-.891 1.11-1.344 1.173.672 1.869.993 1.869.993a29.698 29.698 0 0 0 6.646-13.147 48.825 48.825 0 0 0 11.298 8.004c.339-.381.665-.769.977-1.165.477.25.735.375.735.375 6.545-7.37 8.281-16.89 7.546-26.575a53.76 53.76 0 0 0 37.803.165v-.149c1.126-.383 1.744-.649 1.744-.649-.985-7.245-4.691-13.287-9.727-18.305 23.363.485 35.967-13.991 35.967-13.991l-.133-.18c.961-.898 1.446-1.453 1.446-1.453a41.564 41.564 0 0 0-11.478-10.943c10.665-6.307 15.286-14.475 15.286-14.475-.266-.25-.547-.493-.782-.735.586-.844.876-1.352.876-1.352a27.94 27.94 0 0 0-1.806-1.563c.398-.602.594-.946.594-.946-9.383-8.825-21.83-12.006-34.176-12.373a51.88 51.88 0 0 0 13.096-29.857c-9.382-3.057-18.968-.946-27.694 3.446a52.767 52.767 0 0 0-3.424-23.854 44.16 44.16 0 0 0 7.686 4.752c.333-.386.654-.779.961-1.18.477.242.782.359.782.359 6.427-7.472 8.007-17.015 7.123-26.653a53.76 53.76 0 0 0 37.804-.422v-.148c1.118-.399 1.728-.672 1.728-.672-1.103-7.23-4.871-13.217-10.016-18.157 23.362.125 35.739-14.546 35.739-14.546l-.14-.18c.946-.914 1.423-1.477 1.423-1.477a41.614 41.614 0 0 0-11.65-10.724c10.563-6.471 15.051-14.71 15.051-14.71-.274-.25-.555-.484-.829-.726.571-.86.852-1.368.852-1.368a38.085 38.085 0 0 0-1.829-1.563c.391-.61.586-.954.586-.954-9.515-8.676-22.017-11.67-34.402-11.841a51.859 51.859 0 0 0 12.611-30.053c-9.46-2.916-18.976-.649-27.631 3.908a51.478 51.478 0 0 0-4.691-25.692 35.05 35.05 0 0 0-1.885.454 9.703 9.703 0 0 0-.234-.47 19.509 19.509 0 0 0-.407-.843c-10.735 2.164-18.437 9.895-23.91 19.18-.406.688-.782 1.384-1.18 2.087a52.603 52.603 0 0 0-20.251-24.449c-7.999 7.543-10.305 18.267-9.867 29.115 0 .735.078 1.47.125 2.204a53.687 53.687 0 0 0-31.994-11.364c-1.65 6.44-.868 12.78 1.399 18.758a53.256 53.256 0 0 0-23.417 1.634v.305a24.95 24.95 0 0 0-1.736.516c.61 9.082 5.473 16.593 12.174 22.666a53.425 53.425 0 0 0-27.702 12.952c.261.458.521.904.782 1.336-.547.477-.829.782-.829.782 4.777 8.433 13.136 13.232 22.463 15.835a52.483 52.483 0 0 0-21.321 24.347c.226.157.453.305.68.461a23.518 23.518 0 0 0-.696 1.634c7.967 5.675 17.631 6.542 27.225 5.002a53.245 53.245 0 0 0-1.923 16.969 1202.834 1202.834 0 0 0-17.757 25.652c-1.063-.062-1.657-.054-1.657-.054a28.14 28.14 0 0 0-.728 3.603 1735.62 1735.62 0 0 0-9.64 14.53c-4.04.139-8.046.788-11.924 1.931v.305c-1.118.281-1.743.484-1.743.484v.375c-5.239-7.073-12.573-12.365-20.478-16.312a52.792 52.792 0 0 0 24.739-21.541c-7.201-6.706-16.764-8.793-26.584-8.465a51.502 51.502 0 0 0 7.256-25.105 27.988 27.988 0 0 0-1.9-.407v-1.453c-10.61-2.705-20.97.914-30.04 6.886-.672.445-1.337.898-1.993 1.367a51.746 51.746 0 0 0-7.288-30.725c-10.555 3.322-17.404 11.951-21.845 21.885a59.44 59.44 0 0 0-.868 2.04 52.784 52.784 0 0 0-23.675-24.05c-4.355 5.073-6.474 11.107-7.115 17.469a53.001 53.001 0 0 0-21.768-8.66l-.109.289c-1.134-.219-1.791-.289-1.791-.289-3.503 8.426-2.455 17.289.782 25.645a53.965 53.965 0 0 0-30.556-.344c0 .523.071 1.039.133 1.563-.703.195-1.079.32-1.079.32.532 9.645 5.896 17.571 13.12 23.941a53.486 53.486 0 0 0-29.977 12.631c.133.242.274.469.407.703-.884.719-1.353 1.165-1.353 1.165 4.629 8.543 12.924 13.506 22.221 16.273a51.536 51.536 0 0 0-11.517 20.681c.704.376 1.407.712 2.127 1.032-.157.539-.227.844-.227.844 9.969 5.386 21.376 4.112 31.979.203-3.214 22.253 10.023 37.955 10.023 37.955.54-.234 1.071-.484 1.564-.781a37.327 37.327 0 0 0 1.259 1.68 30.245 30.245 0 0 0 11.728-9.121 47.845 47.845 0 0 0 6.779 11.974 23.89 23.89 0 0 0 1.392-.649c.32.422.508.649.508.649a30.227 30.227 0 0 0 11.728-9.082c1.04 22.792 1.931 60.387-.649 99.163-1.564 23.667-4.433 47.779-9.383 69.242-8.968-37.087-20.532-82.014-32.236-119.383-12.76-40.745-37.343-79.653-60.15-115.897-16.271-25.847-36.881-57.557-56.209-84.281 17.936 5.956 32.057-.297 32.057-.297s0-.148-.047-.218c1.259-.407 1.939-.712 1.939-.712a40.832 40.832 0 0 0-5.684-14.678c12.377-1.243 20.086-6.707 20.086-6.707-.133-.343-.281-.672-.422-1.008.899-.523 1.376-.86 1.376-.86a31.604 31.604 0 0 0-.954-2.196c.626-.375.954-.61.954-.61-4.691-11.911-14.582-20.009-25.599-25.503a52.793 52.793 0 0 0 24.739-21.542c-7.201-6.706-16.763-8.793-26.584-8.464a51.505 51.505 0 0 0 7.311-25.074 27.573 27.573 0 0 0-1.9-.407v-1.454c-10.61-2.704-20.97.915-30.04 6.886-.672.446-1.337.9-1.994 1.368A51.744 51.744 0 0 0 189.941.125c-10.555 3.322-17.404 11.95-21.845 21.885a58.12 58.12 0 0 0-.868 2.04A52.787 52.787 0 0 0 143.552 0c-4.355 5.073-6.473 11.107-7.115 17.469a52.992 52.992 0 0 0-21.775-8.66l-.109.289c-1.134-.219-1.791-.29-1.791-.29-3.503 8.427-2.455 17.29.782 25.645a53.967 53.967 0 0 0-30.665-.344c0 .524.07 1.04.133 1.564-.704.195-1.08.32-1.08.32.532 9.645 5.896 17.57 13.12 23.94a53.482 53.482 0 0 0-29.96 12.655c.132.242.273.469.406.704-.884.719-1.353 1.164-1.353 1.164C68.774 83 77.07 87.962 86.366 90.73a51.533 51.533 0 0 0-11.517 20.682 32.99 32.99 0 0 0 2.127 1.031 17.2 17.2 0 0 0-.227.844c9.969 5.386 21.377 4.112 31.979.204-3.214 22.252 10.023 37.955 10.023 37.955.54-.235 1.072-.485 1.564-.782a37.327 37.327 0 0 0 1.259 1.68 30.245 30.245 0 0 0 11.728-9.121 47.86 47.86 0 0 0 6.818 12.021 23.89 23.89 0 0 0 1.392-.649c.32.423.508.649.508.649 9.101-3.908 14.777-11.818 18.288-20.861 12.768 13.389 29.008 15.57 33.152 15.914 23.769 33.562 52.628 77.176 70.963 114.834 0 0 37.725 72.869 61.768 149.248-12.221-12.897-28.929-31.608-32.675-41.199-6.059-15.522-81.221 0-81.221 0l-.149.039c-2.345.641-27.443 7.379-45.129 2.822l-1.001-.274-.141-.039-.86-.258-.313-.101-.672-.227-.43-.156-.532-.196-.547-.226-.391-.157-.696-.312-.219-.102-.782-.391-.117-.054a22.963 22.963 0 0 1-2.51-1.564h-.039a133.877 133.877 0 0 1 18.765 17.876l.18.219.985 1.203.258.321c.323.406.641.813.954 1.219l.188.242c.359.48.714.962 1.063 1.446l.258.376c.245.344.485.69.719 1.039l.407.61.524.781.43.688.438.782c.14.242.289.484.422.727l.055.101c.226.415.453.821.664 1.235l.219.446c.182.365.354.727.516 1.086l.18.399.141.336c-17.202-.211-41.753 1.399-57.664 10.661-26.67 15.523-77.585 5.972-77.585 5.972s49.704 26.262 54.551 40.589c1.939 5.721 11.392 13.904 22.073 21.681l2.298 1.657a60.006 60.006 0 0 0-8.6 8.301c-24.239 28.654-82.434 57.308-82.434 57.308h.172l.5.047.86.078 1.565.148h.266c12.447 1.173 56.295 5.683 81.315 13.202.899.273 1.775.547 2.619.82 7.271 2.384 48.476-1.196 76.374-9.551a67.634 67.634 0 0 1 2.345-.649l.696-.172a68.91 68.91 0 0 1 1.759-.398l.696-.149a62.192 62.192 0 0 1 2.346-.43h-.016a61.104 61.104 0 0 1 2.346-.344l.711-.086 1.713-.187.742-.07a58.955 58.955 0 0 1 2.119-.149h.227c.782-.039 1.509-.07 2.267-.086h4.739l1.094.039 1.564.078 1.118.078.97.079 1.243.109.586.063 1.337.14.954.118.719.093 1.056.149.586.086c0 .164-.062.344-.093.516 0 0 1.008 5.619 7.623 11.114-11.204 3.22-20.501 6.925-27.444 10.943-.414.226-.782.469-1.188.703.281 0 .555-.062.852-.086.297-.023.524 0 .782 0h285.877c.258 0 .555.047.837.086.231.025.46.062.688.11.246.033.489.085.727.156a60.337 60.337 0 0 0-1.564-.969c-8.679-5.065-21.032-9.559-36.162-13.288 4.543-2.345 7.076-5.002 8.132-7.816a100.32 100.32 0 0 1 2.744-.586c3.7-.753 7.437-1.303 11.197-1.649l1.563-.125.782-.063a73.745 73.745 0 0 1 25.802 2.595c27.882 8.356 69.095 11.935 76.374 9.551.844-.281 1.72-.554 2.619-.82 24.965-7.512 68.805-12.029 81.315-13.202h.266l1.564-.148.86-.078.5-.047h.172s-58.156-28.662-82.402-57.316zm-33.425-295.292l-.399.086c0-.125.055-.25.079-.375l.32.289zm-117.977 65.148a53.857 53.857 0 0 0-4.488 2.696 41.755 41.755 0 0 0-4.754-10.622 48.065 48.065 0 0 0 17.639-5.245c-2.901 4.503-5.7 8.903-8.397 13.171zm5.27 21.971a50.618 50.618 0 0 0 7.435 2.813 52.534 52.534 0 0 0-15.449 13.577c2.462-5.417 5.152-10.888 8.014-16.39zm-77.25 98.944c2.205-36.416 3.55-75.817 1.674-103.556a53.537 53.537 0 0 0 25.262 8.598l.039-.149c1.181.125 1.853.149 1.853.149 2.229-6.972 1.517-13.975-.907-20.642a49.832 49.832 0 0 0 34.747 3.665 28.283 28.283 0 0 0 1.861 2.884c-15.13 24.23-25.427 41.621-25.427 41.621-10.485 15.765-27.764 70.892-43.472 126.261a2178.948 2178.948 0 0 0 4.37-58.831zm46.389-9.552c-2.893 7.41-13.519 20.252-23.839 31.663 13.542-34.086 27.115-62.958 34.692-78.489 2.15-4.4 4.214-8.84 6.255-13.287 7.779 5.471 17.201 6.417 26.583 5.065a51.062 51.062 0 0 0-1.501 23.542c.782.046 1.564.054 2.346.039.094.555.156.852.156.852 3.576.22 7.162-.206 10.587-1.259a1183.373 1183.373 0 0 0-12.463 26.051c-19.532-1.938-39.782-1.93-42.808 5.815l-.008.008zm144.233-175.205a9.878 9.878 0 0 0-.227-.477c-.156-.352-.274-.602-.336-.735.412.365.821.714 1.227 1.048l-.664.164zm-54.043-5.683c6.661-2.282 12.564-6.714 17.662-12.013a51.809 51.809 0 0 0 18.992 25.559 51.557 51.557 0 0 0-7.436 9.629c-.414.68-.782 1.376-1.212 2.071a52.565 52.565 0 0 0-19.859-24.738c-8.124 7.418-10.595 18.103-10.329 28.92 0 .735.055 1.469.094 2.212a51.988 51.988 0 0 0-14.801-8.465c5.778-8.175 11.509-15.96 16.912-23.175h-.023z" fill="url(#paint0_linear)"/><path d="M340.132 430.409s-38.86-38.846-44.747-54.142c-5.888-15.296-78.891 0-78.891 0s-36.498 10.591-52.988-1.18c0 0 25.903 20.009 28.257 36.485 2.353 16.476 94.2 58.855 94.2 58.855l54.169 50.609 18.843-10.59-18.843-80.037z" fill="#91CF66"/><path opacity=".05" d="M358.975 510.453l-18.843 10.583-15.145-14.116-39.016-36.485s-91.839-42.41-94.2-58.824a27.84 27.84 0 0 0-3.417-9.379c-7.428-13.475-23.941-26.427-24.809-27.107 16.498 11.725 52.949 1.157 52.949 1.157s73.003-15.304 78.891 0c5.887 15.304 44.747 54.142 44.747 54.142l18.843 80.029z" fill="#000"/><path opacity=".1" d="M334.244 506.921h-9.257l-39.016-36.486s-91.839-42.41-94.2-58.824a27.84 27.84 0 0 0-3.417-9.379c7.432-.029 14.86.344 22.252 1.117 25.904 25.895 62.402 38.846 62.402 38.846 36.513-23.549 61.236 64.726 61.236 64.726z" fill="#000"/><path d="M333.071 510.453h-44.747l-121.276-4.689s-18.288-10.63-33.902-22.175c-10.376-7.659-19.547-15.733-21.44-21.377-4.691-14.123-52.987-40.018-52.987-40.018s49.453 9.379 75.357-5.886c25.904-15.264 75.357-9.379 75.357-9.379 25.904 25.895 62.402 38.846 62.402 38.846 20.243-13.053 36.857 8.277 47.655 29.865a223.27 223.27 0 0 1 13.581 34.813zm41.174-80.044s38.859-38.846 44.747-54.142c5.887-15.296 78.891 0 78.891 0s36.498 10.591 52.988-1.18c0 0-25.904 20.009-28.257 36.485-2.354 16.476-94.201 58.855-94.201 58.855l-54.168 50.609-18.843-10.59 18.843-80.037z" fill="#91CF66"/><path opacity=".05" d="M550.863 375.118c-.868.68-17.381 13.639-24.809 27.122a27.69 27.69 0 0 0-3.417 9.379c-2.345 16.476-94.2 58.855-94.2 58.855L389.39 506.96l-15.145 14.076-18.843-10.59 18.843-80.037s38.859-38.846 44.747-54.142c5.887-15.296 78.891 0 78.891 0s36.482 10.583 52.98-1.149z" fill="#000"/><path opacity=".1" d="M335.847 496.025c-1.642 1.524-4.402 2.79-3.909 4.979.217.733.66 1.378 1.267 1.844 3.064 2.72 8.029 4.838 7.615 8.919-.235 2.344-2.283 4.009-3.284 6.119-2.088 4.409 1.204 10.029 5.841 11.545 4.636 1.516 9.828-.266 13.651-3.306.821-.657 1.697-1.399 2.745-1.399.8.11 1.576.35 2.298.711 3.128 1.078 6.654-1.313 7.991-4.369 1.337-3.056 1.095-6.542.821-9.864 1.775 1.508 4.691.688 6.2-1.102 1.509-1.79 1.947-4.205 2.346-6.503l2.791-16.109c2.237-.649 3.128-3.666 2.104-5.753-1.025-2.087-3.409-3.228-5.724-3.447-2.314-.219-4.628.305-6.912.743a87.592 87.592 0 0 1-18.131 1.563c-5.043-.102-11.517-6.323-14.301-.782-2.541 4.956 1.204 11.935-3.409 16.211zm190.207-93.793a27.683 27.683 0 0 0-3.417 9.379c-2.346 16.476-94.2 58.855-94.2 58.855l-39.047 36.486h-10.399s24.723-88.307 61.228-64.772c0 0 36.498-12.952 62.402-38.846a209.808 209.808 0 0 1 23.433-1.102z" fill="#000"/><path d="M655.72 422.171s-48.273 25.894-52.988 40.018c-1.767 5.299-9.976 12.732-19.546 19.962-15.99 12.076-35.787 23.589-35.787 23.589l-121.277 4.69h-44.778a225.172 225.172 0 0 1 11.728-31.077c10.704-22.737 28.085-47.42 49.501-33.64 0 0 36.498-12.952 62.401-38.846 0 0 49.454-5.886 75.358 9.379 25.903 15.265 75.388 5.925 75.388 5.925z" fill="#91CF66"/><path d="M543.834 150.858s-73.09 84.883-104.248 157.104c-3.205 7.433-6.513 14.85-10.015 22.111-18.687 38.878-74.912 162.575-72.949 239.954l-21.197 4.51s54.16-221.289 76.538-255.422c0 0 98.907-169.5 131.879-185.976l-.008 17.719z" fill="#635151"/><path d="M373.964 385.685c-1.283 21.385-2.847 41.738-4.23 57.972-.274 3.345-.556 6.511-.782 9.489-1.462 16.304-2.526 26.668-2.526 26.668v.063c-.273 5.096-1.861 12.842-4.425 22.479a405.349 405.349 0 0 1-2.862 10.161c-.203.648-.391 1.305-.586 1.962a576.26 576.26 0 0 1-2.885 9.379c-.423 1.321-.845 2.657-1.283 4.017a928.355 928.355 0 0 1-7.818 23.292 1945.854 1945.854 0 0 1-8.03 22.737l-.462 1.259c-.07.187-.14.391-.211.586h-14.722c.062-.203.117-.399.164-.586a932.98 932.98 0 0 0 6.255-23.363 1069.058 1069.058 0 0 0 5.403-22.143 1201.02 1201.02 0 0 0 1.939-8.449c.203-.891.398-1.774.586-2.649.094-.391.18-.782.258-1.157.422-1.868.821-3.705 1.204-5.471.156-.657.297-1.321.438-1.962l.352-1.649a1157.3 1157.3 0 0 0 2.439-11.678c.61-2.993 1.165-5.799 1.681-8.441.727-3.752 1.376-7.136 1.916-10.067 1.564-8.356 2.346-13.17 2.346-13.17a2.84 2.84 0 0 0 .086-.329c.953-3.47 1.837-7.034 2.65-10.676 4.777-21.166 7.569-44.943 9.093-68.282 4.019-61.278-.633-119.586-.633-119.586l10.422-14.257c8.828 17.204 7.491 78.951 4.223 133.851zm144.295-92.433s-21.525 34.774-42.87 79.107c-2.085 4.356-4.17 8.785-6.255 13.287a576.782 576.782 0 0 0-21.674 53.595 296.412 296.412 0 0 0-1.751 5.252 349.875 349.875 0 0 0-3.018 9.724 177.889 177.889 0 0 0-1.087 3.767 294.02 294.02 0 0 0-1.908 7.073 231.435 231.435 0 0 0-2.346 10.161s-4.425 13.608-10.422 35.173c-.375 1.391-.782 2.798-1.165 4.252-.274 1-.555 2.024-.837 3.064A1247.647 1247.647 0 0 0 418.148 544c-.782 3.251-1.564 6.566-2.393 9.973a1054.488 1054.488 0 0 0-4.793 21.198c0 .203-.086.39-.117.586h-14.77c0-.203.063-.399.086-.586 1.017-7.77 2.041-15.359 3.128-22.667.743-5.237 1.509-10.349 2.275-15.257 1.345-8.637 2.721-16.711 4.089-23.988.188-.953.368-1.891.54-2.814v-.109a227.576 227.576 0 0 1 5.934-24.66 56.366 56.366 0 0 1 2.119-5.627s1.994-5.112 5.473-13.71l1.767-4.416c2.346-5.706 5.098-12.545 8.265-20.197.437-1.07.891-2.165 1.352-3.275 6.443-15.499 14.285-33.945 22.675-52.782 2.251-5.049 4.535-10.161 6.849-15.171 19.852-43.316 41.494-85.125 54.903-94.692l2.729 17.446z" fill="#635151"/><path d="M158.807 102.602s73.59 94.754 108.321 167.139c0 0 81.245 159.292 78.891 252.085l21.189 4.517s-23.55-111.863-47.695-190.095c-12.392-40.174-36.271-78.528-58.421-114.263-31.885-51.43-80.932-126.355-102.301-137.032l.016 17.649zM499.869 576.14a4.707 4.707 0 0 0-.704-.156 6.625 6.625 0 0 0-.672-.11c-.274 0-.54-.07-.782-.086-.242-.015-.508 0-.782 0H219.277c-.266 0-.555.047-.821.086.375-.234.782-.469 1.157-.695 6.748-3.994 15.778-7.637 26.654-10.818 21.651-6.331 50.619-10.841 83.286-12.545 3.839-.211 7.733-.367 11.665-.492l5.356-.141c3.495-.07 7.037-.117 10.595-.117h1.79c13.941 0 27.444.508 40.282 1.446 5.63.412 11.116.907 16.459 1.485a352.42 352.42 0 0 1 47.475 8.097c14.692 3.674 26.694 8.114 35.122 13.1a27.48 27.48 0 0 1 1.572.946z" fill="#635151"/><path opacity=".1" d="M333.071 510.453h-44.747l-121.276-4.689s-18.288-10.63-33.902-22.174c24.785-21.932 65.372-21.495 75.107-16.078 10.602 5.846 30.618 3.501 30.618 3.501 14.707-33.257 54.841-13.138 80.642 4.565a223.165 223.165 0 0 1 13.558 34.875z" fill="#000"/><path d="M342.485 496.916s-81.245-72.979-103.614-22.362c0 0-20.016 2.345-30.61-3.533-10.595-5.878-57.695-5.885-81.245 22.362-23.55 28.247-80.064 56.502-80.064 56.502s57.124 4.909 84.778 14.124c7.037 2.345 47.101-1.18 74.177-9.379 27.076-8.199 56.53 4.705 56.53 4.705l83.582-34.172-3.534-28.247z" fill="#91CF66"/><path opacity=".05" d="M346.019 525.163l-83.582 34.172a102.855 102.855 0 0 0-26.67-6.823c-9.164-1.087-19.672-.977-29.852 2.118-27.084 8.238-67.116 11.771-74.177 9.379-27.655-9.215-84.779-14.124-84.779-14.124s56.522-28.247 80.065-56.502c23.542-28.255 70.634-28.247 81.236-22.37 10.603 5.878 30.611 3.533 30.611 3.533 22.369-50.617 103.614 22.362 103.614 22.362l1.697 13.608 1.837 14.647z" fill="#000"/><path opacity=".1" d="M583.146 482.159c-15.989 12.076-35.786 23.589-35.786 23.589l-121.277 4.69h-44.739a225.172 225.172 0 0 1 11.728-31.077c25.2-18.305 70.221-44.036 86.007-8.355 0 0 20.016 2.344 30.61-3.533 9.523-5.284 48.57-5.839 73.457 14.686z" fill="#000"/><path d="M375.457 496.916s81.245-72.979 103.614-22.362c0 0 20.016 2.345 30.611-3.533 10.594-5.878 57.694-5.885 81.244 22.362 23.55 28.247 80.065 56.502 80.065 56.502s-57.109 4.909-84.772 14.14c-7.036 2.345-47.1-1.18-74.176-9.38-27.076-8.199-56.483 4.69-56.483 4.69l-83.661-34.172 3.558-28.247z" fill="#91CF66"/><path opacity=".05" d="M670.998 549.885s-57.116 4.909-84.779 14.14c-7.036 2.345-47.1-1.18-74.176-9.38-13.495-4.111-27.561-2.954-38.312-.781a98.909 98.909 0 0 0-18.171 5.471l-83.661-34.172 2.135-17.031 1.4-11.216s81.244-72.979 103.614-22.362c0 0 20.016 2.345 30.61-3.533 10.595-5.878 57.695-5.885 81.245 22.362 23.55 28.247 80.095 56.502 80.095 56.502z" fill="#000"/><path opacity=".1" d="M473.754 553.864a98.882 98.882 0 0 0-18.194 5.471l-83.661-34.172 2.135-17.031c26.044-3.283 75.584 13.498 75.584 13.498s32.823 18.305 24.136 32.234zm-127.735-28.701l-83.582 34.172a102.855 102.855 0 0 0-26.67-6.823 9.588 9.588 0 0 1-.414-1.415c8.499-48.139 80.619-44.044 108.845-40.534l1.821 14.6z" fill="#000"/><path d="M471.088 554.403c-1.024 2.744-3.487 5.354-7.897 7.676a45.907 45.907 0 0 1-7.662 3.126c-10.078 3.166-16.912 6.612-21.486 10.005-.274.203-.516.39-.782.586H280.795c-.117-.235-.234-.422-.32-.586-.227-.391-.368-.587-.368-.587-17.85-.555-28.038-5.346-33.808-10.231-6.427-5.416-7.404-10.942-7.404-10.942 0-.165.062-.344.093-.508 7.358-39.339 57.601-43.372 90.698-41.621 3.284.18 6.396.398 9.281.656l1.79.165 3.683.39 1.564.18c1.837.211 3.51.438 5.004.649.836.109 1.563.227 2.345.32 2.635.399 4.449.719 5.231.86l.438.086c.543-.431 1.118-.82 1.72-1.165a17.589 17.589 0 0 1 2.346-1.133c.344-.141.696-.258 1.047-.375 3.144-1 6.407-1.573 9.703-1.704a56.652 56.652 0 0 1 3.3-.117c1.4 0 2.846 0 4.332.062 1.485.063 2.814.141 4.261.258.258 0 .516 0 .782.063 6.428.598 12.82 1.537 19.148 2.814 6.779 1.328 13.409 2.915 19.273 4.463 12.283 3.235 21.22 6.252 21.22 6.252s30.048 16.727 24.934 30.358zM364.69 241.136c17.633-4.476 29.591-17.3 26.709-28.643-2.882-11.342-19.512-16.908-37.144-12.431-17.633 4.476-29.591 17.3-26.71 28.643 2.882 11.342 19.512 16.908 37.145 12.431z" fill="#91CF66"/><path d="M384.472 206.368s47.194-26.895 70.025-5.315c0 0-20.618 39.768-71.503 19.462l1.478-14.147z" fill="#91CF66"/><path opacity=".05" d="M377.036 206.47s28.288-46.365 58.711-38.518c0 0 1.196 44.771-53.167 51.586l-5.544-13.068z" fill="#000"/><path d="M375.191 205.548s28.296-46.397 58.711-38.518c0 0 1.196 44.77-53.168 51.586l-5.543-13.068z" fill="#91CF66"/><path opacity=".05" d="M380.742 217.725l-.782-1.845-4.769-11.247s12.346-20.267 29.547-31.725c8.804-5.886 18.867-9.458 29.172-6.793-.008 0 1.196 44.771-53.168 51.61z" fill="#000"/><path opacity=".05" d="M404.738 172.908c-.672 12.701-6.458 28.099-24.684 43.035l-.086-.055-4.769-11.247s12.338-20.275 29.539-31.733z" fill="#000"/><path d="M378.201 215.935l-2.627-1.837-9.046-6.292s-.321-23.448 7.967-42.269c4.316-9.794 10.947-18.313 21.22-21.58 0 0 24.864 37.259-17.514 71.978z" fill="#91CF66"/><path opacity=".05" d="M375.926 214.122h-.352l-9.046-6.292s-.321-23.448 7.967-42.269c5.825 11.067 8.71 26.887 1.431 48.561z" fill="#000"/><path d="M359.866 213.434s-29.492-45.607-9.21-69.563c0 0 40.869 18.368 23.456 70.282l-14.246-.719z" fill="#91CF66"/><path opacity=".05" d="M352.829 215.896s-42.127-34.297-30.188-63.365c0 0 44.567 4.877 43.949 59.645l-13.761 3.72z" fill="#000"/><path d="M350.984 215.896s-42.119-34.305-30.219-63.365c0 0 44.567 4.877 43.949 59.645l-13.73 3.72z" fill="#91CF66"/><path opacity=".05" d="M346.238 221.797s-52.761-12.959-54.458-44.317c0 0 42.339-14.663 65.271 35.079l-10.813 9.238z" fill="#000"/><path d="M345.316 223.634s-52.761-12.959-54.458-44.317c0 0 42.339-14.663 65.271 35.078l-10.813 9.239z" fill="#91CF66"/><path opacity=".05" d="M342.579 232.622s-53.301 10.513-68.086-17.195c0 0 32.19-31.155 73.981 4.252l-5.895 12.943z" fill="#000"/><path d="M341.657 234.436s-53.301 10.513-68.086-17.195c0 0 32.19-31.155 73.981 4.252l-5.895 12.943z" fill="#91CF66"/><path opacity=".05" d="M350.367 230.801s-38.844 37.971-66.397 22.87c0 0 9.875-43.692 64.239-36.931l2.158 14.061z" fill="#000"/><path d="M352.212 232.623s-38.844 37.97-66.397 22.87c0 0 9.875-43.692 64.239-36.932l2.158 14.062z" fill="#91CF66"/><path opacity=".05" d="M348.975 226.589s6.411 53.931-22.362 66.546c0 0-28.616-34.469 9.907-73.417l12.455 6.871z" fill="#000"/><path d="M351.735 227.503s6.411 53.931-22.362 66.546c0 0-28.617-34.469 9.906-73.416l12.456 6.87z" fill="#91CF66"/><path opacity=".05" d="M369.71 230.325s6.412 53.931-22.361 66.546c0 0-28.617-34.469 9.906-73.417l12.455 6.871z" fill="#000"/><path d="M371.555 230.325s6.412 53.931-22.361 66.546c0 0-28.617-34.469 9.906-73.417l12.455 6.871z" fill="#91CF66"/><path opacity=".05" d="M364.745 231.411s44.825 30.678 35.38 60.614c0 0-44.794-1.165-48.758-55.791l13.378-4.823z" fill="#000"/><path d="M366.583 231.411s44.832 30.678 35.387 60.614c0 0-44.793-1.165-48.758-55.791l13.371-4.823z" fill="#91CF66"/><path opacity=".05" d="M376.981 224.275s55.396 13.365 61.597 49.773c0 0-40.877 18.407-71.253-38.682l9.656-11.091z" fill="#000"/><path d="M378.827 223.353s55.396 13.365 61.596 49.772c0 0-40.877 18.407-71.253-38.681l9.657-11.091zm-18.961-9.919s-29.492-45.607-9.21-69.563c0 0 40.869 18.368 23.456 70.282l-14.246-.719z" fill="#91CF66"/><path opacity=".05" d="M359.866 213.434s-29.492-45.607-9.21-69.563c0 0 40.869 18.368 23.456 70.282l-14.246-.719z" fill="#000"/><path d="M345.316 223.634s-52.761-12.959-54.458-44.317c0 0 42.339-14.663 65.271 35.078l-10.813 9.239z" fill="#91CF66"/><path opacity=".05" d="M345.316 223.634s-52.761-12.959-54.458-44.317c0 0 42.339-14.663 65.271 35.078l-10.813 9.239z" fill="#000"/><path d="M352.212 232.623s-38.844 37.97-66.397 22.87c0 0 9.875-43.692 64.239-36.932l2.158 14.062z" fill="#91CF66"/><path opacity=".05" d="M352.212 232.623s-38.844 37.97-66.397 22.87c0 0 9.875-43.692 64.239-36.932l2.158 14.062z" fill="#000"/><path d="M371.555 230.325s6.412 53.931-22.361 66.546c0 0-28.617-34.469 9.906-73.417l12.455 6.871z" fill="#91CF66"/><path opacity=".05" d="M371.555 230.325s6.412 53.931-22.361 66.546c0 0-28.617-34.469 9.906-73.417l12.455 6.871z" fill="#000"/><path d="M378.827 223.353s55.396 13.365 61.596 49.772c0 0-40.877 18.407-71.253-38.681l9.657-11.091z" fill="#91CF66"/><path opacity=".05" d="M378.827 223.353s55.396 13.365 61.596 49.772c0 0-40.877 18.407-71.253-38.681l9.657-11.091z" fill="#000"/><path opacity=".05" d="M384.136 215.521s56.944 2.079 70.275 36.525c0 0-36.389 26.176-77.523-23.73l7.248-12.795z" fill="#000"/><path opacity=".05" d="M385.059 210.917s56.944 2.079 70.275 36.525c0 0-36.389 26.176-77.523-23.73l7.248-12.795z" fill="#000"/><path d="M385.059 213.684s56.944 2.079 70.275 36.525c0 0-36.389 26.176-77.523-23.73l7.248-12.795z" fill="#91CF66"/><path d="M399.155 228.394a33.503 33.503 0 0 1-9.995 16.687 33.525 33.525 0 0 1-51.257-7.564 33.5 33.5 0 0 1 17.403-48.787 33.517 33.517 0 0 1 40.064 14.285 33.485 33.485 0 0 1 4.418 12.313c.65 4.355.435 8.795-.633 13.066z" fill="#F7931A"/><path d="M163.747 105.665c17.633-4.477 29.591-17.3 26.709-28.643-2.881-11.343-19.512-16.908-37.144-12.432-17.633 4.477-29.591 17.3-26.71 28.643 2.882 11.343 19.512 16.909 37.145 12.432z" fill="#91CF66"/><path d="M183.522 70.915s47.194-26.895 70.025-5.314c0 0-20.619 39.768-71.503 19.462l1.478-14.148z" fill="#91CF66"/><path opacity=".05" d="M176.086 71.01s28.289-46.366 58.711-38.519c0 0 1.197 44.771-53.167 51.587l-5.544-13.069z" fill="#000"/><path d="M174.241 70.087s28.288-46.365 58.711-38.518c0 0 1.197 44.77-53.167 51.586l-5.544-13.068z" fill="#91CF66"/><path opacity=".05" d="M179.793 82.264l-.782-1.844-4.77-11.248s12.354-20.228 29.555-31.725c8.804-5.886 18.867-9.458 29.172-6.792-.016 0 1.188 44.778-53.175 51.61z" fill="#000"/><path opacity=".05" d="M203.796 37.447c-.672 12.701-6.458 28.099-24.684 43.035l-.086-.054-4.769-11.248s12.338-20.236 29.539-31.733z" fill="#000"/><path d="M177.212 80.482l-2.588-1.837-9.046-6.291s-.321-23.449 7.967-42.27c4.316-9.793 10.946-18.313 21.22-21.58 0 0 24.864 37.251-17.553 71.978z" fill="#91CF66"/><path opacity=".05" d="M174.976 78.646h-.352l-9.046-6.292s-.321-23.449 7.967-42.27c5.825 11.083 8.71 26.911 1.431 48.562z" fill="#000"/><path d="M158.916 77.973s-29.492-45.606-9.21-69.563c0 0 40.868 18.368 23.456 70.282l-14.246-.719z" fill="#91CF66"/><path opacity=".05" d="M151.879 80.443S109.76 46.138 121.66 17.078c0 0 44.567 4.877 43.949 59.645l-13.73 3.72z" fill="#000"/><path d="M150.034 80.443s-42.12-34.305-30.219-63.365c0 0 44.567 4.877 43.949 59.645l-13.73 3.72z" fill="#91CF66"/><path opacity=".05" d="M145.288 86.337s-52.76-12.96-54.457-44.318c0 0 42.338-14.663 65.271 35.079l-10.814 9.239z" fill="#000"/><path d="M144.373 88.181s-52.76-12.959-54.457-44.317c0 0 42.338-14.663 65.271 35.078l-10.814 9.239z" fill="#91CF66"/><path opacity=".05" d="M141.629 97.13s-53.3 10.513-68.085-17.195c0 0 32.189-31.155 73.981 4.252l-5.896 12.944z" fill="#000"/><path d="M140.706 98.967s-53.3 10.513-68.085-17.195c0 0 32.189-31.155 73.981 4.252l-5.896 12.943z" fill="#91CF66"/><path opacity=".05" d="M149.416 95.34s-38.843 37.971-66.397 22.87c0 0 9.876-43.691 64.239-36.93l2.158 14.06z" fill="#000"/><path d="M151.262 97.185s-38.844 37.971-66.397 22.886c0 0 9.875-43.692 64.239-36.931l2.158 14.045z" fill="#91CF66"/><path opacity=".05" d="M148.025 91.151s6.411 53.931-22.362 66.547c0 0-28.617-34.469 9.906-73.417l12.456 6.87z" fill="#000"/><path d="M150.785 92.05s6.411 53.931-22.362 66.546c0 0-28.616-34.469 9.907-73.416l12.455 6.87z" fill="#91CF66"/><path opacity=".05" d="M168.76 94.864s6.411 53.931-22.362 66.546c0 0-28.616-34.469 9.907-73.416l12.455 6.87z" fill="#000"/><path d="M170.605 94.864s6.412 53.931-22.361 66.546c0 0-28.617-34.469 9.906-73.416l12.455 6.87z" fill="#91CF66"/><path opacity=".05" d="M163.795 95.95s44.825 30.686 35.38 60.638c0 0-44.793-1.165-48.758-55.792l13.378-4.846z" fill="#000"/><path d="M165.633 95.95s44.825 30.686 35.38 60.638c0 0-44.794-1.165-48.758-55.792l13.378-4.846z" fill="#91CF66"/><path opacity=".05" d="M176.032 88.806s55.396 13.366 61.596 49.773c0 0-40.877 18.407-71.253-38.682l9.657-11.09z" fill="#000"/><path d="M177.877 87.9s55.396 13.365 61.596 49.773c0 0-40.876 18.407-71.252-38.682l9.656-11.091zm-18.961-9.927s-29.492-45.606-9.21-69.563c0 0 40.868 18.368 23.456 70.282l-14.246-.719z" fill="#91CF66"/><path opacity=".05" d="M158.916 77.973s-29.492-45.606-9.21-69.563c0 0 40.868 18.368 23.456 70.282l-14.246-.719z" fill="#000"/><path d="M144.373 88.181s-52.76-12.959-54.457-44.317c0 0 42.338-14.663 65.271 35.078l-10.814 9.239z" fill="#91CF66"/><path opacity=".05" d="M144.373 88.181s-52.76-12.959-54.457-44.317c0 0 42.338-14.663 65.271 35.078l-10.814 9.239z" fill="#000"/><path d="M151.262 97.185s-38.844 37.971-66.397 22.886c0 0 9.875-43.692 64.239-36.931l2.158 14.045z" fill="#91CF66"/><path opacity=".05" d="M151.262 97.185s-38.844 37.971-66.397 22.886c0 0 9.875-43.692 64.239-36.931l2.158 14.045z" fill="#000"/><path d="M170.605 94.864s6.412 53.931-22.361 66.546c0 0-28.617-34.469 9.906-73.416l12.455 6.87z" fill="#91CF66"/><path opacity=".05" d="M170.605 94.864s6.412 53.931-22.361 66.546c0 0-28.617-34.469 9.906-73.416l12.455 6.87z" fill="#000"/><path d="M177.877 87.9s55.396 13.365 61.596 49.773c0 0-40.876 18.407-71.252-38.682l9.656-11.091z" fill="#91CF66"/><path opacity=".05" d="M177.877 87.9s55.396 13.365 61.596 49.773c0 0-40.876 18.407-71.252-38.682l9.656-11.091z" fill="#000"/><path opacity=".05" d="M183.186 80.068s56.944 2.08 70.275 36.525c0 0-36.389 26.176-77.523-23.73l7.248-12.795z" fill="#000"/><path opacity=".05" d="M184.108 75.457s56.944 2.079 70.275 36.524c0 0-36.388 26.176-77.523-23.73l7.248-12.794z" fill="#000"/><path d="M184.108 78.223s56.944 2.08 70.275 36.525c0 0-36.388 26.176-77.523-23.73l7.248-12.795z" fill="#91CF66"/><path d="M198.206 92.933a33.51 33.51 0 0 1-27.579 25.013 33.517 33.517 0 0 1-33.674-15.89 33.491 33.491 0 0 1-4.745-18.862 33.515 33.515 0 0 1 22.148-29.924c6.238-2.24 13-2.581 19.432-.98a33.531 33.531 0 0 1 20.632 15.264 33.51 33.51 0 0 1 3.786 25.38z" fill="#F7931A"/><path d="M560.314 151.927c13.873-11.765 18.98-28.537 11.406-37.461-7.573-8.923-24.958-6.62-38.831 5.145-13.873 11.765-18.98 28.537-11.406 37.461 7.573 8.924 24.958 6.62 38.831-5.145z" fill="#91CF66"/><path d="M562.833 112.083s30.587-44.888 60.572-35.517c0 0-1.055 44.779-55.685 48.874l-4.887-13.357z" fill="#91CF66"/><path opacity=".05" d="M556.203 115.436s5.043-54.08 35.826-60.38c0 0 20.743 39.699-25.083 69.705l-10.743-9.325z" fill="#000"/><path d="M554.139 115.381s5.043-54.08 35.826-60.38c0 0 20.743 39.699-25.083 69.705l-10.743-9.325z" fill="#91CF66"/><path opacity=".05" d="M564.483 123.924l-1.517-1.313-9.226-8.011s2.213-23.636 12.596-41.473c5.325-9.152 12.8-16.78 23.23-18.907 0-.008 20.743 39.69-25.083 69.704z" fill="#000"/><path opacity=".05" d="M566.336 73.127c4.973 11.725 6.537 28.076-3.268 49.5h-.102l-9.226-8.027s2.213-23.644 12.596-41.473z" fill="#000"/><path d="M561.411 123.432l-3.128-.493-10.891-1.68s-10.603-20.955-11.416-41.472c-.43-10.693 1.814-21.268 9.586-28.701-.039-.008 38.664 22.55 15.849 72.346z" fill="#91CF66"/><path opacity=".05" d="M558.565 122.799l-.321.14-10.892-1.68s-10.602-20.955-11.415-41.472c10.102 7.401 19.649 20.345 22.628 43.012z" fill="#000"/><path d="M543.842 129.231s-46.538-28.028-38.852-58.48c0 0 44.786-1.446 51.917 52.86l-13.065 5.62z" fill="#91CF66"/><path opacity=".05" d="M538.595 134.538s-52.909-12.318-54.989-43.66c0 0 42.159-15.171 65.678 34.289l-10.689 9.371z" fill="#000"/><path d="M536.938 135.343s-52.91-12.318-54.99-43.66c0 0 42.159-15.171 65.678 34.289l-10.688 9.371z" fill="#91CF66"/><path opacity=".05" d="M535.265 142.737s-53.09 11.521-68.399-15.905c0 0 31.596-31.757 74.052 2.853l-5.653 13.052z" fill="#000"/><path d="M535.249 144.785s-53.089 11.521-68.398-15.905c0 0 31.595-31.757 74.051 2.852l-5.653 13.053z" fill="#91CF66"/><path opacity=".05" d="M536.719 154.032S493.458 186.859 468 168.476c0 0 15.231-42.121 68.336-28.662l.383 14.218z" fill="#000"/><path d="M536.703 156.095s-43.261 32.828-68.719 14.444c0 0 15.231-42.121 68.336-28.661l.383 14.217z" fill="#91CF66"/><path opacity=".05" d="M542.935 148.99s-18.218 51.164-49.602 49.695c0 0-10.321-43.583 41.494-61.38l8.108 11.685z" fill="#000"/><path d="M545.398 149.85s-18.218 51.164-49.602 49.695c0 0-10.321-43.583 41.494-61.38l8.108 11.685z" fill="#91CF66"/><path opacity=".05" d="M539.831 145.864s29.453 45.638 9.148 69.563c0 0-40.853-18.399-23.355-70.306l14.207.743z" fill="#000"/><path d="M542.716 145.442s29.453 45.638 9.148 69.563c0 0-40.854-18.399-23.355-70.306l14.207.743z" fill="#91CF66"/><path opacity=".05" d="M560.105 140.08s29.453 45.638 9.148 69.563c0 0-40.853-18.399-23.355-70.306l14.207.743z" fill="#000"/><path d="M561.755 139.275s29.453 45.638 9.148 69.563c0 0-40.853-18.399-23.355-70.306l14.207.743z" fill="#91CF66"/><path opacity=".05" d="M556.117 143.238s53.754 7.886 58.43 38.94c0 0-40.751 18.617-68.313-28.717l9.883-10.223z" fill="#000"/><path d="M557.767 142.433s53.754 7.886 58.43 38.939c0 0-40.752 18.618-68.313-28.716l9.883-10.223z" fill="#91CF66"/><path opacity=".05" d="M563.975 131.459s55.639-12.31 77.203 17.672c0 0-28.633 34.485-81.003-3.47l3.8-14.202z" fill="#000"/><path d="M565.226 129.825s55.638-12.31 77.203 17.673c0 0-28.633 34.484-81.003-3.471l3.8-14.202zm-21.384-.594s-46.538-28.028-38.852-58.48c0 0 44.786-1.446 51.917 52.86l-13.065 5.62z" fill="#91CF66"/><path opacity=".05" d="M543.842 129.231s-46.538-28.028-38.852-58.48c0 0 44.786-1.446 51.917 52.86l-13.065 5.62z" fill="#000"/><path d="M535.249 144.785s-53.089 11.521-68.398-15.905c0 0 31.595-31.757 74.051 2.852l-5.653 13.053z" fill="#91CF66"/><path opacity=".05" d="M535.249 144.785s-53.089 11.521-68.398-15.905c0 0 31.595-31.757 74.051 2.852l-5.653 13.053z" fill="#000"/><path d="M545.398 149.85s-18.218 51.164-49.602 49.695c0 0-10.321-43.583 41.494-61.38l8.108 11.685z" fill="#91CF66"/><path opacity=".05" d="M545.398 149.85s-18.218 51.164-49.602 49.695c0 0-10.321-43.583 41.494-61.38l8.108 11.685z" fill="#000"/><path d="M561.755 139.275s29.453 45.638 9.148 69.563c0 0-40.853-18.399-23.355-70.306l14.207.743z" fill="#91CF66"/><path opacity=".05" d="M561.755 139.275s29.453 45.638 9.148 69.563c0 0-40.853-18.399-23.355-70.306l14.207.743z" fill="#000"/><path d="M565.226 129.825s55.638-12.31 77.203 17.673c0 0-28.633 34.484-81.003-3.471l3.8-14.202z" fill="#91CF66"/><path opacity=".05" d="M565.226 129.825s55.638-12.31 77.203 17.673c0 0-28.633 34.484-81.003-3.471l3.8-14.202z" fill="#000"/><path opacity=".05" d="M566.587 120.454s52.073-23.136 79.18 1.962c0 0-21.196 39.486-80.072 12.716l.892-14.678z" fill="#000"/><path opacity=".05" d="M565.359 115.913s52.073-23.136 79.181 1.962c0 0-21.197 39.486-80.072 12.716l.891-14.678z" fill="#000"/><path d="M566.587 118.398s52.073-23.136 79.18 1.962c0 0-21.196 39.487-80.072 12.717l.892-14.679z" fill="#91CF66"/><path d="M585.703 125.425a33.493 33.493 0 0 1-13.787 34.58 33.523 33.523 0 0 1-49.784-14.355 33.5 33.5 0 0 1 23.782-46.018 33.535 33.535 0 0 1 34.618 13.778 33.497 33.497 0 0 1 5.171 12.015z" fill="#F7931A"/><path d="M527.762 299.563c14.058-11.544 19.431-28.232 12-37.275-7.431-9.043-24.85-7.016-38.908 4.527-14.058 11.544-19.431 28.232-12 37.275 7.43 9.043 24.85 7.016 38.908-4.527z" fill="#91CF66"/><path d="M530.886 259.674s31.275-44.403 61.127-34.563c0 0-1.759 44.755-56.451 47.991l-4.676-13.428z" fill="#91CF66"/><path opacity=".05" d="M524.201 262.925s5.896-53.993 36.748-59.808c0 0 20.118 40.018-26.177 69.305l-10.571-9.497z" fill="#000"/><path d="M522.137 262.871s5.895-53.994 36.748-59.809c0 0 20.118 40.018-26.177 69.305l-10.571-9.496z" fill="#91CF66"/><path opacity=".05" d="M532.34 271.539l-1.493-1.337-9.101-8.16s2.58-23.596 13.245-41.269c5.473-9.066 13.057-16.578 23.519-18.539.008 0 20.125 40.018-26.17 69.305z" fill="#000"/><path opacity=".05" d="M534.999 220.773c4.793 11.779 6.098 28.177-4.05 49.445h-.102l-9.101-8.16s2.619-23.612 13.253-41.285z" fill="#000"/><path d="M529.276 270.999l-3.128-.547-10.891-1.876s-10.274-21.103-10.759-41.644c-.258-10.7 2.142-21.236 10.031-28.552 0 .024 38.344 23.19 14.747 72.619z" fill="#91CF66"/><path opacity=".05" d="M526.445 270.327l-.329.133-10.86-1.883s-10.274-21.104-10.758-41.645c9.984 7.582 19.328 20.682 21.947 43.395z" fill="#000"/><path d="M511.62 276.525s-46.091-28.755-37.928-59.081c0 0 44.801-.735 51.08 53.665l-13.152 5.416z" fill="#91CF66"/><path opacity=".05" d="M506.296 281.747s-52.714-13.155-54.294-44.552c0 0 42.394-14.507 65.139 35.321l-10.845 9.231z" fill="#000"/><path d="M504.623 282.528s-52.714-13.154-54.293-44.552c0 0 42.393-14.506 65.138 35.321l-10.845 9.231z" fill="#91CF66"/><path opacity=".05" d="M502.832 289.883s-53.269 10.685-68.14-16.984c0 0 32.057-31.265 73.997 4.025l-5.857 12.959z" fill="#000"/><path d="M502.778 291.939s-53.27 10.684-68.141-16.985c0 0 32.057-31.264 73.997 4.026l-5.856 12.959z" fill="#91CF66"/><path opacity=".05" d="M504.115 301.209s-43.785 32.163-68.938 13.357c0 0 15.887-41.878 68.805-27.583l.133 14.226z" fill="#000"/><path d="M504.037 303.272s-43.785 32.163-68.938 13.358c0 0 15.887-41.879 68.805-27.583l.133 14.225z" fill="#91CF66"/><path opacity=".05" d="M510.401 296.277s-19.023 50.875-50.377 48.897c0 0-9.632-43.77 42.456-60.723l7.921 11.826z" fill="#000"/><path d="M512.848 297.16s-19.023 50.875-50.376 48.905c0 0-9.633-43.77 42.456-60.723l7.92 11.818z" fill="#91CF66"/><path opacity=".05" d="M507.344 293.057s28.734 46.114 8.053 69.735c0 0-40.556-19.04-22.244-70.666l14.191.931z" fill="#000"/><path d="M510.245 292.713s28.733 46.115 8.053 69.735c0 0-40.556-19.04-22.245-70.666l14.192.931z" fill="#91CF66"/><path opacity=".05" d="M527.712 287.624s28.734 46.115 8.053 69.736c0 0-40.556-19.04-22.244-70.666l14.191.93z" fill="#000"/><path d="M529.377 286.843s28.734 46.115 8.054 69.735c0 0-40.556-19.04-22.245-70.665l14.191.93z" fill="#91CF66"/><path opacity=".05" d="M523.669 290.719s53.621 8.731 57.804 39.863c0 0-41.04 17.977-67.851-29.788l10.047-10.075z" fill="#000"/><path d="M525.343 289.938s53.621 8.731 57.804 39.862c0 0-41.041 17.977-67.852-29.787l10.048-10.075z" fill="#91CF66"/><path opacity=".05" d="M531.715 279.066s55.826-11.435 76.921 18.883c0 0-29.172 34.032-80.94-4.744l4.019-14.139z" fill="#000"/><path d="M532.966 277.448s55.826-11.435 76.921 18.884c0 0-29.172 34.031-80.94-4.745l4.019-14.139zm-21.346-.923s-46.091-28.755-37.928-59.081c0 0 44.801-.735 51.08 53.665l-13.152 5.416z" fill="#91CF66"/><path opacity=".05" d="M511.62 276.525s-46.091-28.755-37.928-59.081c0 0 44.801-.735 51.08 53.665l-13.152 5.416z" fill="#000"/><path d="M502.778 291.939s-53.27 10.684-68.141-16.985c0 0 32.057-31.264 73.997 4.026l-5.856 12.959z" fill="#91CF66"/><path opacity=".05" d="M502.778 291.939s-53.27 10.684-68.141-16.985c0 0 32.057-31.264 73.997 4.026l-5.856 12.959z" fill="#000"/><path d="M512.848 297.16s-19.023 50.875-50.376 48.905c0 0-9.633-43.77 42.456-60.723l7.92 11.818z" fill="#91CF66"/><path opacity=".05" d="M512.848 297.16s-19.023 50.875-50.376 48.905c0 0-9.633-43.77 42.456-60.723l7.92 11.818z" fill="#000"/><path d="M529.377 286.843s28.734 46.115 8.054 69.735c0 0-40.556-19.04-22.245-70.665l14.191.93z" fill="#91CF66"/><path opacity=".05" d="M529.377 286.843s28.734 46.115 8.054 69.735c0 0-40.556-19.04-22.245-70.665l14.191.93z" fill="#000"/><path d="M532.966 277.448s55.826-11.435 76.921 18.884c0 0-29.172 34.031-80.94-4.745l4.019-14.139z" fill="#91CF66"/><path opacity=".05" d="M532.966 277.448s55.826-11.435 76.921 18.884c0 0-29.172 34.031-80.94-4.745l4.019-14.139z" fill="#000"/><path opacity=".05" d="M534.475 268.108s52.44-22.315 79.134 3.204c0 0-21.815 39.151-80.26 11.451l1.126-14.655z" fill="#000"/><path opacity=".05" d="M533.349 263.543s52.433-22.323 79.134 3.205c0 0-21.815 39.151-80.26 11.45l1.126-14.655z" fill="#000"/><path d="M534.53 266.044s52.432-22.307 79.141 3.213c0 0-21.814 39.15-80.259 11.45l1.118-14.663z" fill="#91CF66"/><path d="M553.537 273.376a33.505 33.505 0 0 1-14.319 34.367 33.519 33.519 0 0 1-18.631 5.611 33.519 33.519 0 0 1-30.928-20.738 33.498 33.498 0 0 1 7.327-36.501 33.519 33.519 0 0 1 42.333-4.093 33.518 33.518 0 0 1 14.218 21.354z" fill="#F7931A"/><path d="M710.225 97.646c21.479 0 38.891-17.406 38.891-38.877 0-21.471-17.412-38.877-38.891-38.877s-38.891 17.406-38.891 38.877c0 21.471 17.412 38.877 38.891 38.877z" fill="#FFDF9C"/><path d="M75.756 372.656l3.651 10.395-2.807 17.453s-4.237 13.921-3.815 20.674c.422 6.753 0 16.031 0 16.031s-10.165 18.563-1.697 26.16c1.97 1.767 3.62 1.407 4.989-.172a43.863 43.863 0 0 0 4.253 2.064l-7.107 27.637-6.787 13.499s-14.418 12.232-19.93 37.97c0 0-5.473 17.149-9 22.261-.16.239-.335.469-.523.687a28.854 28.854 0 0 1-1.502-2.704l-6.364 16.875s12.721 7.175 21.627 10.161c8.905 2.986 19.085-.422 22.049-4.221 2.963-3.798-5.935-8.019-12.3-10.544-3.088-1.227-4.769-4.142-5.691-6.823a38.403 38.403 0 0 1-.18-2.759c-.133-4.792.602-11.255 4.597-16.156 7.21-8.864 18.234-30.796 18.234-30.796s11.032-11.817 13.573-16.507l15.27-25.481c8.468 9.622 16.967 32.257 16.967 32.257l3.393 20.674s11.025 29.529 14.418 32.484c.094.086.188.172.281.273l.086.094.204.235.086.101.265.352.063.094.203.304.094.157.18.305.086.14.242.446.086.164.165.336.093.195.172.368.071.156.219.516.086.203.148.375.086.211.188.485.047.125.195.539.071.204.148.422.063.179.195.594v.079l.164.523.055.18.149.477v.125l.172.594v.117l.133.469.047.172.125.446v.125l.133.508.062.242.063.242.078.297v.078c.101.391.187.782.266 1.095l.101.422.047.195v.055a15.832 15.832 0 0 1-1.767-1.36 48.17 48.17 0 0 1 0 8.441c-.422 4.221 3.816 10.161 3.816 10.161s38.163-9.285 40.282-15.632c2.119-6.347-6.787-5.471-9.328-4.643-2.541.829-15.262-1.688-16.959-4.643a8.125 8.125 0 0 0-1.141-1.508 2.419 2.419 0 0 0-2.94-.485l-.094-.109-.109-.133-.079-.094-.132-.179a9.565 9.565 0 0 1-.282-.407l-.102-.156a14.144 14.144 0 0 1-.516-.868v-.062c-2.705-4.94-5.613-15.015-6.255-17.407v-.054l-.054-.196v-.273l-9.75-31.64c2.971-11.388 0-16.875 0-16.875l-5.513-25.738-3.127-11.654c.094-.102.141-.156.141-.156-2.534-7.09-4.527-22.128-5.763-33.75-.078-.756-.156-1.493-.234-2.212l9.382 4.322s12.721 19.407 20.782 10.161c8.062-9.246-16.114-17.297-16.114-17.297l-15.231-10.169v-.445l-1.697-12.655s-4.691-15.186-2.541-25.316c1.806-8.598-4.081-11.724-5.864-12.506a5.83 5.83 0 0 0-.86-.258c-2.345-.547-4.918-2.915-7.123-5.471a27.924 27.924 0 0 0-6.607-5.541 6.498 6.498 0 0 0 2.776-4.112c.352-1.946-.313-3.908-.915-5.791a51.652 51.652 0 0 1 3.003-6.152h.07l.516-.852a18.39 18.39 0 0 0 11.6-6.018 18.377 18.377 0 0 0 4.671-12.201 18.19 18.19 0 0 0-2.299-8.793c1.9-.657 3.722-1.493 3.034-3.439-.461-1.321-1.705-2.181-2.666-3.189-2.557-2.689-3.331-6.722-6.005-9.286a9.135 9.135 0 0 0-2.643-1.75c-2.713-1.564-6.192-1.736-9.328-1.157-3.909.711-7.506 2.423-11.298 3.517-3.338.969-6.826 1.462-10.016 2.822-5.473 2.344-9.648 7.034-12.166 12.373-2.22 4.689-3.26 9.949-5.692 14.561-2.431 4.611-6.896 8.777-12.134 8.598-1.353-.047-2.76-.376-4.027.101a4.913 4.913 0 0 0-2.346 2.134c-2.877 4.69-1.024 10.982-3.315 15.976-1.697 3.713-5.364 6.058-8.366 8.84-3.002 2.783-5.59 6.933-4.167 10.755a7.818 7.818 0 0 0 4.34 4.26c.98.534 2.038.916 3.134 1.133 2.847.579 5.794.227 8.687 0 7.819-.555 16.42-.258 22.674-5.033 2.565-1.97 4.543-4.69 6.592-7.246a54.149 54.149 0 0 0 1.329 11.623zm11.29 26.527a98.817 98.817 0 0 0 1.955 3.127c6.255 9.567-2.22 22.666-2.22 22.666a22.947 22.947 0 0 0-4.903 5.573c.11-4.025.579-8.597 1.94-11.904 2.11-5.103 2.931-14.475 3.236-19.462h-.008z" fill="url(#paint1_linear)"/><path d="M80.674 380.855l-3.315 20.595s-4.144 13.6-3.73 20.189c.415 6.589 0 15.632 0 15.632s-9.937 18.134-1.657 25.551c8.28 7.418 10.766-23.487 10.766-23.487s-1.243-13.186 1.658-20.189c2.9-7.003 3.315-22.253 3.315-22.253l-7.037-16.038z" fill="#FFCDD3"/><path opacity=".05" d="M80.674 380.855l-3.315 20.595s-4.144 13.6-3.73 20.189c.415 6.589 0 15.632 0 15.632s-9.937 18.134-1.657 25.551c8.28 7.418 10.766-23.487 10.766-23.487s-1.243-13.186 1.658-20.189c2.9-7.003 3.315-22.253 3.315-22.253l-7.037-16.038z" fill="#000"/><path d="M129.205 451.7l5.731 21.455 5.387 25.136s2.901 5.354 0 16.485l9.524 30.904s5.387 19.783 8.694 20.189c3.307.407-3.315 15.633-3.315 15.633l-9.109-5.354s-2.525-12.334-5.801-15.25c-3.277-2.915-14.074-31.733-14.074-31.733l-3.315-20.189s-10.352-27.606-19.469-34.203c-9.117-6.597-12.01-17.305-12.01-17.305l37.757-5.768z" fill="#FFCDD3"/><path opacity=".05" d="M91.44 457.499s2.901 10.716 12.01 17.305 19.469 34.203 19.469 34.203l3.315 20.189S137 558.038 140.308 560.93c2.431 2.118 4.417 9.379 5.301 13.037.32 1.336.5 2.212.5 2.212l9.109 5.354s6.63-15.249 3.315-15.632c-.516-.063-1.079-.594-1.665-1.446-3.19-4.627-7.037-18.759-7.037-18.759l-9.515-30.913c2.9-11.122 0-16.484 0-16.484l-5.388-25.136-5.731-21.455-37.757 5.791z" fill="#000"/><path d="M38.43 564.635l3.314 7.816 14.91-1.65a34.2 34.2 0 0 1-.781-6.471c-.133-4.69.586-10.99 4.488-15.781 7.037-8.652 17.811-30.084 17.811-30.084s10.766-11.537 13.292-16.07l20.735-34.602-.649-3.126 5.591-5.151H82.347l-8.28 32.14-6.63 13.185s-14.074 11.951-19.469 37.088c0 0-5.371 16.75-8.796 21.744a6.026 6.026 0 0 1-.743.962z" fill="#FFCDD3"/><path opacity=".1" d="M145.617 573.959c.32 1.337.5 2.212.5 2.212l9.109 5.354s6.63-15.249 3.315-15.632c-.516-.063-1.079-.594-1.665-1.446a2.349 2.349 0 0 0-1.064 2.563c.131.616.353 1.209.657 1.759 1.243 2.064-4.144 5.354-4.144 5.354-1.814 2.314-4.754 1.087-6.708-.164z" fill="#000"/><path d="M156.227 567.824a2.403 2.403 0 0 1 1.213-2.657 2.405 2.405 0 0 1 2.884.468 7.95 7.95 0 0 1 1.11 1.477c1.658 2.884 14.074 5.354 16.568 4.534 2.494-.821 11.181-1.65 9.109 4.533-2.072 6.182-39.344 15.249-39.344 15.249s-4.144-5.768-3.73-9.887a47.023 47.023 0 0 0 0-8.238s5.81 5.346 8.703 1.664c0 0 5.387-3.298 4.144-5.354a6.351 6.351 0 0 1-.657-1.789z" fill="#DCE6F2"/><path opacity=".1" d="M38.43 564.634l3.314 7.817 14.91-1.65a34.2 34.2 0 0 1-.781-6.471 2.034 2.034 0 0 0-1.537-1.11 2.055 2.055 0 0 0-1.786.633c-.782.821-1.564 1.696-2.127 2.407-1.657 2.064-7.037.821-7.037.821-1.4.461-3.049-1.563-4.238-3.392a5.98 5.98 0 0 1-.719.945z" fill="#000"/><path d="M52.112 564.697a2.043 2.043 0 0 1 2.92-.072c.26.254.448.573.544.924.782 2.931 2.408 6.714 6.005 8.152 6.216 2.47 14.91 6.597 12.01 10.302-2.901 3.705-12.84 7.034-21.541 4.119-8.703-2.915-21.111-9.887-21.111-9.887l6.216-16.485s3.315 7.035 5.801 6.183c0 0 5.387 1.235 7.037-.821.61-.742 1.384-1.586 2.12-2.415z" fill="#DCE6F2"/><path d="M108.407 333.052s-9.938 13.6-7.459 23.073c2.479 9.473-19.883-6.183-19.883-6.183a32.828 32.828 0 0 0 9.523-27.2l17.819 10.31z" fill="#FFCDD3"/><path d="M75.701 462.033c16.568 9.887 36.451 5.768 36.451 5.768l-.414-2.884.86.086c15.833 1.391 19.43-3.377 19.43-3.377-2.479-6.925-4.418-21.611-5.63-32.968a859.436 859.436 0 0 1-.477-4.69 497.175 497.175 0 0 1-.727-7.98c-.133-1.657-.203-2.61-.203-2.61l-1.658-12.366s-4.558-14.85-2.486-24.722c1.767-8.426-3.98-11.466-5.724-12.185a5.49 5.49 0 0 0-.844-.25c-2.275-.54-4.801-2.845-6.951-5.323a27.926 27.926 0 0 0-11.619-7.886c-2.08-.782-3.854-1.564-3.854-1.564-2.901-3.298-10.767-1.235-10.767-1.235-9.523 6.183-4.558 26.372-4.558 26.372l3.956 11.255a83.464 83.464 0 0 0 8.976 17.711c6.091 9.38-2.173 22.128-2.173 22.128-12.831 10.34-11.588 36.72-11.588 36.72z" fill="#FF8AA1"/><path opacity=".05" d="M111.12 442.875l1.486 22.128c15.833 1.391 19.429-3.377 19.429-3.377-2.478-6.925-4.417-21.611-5.629-32.968a770.462 770.462 0 0 1-.477-4.69l-14.809 18.907z" fill="#000"/><path opacity=".1" d="M84.818 384.974s7.46 14.014 9.938 20.189c2.478 6.175 2.486 4.119 3.73 6.182 1.242 2.064 14.495 11.123 14.495 11.123l13.409 6.182c-.57-5.323-.977-9.918-1.204-12.631l-12.635-8.378s-8.694-5.354-9.109-12.366c-.414-7.011-5.801-19.782-5.801-19.782s-10.767-11.537-15.325-6.183c-4.558 5.354 2.502 15.664 2.502 15.664z" fill="#000"/><path d="M97.656 373.437s5.388 12.772 5.802 19.783c.414 7.011 9.109 12.365 9.109 12.365l27.366 18.133s23.604 7.816 15.739 16.899c-7.866 9.082-20.329-9.888-20.329-9.888l-22.37-10.301s-13.291-9.067-14.495-11.123c-1.205-2.055-1.244 0-3.73-6.182-2.486-6.183-9.938-20.189-9.938-20.189s-7.037-10.302-2.486-15.632c4.55-5.331 15.332 6.135 15.332 6.135z" fill="#FFCDD3"/><path opacity=".1" d="M100.972 378.784s-8.28-6.183-9.938-8.239c-.735-.906-1.869-.781-2.909-.344a13.107 13.107 0 0 1-6.153 1.009c-1.814-.157-3.573-.055-3.362.977.414 2.063-1.243-10.716-1.243-10.716l7.037-2.47 9.148 4.932 7.42 14.851z" fill="#000"/><path d="M100.972 378.002s-8.28-6.183-9.938-8.238c-.735-.907-1.869-.782-2.909-.344a13.107 13.107 0 0 1-6.153 1.008c-1.814-.156-3.573-.055-3.362.977.414 2.063-1.243-10.716-1.243-10.716l7.037-2.47 9.148 4.932 7.42 14.851z" fill="#FF8AA1"/><path opacity=".1" d="M120.471 378.783a10.206 10.206 0 0 1-9.382-.617M93.31 323.782c.312-2.463-2.753 2.649-3.128-.204l17.811 10.302s-1.017 1.391-2.346 3.595c-.675.077-1.353.116-2.033.118-5.309-.008-7.005-10.122-10.305-13.811z" fill="#000"/><path d="M104.075 336.756c9.95 0 18.015-8.024 18.015-17.922 0-9.898-8.065-17.922-18.015-17.922-9.949 0-18.014 8.024-18.014 17.922 0 9.898 8.065 17.922 18.014 17.922z" fill="#FFCDD3"/><path opacity=".1" d="M112.16 319.147a9.157 9.157 0 0 1-.649 3.314c-.782 1.399-2.345 2.032-3.737 2.868-5.473 3.377-7.139 10.943-5.38 17.157.618 2.188 1.564 4.416 1.197 6.651-.696 3.846-5.106 5.847-9.023 6.183-3.917.336-8.014-.29-11.681 1.133-6.154 2.384-8.859 9.567-14.074 13.577-6.083 4.689-14.457 4.377-22.12 4.916-2.83.203-5.707.539-8.49 0-2.784-.539-5.528-2.236-6.514-4.885-1.384-3.736 1.142-7.816 4.074-10.505 2.932-2.689 6.513-5.002 8.17-8.598 2.237-4.877.43-11.036 3.238-15.632a4.804 4.804 0 0 1 2.283-2.087c1.235-.461 2.611-.141 3.909-.094 5.114.172 9.476-3.908 11.853-8.394 2.377-4.487 3.386-9.614 5.56-14.225 2.455-5.222 6.552-9.825 11.884-12.084 3.127-1.329 6.529-1.813 9.781-2.759 3.706-1.071 7.24-2.744 11.032-3.439 3.793-.696 8.093-.235 10.861 2.431 2.611 2.509 3.37 6.448 5.864 9.074.946.993 2.15 1.829 2.611 3.126 1.079 3.049-4.144 3.307-5.879 4.534a11.366 11.366 0 0 0-4.77 7.738z" fill="#000"/><path d="M111.332 318.732a9.149 9.149 0 0 1-.649 3.314c-.782 1.4-2.346 2.033-3.738 2.869-5.473 3.376-7.138 10.942-5.379 17.156.618 2.189 1.564 4.416 1.196 6.652-.696 3.845-5.106 5.846-9.023 6.182-3.917.336-8.014-.289-11.68 1.134-6.154 2.384-8.86 9.567-14.075 13.576-6.083 4.69-14.457 4.377-22.119 4.917-2.83.203-5.708.539-8.491 0-2.784-.54-5.528-2.236-6.513-4.886-1.384-3.736 1.141-7.816 4.073-10.504 2.932-2.689 6.513-5.003 8.171-8.598 2.236-4.877.43-11.036 3.237-15.632a4.8 4.8 0 0 1 2.283-2.087c1.235-.461 2.611-.141 3.91-.094 5.113.172 9.476-3.908 11.853-8.394 2.377-4.487 3.385-9.614 5.559-14.226 2.455-5.221 6.552-9.825 11.884-12.083 3.128-1.329 6.529-1.814 9.782-2.759 3.706-1.071 7.24-2.744 11.032-3.44 3.792-.695 8.092-.234 10.86 2.431 2.612 2.509 3.37 6.449 5.864 9.075.946.992 2.15 1.829 2.612 3.126 1.079 3.048-4.144 3.306-5.88 4.533a11.383 11.383 0 0 0-4.769 7.738zm53.714-62.661c2.69 9.746 12.017 15.671 12.017 15.671s4.981-9.872 2.291-19.618c-2.689-9.747-12.017-15.672-12.017-15.672s-4.981 9.903-2.291 19.619zm50.283 54.298c-2.893 9.684 1.876 19.658 1.876 19.658s9.453-5.73 12.346-15.414c2.893-9.684-1.876-19.657-1.876-19.657s-9.453 5.729-12.346 15.413zm362.681 62.302c-7.099 7.199-7.561 18.243-7.561 18.243s11.04-.625 18.14-7.816c7.099-7.191 7.56-18.243 7.56-18.243s-11.04.641-18.139 7.816z" fill="#91CF66"/><g clip-path="url(#clip1)"><path d="M533.94 150.077L529 124.55l17.672-3.42.706 3.647 2.945-.57 2.117 10.94-2.945.57.706 3.646-11.782 2.28 1.412 7.294-5.891 1.14zm3.774-12.08l8.836-1.71-2.118-10.94-8.836 1.71 2.118 10.94zm25.68 6.38l-.706-3.647-2.945.57-.706-3.647-2.946.57-2.117-10.94 2.946-.57-.706-3.646 2.945-.57-.705-3.647 11.781-2.28.706 3.647 2.945-.57.706 3.646-5.891 1.14-.706-3.646-5.89 1.14.705 3.646-2.945.57 2.117 10.94 2.945-.57.706 3.647 5.891-1.14-.706-3.647 5.891-1.14.706 3.647-2.946.57.706 3.646-11.781 2.281z" fill="#fff"/></g><g clip-path="url(#clip2)"><path d="M142.307 99.229L141 73.26l17.977-.904.187 3.71 2.996-.151.56 11.129-2.996.15.187 3.71-11.985.603.373 7.42-5.992.3zm5.432-11.43l8.989-.453-.56-11.129-8.989.453.56 11.128zm24.53 9.922l-.187-3.71-2.996.151-.187-3.71-2.996.151-.56-11.128 2.996-.151-.186-3.71 2.996-.15-.187-3.71 11.985-.603.187 3.71 2.996-.151.186 3.71-5.992.3-.187-3.709-5.992.302.187 3.71-2.997.15.56 11.129 2.997-.15.186 3.709 5.993-.302-.187-3.71 5.992-.301.187 3.71-2.996.15.187 3.71-11.985.603z" fill="#fff"/></g><g clip-path="url(#clip3)"><path d="M342 227.067L348.902 202l17.354 4.779-.986 3.581 2.893.796-2.958 10.743-2.893-.796-.986 3.581-11.569-3.186-1.972 7.162-5.785-1.593zm8.743-9.15l8.677 2.389 2.958-10.743-8.677-2.389-2.958 10.743zm20.181 17.114l.986-3.581-2.893-.796.986-3.581-2.892-.797 2.958-10.743 2.892.797.986-3.581 2.893.796.986-3.581 11.569 3.186-.986 3.581 2.893.796-.986 3.581-5.785-1.592.986-3.582-5.785-1.592-.986 3.581-2.892-.797-2.958 10.743 2.892.797-.986 3.581 5.785 1.593.986-3.581 5.784 1.592-.986 3.581-2.892-.796-.986 3.581-11.569-3.186z" fill="#fff"/></g><g clip-path="url(#clip4)"><path d="M499.47 295.158L497 269.276l17.919-1.711.352 3.698 2.987-.285 1.059 11.092-2.987.285.353 3.698-11.946 1.14.706 7.395-5.973.57zm4.914-11.663l8.96-.855-1.059-11.092-8.959.855 1.058 11.092zm24.951 8.813l-.353-3.698-2.987.285-.353-3.697-2.986.285-1.059-11.093 2.987-.285-.353-3.697 2.986-.285-.353-3.698 11.946-1.14.353 3.698 2.986-.285.353 3.697-5.973.57-.353-3.697-5.972.57.353 3.697-2.987.285 1.059 11.093 2.986-.285.353 3.697 5.973-.57-.353-3.697 5.973-.57.353 3.697-2.987.285.353 3.698-11.945 1.14z" fill="#fff"/></g></g><defs><linearGradient id="paint0_linear" x1="358.975" y1="575.866" x2="358.975" gradientUnits="userSpaceOnUse"><stop stop-color="gray" stop-opacity=".25"/><stop offset=".54" stop-color="gray" stop-opacity=".12"/><stop offset="1" stop-color="gray" stop-opacity=".1"/></linearGradient><linearGradient id="paint1_linear" x1="-217499" y1="255366" x2="-217499" y2="134721" gradientUnits="userSpaceOnUse"><stop stop-color="gray" stop-opacity=".25"/><stop offset=".54" stop-color="gray" stop-opacity=".12"/><stop offset="1" stop-color="gray" stop-opacity=".1"/></linearGradient><clipPath id="clip0"><path fill="#fff" d="M0 0h761v595H0z"/></clipPath><clipPath id="clip1"><path fill="#fff" transform="rotate(-10.953 914.043 -2696.522)" d="M0 0h45v26H0z"/></clipPath><clipPath id="clip2"><path fill="#fff" transform="rotate(-2.881 1527.4 -2767.339)" d="M0 0h45v26H0z"/></clipPath><clipPath id="clip3"><path fill="#fff" transform="rotate(15.395 -572.802 1391.683)" d="M0 0h45v26H0z"/></clipPath><clipPath id="clip4"><path fill="#fff" transform="rotate(-5.452 3076.216 -5084.449)" d="M0 0h45v26H0z"/></clipPath></defs></svg>