<svg width="542" height="428" fill="none" xmlns="http://www.w3.org/2000/svg"><path d="M137.752 49.407c-6.799 3.538-13.609 7.993-17.069 14.83-2.544 5.031-3.008 10.8-3.428 16.412l-5.032 67.002c-1.118 14.931-2.342 30.275-8.861 43.758-11.233 23.227-35.688 36.48-54.049 54.603-30.085 29.7-43 79.764-20.407 115.495a74.995 74.995 0 0 0 43.224 31.935c10.478 2.851 21.425 3.354 32.272 3.841a5256.708 5256.708 0 0 0 272.747 4.74c10.802-.095 21.9-.279 31.869-4.382 13.771-5.663 23.667-18.129 30.483-31.366 6.815-13.237 11.182-27.609 17.628-41.025 13.195-27.391 34.665-49.717 53.372-73.659 10.316-13.192 19.971-27.173 25.764-42.881 9.208-24.965 7.598-54.329-6.793-76.717-6.218-9.676-14.683-18.055-18.915-28.749-5.91-14.953-2.611-31.7-1.202-47.716 1.409-16.015-.134-34.3-12.462-44.625-6.805-5.696-15.817-7.943-24.601-9.23-42.05-6.148-84.285 6.021-125.983 14.227-36.795 7.267-74.098 11.426-111.424 14.741-33.132 2.952-66.897 3.03-97.133 18.766z" fill="#91CF66"/><path d="M123.512 361.786s-16.276-55.245 3.053-95.907c8.112-17.066 10.807-36.223 7.055-54.743a146.675 146.675 0 0 0-7.749-25.714" stroke="#535461" stroke-width="2" stroke-miterlimit="10"/><path d="M137.892 159.753c0 6.77-12.261 26.402-12.261 26.402s-12.261-19.632-12.261-26.402a12.262 12.262 0 0 1 24.522 0zm20.267 37.481c-3.678 5.685-24.645 15.501-24.645 15.501s.38-23.142 4.059-28.827a12.257 12.257 0 0 1 12.512-5.395 12.267 12.267 0 0 1 9.772 9.492 12.248 12.248 0 0 1-1.698 9.229zm-.883 64.106c-6.044 3.046-29.073.945-29.073.945s11.976-19.772 18.031-22.836a12.26 12.26 0 0 1 17.091 14.779 12.255 12.255 0 0 1-6.049 7.112zm-11.59 48.337c-5.446 4.024-28.515 5.847-28.515 5.847s8.499-21.533 13.939-25.558a12.275 12.275 0 0 1 9.15-2.364 12.245 12.245 0 0 1 8.114 4.844 12.264 12.264 0 0 1 2.258 9.176 12.27 12.27 0 0 1-4.941 8.055h-.005zm-37.936-95.611c4.859 4.717 27.486 9.603 27.486 9.603s-5.541-22.472-10.399-27.19a12.262 12.262 0 0 0-20.757 8.984 12.259 12.259 0 0 0 3.67 8.603zM94.93 270.77c6.044 3.047 29.074.945 29.074.945s-12.015-19.789-18.059-22.835a12.275 12.275 0 0 0-9.4-.76 12.271 12.271 0 0 0-7.16 6.139 12.257 12.257 0 0 0 5.517 16.511h.028zm-4.914 56.828c5.446 4.025 28.514 5.847 28.514 5.847s-8.498-21.532-13.938-25.557a12.26 12.26 0 0 0-14.582 19.71h.006z" fill="#91CF66"/><path opacity=".25" d="M137.892 159.753c0 6.77-12.261 26.402-12.261 26.402s-12.261-19.632-12.261-26.402a12.262 12.262 0 0 1 24.522 0zm20.267 37.481c-3.678 5.685-24.645 15.501-24.645 15.501s.38-23.142 4.059-28.827a12.257 12.257 0 0 1 12.512-5.395 12.267 12.267 0 0 1 9.772 9.492 12.248 12.248 0 0 1-1.698 9.229zm-.883 64.106c-6.044 3.046-29.073.945-29.073.945s11.976-19.772 18.031-22.836a12.26 12.26 0 0 1 17.091 14.779 12.255 12.255 0 0 1-6.049 7.112zm-11.59 48.337c-5.446 4.024-28.515 5.847-28.515 5.847s8.499-21.533 13.939-25.558a12.275 12.275 0 0 1 9.15-2.364 12.245 12.245 0 0 1 8.114 4.844 12.264 12.264 0 0 1 2.258 9.176 12.27 12.27 0 0 1-4.941 8.055h-.005zm-37.936-95.611c4.859 4.717 27.486 9.603 27.486 9.603s-5.541-22.472-10.399-27.19a12.262 12.262 0 0 0-20.757 8.984 12.259 12.259 0 0 0 3.67 8.603zM94.93 270.77c6.044 3.047 29.074.945 29.074.945s-12.015-19.789-18.059-22.835a12.275 12.275 0 0 0-9.4-.76 12.271 12.271 0 0 0-7.16 6.139 12.257 12.257 0 0 0 5.517 16.511h.028zm-4.914 56.828c5.446 4.025 28.514 5.847 28.514 5.847s-8.498-21.532-13.938-25.557a12.26 12.26 0 0 0-14.582 19.71h.006z" fill="#000"/><path d="M435.704 332.081s-16.275-55.24 3.036-95.902c8.113-17.066 10.808-36.223 7.056-54.742a146.624 146.624 0 0 0-7.749-25.714" stroke="#535461" stroke-width="2" stroke-miterlimit="10"/><path d="M450.084 130.048c0 6.769-12.261 26.401-12.261 26.401s-12.261-19.632-12.261-26.401a12.259 12.259 0 0 1 12.261-12.259 12.262 12.262 0 0 1 12.261 12.259zm20.268 37.503c-3.679 5.685-24.645 15.501-24.645 15.501s.38-23.142 4.059-28.827a12.24 12.24 0 0 1 3.334-3.431 12.251 12.251 0 0 1 9.177-1.964 12.252 12.252 0 0 1 7.878 5.1 12.259 12.259 0 0 1 .197 13.621zm-.861 64.084c-6.044 3.046-29.074.944-29.074.944s12.016-19.788 18.06-22.835a12.25 12.25 0 0 1 4.667-1.436 12.253 12.253 0 0 1 9.136 2.853 12.259 12.259 0 0 1-2.789 20.474zm-11.613 48.331c-5.446 4.025-28.514 5.847-28.514 5.847s8.498-21.533 13.938-25.558a12.261 12.261 0 0 1 13.753-.829 12.265 12.265 0 0 1 5.647 7.636 12.256 12.256 0 0 1-4.824 12.904zm-37.918-95.589c4.858 4.718 27.485 9.603 27.485 9.603s-5.541-22.46-10.382-27.206a12.268 12.268 0 0 0-8.73-3.468 12.27 12.27 0 0 0-8.373 21.071zm-12.837 56.688c6.044 3.047 29.073.945 29.073.945s-11.992-19.789-18.031-22.835a12.27 12.27 0 0 0-9.4-.76 12.255 12.255 0 0 0-8.44 10.773 12.257 12.257 0 0 0 6.798 11.877zm-4.915 56.828c5.446 4.025 28.515 5.847 28.515 5.847s-8.499-21.533-13.939-25.557a12.264 12.264 0 0 0-9.061-2.173 12.265 12.265 0 0 0-10.25 13.857 12.258 12.258 0 0 0 4.73 8.026h.005z" fill="#91CF66"/><path opacity=".25" d="M450.084 130.048c0 6.769-12.261 26.401-12.261 26.401s-12.261-19.632-12.261-26.401a12.259 12.259 0 0 1 12.261-12.259 12.262 12.262 0 0 1 12.261 12.259zm20.268 37.503c-3.679 5.685-24.645 15.501-24.645 15.501s.38-23.142 4.059-28.827a12.24 12.24 0 0 1 3.334-3.431 12.251 12.251 0 0 1 9.177-1.964 12.252 12.252 0 0 1 7.878 5.1 12.259 12.259 0 0 1 .197 13.621zm-.861 64.084c-6.044 3.046-29.074.944-29.074.944s12.016-19.788 18.06-22.835a12.25 12.25 0 0 1 4.667-1.436 12.253 12.253 0 0 1 9.136 2.853 12.259 12.259 0 0 1-2.789 20.474zm-11.613 48.331c-5.446 4.025-28.514 5.847-28.514 5.847s8.498-21.533 13.938-25.558a12.261 12.261 0 0 1 13.753-.829 12.265 12.265 0 0 1 5.647 7.636 12.256 12.256 0 0 1-4.824 12.904zm-37.918-95.589c4.858 4.718 27.485 9.603 27.485 9.603s-5.541-22.46-10.382-27.206a12.268 12.268 0 0 0-8.73-3.468 12.27 12.27 0 0 0-8.373 21.071zm-12.837 56.688c6.044 3.047 29.073.945 29.073.945s-11.992-19.789-18.031-22.835a12.27 12.27 0 0 0-9.4-.76 12.255 12.255 0 0 0-8.44 10.773 12.257 12.257 0 0 0 6.798 11.877zm-4.915 56.828c5.446 4.025 28.515 5.847 28.515 5.847s-8.499-21.533-13.939-25.557a12.264 12.264 0 0 0-9.061-2.173 12.265 12.265 0 0 0-10.25 13.857 12.258 12.258 0 0 0 4.73 8.026h.005z" fill="#000"/><path opacity=".1" d="M.48 428c6.207-2.236.761-.414-.313-.056.1.039.207.058.314.056zm-.312-.062l-.168-.05V428l.168-.062z" fill="#0FF"/><path d="M426.037 358.047c0-.067 0-.14.039-.213.039-.072 0-.039 0-.056a2.443 2.443 0 0 0 0-.419s-.749-1.437-1.621-3.41c-1.191-2.711-2.606-6.439-2.606-8.882 0 0-13.066-45.715-21.9-50.707 0 0-7.268-12.941-7.19-20.225a41.26 41.26 0 0 0-.559-6.948c-1.291-8.033-3.444-23.411-1.476-26.223 2.499-3.572 6.665-19.112-3.282-30.845l1.744-.269s-.095-.117-.251-.346l.251-.039s-3.846-4.618-3.846-14.819c.056-5.875 1.381-13.55 5.384-23.215a74.95 74.95 0 0 0 1.454-3.807 19.154 19.154 0 0 0 5.032-3.623l.179-.184.206-.196c3.674-3.689 5.899-8.586 7.448-13.555a64.566 64.566 0 0 0 2.711-14.048c.414-5.182.196-10.386 0-15.579-.251-6.06-.559-12.298-2.985-17.827-.956-2.163-2.237-4.21-2.824-6.501a37.932 37.932 0 0 1-.676-4.768c-.8-6.278-3.774-12.365-8.65-16.396-4.875-4.03-11.69-5.824-17.79-4.136-3.489.967-6.603 2.968-9.505 5.16a32.107 32.107 0 0 0-3.511 3.068c-3.506 3.438-6.15 7.944-3.612 12.678.186.343.386.679.598 1.007a17.285 17.285 0 0 0 8.146 25.194l.453.793h.051c1.325 2.449 2.767 5.506 3.147 7.826a24.182 24.182 0 0 0-4.473 4.131c-4.523 5.395-7 9.056-8.353 11.443a40.737 40.737 0 0 1-4.433 6.233c-2.052 2.426-4.473 7.161-4.473 15.97v2.007c-10.83 11.79-53.065 3.147-53.065 3.147-5.087-1.978-11.008.408-13.782 1.812a1.667 1.667 0 0 0-.898 1.148 1.667 1.667 0 0 0 .339 1.417c4.473 5.389 15.476 2.158 15.476 2.158s39.574 6.915 42.649 9.218c2.091 1.571 5.787.291 7.933-.688l-.441.498.559-.274-3.042 27.352h.045l-.045.386s.705-.062 1.829-.14l.939 2.431h-.078l.972 2.304.8 1.895c-2.387 8.63-12.01 44.16-10.998 52.271 0 0-6.15 14.596-3.841 22.668 0 0-8.453 60.696-13.832 63.77l.755.341c-5.742 3.282-18.249 9.453-26.882 6.574 0 0-5.378 1.538 3.075 6.915 0 0 34.581 9.218 39.193 6.149l-.765-13.287.391.139c.056-.749.559-6.244 2.684-8.748 0 0 13.832-37.648 13.066-56.856l12.91-31.192c1.397 3.578 2.879 6.613 4.377 8.531l5.379 13.829 8.839 11.527s27.665 43.792 25.719 56.855l.649.163c-2.589 4.606-9.03 14.047-18.328 14.047 0 0-8.068 8.452 6.916 7.301 0 0 18.825-1.152 32.658-8.838l-4.982-13.097z" fill="url(#paint0_linear)"/><path d="M327.993 354.497s-17.785 11.856-28.9 8.15c0 0-5.189 1.482 2.963 6.669 0 0 33.351 8.894 37.795 5.926l-1.118-19.264-10.74-1.481zm83.742 0s-7.039 15.931-18.897 15.931c0 0-7.783 8.151 6.67 7.038 0 0 18.154-1.118 31.494-8.519l-6.379-16.624-12.888 2.174z" fill="#333"/><path d="M348.372 213.16l2.796 7.228 18.143-1.297-1.857-12.226-19.082 6.295z" fill="#FDB797"/><path d="M352.448 220.388s-12.227 43.367-11.115 52.238c0 0-5.926 14.076-3.707 21.857 0 0-8.151 58.533-13.34 61.49 0 0 15.096 6.831 15.56 6.669 5.188-1.851-.369 0-.369 0s.369-5.926 2.594-8.519c0 0 13.34-36.307 12.597-54.827l17.785-42.976-20.005-35.932z" fill="#252A62"/><path opacity=".1" d="M352.448 220.388s-12.227 43.367-11.115 52.238c0 0-5.926 14.076-3.707 21.857 0 0-8.151 58.533-13.34 61.49 0 0 15.096 6.831 15.56 6.669 5.188-1.851-.369 0-.369 0s.369-5.926 2.594-8.519c0 0 13.34-36.307 12.597-54.827l17.785-42.976-20.005-35.932z" fill="#000"/><path d="M350.229 218.163l8.151 19.263s6.301 31.488 12.971 40.007l5.189 13.338 8.526 11.119s26.681 42.232 24.825 54.826c0 0 16.672 4.472 16.303-1.118 0 0-4.076-7.781-4.076-11.856 0 0-12.597-44.083-21.123-48.901 0 0-7-12.483-6.933-19.504a39.677 39.677 0 0 0-.559-6.708c-1.247-7.748-3.321-22.572-1.42-25.283 2.594-3.707 7.039-20.745-5.557-32.232l-36.297 7.049z" fill="#252A62"/><path opacity=".1" d="M426.183 355.609s-4.076-7.781-4.076-11.856c0 0-12.597-44.083-21.123-48.901 0 0-7-12.483-6.933-19.504a39.694 39.694 0 0 0-.559-6.708c-1.247-7.747-3.321-22.572-1.42-25.283 2.594-3.706 7.039-20.745-5.558-32.232l-2.147.419c12.043 11.476 7.677 28.151 5.116 31.813-2.561 3.661 2.236 30.007 2.236 30.007-1.85 6.3 6.671 21.488 6.671 21.488 8.52 4.818 21.122 48.901 21.122 48.901 0 4.075 4.076 11.856 4.076 11.856.123 1.834-1.615 2.577-3.997 2.751 3.589.206 6.759-.297 6.592-2.751z" fill="#000"/><path d="M367.27 121.473s7.039 10.744 5.189 14.075l18.154-4.472s-4.82-5.187-3.707-17.781l-19.636 8.178z" fill="#FDB797"/><path opacity=".1" d="M393.206 129.254s-15.19-3.354-24.824 8.15c-4.361 5.199-6.748 8.732-8.056 11.035a39.378 39.378 0 0 1-4.272 6.009c-2.41 2.845-5.362 8.978-3.975 21.482l-4.473 40.008s12.971-1.118 16.303 0c3.333 1.118 26.681-2.594 26.681-2.594s-9.264-11.113 1.482-37.045c10.746-25.932 1.134-47.045 1.134-47.045z" fill="#000"/><path d="M393.206 128.885s-15.19-3.354-24.824 8.15c-4.361 5.199-6.748 8.732-8.056 11.035a39.378 39.378 0 0 1-4.272 6.009c-2.41 2.846-5.362 8.978-3.975 21.483l-4.473 40.007s12.971-1.118 16.303 0c3.333 1.118 26.681-2.594 26.681-2.594s-9.264-11.113 1.482-37.044c10.746-25.932 1.134-47.046 1.134-47.046z" fill="#F55F44"/><path opacity=".1" d="M374.868 163.135s-14.453 20.761-21.112 24.467l-3.707 1.851s23.337-26.318 24.819-26.318z" fill="#000"/><path d="M361.343 152.592s9.505-3.739 13.581 8.659a2.975 2.975 0 0 1-.638 2.946l-22.207 23.959s-6.301 3.706-9.264 1.481c-2.964-2.225-41.128-8.893-41.128-8.893s-10.595 3.113-14.923-2.08a1.609 1.609 0 0 1-.038-2.015c.149-.192.34-.348.558-.456 2.069-1.045 5.519-.441 9.589-.944a33.744 33.744 0 0 1 9.393.195c12.708 1.99 42.648 5.277 47.295-6.926 5.926-15.551 7.782-15.926 7.782-15.926z" fill="#FDB797"/><path opacity=".1" d="M361.159 152.777s11.484-1.851 14.078 9.631v-.743s-3.332-12.589-14.078-8.888zm26.143-38.711l-19.663 8.15s.889 1.353 1.945 3.248c1.918.772 4.568.274 6.76.274 4.473 0 7.744-1.179 10.746-4.075-.274-2.225-.084-4.528.212-7.597z" fill="#000"/><path d="M375.421 125.917c9.208 0 16.673-7.463 16.673-16.669 0-9.207-7.465-16.67-16.673-16.67-9.207 0-16.672 7.463-16.672 16.67 0 9.206 7.465 16.669 16.672 16.669z" fill="#FDB797"/><path opacity=".1" d="M375.45 106.995c.363 1.286-.705 2.476-1.476 3.566-2.701 3.818-2.203 9.017-.968 13.522.604 2.209 1.51 4.556 3.484 5.713 1.576.923 3.516.884 5.283 1.348 3.182.833 5.753 3.354 7.269 6.255 1.515 2.901 2.057 6.249 2.236 9.536a48.248 48.248 0 0 1-6.569 27.173c4.948.844 10.063-1.408 13.614-4.969 3.55-3.561 5.686-8.279 7.179-13.07a62.22 62.22 0 0 0 2.616-13.544c.397-4.998.19-10.017 0-15.026-.24-5.842-.52-11.84-2.879-17.189-.923-2.091-2.153-4.059-2.723-6.272a36.695 36.695 0 0 1-.654-4.595c-.772-6.054-3.64-11.924-8.342-15.814-4.702-3.89-11.272-5.59-17.153-3.986-3.355.934-6.363 2.862-9.147 4.975-4.507 3.427-9.678 8.944-6.497 14.814 2.768 5.137 8.884 8.48 14.727 7.563z" fill="#000"/><path d="M375.819 106.626c.363 1.285-.705 2.476-1.476 3.566-2.701 3.818-2.203 9.017-.967 13.522.603 2.208 1.509 4.556 3.483 5.713 1.576.923 3.517.884 5.283 1.348 3.182.832 5.754 3.354 7.269 6.255 1.515 2.901 2.057 6.249 2.236 9.536a48.237 48.237 0 0 1-6.581 27.19c4.949.844 10.064-1.409 13.615-4.97 3.55-3.56 5.686-8.278 7.179-13.069a62.231 62.231 0 0 0 2.616-13.544c.397-4.998.19-10.018 0-15.026-.24-5.842-.52-11.84-2.879-17.19-.923-2.09-2.153-4.058-2.723-6.272a36.676 36.676 0 0 1-.654-4.594c-.772-6.054-3.64-11.924-8.342-15.815-4.702-3.89-11.272-5.59-17.153-3.985-3.355.933-6.363 2.862-9.147 4.975-4.507 3.426-9.678 8.944-6.497 14.813 2.784 5.121 8.89 8.464 14.738 7.547z" fill="#72351C"/><path opacity=".1" d="M377.462 189.453s7.04 0 9.634-3.354l-9.634 3.354zm0 2.593s7.04 0 9.634-3.354l-9.634 3.354zm6.67-42.601s-1.118 8.894-5.188 12.969l5.188-12.969z" fill="#000"/><path opacity=".1" d="M223.485 371.429v-.089l-.134.044.134.045z" fill="url(#paint1_linear)"/><path opacity=".1" d="M223.094 371.429a.634.634 0 0 0 .251-.045c-.861-.302-5.216-1.733-.251.045z" fill="url(#paint2_linear)"/><path d="M278.697 175.187c-2.829-1.381-8.868-3.74-14.056-1.789 0 0-49.76 9.861-56.034-6.07-.294-.746-.579-1.463-.855-2.153.125-1.044.18-2.095.162-3.147a22.097 22.097 0 0 0-.274-3.862 13.5 13.5 0 0 0-2.108-5.221 33.911 33.911 0 0 1-3.013-6.546 24.772 24.772 0 0 0-14.218-14.534c.095-2.382 1.778-5.898 3.304-8.631h.05l.464-.783a17.08 17.08 0 0 0 11.004-15.814 16.603 16.603 0 0 0-2.846-9.29c5.261-.844 3.461-5.316.207-9.151a24.928 24.928 0 0 0-2.019-2.113 23.57 23.57 0 0 0-11.534-6.239 21.505 21.505 0 0 0-1.571-.268 21.808 21.808 0 0 0-18.965 2.32 9.774 9.774 0 0 0-9.315-6.524c-5.412 0-9.795 4.243-9.795 9.503s4.383 9.503 9.795 9.503h.56a19.91 19.91 0 0 0-.56 4.567c0 9.57 6.782 17.609 15.952 19.856l.162.151c0 .156-.028.318-.051.475l.04.034a22.105 22.105 0 0 1-2.617 8.016l-.347-.084c-7.229 5.031-9.845 12.661-9.784 20.61-.039 6.753 1.828 13.818 4.473 19.565a17.896 17.896 0 0 1 1.409 7.267c-.14 8.609-4.104 18.939-6.799 24.987-1.068 2.398-16.549 39.829-16.549 39.829l.352-.09-.352.85c3.388-.95 7.022-.514 10.108.319a16.547 16.547 0 0 0 12.67-1.789 16.52 16.52 0 0 0 2.107 5.076c2.008 2.795-.184 17.955-1.504 25.887a39.464 39.464 0 0 0-.559 6.864c.073 7.195-7.33 19.973-7.33 19.973-9.012 4.931-22.336 50.064-22.336 50.064 0 2.415-1.442 6.093-2.656 8.771a46.298 46.298 0 0 1-1.677 3.354 2.601 2.601 0 0 0 0 .414v.056c.01.071.023.142.039.212l-5.144 12.974c14.107 7.586 33.306 8.726 33.306 8.726 15.281 1.118 7.056-7.205 7.056-7.205-9.505 0-16.046-9.324-18.691-13.869l.666-.162c-1.957-12.896 26.278-56.135 26.278-56.135l9.012-11.381 5.485-13.712c1.527-1.89 3.042-4.886 4.473-8.419l13.161 30.779c-.782 18.967 13.324 56.134 13.324 56.134 2.186 2.471 2.678 7.899 2.734 8.637l.397-.134-.783 13.119c4.702 3.036 39.97-6.07 39.97-6.07 8.622-5.311 3.137-6.826 3.137-6.826-8.8 2.84-21.559-3.253-27.396-6.49l.766-.335c-5.485-3.035-14.106-62.96-14.106-62.96 2.353-7.966-3.914-22.36-3.914-22.36.716-5.534-3.791-24.121-7.425-37.833a74.945 74.945 0 0 0 13.894-1.42c-.291-.184-.559-.38-.856-.559.559-.106.856-.173.856-.173-12.11-7.742-19.01-33.892-21.99-48.706a15.68 15.68 0 0 0 2.399 1.677l3.913 1.895-.447-.486c2.186.967 5.955 2.236 8.09.676 3.137-2.275 43.493-9.1 43.493-9.1s11.182 3.192 15.784-2.13a1.634 1.634 0 0 0 .372-1.436 1.626 1.626 0 0 0-.948-1.141z" fill="url(#paint3_linear)"/><path d="M179.595 122.77c11.052 0 20.011-8.958 20.011-20.007 0-11.05-8.959-20.006-20.011-20.006-11.051 0-20.01 8.957-20.01 20.006s8.959 20.007 20.01 20.007z" fill="#FFC533"/><path d="M194.602 122.585s-7.039 10.744-5.189 14.076l-18.154-4.472s4.82-5.188 3.707-17.782l19.636 8.178z" fill="#FDB797"/><path opacity=".1" d="M174.591 115.178l19.636 8.151s-.889 1.352-1.946 3.247c-1.917.772-4.568.274-6.759.274-4.473 0-7.744-1.179-10.746-4.075.279-2.225.067-4.528-.185-7.597z" fill="#000"/><path d="M186.45 127.029c9.208 0 16.672-7.463 16.672-16.669s-7.464-16.67-16.672-16.67-16.673 7.464-16.673 16.67c0 9.206 7.465 16.669 16.673 16.669z" fill="#FDB797"/><path d="M159.585 98.32c5.117 0 9.265-4.148 9.265-9.263 0-5.116-4.148-9.263-9.265-9.263a9.264 9.264 0 1 0 0 18.525z" fill="#FFC533"/><path opacity=".1" d="M198.292 101.422c-4.171-.073-8.912-.912-12.038 1.844-2.236 1.979-2.84 5.177-3.6 8.072-1.118 4.349-3.679 9.129-8.13 9.777-2.717.397-5.451-.956-7.38-2.912-1.929-1.957-3.175-4.472-4.355-6.937-1.18-2.466-2.332-5.031-2.237-7.765.118-3.248 2.013-6.149 3.948-8.748a36.388 36.388 0 0 1 3.885-4.584 21.812 21.812 0 0 1 25.286-3.593 21.806 21.806 0 0 1 6.947 5.767c3.472 4.21 5.199 9.207-2.326 9.079z" fill="#000"/><path d="M197.923 101.053c-4.171-.073-8.912-.912-12.038 1.844-2.236 1.979-2.84 5.177-3.6 8.072-1.119 4.349-3.679 9.129-8.13 9.777-2.717.397-5.451-.956-7.38-2.912-1.929-1.957-3.176-4.472-4.355-6.937-1.18-2.466-2.332-5.031-2.237-7.765.118-3.248 2.013-6.149 3.948-8.748a36.388 36.388 0 0 1 3.885-4.584 21.803 21.803 0 0 1 16.598-6.053 21.804 21.804 0 0 1 15.635 8.228c3.466 4.209 5.199 9.206-2.326 9.078z" fill="#FFC533"/><path d="M233.879 355.609s17.785 11.857 28.9 8.151c0 0 5.189 1.481-2.963 6.668 0 0-33.351 8.894-37.795 5.926l1.118-19.263 10.74-1.482zm-83.743.001s7.039 15.931 18.898 15.931c0 0 7.783 8.15-6.67 7.038 0 0-18.154-1.118-31.494-8.519l6.379-16.625 12.887 2.175z" fill="#333"/><path d="M209.424 221.5s12.227 43.345 11.115 52.233c0 0 5.926 14.075 3.707 21.857 0 0 8.151 58.532 13.34 61.49 0 0-15.096 6.831-15.56 6.668-5.189-1.85.369 0 .369 0s-.369-5.925-2.594-8.519c0 0-13.341-36.307-12.597-54.826l-17.785-42.976 20.005-35.927z" fill="#3AD29F"/><path opacity=".1" d="M209.424 221.5s12.227 43.345 11.115 52.233c0 0 5.926 14.075 3.707 21.857 0 0 8.151 58.532 13.34 61.49 0 0-15.096 6.831-15.56 6.668-5.189-1.85.369 0 .369 0s-.369-5.925-2.594-8.519c0 0-13.341-36.307-12.597-54.826l-17.785-42.976 20.005-35.927z" fill="#000"/><path d="M211.649 219.275l-8.152 19.263s-6.301 31.489-12.971 40.008l-5.188 13.338-8.521 11.113s-26.681 42.232-24.824 54.826c0 0-16.673 4.472-16.304-1.118 0 0 4.076-7.781 4.076-11.856 0 0 12.597-44.083 21.123-48.901 0 0 7-12.483 6.933-19.504a39.677 39.677 0 0 1 .559-6.708c1.247-7.748 3.321-22.572 1.42-25.283-2.594-3.707-7.039-20.745 5.558-32.232l36.291 7.054z" fill="#3AD29F"/><path opacity=".1" d="M135.706 356.716s4.076-7.781 4.076-11.856c0 0 12.596-44.083 21.123-48.901 0 0 7-12.483 6.933-19.504a39.677 39.677 0 0 1 .559-6.708c1.247-7.747 3.321-22.572 1.42-25.283-2.594-3.706-7.039-20.745 5.557-32.232l2.147.419c-12.082 11.482-7.71 28.185-5.149 31.818 2.561 3.634-2.236 30.007-2.236 30.007 1.85 6.3-6.671 21.488-6.671 21.488-8.52 4.819-21.123 48.902-21.123 48.902 0 4.075-4.075 11.856-4.075 11.856-.123 1.833 1.615 2.577 3.997 2.75-3.572.207-6.743-.296-6.558-2.756z" fill="#000"/><path opacity=".1" d="M172.014 131.272l13.771 3.388c3.844.95 7.39 2.843 10.319 5.507a23.84 23.84 0 0 1 6.454 9.753 33.56 33.56 0 0 0 2.846 6.395 13.439 13.439 0 0 1 1.99 5.104c.559 3.628.515 9.503-3.287 16.166 0 0 6.267 47.051 22.543 57.795 0 0-15.884 3.656-29.806-.866-9.332-3.03-19.569-1.756-27.564 3.969l-.347.251a15.288 15.288 0 0 1-13.099 2.521c-2.919-.81-6.357-1.235-9.561-.307 0 0 14.643-36.553 15.655-38.901 3.41-7.932 9.001-23.405 5.088-32.204-5.44-12.248-7.431-30.398 4.998-38.571z" fill="#000"/><path d="M172.014 130.551l13.771 3.388a23.827 23.827 0 0 1 16.773 15.26 33.56 33.56 0 0 0 2.846 6.395 13.439 13.439 0 0 1 1.99 5.104c.559 3.628.515 9.503-3.287 16.166 0 0 6.267 47.051 22.543 57.795 0 0-15.884 3.656-29.806-.867-9.332-3.029-19.569-1.755-27.564 3.969l-.347.252a15.286 15.286 0 0 1-13.099 2.504c-2.919-.81-6.357-1.235-9.561-.307 0 0 14.643-36.553 15.655-38.901 3.41-7.938 9.001-23.411 5.088-32.232-5.44-12.225-7.431-29.632 4.998-38.526z" fill="#535461"/><path opacity=".1" d="M187.009 164.253s14.453 20.745 21.123 24.451l3.707 1.85s-23.348-26.301-24.83-26.301z" fill="#000"/><path d="M200.528 153.705s-9.505-3.74-13.581 8.659a2.97 2.97 0 0 0 .638 2.946l22.207 23.964s6.301 3.706 9.265 1.481c2.963-2.225 41.127-8.893 41.127-8.893s10.523 3.091 14.878-2.03a1.635 1.635 0 0 0 .371-1.377 1.632 1.632 0 0 0-.846-1.149c-2.298-1.157-6.502-1.118-11.026-1.504a17.898 17.898 0 0 0-4.685.212c-9.672 1.717-45.455 7.049-50.565-6.378-5.927-15.562-7.783-15.931-7.783-15.931z" fill="#FDB797"/><path opacity=".1" d="M200.718 153.889s-11.484-1.85-14.078 9.632v-.744s3.332-12.594 14.078-8.888z" fill="#000"/><path d="M274.889 353.195s-8.811-29.907 1.677-51.92a47.228 47.228 0 0 0 3.819-29.627 79.395 79.395 0 0 0-4.199-13.908" stroke="#535461" stroke-width="2" stroke-miterlimit="10"/><path d="M282.677 243.815c0 3.667-6.636 14.294-6.636 14.294s-6.637-10.621-6.637-14.294a6.631 6.631 0 0 1 1.945-4.693 6.632 6.632 0 0 1 9.389 0 6.635 6.635 0 0 1 1.945 4.693h-.006zm10.97 20.303c-1.991 3.075-13.34 8.385-13.34 8.385s.207-12.527 2.197-15.607a6.622 6.622 0 0 1 4.184-2.882 6.64 6.64 0 0 1 7.879 5.103 6.636 6.636 0 0 1-.92 4.996v.005zm-.481 34.697c-3.271 1.677-15.755.509-15.755.509s6.502-10.711 9.778-12.365a6.64 6.64 0 0 1 7.321.897 6.637 6.637 0 0 1-1.344 10.954v.005zm-6.273 26.172c-2.946 2.18-15.442 3.164-15.442 3.164s4.601-11.655 7.548-13.835a6.637 6.637 0 0 1 7.894 10.671zm-20.524-51.763c2.627 2.555 14.883 5.199 14.883 5.199s-3.002-12.17-5.63-14.719a6.64 6.64 0 0 0-10.979 2.188 6.628 6.628 0 0 0 1.726 7.315v.017zm-6.95 30.695c3.27 1.677 15.755.509 15.755.509s-6.508-10.711-9.756-12.36a6.639 6.639 0 0 0-9.292 8.003 6.634 6.634 0 0 0 3.315 3.848h-.022zm-2.662 30.767c2.947 2.18 15.443 3.164 15.443 3.164s-4.601-11.655-7.548-13.835a6.636 6.636 0 0 0-9.284 1.389 6.633 6.633 0 0 0 1.389 9.282z" fill="#91CF66"/><path opacity=".5" d="M282.677 243.815c0 3.667-6.636 14.294-6.636 14.294s-6.637-10.621-6.637-14.294a6.631 6.631 0 0 1 1.945-4.693 6.632 6.632 0 0 1 9.389 0 6.635 6.635 0 0 1 1.945 4.693h-.006zm10.97 20.303c-1.991 3.075-13.34 8.385-13.34 8.385s.207-12.527 2.197-15.607a6.622 6.622 0 0 1 4.184-2.882 6.64 6.64 0 0 1 7.879 5.103 6.636 6.636 0 0 1-.92 4.996v.005zm-.481 34.697c-3.271 1.677-15.755.509-15.755.509s6.502-10.711 9.778-12.365a6.64 6.64 0 0 1 7.321.897 6.637 6.637 0 0 1-1.344 10.954v.005zm-6.273 26.172c-2.946 2.18-15.442 3.164-15.442 3.164s4.601-11.655 7.548-13.835a6.637 6.637 0 0 1 7.894 10.671zm-20.524-51.763c2.627 2.555 14.883 5.199 14.883 5.199s-3.002-12.17-5.63-14.719a6.64 6.64 0 0 0-10.979 2.188 6.628 6.628 0 0 0 1.726 7.315v.017zm-6.95 30.695c3.27 1.677 15.755.509 15.755.509s-6.508-10.711-9.756-12.36a6.639 6.639 0 0 0-9.292 8.003 6.634 6.634 0 0 0 3.315 3.848h-.022zm-2.662 30.767c2.947 2.18 15.443 3.164 15.443 3.164s-4.601-11.655-7.548-13.835a6.636 6.636 0 0 0-9.284 1.389 6.633 6.633 0 0 0 1.389 9.282zm64.498-198.566a41.115 41.115 0 0 1-25.388 37.99 41.132 41.132 0 0 1-56.077-29.968A41.12 41.12 0 0 1 280.128 95a41.13 41.13 0 0 1 29.081 12.044 41.114 41.114 0 0 1 12.046 29.076z" fill="#fff"/><g clip-path="url(#clip0)"><path d="M256 141.864L263.602 117l17.213 5.263-1.086 3.552 2.869.877-3.258 10.656-2.869-.877-1.086 3.552-11.475-3.509-2.172 7.104-5.738-1.754zm8.996-8.902l8.606 2.632 3.258-10.656-8.607-2.632-3.257 10.656zm19.693 17.673l1.086-3.552-2.869-.877 1.086-3.552-2.869-.877 3.258-10.656 2.869.877 1.086-3.552 2.869.877 1.086-3.552 11.475 3.509-1.086 3.552 2.869.877-1.086 3.552-5.737-1.755 1.085-3.552-5.737-1.754-1.086 3.552-2.869-.877-3.258 10.656 2.869.877-1.086 3.552 5.738 1.754 1.086-3.552 5.738 1.755-1.086 3.552-2.869-.877-1.086 3.552-11.476-3.509z" fill="#91CF66"/></g><defs><linearGradient id="paint0_linear" x1="356.104" y1="380.133" x2="356.104" y2="70.168" gradientUnits="userSpaceOnUse"><stop stop-color="gray" stop-opacity=".25"/><stop offset=".54" stop-color="gray" stop-opacity=".12"/><stop offset="1" stop-color="gray" stop-opacity=".1"/></linearGradient><linearGradient id="paint1_linear" x1="292.44" y1="436.776" x2="292.44" y2="436.761" gradientUnits="userSpaceOnUse"><stop stop-color="gray" stop-opacity=".25"/><stop offset=".54" stop-color="gray" stop-opacity=".12"/><stop offset="1" stop-color="gray" stop-opacity=".1"/></linearGradient><linearGradient id="paint2_linear" x1="1547.43" y1="1010.92" x2="1547.43" y2="1009.56" gradientUnits="userSpaceOnUse"><stop stop-color="gray" stop-opacity=".25"/><stop offset=".54" stop-color="gray" stop-opacity=".12"/><stop offset="1" stop-color="gray" stop-opacity=".1"/></linearGradient><linearGradient id="paint3_linear" x1="73361.6" y1="229418" x2="73361.6" y2="61884" gradientUnits="userSpaceOnUse"><stop stop-color="gray" stop-opacity=".25"/><stop offset=".54" stop-color="gray" stop-opacity=".12"/><stop offset="1" stop-color="gray" stop-opacity=".1"/></linearGradient><clipPath id="clip0"><path fill="#fff" transform="rotate(17 -259.632 940.401)" d="M0 0h45v26H0z"/></clipPath></defs></svg>