<svg width="131" height="100" fill="none" xmlns="http://www.w3.org/2000/svg"><path d="M123.641 12.5H44.293v5.978h79.076c.816 0 1.359.816 1.359 1.63v51.36H44.293v11.956h26.63v8.696h-3.532a7.306 7.306 0 0 0-7.337 7.337V100h37.772v-.543a7.306 7.306 0 0 0-7.337-7.337h-3.533v-8.696h37.229c3.804 0 6.793-2.99 6.793-6.794V19.565c-.543-4.076-3.533-7.065-7.337-7.065zM78.804 74.457c1.63 0 2.99 1.358 2.99 2.989 0 1.63-1.36 2.989-2.99 2.989-1.63 0-2.989-1.359-2.989-2.99 0-1.901 1.359-2.988 2.99-2.988zM32.88 0H5.707C2.717 0 0 2.717 0 5.978v85.598c0 3.261 2.717 5.978 5.978 5.978h27.174c3.261 0 5.978-2.717 5.978-5.978V5.978C38.86 2.718 36.141 0 32.88 0zM5.707 28.804c-1.087 0-1.903-.815-1.903-1.902v-2.174c0-1.087.816-1.902 1.903-1.902h27.445c1.087 0 1.902.815 1.902 1.902v2.174c0 1.087-.815 1.902-1.902 1.902H5.707zm6.25 48.37c-3.261 0-5.707-2.446-5.707-5.707 0-3.26 2.446-5.706 5.707-5.706 2.989 0 5.706 2.446 5.706 5.706 0 2.99-2.446 5.707-5.707 5.707zm22.826-64.402v2.174c0 1.087-.816 1.902-1.903 1.902H5.707c-1.087 0-1.903-.815-1.903-1.902v-2.174c0-1.087.816-1.902 1.903-1.902H32.88c1.087 0 1.903.815 1.903 1.63v.272z" fill="#000"/></svg>