<svg width="426" height="521" viewBox="0 0 426 521" version="1.1" xmlns="http://www.w3.org/2000/svg" xmlns:xlink="http://www.w3.org/1999/xlink">
<title>Vector</title>
<desc>Created using Figma</desc>
<g id="Canvas" transform="translate(86 547)">
<g id="Vector">
<use xlink:href="#path0_fill" transform="translate(-86 -546.918)"/>
</g>
</g>
<defs>
<path id="path0_fill" d="M 401.012 295.666C 388.036 264.127 370.117 233.567 347.461 204.965C 320.068 170.163 292.778 146.89 278.875 136.123L 333.5 29.9793C 336.075 24.8679 344 10.9184 337 4.41826C 316.676 -14.4545 285 33.242 210 33.242C 135 33.242 108 -13.0816 87 4.41826C 78 11.9182 81.3076 24.8679 84.5 29.9793L 145.719 136.885C 131.714 147.869 104.939 170.925 78.0603 204.965C 55.5073 233.567 37.4854 264.127 24.5097 295.666C 8.23856 335.361 0 376.797 0 418.776C 0 474.567 43.0465 520.026 95.8762 520.026L 329.645 520.026C 382.475 520.026 425.522 474.567 425.522 418.776C 425.522 376.797 417.283 335.361 401.012 295.666ZM 111 29.9793C 145.719 50.918 185 56.918 210 56.918C 244.794 56.918 268 53.918 307 29.9793L 258.217 121.684C 256.48 124.948 253.085 126.988 249.388 126.988L 172.223 126.988C 168.634 126.988 165.32 125.065 163.54 121.948L 111 29.9793ZM 329.645 493.925L 95.8762 493.925C 56.6401 493.925 24.7157 460.211 24.7157 418.776C 24.7157 349.065 48.9164 282.942 96.4941 222.257C 124.144 186.958 152.229 163.979 163.777 155.097C 165.494 153.777 167.59 153.089 169.756 153.089L 255.631 153.089C 257.753 153.089 259.809 153.747 261.5 155.029C 273.078 163.808 301.124 186.897 328.821 222.257C 376.502 282.942 400.6 348.956 400.6 418.776C 400.806 460.211 368.881 493.925 329.645 493.925Z"/>
</defs>
</svg>
