<svg width="201" height="196" viewBox="0 0 201 196" version="1.1" xmlns="http://www.w3.org/2000/svg" xmlns:xlink="http://www.w3.org/1999/xlink">
<title>Vector</title>
<desc>Created using Figma</desc>
<g id="Canvas" transform="translate(-26 308)">
<g id="Vector">
<use xlink:href="#path0_fill" transform="translate(26 -308)"/>
</g>
</g>
<defs>
<path id="path0_fill" d="M 100.498 -1.26295e-06C 45.0415 -1.26295e-06 0.00159278 44.0086 0.00159278 97.9985C 0.268534 101.729 3.73877 104.853 7.5681 104.853C 11.3053 104.853 14.8677 101.726 15.0456 97.9985C 15.0456 51.9053 53.2341 14.7543 100.502 14.7543C 132.28 14.7543 161.119 31.8538 175.897 58.8487L 148.214 58.8487C 144.207 58.7629 140.559 62.2331 140.559 66.1385C 140.559 70.044 144.207 73.6061 148.214 73.5172L 193.432 73.5172C 197.347 73.5172 200.999 70.044 200.999 66.1385L 200.999 22.0472C 201.084 18.1417 197.35 14.4968 193.343 14.5827C 189.428 14.5827 185.866 18.2276 185.866 22.0472L 185.866 46.3537C 167.793 17.8812 135.658 -1.26295e-06 100.498 -1.26295e-06ZM 193.34 91.1409C 189.6 91.1409 186.129 94.3505 185.862 97.9985C 185.862 144.089 147.763 181.331 100.498 181.331C 68.6308 181.331 39.7885 164.143 25.1036 137.234L 52.786 137.234C 56.7043 137.234 60.4415 133.761 60.4415 129.858C 60.4415 125.95 56.7043 122.477 52.786 122.477L 7.5681 122.477C 3.56081 122.477 0.00159278 126.039 0.00159278 129.858L 0.00159278 173.95C -0.0873875 177.858 3.56081 181.506 7.65708 181.417C 11.5722 181.417 15.1346 177.861 15.0456 173.95L 15.0456 149.646C 33.204 178.116 65.3386 196 100.498 196C 155.866 196 200.995 152.077 200.995 97.9985C 200.728 94.2647 197.166 91.0551 193.34 91.1409Z"/>
</defs>
</svg>
