<svg width="424" height="265" viewBox="0 0 424 265" version="1.1" xmlns="http://www.w3.org/2000/svg" xmlns:xlink="http://www.w3.org/1999/xlink">
<title>Group</title>
<desc>Created using Figma</desc>
<g id="Canvas" transform="translate(85 795)">
<g id="Group">
<g id="Vector">
<use xlink:href="#path0_fill" transform="translate(105.697 -791.16)" fill="#219653"/>
</g>
<g id="Vector">
<use xlink:href="#path1_fill" transform="translate(-85 -795)" fill="#219653"/>
</g>
</g>
</g>
<defs>
<path id="path0_fill" d="M 228.294 12.2862C 225.137 10.936 220.096 8.12947 214.088 6.4396C 208.08 4.65207 199.963 1.67993 191.684 0.932646C 183.32 0.0112831 173.866 -0.260453 163.534 0.266039C 153.447 1.13221 143.207 3.39103 132.227 6.3844C 121.258 9.36927 111.224 14.337 100.505 19.7718C 90.0436 25.3933 80.5085 32.4076 70.9613 40.046C 61.9377 47.9349 53.377 56.6687 45.5493 65.9545C 38.249 75.4951 30.993 85.3116 25.404 95.7863C 19.6419 106.189 14.6731 116.901 11.0773 127.856C 3.3864 149.544 0.322137 171.86 6.88145e-06 191.735C 0.0281933 201.819 0.591914 211.177 1.77574 219.775C 2.81059 228.322 4.84002 236.211 6.40638 242.589C 7.03856 245.582 7.92843 248.444 8.80624 250.974C 10.3484 247.561 12.0235 243.96 13.8919 240.02C 23.1733 220.608 36.7028 195.327 52.5234 171.652C 60.4035 159.798 69.0487 148.525 77.4764 138.335C 81.942 133.439 86.2585 128.73 90.3335 124.264C 94.7144 120.115 98.8498 116.184 102.639 112.566C 106.75 109.31 110.495 106.346 113.829 103.705C 117.026 100.907 120.372 99.2807 122.881 97.5993C 127.995 94.4064 130.914 92.5849 130.914 92.5849C 130.914 92.5849 128.131 94.6569 123.279 98.2404C 120.92 100.143 117.751 101.99 114.775 105.025C 111.691 107.896 108.216 111.127 104.415 114.651C 100.932 118.54 97.1667 122.714 93.1843 127.147C 89.5201 131.855 85.6465 136.823 81.6521 141.969C 74.1142 152.677 66.5361 164.358 59.715 176.594C 45.9801 200.957 34.6572 226.726 27.0388 246.338C 24.8967 251.862 23.0927 256.8 21.5425 261.16C 24.8041 260.243 28.9475 259.271 33.417 257.53C 39.0865 255.454 46.4069 253.314 53.5019 250.261C 60.7659 247.331 68.5091 243.871 76.3208 239.931C 84.2573 236.05 91.9884 231.49 99.9088 226.692C 107.821 221.915 115.315 216.451 122.76 210.829C 129.992 204.987 137.171 199.085 143.686 192.551C 150.125 185.834 156.628 179.533 162.249 172.251C 173.81 158.286 183.659 143.349 191.684 127.584C 195.859 120.158 199.33 111.513 202.733 103.701C 206.176 95.9476 209.099 87.3454 212.01 79.4565C 214.946 71.712 217.66 63.8655 220.055 56.2229C 222.661 48.351 224.936 41.4896 226.824 35.851C 229.003 30.2422 230.364 24.3786 231.592 20.9266C 232.723 17.0289 233.303 14.9696 233.303 14.9696C 233.303 14.9696 231.547 13.8487 228.294 12.2862Z"/>
<path id="path1_fill" d="M 162.796 190.633C 151.554 182.319 140.875 173.199 131.207 164.304C 126.577 159.625 122.107 155.061 117.863 150.764C 113.921 146.144 110.217 141.784 106.758 137.788C 103.677 133.47 100.875 129.488 98.3582 125.989C 95.7047 122.613 94.1826 119.089 92.576 116.444C 89.5399 111.065 87.8165 107.974 87.8165 107.974C 87.8165 107.974 89.7815 110.907 93.1961 116.024C 94.9718 118.508 96.7355 121.845 99.6306 124.983C 102.353 128.248 105.413 131.912 108.759 135.92C 112.439 139.58 116.406 143.563 120.609 147.745C 125.067 151.609 129.794 155.693 134.666 159.905C 144.809 167.824 155.899 175.844 167.495 183.037C 172.295 186.06 177.159 188.718 182.007 191.448C 183.61 164.104 188.933 137.075 196.902 112.457C 192.336 106.233 187.705 100.106 182.611 94.497C 176.245 87.695 170.294 80.8379 163.364 74.9191C 150.113 62.7291 135.963 52.3478 121.016 43.873C 113.973 39.47 105.763 35.81 98.3542 32.2265C 91.0176 28.5962 82.8677 25.5009 75.3822 22.4481C 68.0296 19.3656 60.5964 16.5123 53.3405 13.986C 45.8791 11.2177 39.3882 8.81875 34.0207 6.82742C 28.7015 4.54312 23.1286 3.09527 19.8671 1.80026C 16.1867 0.624145 14.2257 -2.39714e-06 14.2257 -2.39714e-06C 14.2257 -2.39714e-06 13.1345 1.87245 11.6407 5.2989C 10.3723 8.6192 7.70663 13.9436 6.09598 20.2785C 4.40882 26.5921 1.58212 35.1561 0.893571 43.89C 0.00368493 52.7172 -0.249993 62.6993 0.261389 73.5901C 1.05866 84.2176 3.1968 94.998 6.04363 106.594C 8.89449 118.151 13.5936 128.744 18.7396 140.056C 24.0789 151.057 30.7229 161.111 37.9909 171.195C 45.4684 180.727 53.7512 189.75 62.5534 198.017C 71.5851 205.689 80.9148 213.344 90.8646 219.259C 100.71 225.335 110.873 230.578 121.258 234.357C 141.818 242.48 162.982 245.707 181.846 246.055C 182.652 246.055 183.34 245.966 184.105 245.94C 182.088 232.005 181.355 217.781 181.605 203.498C 175.343 199.35 169.054 195.282 162.796 190.633Z"/>
</defs>
</svg>
