<svg width="200" height="300" viewBox="0 0 426 769" version="1.1" xmlns="http://www.w3.org/2000/svg" xmlns:xlink="http://www.w3.org/1999/xlink">
<g id="Canvas" transform="translate(-1 416)">
<g id="Logo Polycarbone">
<g id="Vector">
<use xlink:href="#arrow" transform="translate(113 71)" fill="#219653"/>
</g>
<g id="Vector">
<use xlink:href="#bag" transform="translate(1 -169.386)"/>
</g>
<g id="Vector">
<use xlink:href="#leaf1" transform="translate(192.697 -412.16)" fill="#219653"/>
</g>
<g id="Vector">
<use xlink:href="#leaf2" transform="translate(2 -416)" fill="#219653"/>
</g>
</g>
</g>
<defs>
<path class="arrow" id="arrow" d="M 100.498 -1.26295e-06C 45.0415 -1.26295e-06 0.00159278 44.0086 0.00159278 97.9985C 0.268534 101.729 3.73877 104.853 7.5681 104.853C 11.3053 104.853 14.8677 101.726 15.0456 97.9985C 15.0456 51.9053 53.2341 14.7543 100.502 14.7543C 132.28 14.7543 161.119 31.8538 175.897 58.8487L 148.214 58.8487C 144.207 58.7629 140.559 62.2331 140.559 66.1385C 140.559 70.044 144.207 73.6061 148.214 73.5172L 193.432 73.5172C 197.347 73.5172 200.999 70.044 200.999 66.1385L 200.999 22.0472C 201.084 18.1417 197.35 14.4968 193.343 14.5827C 189.428 14.5827 185.866 18.2276 185.866 22.0472L 185.866 46.3537C 167.793 17.8812 135.658 -1.26295e-06 100.498 -1.26295e-06ZM 193.34 91.1409C 189.6 91.1409 186.129 94.3505 185.862 97.9985C 185.862 144.089 147.763 181.331 100.498 181.331C 68.6308 181.331 39.7885 164.143 25.1036 137.234L 52.786 137.234C 56.7043 137.234 60.4415 133.761 60.4415 129.858C 60.4415 125.95 56.7043 122.477 52.786 122.477L 7.5681 122.477C 3.56081 122.477 0.00159278 126.039 0.00159278 129.858L 0.00159278 173.95C -0.0873875 177.858 3.56081 181.506 7.65708 181.417C 11.5722 181.417 15.1346 177.861 15.0456 173.95L 15.0456 149.646C 33.204 178.116 65.3386 196 100.498 196C 155.866 196 200.995 152.077 200.995 97.9985C 200.728 94.2647 197.166 91.0551 193.34 91.1409Z"/>
<path id="bag" d="M 401.012 297.134C 388.036 265.595 370.117 235.035 347.461 206.433C 320.068 171.631 292.778 148.358 278.875 137.591L 333.5 31.4472C 336.075 26.3357 345.484 18.4745 337 5.88609C 321.5 -17.1138 285 34.7098 210 34.7098C 135 34.7098 106.258 -14.9947 87 5.88609C 75.9809 16.2696 81.3076 26.3357 84.5 31.4472L 145.719 138.352C 131.714 149.337 104.939 172.393 78.0603 206.433C 55.5073 235.035 37.4854 265.595 24.5097 297.134C 8.23856 336.829 0 378.265 0 420.244C 0 476.035 43.0465 521.494 95.8762 521.494L 329.645 521.494C 382.475 521.494 425.522 476.035 425.522 420.244C 425.522 378.265 417.283 336.829 401.012 297.134ZM 111 31.4472C 145.719 52.3859 185 58.3859 210 58.3859C 244.794 58.3859 268 55.3858 307 31.4472L 258.217 123.152C 256.48 126.416 253.085 128.456 249.388 128.456L 172.223 128.456C 168.634 128.456 165.32 126.533 163.54 123.416L 111 31.4472ZM 329.645 495.393L 95.8762 495.393C 56.6401 495.393 24.7157 461.679 24.7157 420.244C 24.7157 350.532 48.9164 284.409 96.4941 223.725C 124.144 188.425 152.229 165.447 163.777 156.565C 165.494 155.244 167.59 154.557 169.756 154.557L 255.631 154.557C 257.753 154.557 259.809 155.215 261.5 156.497C 273.078 165.276 301.124 188.365 328.821 223.725C 376.502 284.409 400.6 350.424 400.6 420.244C 400.806 461.679 368.881 495.393 329.645 495.393Z"/>
<path id="leaf1" d="M 228.294 12.2862C 225.137 10.936 220.096 8.12947 214.088 6.4396C 208.08 4.65207 199.963 1.67993 191.684 0.932646C 183.32 0.0112831 173.866 -0.260453 163.534 0.266039C 153.447 1.13221 143.207 3.39103 132.227 6.3844C 121.258 9.36927 111.224 14.337 100.505 19.7718C 90.0436 25.3933 80.5085 32.4076 70.9614 40.046C 61.9377 47.9349 53.377 56.6687 45.5493 65.9545C 38.249 75.4951 30.993 85.3116 25.404 95.7863C 19.6419 106.189 14.6731 116.901 11.0773 127.856C 3.3864 149.544 0.322137 171.86 6.88145e-06 191.735C 0.0281933 201.819 0.591914 211.177 1.77574 219.775C 2.81059 228.322 4.84002 236.211 6.40638 242.589C 7.03856 245.582 7.92843 248.444 8.80624 250.974C 10.3484 247.561 12.0235 243.96 13.8919 240.02C 23.1733 220.608 36.7028 195.327 52.5234 171.652C 60.4035 159.798 69.0487 148.525 77.4764 138.335C 81.942 133.439 86.2585 128.73 90.3335 124.264C 94.7144 120.115 98.8498 116.184 102.639 112.566C 106.75 109.31 110.495 106.346 113.829 103.705C 117.026 100.907 120.372 99.2807 122.881 97.5993C 127.995 94.4064 130.914 92.5849 130.914 92.5849C 130.914 92.5849 128.131 94.6569 123.279 98.2404C 120.92 100.143 117.751 101.99 114.775 105.025C 111.691 107.896 108.216 111.127 104.415 114.651C 100.932 118.54 97.1667 122.714 93.1843 127.147C 89.5201 131.855 85.6465 136.823 81.6521 141.969C 74.1142 152.677 66.5361 164.358 59.715 176.594C 45.9801 200.957 34.6572 226.726 27.0388 246.338C 24.8967 251.862 23.0927 256.8 21.5425 261.16C 24.8041 260.243 28.9475 259.271 33.417 257.53C 39.0865 255.454 46.4069 253.314 53.5019 250.261C 60.7659 247.331 68.5091 243.871 76.3208 239.931C 84.2573 236.05 91.9884 231.49 99.9088 226.692C 107.821 221.915 115.315 216.451 122.76 210.829C 129.992 204.987 137.171 199.085 143.686 192.551C 150.125 185.834 156.628 179.533 162.249 172.251C 173.81 158.286 183.659 143.349 191.684 127.584C 195.859 120.158 199.33 111.513 202.733 103.701C 206.176 95.9476 209.099 87.3454 212.01 79.4565C 214.946 71.712 217.66 63.8655 220.055 56.2229C 222.661 48.351 224.936 41.4896 226.824 35.851C 229.003 30.2422 230.364 24.3786 231.592 20.9266C 232.723 17.0289 233.303 14.9696 233.303 14.9696C 233.303 14.9696 231.547 13.8487 228.294 12.2862Z"/>
<path id="leaf2" d="M 162.796 190.633C 151.554 182.319 140.875 173.199 131.207 164.304C 126.577 159.625 122.107 155.061 117.863 150.764C 113.921 146.144 110.217 141.784 106.758 137.788C 103.677 133.47 100.875 129.488 98.3582 125.989C 95.7047 122.613 94.1826 119.089 92.576 116.444C 89.5399 111.065 87.8165 107.974 87.8165 107.974C 87.8165 107.974 89.7815 110.907 93.1961 116.024C 94.9718 118.508 96.7355 121.845 99.6306 124.983C 102.353 128.248 105.413 131.912 108.759 135.92C 112.439 139.58 116.406 143.563 120.609 147.745C 125.067 151.609 129.794 155.693 134.666 159.905C 144.809 167.824 155.899 175.844 167.495 183.037C 172.295 186.06 177.159 188.718 182.007 191.448C 183.61 164.104 188.933 137.075 196.902 112.457C 192.336 106.233 187.705 100.106 182.611 94.497C 176.245 87.695 170.294 80.8379 163.364 74.9191C 150.113 62.7291 135.963 52.3478 121.016 43.873C 113.973 39.47 105.763 35.81 98.3542 32.2265C 91.0176 28.5962 82.8677 25.5009 75.3822 22.4481C 68.0296 19.3656 60.5964 16.5123 53.3405 13.986C 45.8791 11.2177 39.3882 8.81875 34.0207 6.82742C 28.7015 4.54312 23.1286 3.09527 19.8671 1.80026C 16.1867 0.624145 14.2257 -2.39714e-06 14.2257 -2.39714e-06C 14.2257 -2.39714e-06 13.1345 1.87245 11.6407 5.2989C 10.3723 8.6192 7.70663 13.9436 6.09598 20.2785C 4.40882 26.5921 1.58212 35.1561 0.893571 43.89C 0.00368493 52.7172 -0.249993 62.6993 0.261389 73.5901C 1.05866 84.2176 3.1968 94.998 6.04363 106.594C 8.89449 118.151 13.5936 128.744 18.7396 140.056C 24.0789 151.057 30.7229 161.111 37.9909 171.195C 45.4684 180.727 53.7512 189.75 62.5534 198.017C 71.5851 205.689 80.9148 213.344 90.8646 219.259C 100.71 225.335 110.873 230.578 121.258 234.357C 141.818 242.48 162.982 245.707 181.846 246.055C 182.652 246.055 183.34 245.966 184.105 245.94C 182.088 232.005 181.355 217.781 181.605 203.498C 175.343 199.35 169.054 195.282 162.796 190.633Z"/>
</defs>
</svg>
